<svg xmlns="http://www.w3.org/2000/svg" viewBox="0 0 242 440"><defs><clipPath><path d="m0 0h6600v4438h-6600v-4438"/></clipPath></defs><g transform="matrix(1.25,0,0,-1.25,-480.41506,461.01443)"><path d="m489.35 331.12c-.404.002-.845.001-1.32.031-.62.024-1.252.001-1.926-.028l-1.024-2.7 1.604 1.938c.38.047.752.056 1.123.066.304.03.631.012.95-.042.078.017.191.024.303.03l1.937-.212c.301-.127.575-.207.885-.298.308-.09.789-.231 1.362-.439l.472-.177c.159.191.319.381.47.534-.753.379-1.559.694-2.416.944-.352.063-.706.128-1.059.191-.396.037-.861.095-1.361.161" fill="#231f20"/><path d="m487.81 330.43c-.371-.011-.743-.02-1.123-.066l-1.604-1.938c.681-.516 1.355-.911 2.01-1.22 2.991-.285 5.071.489 6.151 2.264-.573.208-1.054.349-1.362.439-.31.091-.585.171-.885.298l-1.937.212c-.112-.006-.225-.013-.303-.03-.319.055-.646.072-.95.042" fill="#fff"/><path d="m493.72 329.29l-.472.177c-1.08-1.775-3.16-2.549-6.151-2.264 2.289-.868 4.496-.172 6.623 2.087" fill="#8a6252"/><path d="m487.81 330.43c-.019-.074-.047-.183-.059-.378.03-.601.228-1.132.599-1.557.406-.436.901-.659 1.463-.625.577-.051 1.04.169 1.41.613.399.396.632.881.662 1.425-.31.091-.585.171-.885.298.005-.279-.096-.524-.3-.742-.238-.206-.456-.34-.705-.307-.27-.039-.5.068-.728.332-.178.17-.258.431-.252.745-.016.083.003.157.047.183-.112-.006-.225-.013-.303-.03-.319.055-.646.072-.95.042" fill="#731e22"/><path d="m489.06 330.42c-.044-.026-.063-.101-.047-.183-.007-.314.074-.575.252-.745.228-.264.458-.37.728-.332.249-.033.467.101.705.307.203.218.305.463.3.742l-1.937.212" fill="#231f20"/><path d="m488.67 330.02c.006-.12.08-.261.174-.327.085-.104.178-.171.291-.164.113.006.232.05.331.14.061.1.089.211.084.329-.007.121-.014.242-.096.345-.095.065-.223.144-.337.136-.112-.005-.225-.012-.286-.113-.096-.089-.169-.225-.162-.346" fill="#fff"/><path d="m476.96 329.11l-.972 2.691c-.69.045-1.312.069-1.9.083-.482-.016-.931-.042-1.338-.041-.528-.044-.985-.107-1.368-.153-.381-.046-.729-.103-1.083-.196-.842-.267-1.653-.544-2.435-.868.134-.196.312-.366.489-.537l.488.173c.565.191 1.01.336 1.32.403.322.103.634.171.923.283l1.962.176c.113.007.181-.013.294-.007.338.02.641.048.926.006.403-.0001.776.009 1.162-.064l1.532-1.949" fill="#231f20"/><path d="m474.94 327.88c.671.317 1.327.717 2.01 1.228l-1.532 1.949c-.386.073-.759.063-1.162.064-.285.042-.587.014-.926-.006-.113-.006-.181.014-.294.007l-1.962-.176c-.289-.112-.601-.18-.923-.283-.313-.067-.755-.212-1.32-.403 1.085-1.818 3.132-2.616 6.107-2.38" fill="#fff"/><path d="m468.84 330.26l-.488-.173c2.103-2.312 4.282-3.03 6.595-2.207-2.975-.236-5.02.562-6.107 2.38" fill="#8a6252"/><path d="m474.42 331.15c.017-.083.057-.214.052-.37-.003-.592-.201-1.085-.652-1.547-.397-.397-.859-.618-1.402-.576-.596-.023-1.067.154-1.438.579-.414.396-.62.892-.627 1.447.288.113.6.179.887.292-.031-.267.084-.538.286-.755.201-.217.434-.325.659-.312.294-.007.545.118.782.324.16.19.261.437.241.798-.025.048-.016.085-.039.131.113.006.181-.014.284-.044.346.058.648.086.967.033" fill="#731e22"/><path d="m473.16 331.17c.024-.046.014-.083.039-.131.019-.361-.081-.607-.241-.798-.237-.207-.488-.331-.782-.324-.225-.013-.458.095-.659.312-.202.217-.317.488-.286.755l1.93.185" fill="#231f20"/><path d="m473.51 330.79c.007-.121-.022-.231-.119-.322-.063-.099-.184-.143-.297-.15-.113-.006-.24.07-.324.174-.094.068-.134.197-.141.319-.005.119.066.257.13.356.096.091.209.097.321.103.113.008.207-.061.298-.126.087-.103.127-.234.132-.354" fill="#fff"/></g></svg>