<svg xmlns="http://www.w3.org/2000/svg" viewBox="0 0 242 440"><defs><clipPath><path d="m0 0h6600v4438h-6600v-4438"/></clipPath></defs><g transform="matrix(1.25,0,0,-1.25,-480.41506,461.01443)"><path d="m459.58 363.61l.772-7.373c-2.88 1.437-5.629 1.648-8.224.592 2.625-.847 4.789-1.758 6.521-2.779-1.998-8.101-1.236-14.207 2.246-18.346l.352 8.742c3.18 3.768 5.429 8.242 6.729 13.467l1.469-5.365c4.946-5.04 10.571-9.02 16.797-11.946-6.698 5.554-9.834 10.894-9.462 15.958 6.401-6.572 13.904-11.139 22.562-13.792 4.604 9.353 3.076 17.657-4.536 24.979-5.149 1.075-11.811.852-20-.738-.927-.162-1.864-.361-2.801-.561-4.313-1.422-7.386-4.785-9.154-10.112l-3.27 7.275" fill="#4f4c4c"/><g fill="#231f20"><path d="m469.45 352.55l-1.469 5.365c-1.301-5.225-3.55-9.699-6.729-13.467l-.352-8.742 1.872-7.537c.017.35.042.738.067 1.127.009.035.019.072-.005.118l1.532 12.345c2.784 3.528 4.482 7.137 5.086 10.79"/><path d="m476.78 356.56c-.372-5.063 2.764-10.405 9.462-15.958 2.078-.965 4.254-1.836 6.455-2.601-3.873 2.596-7.27 6.197-10.209 10.728 5.05-4.203 9.993-6.952 14.839-8.213.73-.175 1.434-.302 2.174-.44 2.139-.587 3.348-1.335 3.622-2.285-.274.95-1.483 1.698-3.622 2.285-.74.138-1.444.265-2.174.44l.451-2.423.014-.082c.925.874 2.342.933 4.202.269-1.358-2.564-2.278-5.295-2.741-8.122l.823-4.426c.463 1.956 1.137 4.01 2.034 6.077.244.52.488 1.042.733 1.562 2.499 3.572 4 8.305 4.481 14.206.453 3.933.271 7.265-.561 10.07-1.606 5.408-5.622 8.754-11.957 10.1 7.612-7.322 9.14-15.627 4.536-24.979-8.658 2.653-16.16 7.22-22.562 13.792"/></g><path d="m486.24 340.6c-6.226 2.928-11.851 6.904-16.797 11.946-.603-3.653-2.302-7.263-5.086-10.79l-1.532-12.345c.024-.046.014-.083.005-.118-.024-.389-.05-.777-.067-1.127l3.689 11.831 5.771 6.839c7.7-7.27 15.12-12.01 22.19-14.236l5.659-6.869-.823 4.426-1.462 7.852-.014.082-.451 2.423c-4.845 1.261-9.787 4.01-14.839 8.213 2.938-4.532 6.335-8.132 10.209-10.728-2.201.765-4.378 1.637-6.455 2.601" fill="#cb7054"/><path d="m502 338.28c-1.86.664-3.278.605-4.202-.269l1.462-7.852c.463 2.827 1.383 5.558 2.741 8.122" fill="#4f4c4c"/><path d="m500.08 325.73l-5.659 6.869c-7.07 2.228-14.492 6.966-22.19 14.236l-5.771-6.839-3.689-11.831c-.007-2.051.117-4.02.335-5.902.793-5.997 2.948-11.131 6.549-15.382 10.574-6.412 20.566-.809 30.06 16.825z" fill="#f9b291"/><path d="m498.43 318.4c.544 1.697.995 3.459 1.282 5.31-9.491-17.634-19.483-23.24-30.06-16.824.397-.471.803-.905 1.243-1.35.415-.399.831-.797 1.221-1.147 4.681-4.056 9.5-4.401 14.466-.998.504.256 1.01.614 1.488.906 1.145.718 2.327 1.68 3.22 2.493 3.248 3.037 5.635 6.879 7.14 11.61" fill="#cb7054"/></g></svg>