<svg xmlns="http://www.w3.org/2000/svg" viewBox="0 0 242 440"><defs><clipPath><path d="m0 0h6600v4438h-6600v-4438"/></clipPath></defs><g transform="matrix(1.25,0,0,-1.25,-480.41506,461.01443)"><g stroke-width=".08"><path d="m490.1 303.74l-.433 1.688c-.419-.341-2.195-1.544-3.091-2.038-6.475-3.958-9.166-2.05-13.467.19.141-2.324-.131-4.525-.592-6.353l5.089-5.293 4.415 2.931-1.353 3.619 9.432 5.255" fill="#f9b291" stroke="#f9b291"/><path d="m459.58 363.61l.772-7.373c-2.88 1.437-5.629 1.648-8.224.592 2.625-.847 4.789-1.758 6.521-2.779-1.998-8.101-1.236-14.207 2.246-18.346l.352 8.742c3.18 3.768 5.429 8.242 6.729 13.467l1.469-5.365c4.946-5.04 10.571-9.02 16.797-11.946-6.698 5.554-9.834 10.894-9.462 15.958 6.401-6.572 13.904-11.139 22.562-13.792 4.604 9.353 3.076 17.657-4.536 24.979-5.149 1.075-11.811.852-20-.738-.927-.162-1.864-.361-2.801-.561-4.313-1.422-7.386-4.785-9.154-10.112l-3.27 7.275" fill="#4f4c4c" stroke="#4f4c4c"/><path d="m448.57 276.51l-3.239-11.73 3.273-29.819-1.743-1.866-5.588 11.388c.747-4.8 2.278-9.331 4.59-13.596.392-.724.818-1.485 1.283-2.21.319-.531.674-1.065 1.033-1.599l4.02 9.559c-.178.8-.32 1.639-.499 2.436-.389 1.83-.781 3.659-1.209 5.486-2.954 9.94-3.595 20.565-1.921 31.952" fill="#b98f1e" stroke="#b98f1e"/><path d="m445.33 264.78l3.239 11.73c-1.674-11.386-1.034-22.01 1.921-31.952.429-1.828.82-3.656 1.211-5.486.177-.798.319-1.636.497-2.436.179-.875.321-1.751.5-2.628l-8.329-40.03c3.273-1.334 6.369-1.676 9.253-.991l7.974 95.17-11.817-1.941c-2.029-4.915-4.02-10.36-5.98-16.378-3.31-10.09-6.443-21.784-9.431-34.999-3.88-6.856-6.372-14.891-7.511-24.11l10.856-2.591c4.342 4.99 7.05 12.569 8.151 22.738-2.312 4.265-3.843 8.796-4.59 13.596l5.588-11.388 1.743 1.866-3.273 29.819" fill="#eebb43" stroke="#eebb43"/><g fill="#231f20" stroke="#231f20"><path d="m469.45 352.55l-1.469 5.365c-1.301-5.225-3.55-9.699-6.729-13.467l-.352-8.742 1.872-7.537c.017.35.042.738.067 1.127.009.035.019.072-.005.118l1.532 12.345c2.784 3.528 4.482 7.137 5.086 10.79"/><path d="m476.78 356.56c-.372-5.063 2.764-10.405 9.462-15.958 2.078-.965 4.254-1.836 6.455-2.601-3.873 2.596-7.27 6.197-10.209 10.728 5.05-4.203 9.993-6.952 14.839-8.213.73-.175 1.434-.302 2.174-.44 2.139-.587 3.348-1.335 3.622-2.285-.274.95-1.483 1.698-3.622 2.285-.74.138-1.444.265-2.174.44l.451-2.423.014-.082c.925.874 2.342.933 4.202.269-1.358-2.564-2.278-5.295-2.741-8.122l.823-4.426c.463 1.956 1.137 4.01 2.034 6.077.244.52.488 1.042.733 1.562 2.499 3.572 4 8.305 4.481 14.206.453 3.933.271 7.265-.561 10.07-1.606 5.408-5.622 8.754-11.957 10.1 7.612-7.322 9.14-15.627 4.536-24.979-8.658 2.653-16.16 7.22-22.562 13.792"/></g><path d="m486.24 340.6c-6.226 2.928-11.851 6.904-16.797 11.946-.603-3.653-2.302-7.263-5.086-10.79l-1.532-12.345c.024-.046.014-.083.005-.118-.024-.389-.05-.777-.067-1.127l3.689 11.831 5.771 6.839c7.7-7.27 15.12-12.01 22.19-14.236l5.659-6.869-.823 4.426-1.462 7.852-.014.082-.451 2.423c-4.845 1.261-9.787 4.01-14.839 8.213 2.938-4.532 6.335-8.132 10.209-10.728-2.201.765-4.378 1.637-6.455 2.601" fill="#cb7054" stroke="#cb7054"/><path d="m502 338.28c-1.86.664-3.278.605-4.202-.269l1.462-7.852c.463 2.827 1.383 5.558 2.741 8.122" fill="#4f4c4c" stroke="#4f4c4c"/><path d="m500.08 325.73l-5.659 6.869c-7.07 2.228-14.492 6.966-22.19 14.236l-5.771-6.839-3.689-11.831c-.007-2.051.117-4.02.335-5.902.793-5.997 2.948-11.131 6.549-15.382 10.574-6.412 20.566-.809 30.06 16.825z" fill="#f9b291" stroke="#f9b291"/><g fill="#cb7054" stroke="#cb7054"><path d="m498.43 318.4c.544 1.697.995 3.459 1.282 5.31-9.491-17.634-19.483-23.24-30.06-16.824.397-.471.803-.905 1.243-1.35.415-.399.831-.797 1.221-1.147 4.681-4.056 9.5-4.401 14.466-.998.504.256 1.01.614 1.488.906 1.145.718 2.327 1.68 3.22 2.493 3.248 3.037 5.635 6.879 7.14 11.61"/><path d="m489.67 305.43l.433-1.688-9.432-5.255 1.353-3.619-4.415-2.931-5.089 5.293c-.071-.343-.179-.646-.285-.99l4.626-6.285 5.73 2.399 2.244.954-1.39 2.933 9.504 6.589-.74 4.872c-.924-.909-1.747-1.627-2.54-2.27z"/></g><g fill="#903f39" stroke="#903f39"><path d="m497.25 305.87l-4.306-3.046v-6.094l-7.404-4.914.677-1.484 11.03 5.179v10.359"/><path d="m472.23 296.24c.106.344.214.647.285.99.462 1.828.734 4.03.592 6.353l-2.301-1.858v-4.304c-.961-4.076-2.989-6.132-6.01-6.247l.499-2.398c2.667 1.179 4.624 2.931 5.944 5.216.389.724.71 1.447.995 2.247"/></g><path d="m470.81 297.42v4.305l-7.083-5.485 1.069-5.066c3.02.115 5.05 2.171 6.01 6.246" fill="#cc594e" stroke="#cc594e"/><path d="m472.23 296.24c-.285-.8-.606-1.524-.995-2.247 0-.457 0-.914-.037-1.408l5.944-4.952 5.445 2.59v2.131l-5.73-2.399-4.626 6.285" fill="#f8f8f6" stroke="#f8f8f6"/><path d="m471.02 286.91c.035 1.371.107 2.742.141 4.152.036.495.036 1.028.036 1.524.037.494.037.95.037 1.408-1.32-2.285-3.277-4.04-5.944-5.216-.037-.648-.037-1.257-.073-1.867-1.458-36.713-3.806-69.73-7.01-99.02.784 3.045 1.53 6.168 2.244 9.368 5.659 25.288 9.181 55.19 10.57 89.65" fill="#79621d" stroke="#79621d"/><path d="m471.17 291.06c-.034-1.41-.106-2.781-.141-4.152-1.389-34.465-4.911-64.36-10.57-89.65 5.304-4.379 10.356-5.03 15.197-1.941v2.97c-2.67-1.866-5.802-1.599-9.327.838 3.668-.571 6.62.914 8.864 4.379l2.597 79.03 2.244 4.952-3.489-1.6-5.375 5.18" fill="#f8f8f6" stroke="#f8f8f6"/><path d="m471.2 292.58c0-.496 0-1.029-.036-1.524l5.375-5.18 3.489 1.6 6.193 2.856-.677 1.484-.71 1.486-2.244-.954v-2.131l-5.445-2.59-5.944 4.952" fill="#d3d2d2" stroke="#d3d2d2"/><path d="m465.22 286.91c.036.61.036 1.22.073 1.867l-3.702-.61-7.974-95.17c-2.884-.685-5.98-.343-9.253.991l-.355-1.676c1.209-1.181 2.456-2.133 3.736-2.894 2.171-1.257 4.412-1.905 6.798-1.944 1.175-.036 2.422.116 3.666.421 3.205 29.29 5.554 62.31 7.01 99.02" fill="#b98f1e" stroke="#b98f1e"/><path d="m480.03 287.48l-2.244-4.952-2.597-79.03c-2.244-3.464-5.196-4.95-8.864-4.379 3.524-2.436 6.656-2.704 9.327-.838 1.458 1.029 2.811 2.742 4.02 5.104-2.064 25.1-1.494 51.984 1.709 80.66l4.841 6.284-6.193-2.856" fill="#d3d2d2" stroke="#d3d2d2"/><path d="m485.54 291.82l7.404 4.914v6.094l-9.504-6.589 1.39-2.933.71-1.486" fill="#cc594e" stroke="#cc594e"/><path d="m486.22 290.33l-4.841-6.285 16.871 6.399c9.254-.8 16.799-10.436 22.672-28.906l6.335-27.04c2.028-11.539 2.704-21.02 1.957-28.449l-13.06 3.238.534-4.229 13.454-3.235 4.02-.954c1.424 11.769-.178 25.708-4.771 41.741l-5.517 20.718c-.463 2.971-.959 5.713-1.565 8.189-1.672 6.854-3.916 11.996-6.762 15.385-1.744 2.095-3.665 3.504-5.839 4.305h-.034l-12.423 4.303-11.03-5.179" fill="#b98f1e" stroke="#b98f1e"/><path d="m498.25 290.45l-16.871-6.399c-3.203-28.678-3.773-55.57-1.709-80.66.18-1.867.357-3.771.535-5.637.213-2.171.463-4.304.711-6.436l12.138 5.409-3.062 39.645 4.52 3.046c-3.239.686-6.443 3.352-9.68 7.998 5.729-6.13 10.641-4.531 14.735 4.8l2.989 18.889c.321-6.435.995-12.07 2.1-16.985 1.388-6.36 3.417-11.386 6.158-15.16l6.158 11.805-3.88-14.51-.036-.036.995-2.249c2.599 3.086 5.162 7.96 7.759 14.549-.391-5.561-2.207-10.55-5.374-14.968-.463-.609-.925-1.219-1.388-1.829-.499-.57-.998-1.105-1.53-1.674l2.633-20.756 13.06-3.238c.748 7.426.071 16.909-1.957 28.449l-6.335 27.04c-5.874 18.47-13.418 28.11-22.672 28.905" fill="#eebb43" stroke="#eebb43"/><g fill="#b98f1e" stroke="#b98f1e"><path d="m515.05 231.72c.463.609.925 1.219 1.388 1.829 3.167 4.416 4.982 9.406 5.374 14.966-2.597-6.589-5.16-11.463-7.759-14.549l.998-2.246"/><path d="m510.82 238.96c.711-.991 1.458-1.904 2.278-2.705l3.88 14.51-6.158-11.805"/></g><path d="m516.69 205.06l-1.138.267-.961-11.274 11.781-4.074 3.772 11.845-13.454 3.235" fill="#cc594e" stroke="#cc594e"/><path d="m514.59 194.06l-.284-3.083 4.945-1.791 10.359-4.76 2.988-1.447 3.381 17.48-1.813.419-4.02.954-3.772-11.845-11.781 4.074" fill="#903f39" stroke="#903f39"/><path d="m493.87 235.65h.036c3.03.875 3.951 2.665 2.775 5.408l7.974 13.06c-1.103 4.913-1.779 10.55-2.1 16.985l-2.989-18.889c-4.093-9.331-9.01-10.93-14.735-4.799 3.237-4.646 6.44-7.313 9.68-7.999.355-.075.713-.114 1.069-.151-.356.037-.714.076-1.069.151l-4.52-3.045 3.062-39.646-12.138-5.409c.144-1.257.284-2.551.463-3.809l14.701 5.03h.07l1.46.534-3.702 42.43c0 .037 0 .037 0 .076l-.036.076" fill="#b98f1e" stroke="#b98f1e"/><g fill="#d3d2d2" stroke="#d3d2d2"><path d="m493.91 235.65h-.036l.036-.076c0 .036 0 .036 0 .076"/><path d="m475.65 198.28v-2.97c-4.841-3.085-9.894-2.438-15.197 1.941 6.584-9.408 13.167-9.216 19.753.496-.178 1.865-.355 3.769-.535 5.636-1.21-2.361-2.563-4.075-4.02-5.104"/></g><path d="m480.92 191.31c-.249 2.133-.499 4.265-.711 6.436-6.586-9.711-13.169-9.903-19.753-.495-.714-3.2-1.46-6.323-2.244-9.368-1.244-.305-2.491-.457-3.666-.421-2.385.039-4.627.686-6.798 1.944-.178-1.333-.355-2.666-.497-4 5.659-1.864 11.07-2.02 16.229-.418v3.655l3.418-.57c-1.745-10.169-1.246-20.376 1.494-30.581l-4.308-39.11c3.169-1.981 3.169-3.96 0-5.901 3.951-17.864 2.493-36.525-4.376-55.948l-7.368 14.13c1.244-7.274 3.237-13.557 5.978-18.813.107-.19.179-.344.285-.534.891-1.599 1.853-3.124 2.884-4.532 9.931 19 12.883 40.41 8.826 64.21 2.813 2.474 2.813 4.913 0 7.388l2.707 33.17 1.102 5.75c-2.456 9.104-3.736 19.16-3.808 30.24l7.119 1.715 2.314-5.6 12.777 1.866 16.871-60.934 3.096-1.257-1.638-6.209c7.44-14.662 11.995-32.07 13.633-52.21l-11.674 8.34c4.165-5.599 7.794-9.864 10.82-12.796.605-.57 1.175-1.104 1.744-1.599 1.174-1.029 2.242-1.791 3.238-2.362.535 23-3.807 44.862-13.03 65.58 2.741 3.275 1.959 5.141-2.419 5.56l-17.01 64.897h-.07l-14.701-5.03c-.179 1.257-.319 2.551-.463 3.809" fill="#4d77a0" stroke="#4d77a0"/><path d="m508.15 170.1c-.249-.495-.534-.952-.819-1.447 2.953-3.694 5.874-.876 8.826 8.455-2.597-5.256-5.266-7.579-8.01-7.01" fill="#cb7054" stroke="#cb7054"/><g fill="#7999c8" stroke="#7999c8"><path d="m463.48 188.65v-3.655c-5.162-1.6-10.57-1.446-16.229.418-2.67-22.393-2.529-41.778.497-58.15-.212-5.979.748-10.09 2.918-12.302 1.034-1.027 2.314-1.637 3.88-1.827l-4.199-.57-6.975-48.901-5.198-4.456-1.422-12.72c7.187-3.847 13.382-5.6 18.612-5.18l3.239 10.02c-.106.19-.178.344-.285.534-2.741 5.256-4.734 11.539-5.978 18.814l7.368-14.13c6.869 19.424 8.327 38.08 4.376 55.948 3.169 1.941 3.169 3.92 0 5.901l4.308 39.11c-2.741 10.205-3.239 20.413-1.494 30.581l-3.418.57"/><path d="m470.31 187.54c.072-11.08 1.353-21.14 3.808-30.24 3.418-12.681 9.183-23.42 17.262-32.26 1.104-1.409 2.171-2.665 3.239-3.694.924-.875 1.852-1.636 2.777-2.209 2.278-1.484 4.412-1.866 6.443-1.141-2.03-3.923-4.416-5.066-7.156-3.428 6.406-21.785 9.931-43.07 10.571-63.906l.998-1.904c6.939-2.323 13.489-2.323 19.718 0l-2.598 10.09c-.569.495-1.139 1.029-1.744 1.599-3.03 2.933-6.655 7.198-10.82 12.796l11.674-8.34c-1.638 20.15-6.193 37.55-13.633 52.21l1.638 6.209-3.096 1.257-16.871 60.934-12.777-1.866-2.314 5.6-7.119-1.715"/></g><path d="m496.68 114.57c2.741-1.638 5.126-.496 7.156 3.428-2.03-.725-4.165-.343-6.443 1.141-.925.572-1.853 1.334-2.777 2.209.71-2.246 1.387-4.531 2.063-6.778" fill="#4d77a0" stroke="#4d77a0"/><path d="m527.05 182.71l-1.317-12.04-2.599-7.504-3.524-2.59-1.388-2.284 6.301 4.989 3.345 10.474 1.745 10.664-10.359 4.76-1.494-1.257 9.291-5.216" fill="#cb7054" stroke="#cb7054"/><path d="m525.73 170.67l1.317 12.04-9.291 5.216-6.369-5.216c-.178-4.456-1.246-8.645-3.239-12.606 2.741-.571 5.41 1.752 8.01 7.01l1.21-11.769c-2.668-4.265-3.452-6.931-2.349-7.96l5.126 8.494c.107 3.465 1.494 6.55 4.128 9.217-1.424-2.667-2.135-6.095-2.135-10.245l-2.528-4.267 3.524 2.59 2.599 7.504" fill="#f9b291" stroke="#f9b291"/><path d="m520.14 165.87l-5.126-8.494c.463-.419 1.246-.57 2.349-.457l.854 1.372 1.388 2.284 2.528 4.267c0 4.15.711 7.578 2.135 10.245-2.634-2.667-4.02-5.752-4.128-9.217" fill="#cb7054" stroke="#cb7054"/><path d="m448.18 227.08c-.358.534-.714 1.067-1.033 1.599-.465.725-.89 1.486-1.283 2.21-1.103-10.169-3.808-17.748-8.151-22.736l-10.856 2.59c-.141-1.104-.248-2.21-.355-3.351l10.5-3.085 4.272-1.256c4.412 7.996 6.724 15.994 6.905 24.03" fill="#b98f1e" stroke="#b98f1e"/><path d="m426.25 190.44l5.588-.8c1.033-2.361 1.033-4.95 0-7.806 2.313-2.4 3.131-5.484 2.456-9.254.675.265 1.138.76 1.422 1.446.18.457.251.99.251 1.638 0 .419-.036.838-.107 1.334-.248 1.371-.748 3.045-1.565 4.988 1.174 3.428 1.067 6.856-.25 10.321h-7.687c-.036-.609-.072-1.219-.106-1.866" fill="#cb7054" stroke="#cb7054"/><path d="m431.84 189.64l-5.588.8c-.144-1.942-.251-3.921-.358-5.979l.429-11.881 3.558-4.837 6.406-1.83c-.39 1.41-2.561 2.82-6.44 4.23v3.35l-1.424 11.388 1.602-4.57c.212-2.78.71-4.799 1.458-6.094.676-1.18 1.638-1.752 2.813-1.636.675 3.77-.143 6.854-2.456 9.254 1.033 2.856 1.033 5.445 0 7.806" fill="#f9b291" stroke="#f9b291"/><path d="m426.36 192.3h11.815l3.098 10.741-4.272 1.256-2.777-8.988h-10.571v-3.01h2.707" fill="#903f39" stroke="#903f39"/><path d="m423.65 195.31h10.571l2.777 8.988-10.5 3.085-2.848.838v-12.91" fill="#cc594e" stroke="#cc594e"/><path d="m438.85 177.45l1.744 4.874c-1.672.649-3.273-1.14-4.734-5.33.071-.496.107-.915.107-1.334l2.882 1.79" fill="#f9b291" stroke="#f9b291"/><g fill="#cb7054" stroke="#cb7054"><path d="m440.59 182.33l-1.744-4.874-2.882-1.79c0-.648-.071-1.18-.251-1.638 1.781 1.638 3.383 2.285 4.771 2.02l.888 5.827c-.248.191-.533.343-.782.456"/><path d="m442.62 174.79c-.319.381-.674.687-1.067.876l-6.301-5.942c.358-.15.677-.341.961-.533l6.406 5.599"/></g><path d="m441.55 175.66c-.321.19-.676.343-1.068.38-1.388.267-2.989-.38-4.771-2.02-.284-.686-.747-1.181-1.422-1.446-1.175-.116-2.137.456-2.813 1.636l-.141-3.619c1.602-.151 2.918-.455 3.914-.876l6.301 5.942" fill="#f9b291" stroke="#f9b291"/><path d="m431.34 170.6l.141 3.619c-.748 1.295-1.246 3.314-1.458 6.094l-1.602 4.57 1.424-11.388v-3.35c3.88-1.41 6.05-2.82 6.44-4.229l.927-.266c.462 1.524.104 2.704-.999 3.541-.284.191-.603.382-.961.533-.995.421-2.312.725-3.914.876" fill="#cb7054" stroke="#cb7054"/><path d="m436.75 46.48l-.285-2.475c8.256-4.266 15.624-6.438 22.14-6.551 1.531 0 2.992.114 4.45.305v7.01c-.534.648-1.069 1.333-1.565 2.02-1.032 1.41-1.993 2.934-2.884 4.532l-3.239-10.02c-5.23-.42-11.425 1.333-18.612 5.18" fill="#4d77a0" stroke="#4d77a0"/><path d="m436.47 44l-1.568-1.41 10.856-6.59-7.938-2.02c.714-1.181 1.354-2.515 1.887-4l19.576 4.951-.676 2.514c-6.513.114-13.881 2.285-22.14 6.551" fill="#b98f1e" stroke="#b98f1e"/><path d="m434.9 42.595l-1.565-1.41c-2.456-.227-4.662-.607-6.656-1.103 4.805.152 8.543-1.866 11.14-6.093l7.938 2.02-10.856 6.59" fill="#eebb43" stroke="#eebb43"/><path d="m426.68 40.08c-1.387-.343-2.633-.8-3.808-1.295 4.77-.571 7.759-3.046 8.971-7.426h-17.192c-.426-.876-.748-1.79-.996-2.742h20.538l5.515 1.371c-.533 1.485-1.173 2.819-1.887 4-2.597 4.226-6.335 6.245-11.14 6.093" fill="#d3d2d2" stroke="#d3d2d2"/><path d="m439.7 29.988l-5.515-1.371h-20.538c-.284-1.066-.463-2.209-.533-3.389h20.927l25.912 7.196-.677 2.515-19.576-4.951" fill="#7b7979" stroke="#7b7979"/><path d="m414.65 31.36h17.192c-1.211 4.38-4.201 6.855-8.971 7.426-3.951-1.676-6.691-4.151-8.222-7.426" fill="#f8f8f6" stroke="#f8f8f6"/><path d="m512.27 43.622l5.625-5.103h9.217l4.697-4.875c3.062.419 6.124.153 9.22-.8-2.385 2.095-5.552 4.341-9.432 6.816-1.105.954-2.064 1.944-2.954 2.972-4.486-1.029-9.931-.686-16.373.989" fill="#b98f1e" stroke="#b98f1e"/><path d="m517.9 38.52l-5.625 5.103v-2.438l5.126-5.332c-.071-13.14 4.911-19.309 14.912-18.584 10.856 1.295 15.59 4.19 14.13 8.721-4.985-3.618-10.322-5.485-16.02-5.56-1.388 0-2.634.19-3.773.57-3.273 1.106-5.481 3.733-6.584 7.885-.106.343-.178.647-.25.99-.463 2.133-.676 4.608-.64 7.464l-1.28 1.181" fill="#7b7979" stroke="#7b7979"/><path d="m510.74 44.04c.535-.154 1.034-.305 1.53-.42 6.443-1.675 11.888-2.02 16.373-.99 2.669.61 4.982 1.715 6.975 3.276l-4.128 9.596c-.82.038-1.779.342-2.882.99-.998.572-2.065 1.333-3.239 2.362l2.598-10.09c-6.229-2.323-12.779-2.323-19.718 0l2.491-4.722" fill="#4d77a0" stroke="#4d77a0"/><path d="m527.12 38.52h-9.217l1.28-1.181c-.036-2.856.178-5.331.64-7.464.072-.343.144-.647.25-.99.392.265.819.533 1.246.799 3.488 2.21 6.975 3.542 10.498 3.961l-4.697 4.875" fill="#eebb43" stroke="#eebb43"/><path d="m546.44 25.99c-.642 1.98-2.456 4.266-5.41 6.855-3.097.953-6.159 1.219-9.22.8-3.522-.419-7.01-1.751-10.498-3.961 7.083 2.133 13.204 1.447 18.294-2.056-2.457-3.39-6.798-5.599-12.956-6.627 1.139-.381 2.385-.57 3.773-.57 5.695.075 11.03 1.942 16.02 5.56" fill="#d3d2d2" stroke="#d3d2d2"/><path d="m521.32 29.685c-.428-.267-.854-.535-1.246-.8 1.103-4.151 3.311-6.779 6.584-7.883 6.159 1.027 10.5 3.237 12.956 6.627-5.09 3.502-11.211 4.188-18.294 2.056" fill="#f8f8f6" stroke="#f8f8f6"/><path d="m450.35 112.56l4.199.57c-1.565.19-2.846.8-3.88 1.827l-.319-2.398" fill="#4d77a0" stroke="#4d77a0"/></g><path d="m493.91 235.57c0 .036 0 .036 0 .076" fill="none" stroke="#eb222c" stroke-linejoin="round" stroke-linecap="round" stroke-width=".283" stroke-miterlimit="10"/></g></svg>