<svg xmlns="http://www.w3.org/2000/svg" viewBox="0 0 242 440"><defs><clipPath><path d="m0 0h6600v4438h-6600v-4438"/></clipPath></defs><g transform="matrix(1.25,0,0,-1.25,-480.41506,461.01443)"><path d="m498.42 326.57l-3.997 6.04c-7.07 2.228-14.492 6.966-22.19 14.236l-5.771-6.839-2.193-10.875c-.007-2.051.117-4.02.335-5.902.793-5.997 2.615-10.923 6.216-15.174 2.034-1.95 3.501-2.449 6.575-3.304 2.48-.69 5.192.134 7.695 1.535 2.503 1.402 4.972 3.555 7.409 6.46 2.437 2.905 3.427 6.603 5.8 11.01z" fill="#f9b291"/><path d="m493.87 334.07l2.953-.865-3.225 2.681-8.625.472c-.972-.624-1.259-1.171-.855-1.605l9.752-.683" fill="#4f4c4c"/><path d="m489.6 313.64l.007 1.184-.324-.262c-.296-.149-1.456-.639-3.475-1.468-3.43-.854-8.02-1.049-13.837-.569l-1.688.177 1.108-.285c.455-.962 1.04-1.844 1.75-2.683.657-.745 1.403-1.437 2.269-2.086 1.651-1.194 3.405-1.983 5.264-2.369 1.429.252 2.744.774 3.986 1.596.455.341.922.717 1.352 1.104 1.717 1.513 2.903 3.415 3.588 5.662m-3.549-1.33l2.923 1.039c-.357-.961-.798-1.818-1.376-2.638-.578-.816-1.294-1.595-2.092-2.27-.714-.619-1.474-1.147-2.278-1.543-.847-.423-1.691-.691-2.582-.863-.878.177-1.761.475-2.592.837-.76.342-1.459.782-2.183 1.272-.758.497-1.43 1.05-1.976 1.645-.727.765-1.324 1.611-1.797 2.5 2.279-.469 4.657-.692 7.159-.716 2.618-.014 4.893.227 6.795.736" fill="#c95c5d"/><path d="m488.98 313.35l-2.923-1.039c-1.902-.508-4.177-.751-6.795-.736-2.502.024-4.88.247-7.159.716.474-.889 1.07-1.735 1.795-2.499 4.724-.87 9.307-.553 13.706.921.578.82 1.019 1.677 1.376 2.638" fill="#fff"/><path d="m480.65 306.03c.892.172 1.735.439 2.582.863-1.634 1.544-3.371 1.539-5.174-.026.832-.361 1.714-.66 2.592-.837" fill="#b3222c"/><path d="m483.23 306.9c.804.396 1.564.924 2.278 1.543.798.675 1.514 1.454 2.092 2.27-4.399-1.474-8.982-1.791-13.706-.921.549-.596 1.22-1.149 1.978-1.646.724-.489 1.423-.93 2.183-1.272 1.804 1.565 3.54 1.57 5.174.026" fill="#231f20"/><path d="m477.08 334.8c.331.573.032 1.135-.878 1.757l-8.685-.339-2.171-2.721 2.359 1.01 9.375.296" fill="#4f4c4c"/></g></svg>