<svg xmlns="http://www.w3.org/2000/svg" viewBox="0 0 242 440"><defs><clipPath><path d="m0 0h6600v4438h-6600v-4438"/></clipPath></defs><g transform="matrix(1.25,0,0,-1.25,-480.41506,461.01443)" fill="#b96351"><path d="m483.24 318.9l-.044-.026c-1.404-1.603-3.259-1.928-5.513-1.07-.058.056-.119.113-.178.17-.058.056-.118.113-.211.18-.144.161-.662.588-1.564 1.247.019-.361.071-.731.09-1.093l-.009-.035c1.147-1.719 3.053-2.198 5.671-1.345l2.717 1.535-.95 2.055-.007-1.616"/><path d="m479.12 327.03l-.489-5.233.558-1.614.607 7.03-.876 3.204.2-3.391"/></g></svg>