<svg xmlns="http://www.w3.org/2000/svg" viewBox="0 0 242 440"><defs><clipPath><path d="m0 0h6600v4438h-6600v-4438"/></clipPath></defs><g transform="matrix(1.25,0,0,-1.25,-480.41506,461.01443)"><path d="m500.97 321.84c1.455 3.247 1.826 6.573 1.146 9.971-.897-2.067-1.571-4.121-2.034-6.077l-.371-2.024c-.287-1.851-.738-3.614-1.282-5.31l2.54 3.441" fill="#f9b291"/><g fill="#cb7054"><path d="m502.11 331.81c.68-3.398.309-6.724-1.146-9.971l-2.54-3.441c3.74.919 5.727 3.497 6.01 7.758.12 2.926-.409 5.331-1.587 7.217-.245-.521-.488-1.043-.733-1.562"/><path d="m462.77 328.17l-1.872 7.537c-.491-.329-.898-.764-1.229-1.338 1.239-3.087 2.023-6.95 2.402-11.68.315-.21.648-.348 1.035-.421-.218 1.88-.343 3.851-.335 5.902"/></g><path d="m459.67 334.37c-.831-1.375-1.031-3.449-.662-6.203.571-2.813 1.587-4.609 3.064-5.477-.378 4.73-1.162 8.593-2.402 11.68" fill="#f9b291"/><g fill="#b96351"><path d="m499.5 321.44l1.132 2.551c.831.073 1.218-1.147 1.125-3.686.461 3.104.195 4.524-.838 4.234 1.239 3.545 2.313 4.139 3.224 1.78-.692 4.507-1.986 3.781-3.86-2.108-.213-.688-.491-1.633-.782-2.771"/><path d="m462.23 327.65c-.6 5.586-1.472 6.512-2.678 2.799 1.056 1.823 1.807 1.01 2.23-2.391-.759.498-1.196-.637-1.28-3.416.315 2.238.817 3.195 1.441 2.893l.5-2.514c-.054 1.082-.132 1.933-.213 2.628"/></g></g></svg>