<svg xmlns="http://www.w3.org/2000/svg" viewBox="0 0 242 440"><defs><clipPath><path d="m0 0h6120v4567h-6120v-4567"/></clipPath></defs><g transform="matrix(1.25,0,0,-1.25,-442.26357,473.8165)"><path d="m466.43 372.82c-1.346 3.455-3.345 4.801-6 4.073-1.455 1.528-3.53 1.237-6.184-.909-2.691 2.874-5.166 3.091-7.383.69-3.056 1.455-5.857.036-8.405-4.292-3.164 2.655-5.818 1.346-7.927-3.929-2.037 1.274-3.492-1.563-4.403-8.547-2.218-.728-3.201-2.365-2.909-4.911-2-1.636-1.854-4.692.365-9.239-1.239-1.854-.983-3.455.764-4.838-.583-1.637.072-3.091 1.927-4.365-.181 2.801.909 4.256 3.237 4.293-2.654 3.382-2.218 6.874 1.274 10.549-.799 7.347 1.054 10.292 5.529 8.838 2.874 2.765 6.657 2.11 11.385-1.927 2.801 3.491 6.111 4.292 9.967 2.364 3.237 2.51 5.746 2.51 7.492 0 3.055.983 5.565-.11 7.493-3.346 4.367-.692 5.457.799 3.311 4.438.838 1.854-.181 4.255-3.055 7.201 2 1.055 2.254 2.147.764 3.238-1.127 2.727-3.527 2.946-7.238.618" fill="#4f4c4c"/><path d="m457.66 360.67c-3.856 1.928-7.167 1.127-9.967-2.364-4.728 4.04-8.511 4.692-11.385 1.927-4.475 1.454-6.328-1.491-5.529-8.838-3.492-3.675-3.928-7.167-1.274-10.549-2.328-.037-3.418-1.492-3.237-4.293.291-.217.617-.436 1.018-.617.182.763.4 1.201.728 1.382.98.617 2.544-1.564 4.729-6.548.836 3.309.616 7.312-.692 12.04l4.291 12.731c10.08-5.274 20.15-5.02 30.23.727l2.51-3.891c.656-1.165 1.384-2.292 2.222-3.42v-12.693c1.743 3.527 3.308 5.273 4.691 5.164.181-.217.291-.473.401-.801.109-.326.216-.689.29-1.089 2.147.253 3.092 1.454 2.764 3.674 2.219.253 2.874 1.345 2 3.308 2.366 1.784 3.094 3.348 2.147 4.693 1.346 2.038.656 3.419-2.11 4.183 2.655 3.456 2.911 5.966.727 7.456.728 2.583-.764 4.256-4.509 5.02-.364 3.345-1.71 4.802-4.04 4.328 1.49-1.091 1.237-2.182-.764-3.238 2.874-2.946 3.893-5.346 3.055-7.201 2.147-3.639 1.056-5.13-3.311-4.438-1.928 3.237-4.438 4.329-7.493 3.346-1.745 2.51-4.255 2.51-7.492 0" fill="#231f20"/><path d="m469.08 352.37l-2.51 3.891c-10.07-5.747-20.15-6-30.23-.727l-4.291-12.731c1.309-4.728 1.528-8.731.692-12.04 2.434 2.329 3.201 6.184 2.328 11.53l2.982 6.512c10.73-3.712 19.533-3.53 26.334.58l3.637-2.51 3.276-10.621v12.694c-.838 1.128-1.565 2.255-2.222 3.42" fill="#ae6854"/><path d="m468.03 346.88l-3.637 2.51c-6.801-4.11-15.604-4.292-26.334-.58l-2.982-6.512c.873-5.346.106-9.201-2.328-11.53l.831-3.478c-.257-2.144.294-3.614.696-5.578.473-2.364 1.418-4.582 2.838-6.692 8.111-6.658 14.15-8.149 18.04-4.403 6.947 4.584 12.22 11.857 15.894 21.788l.257 3.856-3.276 10.621" fill="#cf876d"/><path d="m437.11 315.02c.946-1.347 2.073-2.656 3.418-3.93 2.293-2.144 5.239-4.146 8.765-5.929 2.438-.981 5.276-.473 8.476 1.528.583.363 1.163.764 1.781 1.237.546.473 1.092.909 1.637 1.382 5.273 4.729 8.439 10.184 9.529 16.405.11.691.218 1.417.257 2.145.106 1.491.147 2.983.072 4.546-3.674-9.93-8.947-17.204-15.894-21.788-3.893-3.746-9.93-2.255-18.04 4.403" fill="#ae6854"/></g></svg>