<svg xmlns="http://www.w3.org/2000/svg" viewBox="0 0 242 440"><defs><clipPath><path d="m0 0h6120v4567h-6120v-4567"/></clipPath></defs><g transform="matrix(1.25,0,0,-1.25,-442.26357,473.8165)"><path d="m460.9 337.71c-.473 0-.983 0-1.455.036-.69 0-1.381 0-2.144-.036l-1.092-2.946 1.747 2.108c.4.038.8.074 1.199.074.365.036.728.036 1.092 0 .109 0 .181 0 .29-.036l2.182-.181c.29-.11.618-.22.947-.291.326-.11.836-.292 1.528-.473l.507-.218c.184.181.328.399.51.616-.836.401-1.71.729-2.654.984-.401.074-.801.146-1.202.181-.435.074-.91.146-1.454.183" fill="#231f20"/><path d="m459.15 336.95c-.399 0-.799-.036-1.199-.074l-1.747-2.108c.764-.546 1.49-1.019 2.218-1.346 3.309-.291 5.565.546 6.764 2.546-.69.18-1.2.363-1.526.473-.328.072-.656.182-.947.291l-2.182.181c-.109.036-.181.036-.29.036-.364.036-.729.036-1.092 0" fill="#fff"/><path d="m465.7 335.75l-.51.218c-1.2-2-3.455-2.838-6.764-2.546 2.508-.911 4.946-.145 7.274 2.328" fill="#8a6252"/><path d="m458.9 337.1c0-.11 0-.22 0-.401-.037-.654.181-1.2.654-1.673.438-.474.983-.691 1.6-.691.62-.036 1.164.183 1.565.655.4.436.654.983.691 1.6-.326.073-.654.181-.946.29 0-.327-.11-.581-.363-.836-.22-.253-.473-.363-.764-.328-.291-.035-.547.11-.801.365-.181.181-.29.472-.29.837 0 .109 0 .145.037.145-.11.037-.184.037-.291.037-.365.037-.728.037-1.092 0" fill="#731e22"/><path d="m460.28 337.06c-.037 0-.037-.036-.037-.145 0-.365.109-.655.29-.837.254-.255.51-.4.801-.365.291-.035.544.075.764.328.253.254.363.509.363.836l-2.181.183" fill="#231f20"/><path d="m459.84 336.62c0-.146.037-.257.147-.364.108-.11.218-.181.363-.181.11 0 .218.072.326.181.11.108.147.218.147.364 0 .11-.037.253-.147.363-.108.11-.216.147-.326.147-.145 0-.255-.037-.363-.147-.11-.11-.147-.253-.147-.363" fill="#fff"/><path d="m447.33 335.46l-1.129 2.911c-.763.035-1.455.072-2.108.072-.473 0-.98 0-1.455-.037-.546-.035-1.055-.108-1.49-.181-.401-.037-.801-.109-1.202-.218-.91-.254-1.818-.546-2.654-.946.147-.218.326-.4.508-.581l.548.146c.616.253 1.126.4 1.49.473.328.109.654.218.983.363l2.181.147c.112 0 .184 0 .255 0 .401.035.727.072 1.055.072.435 0 .873-.037 1.274-.109l1.745-2.11" fill="#231f20"/><path d="m445.08 334.11c.729.327 1.492.763 2.256 1.346l-1.745 2.11c-.401.072-.839.109-1.274.109-.328 0-.654-.037-1.055-.072-.072 0-.143 0-.255 0l-2.181-.147c-.328-.145-.654-.254-.983-.363-.364-.073-.874-.22-1.49-.473 1.199-1.928 3.419-2.765 6.727-2.51" fill="#fff"/><path d="m438.35 336.62l-.548-.146c2.33-2.51 4.766-3.309 7.275-2.364-3.308-.255-5.529.581-6.727 2.51" fill="#8a6252"/><path d="m444.57 337.75c0-.073 0-.181.038-.363 0-.692-.22-1.238-.654-1.71-.438-.474-.983-.691-1.602-.691-.62-.037-1.164.217-1.565.691-.435.436-.652.981-.689 1.6.326.073.617.181.946.291 0-.327.11-.583.326-.836.255-.255.51-.366.766-.366.326 0 .579.147.836.401.181.183.29.474.253.801.037.109 0 .181-.035.181.108.037.216.037.326.037.363.036.728 0 1.054-.037" fill="#731e22"/><path d="m443.19 337.75c.035 0 .072-.073.035-.181.037-.327-.072-.618-.253-.801-.257-.254-.51-.401-.836-.401-.257 0-.511.111-.766.366-.216.253-.326.509-.326.836l2.147.181" fill="#231f20"/><path d="m443.69 337.39c0-.146-.035-.254-.145-.364-.109-.109-.218-.183-.363-.183-.11 0-.218.074-.328.183-.11.11-.147.218-.147.364 0 .109.037.253.147.363.11.109.218.147.328.147.145 0 .254-.038.363-.147.11-.11.145-.254.145-.363" fill="#fff"/></g></svg>