<svg xmlns="http://www.w3.org/2000/svg" viewBox="0 0 242 440"><defs><clipPath><path d="m0 0h6120v4567h-6120v-4567"/></clipPath></defs><g transform="matrix(1.25,0,0,-1.25,-442.26357,473.8165)"><g stroke-width=".08"><path d="m466.43 372.82c-1.346 3.455-3.345 4.801-6 4.073-1.455 1.528-3.53 1.237-6.184-.909-2.691 2.874-5.166 3.091-7.383.69-3.056 1.455-5.857.036-8.405-4.292-3.164 2.655-5.818 1.346-7.927-3.929-2.037 1.274-3.492-1.563-4.403-8.547-2.218-.728-3.201-2.365-2.909-4.911-2-1.636-1.854-4.692.365-9.239-1.239-1.854-.983-3.455.764-4.838-.583-1.637.072-3.091 1.927-4.365-.181 2.801.909 4.256 3.237 4.293-2.654 3.382-2.218 6.874 1.274 10.549-.799 7.347 1.054 10.292 5.529 8.838 2.874 2.765 6.657 2.11 11.385-1.927 2.801 3.491 6.111 4.292 9.967 2.364 3.237 2.51 5.746 2.51 7.492 0 3.055.983 5.565-.11 7.493-3.346 4.367-.692 5.457.799 3.311 4.438.838 1.854-.181 4.255-3.055 7.201 2 1.055 2.254 2.147.764 3.238-1.127 2.727-3.527 2.946-7.238.618" fill="#4f4c4c" stroke="#4f4c4c"/><path d="m457.66 360.67c-3.856 1.928-7.167 1.127-9.967-2.364-4.728 4.04-8.511 4.692-11.385 1.927-4.475 1.454-6.328-1.491-5.529-8.838-3.492-3.675-3.928-7.167-1.274-10.549-2.328-.037-3.418-1.492-3.237-4.293.86-2.095 4.278-4.66 6.475-5.783.836 3.309.616 7.312-.692 12.04l4.291 12.731c10.08-5.274 20.15-5.02 30.23.727l2.51-3.891c.656-1.165 1.384-2.292 2.222-3.42v-12.693c2.766-.583 4.653 1.272 5.382 3.274 2.147.253 3.092 1.454 2.764 3.674 2.219.253 2.874 1.345 2 3.308 2.366 1.784 3.094 3.348 2.147 4.693 1.346 2.038.656 3.419-2.11 4.183 2.655 3.456 2.911 5.966.727 7.456.728 2.583-.764 4.256-4.509 5.02-.364 3.345-1.71 4.802-4.04 4.328 1.49-1.091 1.237-2.182-.764-3.238 2.874-2.946 3.893-5.346 3.055-7.201 2.147-3.639 1.056-5.13-3.311-4.438-1.928 3.237-4.438 4.329-7.493 3.346-1.745 2.51-4.255 2.51-7.492 0" fill="#231f20" stroke="#231f20"/><path d="m469.08 352.37l-2.51 3.891c-10.07-5.747-20.15-6-30.23-.727l-4.291-12.731c1.309-4.728 1.528-8.731.692-12.04 2.434 2.329 3.201 6.184 2.328 11.53l2.982 6.512c10.73-3.712 19.533-3.53 26.334.58l3.637-2.51 3.276-10.621v12.694c-.838 1.128-1.565 2.255-2.222 3.42" fill="#ae6854" stroke="#ae6854"/><path d="m468.03 346.88l-3.637 2.51c-6.801-4.11-15.604-4.292-26.334-.58l-2.982-6.512c.873-5.346.106-9.201-2.328-11.53l.62-3.478c.046-2.175.506-3.614.907-5.578.473-2.364 1.418-4.582 2.838-6.692 8.111-6.658 14.15-8.149 18.04-4.403 6.947 4.584 12.22 11.857 15.894 21.788l.257 3.856-3.276 10.621" fill="#cf876d" stroke="#cf876d"/><path d="m437.11 315.02c.946-1.347 2.073-2.656 3.418-3.93 2.293-2.144 5.239-4.146 8.765-5.929 2.438-.981 5.276-.473 8.476 1.528.583.363 1.163.764 1.781 1.237.546.473 1.092.909 1.637 1.382 5.273 4.729 8.439 10.184 9.529 16.405.11.691.218 1.417.257 2.145.106 1.491.147 2.983.072 4.546-3.674-9.93-8.947-17.204-15.894-21.788-3.893-3.746-9.93-2.255-18.04 4.403" fill="#ae6854" stroke="#ae6854"/><path d="m474.18 292.5c.617.618 1.127 1.309 1.49 2.073 1.055 2.438.691 5.676-1.127 9.749l-13.35 1.782v-3.238c-.109-1.381.075-2.618.583-3.747l1.201 4.947 7.564-1.382c4.075-5.565 1.674-9.457-7.238-11.602l-13.421-5.457-1.492-1.674 16.01 5.348c4.619.326 7.857 1.382 9.785 3.201" fill="#d3d2d2" stroke="#d3d2d2"/><path d="m475.67 294.57c-.363-.764-.873-1.454-1.49-2.073-1.928-1.818-5.166-2.875-9.785-3.201l-16.01-5.348c-.362-.98-.69-2-1.018-3.054 9.823 1.527 19.243 4.11 28.26 7.711 5.565-2.182 10.838-5.637 15.822-10.366l1.127-30.446 3.564-6.947-4.509-12.04 1.309-3.02-16.768-2.581 1.602-2.765c5.092-2 10.184-1.747 15.312.727 2 .981 4.04 2.327 6.04 4 0 .038 0 .038.037.038l3.492 11.238-4.838 12.623v28.589c-2.219 6.256-9.604 11.893-22.15 16.913" fill="#5e5b5c" stroke="#5e5b5c"/><path d="m491.45 278.24c-4.984 4.729-10.258 8.184-15.822 10.366-9.02-3.601-18.441-6.184-28.26-7.711-5.855-18.15-8.183-44.631-7.02-79.51l21.571 3.71 4.691 2.837-7.129 8.474 3.746 30.446 7.895 6.22.907 14.731 5.273-15.314 1.092-3.128 8.293 8.912-6.729-13.531-3.455-6.838v-3.382l-2.438-7.748 2.11-3.564 16.768 2.581-1.309 3.02 4.509 12.04-3.564 6.947-1.127 30.446" fill="#7b7979" stroke="#7b7979"/><path d="m478.39 249.36l1.564-4.619 6.729 13.531-8.293-8.912" fill="#5e5b5c" stroke="#5e5b5c"/><path d="m499.13 225.17c-2-1.674-4.04-3.02-6.04-4v-3.638c-5.129-1.345-10.221-1.345-15.312 0 0-.654 0-1.31.035-1.964 7.092-2.438 14.15-1.745 21.242 2.074.181 2.655.218 5.165.073 7.529" fill="#d3d2d2" stroke="#d3d2d2"/><path d="m477.81 215.57c.073-1.708.218-3.456.436-5.239 4.475-1.781 9.09-2.364 13.896-1.781l-2.546-17.314c1.927-8.802 1.273-14.367-1.965-16.696-.035-.036-.073-.036-.11-.072l-.398-.29c.035-2.802-1.492-3.893-4.513-3.275-2.218-5.42-4.909-7.202-8.04-5.346-.292-1.711.183-2.838 1.418-3.311.801-.437 1.602-.618 2.363-.581 2 .145 3.856 2 5.567 5.602.11.217.181.436.291.654-.11-.218-.181-.437-.291-.654 4.109-1.274 6.51.254 7.13 4.619 2.726 2.654 3.308 8.875 1.671 18.733 3.639 10.07 5.748 19.1 6.33 27.03-7.092-3.819-14.15-4.512-21.242-2.074" fill="#ae6854" stroke="#ae6854"/><path d="m492.14 208.55c-4.803-.583-9.422 0-13.896 1.781.657-5.746 2-12.04 4-18.876l-10.258-7.822-.544-.399c-.473-.327-.837-.728-1.127-1.128-1.637-2.437-.22-6.074 4.255-10.985l1.71 2.982v3.455l.946-1.273 3.02 4.11-2.11-5.383-2.11-5.31-.037-.074c-.764-1.6-1.236-2.945-1.418-4.072 3.128-1.856 5.819-.074 8.04 5.346 3.02-.618 4.547.473 4.51 3.275l.4.29c.037.036.075.036.11.072 3.238 2.329 3.892 7.894 1.965 16.696l2.546 17.314" fill="#cf876d" stroke="#cf876d"/><path d="m477.78 217.54c5.092-1.345 10.184-1.345 15.312 0v3.638c-5.129-2.474-10.221-2.728-15.312-.727-.037-.947-.037-1.928 0-2.911" fill="#f8f8f6" stroke="#f8f8f6"/><g fill="#ae6854" stroke="#ae6854"><path d="m480.25 180.4l-3.02-4.11.91-1.273 2.11 5.383"/><path d="m478.14 175.02l-.91 1.273-.946 1.273v-3.455l-1.71-2.982c.436-.473.909-.983 1.418-1.492l.037.074 2.11 5.31"/></g><path d="m474.58 165.56c.183 1.127.654 2.473 1.418 4.072-.51.51-.983 1.019-1.418 1.492-4.475 4.91-5.892 8.548-4.255 10.985.29.4.654.801 1.127 1.128l.544.399-3.49 11.931-.075.254c-8.802-4-17.75-5.965-26.844-5.892.729-1.964 1.384-3.82 2-5.602l21.823 5.092 1.346-4.329c-4.691-5.165-3.963-10.33 2.183-15.459-.037-7.02 1.781-12 5.385-14.912 2.727-5.273 4.144-11.349 4.254-18.15 13.931-13.314 20.15-33.14 18.66-59.43l4.075-4.074c-5.129-10.331-12.11-16.368-20.951-18.15v-2.582c.836.037 1.674.146 2.51.255 2.218.399 4.365 1.127 6.437 2.256 3.418 1.855 6.658 4.692 9.748 8.511.764.946 1.492 1.928 2.219 2.982 1.126 1.637 2.255 3.456 3.311 5.384-1.055-1.928-2.185-3.747-3.311-5.384l2.218-10.949-20.623-6.473v-3.856c2.254 1.199 4.509 2.219 6.729 3.055 1.492.546 3.02 1.055 4.509 1.456 2.948.762 5.858 1.235 8.803 1.417.981.073 1.927.109 2.909.073.836 0 1.637-.037 2.473-.11 1.529-.109 3.057-.29 4.55-.544l-5.348 11.602 1.963 14.08-6.8 4.839c3.092 23.933-2.691 42.958-17.422 57.11l-6.875 23.644c-.763-.037-1.564.145-2.365.581-1.236.473-1.711 1.6-1.418 3.311" fill="#526f80" stroke="#526f80"/><path d="m461.77 299.12c-.507 1.129-.691 2.366-.583 3.747v6.438c-.544-.474-1.091-.91-1.637-1.382-.618-.473-1.199-.874-1.781-1.237v-7.385l-9.64-12.439-7.601 8.257-.946-.327 8.801-10.84 1.492 1.674 11.894 13.494" fill="#ae6854" stroke="#ae6854"/><path d="m463.3 291.08c8.912 2.145 11.313 6.04 7.238 11.602l-7.564 1.382-1.201-4.947-11.894-13.494 13.421 5.457" fill="#f8f8f6" stroke="#f8f8f6"/><path d="m457.77 299.3v7.385c-3.201-2-6.04-2.51-8.476-1.528-3.527 1.782-6.472 3.784-8.765 5.929v-15.968l7.601-8.257 9.64 12.439" fill="#cf876d" stroke="#cf876d"/><path d="m447.37 280.9c.328 1.054.657 2.074 1.018 3.054l-6.692 4.584-6.656 4.547-3.127-1.164 11.382-8.766c-5.565-25.644-8.112-51.47-7.711-77.48l-15.02-2.946c.473-1.091 1.017-1.71 1.637-1.891 6.183-1.419 12.257-2.219 18.259-2.401-.037.981-.072 1.964-.109 2.946-1.164 34.882 1.164 61.36 7.02 79.51" fill="#5e5b5c" stroke="#5e5b5c"/><path d="m440.53 307.23c-1.055-.183-2-.473-2.911-.874l.983-10.366.983-1.2.946.327v12.11" fill="#d3d2d2" stroke="#d3d2d2"/><path d="m429.98 296.54l5.05-3.455 6.656-4.547-5.893 10.912 2.801-3.456-.983 10.366c-3.602-1.563-6.146-4.838-7.636-9.82" fill="#f8f8f6" stroke="#f8f8f6"/><path d="m439.58 294.79l-.983 1.2-2.801 3.456 5.893-10.912 6.692-4.584-8.801 10.84" fill="#d3d2d2" stroke="#d3d2d2"/><path d="m420.38 281.95l-3.783-5.2c-3.675-10.44-3.165-20.552 1.49-30.26l1.311-5.456-7.711 5.456 6.183-7.602 2.038-1.928 4.146-3.893v14c-6.947 11.06-8.184 22.698-3.674 34.883" fill="#5e5b5c" stroke="#5e5b5c"/><path d="m416.6 276.75l3.783 5.2c-4.51-12.186-3.274-23.826 3.674-34.883v-36.3l-4.146-6.074c.181-.763.4-1.418.654-1.964l15.02 2.946c-.401 26.01 2.147 51.832 7.711 77.48l-11.382 8.766-14.37-5.347c-8.439-13.641-11.713-27.24-9.857-40.884l3.857-5.82-2.365-3.42v-4.256c2.218-3.054 5.382-4.764 9.494-5.092l1.237 9.858-2.038 1.928-6.183 7.602 7.711-5.456-1.311 5.456c-4.655 9.712-5.165 19.823-1.49 30.26" fill="#7b7979" stroke="#7b7979"/><path d="m471.12 253.07l-7.895-6.22-3.746-30.446 7.129-8.474-4.691-2.837-21.571-3.71c.037-.983.072-1.965.109-2.946 7.02-.181 13.861.546 20.588 2.11 2.219.546 4.438 1.164 6.657 1.891.983.327 2 .692 2.982 1.055v6.801l-4.694 10.149 2.766 22.806 8.547 9.238-5.273 15.314-.907-14.731" fill="#5e5b5c" stroke="#5e5b5c"/><path d="m409.18 228.67v.072c-.401-1.091-.801-2.182-1.202-3.309 3.675-3.492 7.313-5.274 10.985-5.347v3.565c-3.49.91-6.766 2.582-9.783 5.02" fill="#f8f8f6" stroke="#f8f8f6"/><path d="m409.18 228.74v-.072c3.02-2.438 6.293-4.11 9.783-5.02 1.637-.4 3.348-.655 5.094-.763v10.183l-4.146 3.893-1.237-9.858c-4.112.328-7.275 2.038-9.494 5.092v-3.455" fill="#5e5b5c" stroke="#5e5b5c"/><path d="m407.97 225.43c-.181-.474-.326-.946-.473-1.419 4.91-5.129 10.44-7.093 16.552-5.966v4.84c-1.747.108-3.457.363-5.094.763v-3.565c-3.671.073-7.31 1.855-10.985 5.347" fill="#d3d2d2" stroke="#d3d2d2"/><g fill="#ae6854" stroke="#ae6854"><path d="m407.5 224.01c-.544-1.637-1.017-3.274-1.417-4.946 2.581-2.946 6.183-4.728 10.875-5.383l-8.691-19.351c1.09-3.855 3.563-7.712 7.455-11.53v-7.638l.11-.146c2.656.654 3.308 3.965 1.965 9.929-2.876 1.637-4.766 4.947-5.677 9.932l11.932 20.731v2.437c-6.111-1.127-11.641.837-16.552 5.966"/><path d="m394.26 181.31c-.108-1.018.147-1.784.836-2.328.766-.11 1.529-.254 2.33-.473 2.945-.691 6.074-2 9.383-3.929.547-.29 1.092-.617 1.637-.983l4.694 4.803-4.112 5.129-3.418-4.547 3.308 1.273 1.274-2.328-1.926-1.127c-4.947 2.328-9.603 3.819-14.01 4.51"/></g><path d="m408.27 176.8l1.926 1.127-1.274 2.328-3.308-1.273 3.418 4.547 4.112-5.129 2.581-3.238v7.638c-3.892 3.818-6.365 7.675-7.455 11.53l8.691 19.351c-4.692.655-8.294 2.437-10.875 5.383-2.038-7.784-3.055-15.931-3.02-24.48-5.602-6.147-8.546-10.584-8.802-13.276 4.403-.691 9.06-2.182 14.01-4.51" fill="#cf876d" stroke="#cf876d"/><path d="m406.81 174.58l-3.054-1.054.983-.764 3.708.836c-.544.365-1.09.692-1.637.983" fill="#ae6854" stroke="#ae6854"/><path d="m403.76 173.52l3.054 1.054c-3.308 1.928-6.437 3.238-9.383 3.929l6.329-4.983" fill="#cf876d" stroke="#cf876d"/><path d="m443.59 184.33c-.618 1.781-1.273 3.638-2 5.602-6.584.073-13.277 1.2-20.01 3.382-.073-1.928-.073-3.855-.035-5.783l17.787-4.075 5.164-17.13-1.637-24.733c6.947-11.823 9.676-25.571 8.146-41.32l-3.27-25.861-7.567 23.97c.983-10.729 3.127-20.04 6.474-27.862.617-1.491 1.309-2.91 2.037-4.292.617-1.128 1.237-2.255 1.891-3.31l7.494 43.21c1.49 13.822-1.129 26.407-7.822 37.792v21.315c-2 5.42-3.565 9.785-4.619 13.09-.583 1.855-1.272 3.856-2.036 6" fill="#526f80" stroke="#526f80"/><path d="m420.81 196.77c-.109-1.2.147-2.364.764-3.455 6.731-2.182 13.421-3.309 20.01-3.382 9.09-.073 18.04 1.891 26.844 5.892l.075-.254c1.089 2.074.836 4.365-.801 6.874-2.219-.727-4.438-1.345-6.657-1.891l1.309-4.509c-13.168-4.547-27.03-4.293-41.539.726" fill="#d3d2d2" stroke="#d3d2d2"/><path d="m444.49 166.32l-5.164 17.13-17.787 4.075c.253-10.767 2.473-21.752 6.691-32.954 1.421-3.747 3.057-7.531 4.91-11.35l-4.91 4.22-.216-76.24h-5.31l-.983-4.983c9.783-.145 17.459-1.928 23.02-5.384l1.893 9.676c-3.348 7.821-5.492 17.13-6.474 27.863l7.567-23.972 3.27 25.861c1.53 15.751-1.199 29.499-8.146 41.32l1.637 24.733" fill="#7194ae" stroke="#7194ae"/><path d="m462.35 196.04l-1.309 4.509c-6.727-1.564-13.568-2.291-20.588-2.11-6 .181-12.08.981-18.259 2.401-.837-1.419-1.309-2.801-1.384-4.075 14.514-5.02 28.371-5.273 41.539-.726" fill="#f8f8f6" stroke="#f8f8f6"/><path d="m466.75 185.09l-1.346 4.328-21.823-5.092c.764-2.147 1.453-4.147 2.036-6 1.054-3.309 2.619-7.674 4.619-13.09l15.1-29.06c-.983-20.26 4.04-42.556 15.02-66.89v-14.368c8.837 1.783 15.822 7.821 20.951 18.15l-4.075 4.074c1.492 26.297-4.729 46.12-18.66 59.43-.11 6.801-1.527 12.877-4.254 18.15-3.604 2.909-5.422 7.894-5.385 14.912-6.146 5.129-6.874 10.295-2.183 15.459v.0001" fill="#7194ae" stroke="#7194ae"/><path d="m428.23 154.57v-7.13l4.91-4.22c-1.853 3.819-3.49 7.602-4.91 11.35" fill="#526f80" stroke="#526f80"/><path d="m412.19 57.674c-1.272-.074-2.473-.219-3.6-.4 6.074-1.746 8.84-5.202 8.219-10.366-6.328-1.492-13.06-1.819-20.223-.946-.072-.365-.147-.728-.181-1.091 9.929-2.256 19.642-2.256 29.06 0-.51 1.564-1.089 2.981-1.708 4.256-2.656 5.273-6.511 8.147-11.568 8.547" fill="#d3d2d2" stroke="#d3d2d2"/><path d="m396.41 44.87c-.254-2.075-.218-4.365.11-6.948 10.148-1.456 20.26-.546 30.371 2.728 8.584 4.292 16.08 6.803 22.443 7.494-.147 1.273-.255 2.584-.363 3.892-8.113-.547-15.932-2.91-23.499-7.166-9.42-2.256-19.13-2.256-29.06 0" fill="#787576" stroke="#787576"/><path d="m408.59 57.27c-6.91-1.237-10.912-5.02-12-11.312 7.167-.875 13.895-.547 20.225.946.62 5.165-2.147 8.621-8.221 10.366" fill="#f8f8f6" stroke="#f8f8f6"/><path d="m446.64 70.51l-1.893-9.676c-5.563 3.456-13.24 5.239-23.02 5.384l-.948-4.693c2.693.473 5.422.619 8.221.437 2.365-.182 4.803-.654 7.241-1.346 4.109-1.201 8.256-3.128 12.512-5.82.983-.617 2-1.309 3.02-1.999v8.255c-.4.618-.801 1.237-1.201 1.856-.654 1.054-1.274 2.182-1.891 3.309-.728 1.382-1.419 2.801-2.037 4.292" fill="#526f80" stroke="#526f80"/><path d="m429 61.965c-2.799.182-5.528.036-8.221-.437l4.367-2.91 1.928 1.674 1.926 1.673" fill="#475f6b" stroke="#475f6b"/><path d="m429 61.965l-1.926-1.673 3.965-.946-4.803-3.893 2.147-1.054 5.348 4.219 2.51 2c-2.438.691-4.876 1.164-7.241 1.346" fill="#d3d2d2" stroke="#d3d2d2"/><path d="m427.07 60.29l-1.928-1.674-1.929-1.673 3.02-1.491 4.803 3.893-3.965.946" fill="#f8f8f6" stroke="#f8f8f6"/><path d="m436.24 60.62l-2.51-2 5.02-4.329-14.986-5.163c.62-1.275 1.199-2.692 1.708-4.256 7.567 4.256 15.385 6.619 23.499 7.166-.11.909-.181 1.855-.218 2.764-4.256 2.692-8.402 4.619-12.512 5.82" fill="#5e5b5c" stroke="#5e5b5c"/><path d="m428.38 54.4l-2.147 1.054-3.02 1.491c-4.144.654-7.821.911-11.02.728 5.057-.4 8.912-3.274 11.568-8.547l14.986 5.163-5.02 4.329-5.348-4.219" fill="#7b7979" stroke="#7b7979"/><path d="m451.77 52.8c-1.019.69-2.037 1.382-3.02 1.999.037-.908.109-1.855.218-2.764l2.801.764" fill="#475f6b" stroke="#475f6b"/><path d="m501.27 66.33c-.727-1.054-1.455-2.037-2.219-2.982-3.092-3.819-6.33-6.656-9.748-8.511-2.073-1.128-4.221-1.856-6.44-2.256v-3.673l20.625 6.473-2.218 10.949" fill="#7194ae" stroke="#7194ae"/><path d="m494.11 49.564c-1.49-.401-3.02-.911-4.509-1.456 0-.91 0-1.818 0-2.728-.036-.764-.036-1.491-.073-2.256l13.895 2.729v1.601l-9.313-1.42v3.53" fill="#7b7979" stroke="#7b7979"/><path d="m489.52 43.12c-.074-1.017-.147-2.035-.218-3.02 3.164 1.345 6.293 2.328 9.457 2.911 4.51.835 9.02.835 13.569 0-1.055 1.708-2 3.492-2.876 5.346-.4.837-.799 1.711-1.164 2.582-.836.073-1.637.11-2.473.11l.983-3.091-1.711-.256-1.672-.254v-1.601l-13.895-2.729" fill="#5e5b5c" stroke="#5e5b5c"/><path d="m489.6 45.38c0 .91 0 1.818 0 2.728-2.219-.836-4.475-1.856-6.729-3.055l6.729.327" fill="#475f6b" stroke="#475f6b"/><path d="m502.91 50.981c-2.945-.182-5.858-.655-8.803-1.417h9.823l1.162-1.856 1.711.256-.983 3.091c-.983.036-1.928 0-2.909-.073" fill="#d3d2d2" stroke="#d3d2d2"/><g fill="#f8f8f6" stroke="#f8f8f6"><path d="m498.76 43.02c-3.164-.583-6.293-1.565-9.457-2.911-.11-1.091-.218-2.182-.363-3.274 7.492-2.182 13.75-1.818 18.732 1.091-1.201 3.02-4.183 4.692-8.912 5.093"/><path d="m494.11 49.564v-3.53l9.313 1.42 1.672.254-1.162 1.856h-9.823"/></g><path d="m488.83 35.994c-.11-.763-.254-1.563-.365-2.328-.145-4.145 5.02-6.292 15.461-6.473 10.437 1.127 14.402 4.619 11.966 10.402-7.131-6.292-16.15-6.801-27.06-1.601" fill="#787576" stroke="#787576"/><path d="m488.94 36.831c-.037-.253-.073-.545-.11-.837 10.912-5.2 19.931-4.691 27.06 1.601-.691 1.637-1.855 3.42-3.564 5.42-4.547.835-9.06.835-13.569 0 4.729-.401 7.711-2.074 8.912-5.093-4.982-2.909-11.24-3.273-18.732-1.091" fill="#d3d2d2" stroke="#d3d2d2"/><path d="m508.29 50.944c.365-.872.764-1.746 1.164-2.582l3.383 2.038c-1.49.254-3.02.435-4.547.544" fill="#475f6b" stroke="#475f6b"/></g><g fill="none" stroke-linejoin="round" stroke-linecap="round" stroke-width=".28" stroke-miterlimit="10"><path d="m484.21 167.92c-.11-.218-.181-.437-.291-.654" stroke="#735f57"/><path d="m494.11 49.564v-3.53l9.313 1.42 1.672.254 1.711.256-.983 3.091c-.983.036-1.928 0-2.909-.073-2.945-.182-5.856-.655-8.803-1.417z" stroke="#a7a5a6"/></g></g></svg>