<svg xmlns="http://www.w3.org/2000/svg" viewBox="0 0 242 440"><defs><clipPath><path d="m0 0h6120v4567h-6120v-4567"/></clipPath></defs><g transform="matrix(1.25,0,0,-1.25,-442.26357,473.8165)"><path d="m468.03 346.88l-3.637 2.51c-6.801-4.11-15.604-4.292-26.334-.58l-2.982-6.512c.873-5.346 1.014-9.02-.423-11.712l.015-3.297c.016-2.144.264-3.403.877-5.518.775-2.364 1.388-3.282 2.808-5.391 6.387-6.567 11.971-9.419 17.588-6.04 7.306 4.142 11.98 10.314 14.08 22.18l.136 3.796-2.127 10.56" fill="#cf876d"/><path d="m434.49 340.19l2.619 1.091 10.293.436c.328.62 0 1.237-1.021 1.891l-9.528-.509-2.364-2.909" fill="#4f4c4c"/><path d="m442.71 318.51c.475-.91 1.056-1.819 1.749-2.691.691-.837 1.49-1.637 2.436-2.402 1.711-1.274 3.492-2.181 5.347-2.654 1.928.254 3.6 1.091 5.092 2.51.62.546 1.164 1.091 1.564 1.71.836 1.126 1.418 2.437 1.747 3.892l-.037 1.127-.326-.181c-.257-.181-1.384-.62-3.349-1.382-3.345-.654-7.891-.618-13.638.109l-1.675.328 1.09-.364m4.621-4.583c-.801.583-1.527 1.2-2.147 1.855-.691.764-1.311 1.637-1.784 2.545 2.256-.581 4.621-.946 7.132-1.09 2.581-.147 4.838 0 6.691.4l2.838.946c-.437-1.346-1.091-2.511-1.964-3.564-.401-.438-.837-.874-1.309-1.274-1.418-1.201-2.948-1.928-4.657-2.182-1.637.436-3.238 1.237-4.801 2.364" fill="#8e403a"/><path d="m445.19 315.78c.62-.655 1.346-1.273 2.147-1.855 1.563-1.127 3.164-1.928 4.801-2.364 1.71.254 3.239.981 4.657 2.182.472.4.907.836 1.309 1.274-4.329-1.165-8.62-.911-12.913.763" fill="#231f20"/><path d="m445.19 315.78c4.293-1.674 8.584-1.928 12.913-.763.873 1.053 1.527 2.218 1.964 3.564l-2.838-.946c-1.853-.4-4.109-.547-6.691-.4-2.511.145-4.876.509-7.132 1.09.473-.909 1.092-1.781 1.784-2.545" fill="#fff"/><path d="m465.85 340.91l3.201-.909-3.529 2.911-9.565.436c-.984-.654-1.273-1.237-.873-1.71l10.766-.728" fill="#4f4c4c"/></g></svg>