<svg xmlns="http://www.w3.org/2000/svg" viewBox="0 0 242 440"><defs><clipPath><path d="m0 0h6120v4567h-6120v-4567"/></clipPath></defs><g transform="matrix(1.25,0,0,-1.25,-442.26357,473.8165)"><g fill="#cf876d"><path d="m432.75 330.77c-2.185 2.219-4.075 3.202-5.711 2.946-.073-3.237.907-6.837 2.982-10.766.764-.91 1.565-1.454 2.438-1.564h.035c-.072 2.145-.041 3.724 1.088 5.905z"/><path d="m471.05 332.4c.075-1.563.035-3.055-.072-4.546 2.437.909 4.109 5.456 5.02 13.567-1.382.11-2.948-1.637-4.691-5.165z"/></g><g fill="#ae6854"><path d="m427.29 335.93c-.073-.254-.145-.51-.183-.801-.035-.473-.072-.946-.072-1.418 1.637.255 3.527-.727 5.711-2.946-2.185 4.984-3.749 7.166-4.729 6.548-.328-.181-.547-.62-.728-1.382"/><path d="m432.49 321.38c.547-.073 1.164.037 1.784.327-.401 1.964-.952 3.434-.696 5.578-1.129-2.181-1.16-3.76-1.088-5.905"/><path d="m470.98 327.86c-.038-.728-.147-1.454-.257-2.145 1.928-1.711 3.676.037 5.276 5.31.727 3.818.946 6.656.691 8.512-.074.4-.181.763-.29 1.089-.11.328-.22.584-.401.801-.91-8.111-2.582-12.658-5.02-13.567"/></g><g fill="#8a5145"><path d="m431.65 328.55c-1.127.291-1.309-1.2-.544-4.438-.328 2.691 0 3.964.907 3.855l1.492-2.727c-.473 1.236-.836 2.218-1.091 2.945-2.511 6.33-3.965 7.13-4.366 2.4.764 2.438 1.965 1.747 3.602-2.036"/><path d="m473.45 327.42c.473 3.129.181 4.547-.874 4.256 1.239 3.565 2.329 4.183 3.239 1.818-.728 4.51-2.037 3.82-3.893-2.11-.218-.727-.472-1.673-.763-2.801l1.164 2.548c.836.109 1.236-1.128 1.127-3.712"/></g></g></svg>