<svg xmlns="http://www.w3.org/2000/svg" viewBox="0 0 242 440"><defs><clipPath><path d="m0 0h5798.92v7736.5h-5798.92v-7736.5"/></clipPath></defs><g transform="matrix(1.25,0,0,-1.25,-333.82361,442.9785)"><path d="m351.28 323.42l2.065-1.935v.029l.579-.111c.03.388.205.718.467.968.29.028.552.028.813 0 .436-.028.903-.056 1.337-.139-.057-.028-.116-.084-.175-.194-.231-.11-.348-.303-.376-.607.028-.223.145-.443.376-.636.175-.194.379-.277.611-.277.263 0 .495.083.698.277.204.165.32.359.29.608 0 .165-.058.332-.144.47.32-.082.581-.221.842-.387.581-.304 1.134-.69 1.688-1.133.056-.028.087-.028.115-.028-.669.747-1.308 1.354-1.977 1.823-.668.388-1.394.691-2.123.885-1.132.359-2.382.442-3.691.193l-1.395.194m5.117-1.63c0 .137.087.247.29.387 0 .027 0 .027.029 0 .291 0 .582-.084.872-.278.029 0 .059-.055.029-.138 0-.165-.058-.304-.204-.415-.115-.111-.261-.166-.436-.139-.145 0-.261.056-.29.165-.174.111-.262.25-.29.417" fill="#231f20"/><path d="m356.69 322.18c-.203-.14-.29-.25-.29-.387.028-.166.116-.305.29-.417.029-.109.145-.165.29-.165.175-.028.321.028.436.139.146.11.204.249.204.415.03.083 0 .138-.029.138-.29.194-.581.278-.872.278-.029.027-.029.027-.029 0" fill="#fff"/><path d="m353.92 321.4l-.579.111v-.029c-.088-2.46 1.51-3.704 4.737-3.786-.203.054-.378.082-.523.054-2.646.581-3.865 1.741-3.662 3.428-.03.084 0 .138.027.222" fill="#c17d69"/><path d="m356.54 322.23c-.435.083-.902.111-1.338.139-.261-.304-.377-.664-.377-1.078-.029-.497.146-.94.522-1.327.379-.359.843-.526 1.396-.553.523-.029.989.137 1.366.496.378.359.582.803.611 1.299-.029.11-.029.194-.059.277-.261.166-.522.305-.842.387.086-.138.144-.304.144-.47.03-.248-.086-.442-.289-.608-.204-.194-.436-.277-.699-.277-.232 0-.435.083-.611.277-.231.193-.348.414-.376.636.028.303.145.496.376.607.059.11.118.166.176.194" fill="#729a56"/><path d="m355.2 322.37c-.261.028-.523.028-.813 0-.262-.25-.437-.58-.467-.968-.027-.084-.057-.138-.027-.222-.203-1.686 1.016-2.846 3.662-3.428 1.134.443 2.063 1.3 2.792 2.599-.554.442-1.107.828-1.688 1.133.03-.083.03-.166.059-.277-.029-.496-.233-.94-.611-1.299-.377-.359-.843-.525-1.366-.496-.553.027-1.017.193-1.396.553-.376.387-.551.829-.522 1.327 0 .415.116.774.377 1.078" fill="#fff"/><path d="m360.35 320.35c-.729-1.299-1.658-2.156-2.792-2.599.145.028.32 0 .523-.054 1.192.552 2 1.381 2.499 2.487v.028c-.028.028-.056.028-.086.055-.029.028-.029.028-.029.056-.028 0-.059 0-.115.028" fill="#d3d2d2"/><path d="m370.7 321.73c-.291-.028-.581-.138-.901-.332 0-.055 0-.138 0-.248-.028-.498.175-.941.554-1.328.377-.387.812-.58 1.364-.58.554 0 1.018.166 1.397.497.377.386.581.829.581 1.299.029.442-.117.829-.378 1.135-.437.027-.872 0-1.309-.029.03-.055.087-.138.117-.222.232-.137.349-.359.349-.635 0-.249-.117-.471-.349-.636-.175-.193-.408-.276-.669-.276-.233 0-.465.11-.67.332-.143.165-.23.359-.23.607 0 .195.057.333.144.416" fill="#729a56"/><path d="m369.8 321.4c.32.194.61.304.901.332-.087-.083-.144-.221-.144-.416 0-.247.087-.441.23-.607.205-.222.437-.332.67-.332.261 0 .494.083.669.276.232.165.349.387.349.636 0 .276-.117.498-.349.635-.03.084-.087.166-.117.222.437.029.872.055 1.309.029.261 0 .552 0 .813-.029.233-.332.379-.664.466-.995l.552.083 2.18 1.853-1.454-.193c-1.278.331-2.499.359-3.691.054-.727-.221-1.424-.526-2.094-.913-.755-.47-1.481-1.05-2.209-1.769.087.084.146.139.175.165.582.443 1.164.774 1.744.968m1.105.249c0 .083.029.139.057.193.292.139.582.193.903.222.029 0 .029 0 .029-.029.174-.138.261-.276.261-.441-.029-.139-.116-.249-.261-.304-.088-.138-.234-.221-.437-.193-.145 0-.261.055-.348.193-.147.082-.234.193-.204.359" fill="#231f20"/><g fill="#fff"><path d="m370.96 321.84c-.028-.054-.057-.11-.057-.193-.03-.166.057-.278.204-.359.087-.138.203-.193.348-.193.203-.028.349.055.437.193.145.055.232.165.261.304 0 .165-.087.303-.261.441 0 .029 0 .029-.029.029-.321-.029-.611-.083-.903-.222"/><path d="m374.13 322.15c-.261.029-.552.029-.813.029.261-.305.407-.692.378-1.135 0-.47-.204-.913-.581-1.299-.379-.331-.843-.497-1.397-.497-.552 0-.987.193-1.364.58-.379.387-.582.829-.554 1.328 0 .11 0 .193 0 .248-.58-.194-1.162-.525-1.744-.968.727-1.354 1.628-2.266 2.704-2.735 2.703.469 3.982 1.547 3.895 3.261-.03.055-.03.111-.058.194-.087.331-.233.663-.466.994"/></g><path d="m374.59 321.15c.028-.083.028-.139.058-.194.087-1.714-1.192-2.792-3.895-3.261-.176 0-.35-.029-.495-.057 3.227-.054 4.854 1.135 4.884 3.595l-.552-.083" fill="#c17d69"/><path d="m370.26 317.64c.145.029.319.057.495.057-1.076.469-1.977 1.382-2.704 2.735-.029-.027-.088-.082-.174-.165l-.029-.028c.406-1.16 1.221-2.02 2.412-2.599" fill="#d3d2d2"/></g></svg>