<svg xmlns="http://www.w3.org/2000/svg" viewBox="0 0 242 440"><defs><clipPath><path d="m0 0h6120v4567h-6120v-4567"/></clipPath></defs><g transform="matrix(1.25,0,0,-1.25,-652.03881,494.95862)"><path d="m612.84 357.41l3.514 1.847c-.071.071-.179.144-.322.181l-3.156-1.774-4.808.542-1.648 2.028c-.071-.037-.145-.108-.252-.182l1.685-2.134c1.795-.398 3.446-.579 4.987-.507" fill="#d3d2d2"/><path d="m612.88 357.66l3.156 1.774c-3.623 2.279-6.816 2.532-9.613.796l1.648-2.028 4.808-.542" fill="#fff"/><path d="m616.03 359.43c.143-.037.251-.109.322-.181-.573.758-1.327 1.41-2.222 2.025-3.122 1.122-5.703 1.193-7.783.181l-3.194 1.953 3.01-3.364c.107.074.181.145.252.182 2.797 1.736 5.99 1.483 9.613-.796" fill="#231f20"/><path d="m612.52 359.65c.213.435.285.868.213 1.338 0 .036 0 .036 0 .036-1.111.399-2.223.508-3.335.327-.179-.398-.214-.832-.106-1.266.106-.507.392-.869.858-1.122.398-.29.862-.362 1.329-.254.466.146.824.47 1.041.942" fill="#70461e"/><path d="m611.3 359.65c.106 0 .214.036.285.108.074.108.108.217.108.327 0 .108-.034.217-.108.289-.034.072-.106.109-.213.145 0 0-.037 0-.072 0-.107 0-.181-.036-.288-.145-.072-.071-.108-.181-.108-.289 0-.109.037-.181.073-.254.035-.036.035-.036.035-.072.107-.072.181-.108.288-.108" fill="#fff"/><g fill="#231f20"><path d="m611.3 360.52c.035 0 .072 0 .072 0 0 .181-.072.325-.179.435-.11.109-.253.181-.432.181-.179 0-.322-.071-.43-.181-.109-.145-.181-.29-.181-.47 0-.182.072-.361.181-.471.108-.145.251-.216.43-.216.108 0 .179 0 .215.036-.037.074-.073.145-.073.254 0 .108.037.216.108.289.107.109.181.145.288.145"/><path d="m623.31 359.25c.574.758 1.327 1.41 2.225 2.025 3.12 1.122 5.703 1.193 7.783.181l3.194 1.953-3.02-3.364c-.108.074-.179.145-.251.182-2.798 1.736-5.989 1.483-9.613-.796-.143-.037-.252-.109-.324-.181"/></g><path d="m623.64 359.43l3.155-1.774 4.807.542 1.651 2.028c.072-.037.143-.108.251-.182l-1.685-2.134c-1.793-.398-3.445-.579-4.987-.507l-3.515 1.847c.072.071.181.144.324.181" fill="#d3d2d2"/><path d="m626.79 357.66l-3.155 1.774c3.624 2.279 6.814 2.532 9.613.796l-1.648-2.028-4.809-.542" fill="#fff"/><path d="m630.31 359.94c.143.47.143.904 0 1.338 0 .036 0 .036 0 .036-1.113.181-2.224.109-3.301-.29-.143-.432-.143-.831.036-1.229.179-.47.503-.797.969-.977.466-.217.932-.217 1.364.037.429.217.752.579.931 1.085" fill="#70461e"/><path d="m629.02 360.59c.038 0 .038 0 .074.034-.037.146-.145.29-.287.398-.108.072-.252.072-.432.038-.179-.038-.321-.109-.429-.218-.074-.181-.108-.361-.074-.542.038-.181.074-.291.181-.398.18-.109.321-.182.502-.146.073.037.144.037.215.072-.034.074-.072.145-.108.254-.034.108 0 .216.074.325.071.108.179.145.284.182" fill="#231f20"/><path d="m629.09 360.63c-.037-.034-.037-.034-.074-.034-.105-.037-.213-.074-.284-.182-.074-.109-.108-.217-.074-.325.037-.109.074-.181.108-.254 0 0 0 0 .037-.036.108-.072.213-.109.321-.072.108.036.181.072.215.182.108.107.145.217.108.325-.037.108-.071.216-.181.289-.034.037-.106.074-.177.108" fill="#fff"/></g></svg>