<svg xmlns="http://www.w3.org/2000/svg" viewBox="0 0 242 440"><defs><clipPath><path d="m0 0h5798.92v7736.5h-5798.92v-7736.5"/></clipPath></defs><g transform="matrix(1.25,0,0,-1.25,-333.82361,442.9785)" stroke-width=".08"><path d="m364.42 353.86c-2.179-.277-4.563-1.021-7.094-2.267-8.691-2.183-13.69-10.173-14.999-23.995.031-2.958-.523-5.778-1.714-8.459 8.343 7.463 13.72 17.554 16.1 30.24 3.228 1.521 7.732 1.964 13.459 1.328l-5.756 3.151zm-7.965-3.98c-.088-.029-.144-.084-.203-.166l-6.02-4.7c-3.113-4.424-5.495-11.971-7.094-22.641-.378-.387-.757-.774-1.134-1.162.61 2.048.931 4.147.901 6.331 1.28 13.519 6.133 21.343 14.564 23.498.029.029.087.029.116.056 2.413 1.162 4.652 1.881 6.716 2.185l.755-.442-6.948-2.296c-.58-.193-1.134-.415-1.657-.663" fill="#444041" stroke="#444041"/><path d="m356.25 349.71c.059.083.115.138.203.166.523.248 1.077.47 1.657.663l6.948 2.296-.755.442c-2.064-.304-4.303-1.023-6.716-2.185-.029-.028-.087-.028-.116-.056-8.431-2.155-13.284-9.979-14.564-23.498.028-2.184-.291-4.283-.901-6.331.377.388.756.775 1.134 1.162 1.599 10.671 3.981 18.217 7.094 22.641l6.02 4.7" fill="#7b7979" stroke="#7b7979"/><path d="m361.51 349.02c.728.139 1.455.249 2.151.305 2.762.303 5.321.193 7.646-.389 6.075-5.971 10.379-14.13 12.965-24.438l2.528-5.557c-.668 1.853-1.017 3.76-1.075 5.696-1.192 8.957-5.667 16.974-13.487 24.05 2.121-.693 4.069-1.742 5.813-3.208l.028-.029c-.086.193-.203.387-.29.581-3.139 5.972-7.587 8.57-13.372 7.823l5.756-3.151c-5.727.636-10.232.193-13.459-1.328-2.384-12.69-7.761-22.781-16.1-30.24-.087-.194-.205-.416-.292-.636-.319-.635-.639-1.244-1.016-1.879 1.221.359 2.383.828 3.517 1.382 1.249.636 2.412 1.41 3.516 2.322 4.623 3.787 8.02 9.815 10.204 18.14 3.634 1.962 7.966 1.602 12.994-1.134-.29.829-.581 1.686-.843 2.543-4.621 5.171-8.314 6.083-11.02 2.737.495 2.571 1.773 4.7 3.837 6.414" fill="#231f20" stroke="#231f20"/><path d="m363.66 349.33c-.696-.056-1.423-.166-2.151-.305-2.064-1.714-3.342-3.843-3.836-6.414 2.702 3.346 6.395 2.434 11.02-2.737.262-.857.553-1.714.843-2.543 3.286-9.925 6.745-17.03 10.438-21.315 2.148-2.515 4.389-4.063 6.713-4.616-5.233 5.169-8.545 10.782-9.912 16.835l-.261.443c-2.85 9.676-7.123 16.559-12.85 20.652zm5.582-9.317c-.028.083-.058.165-.116.222-2.413 2.682-4.594 4.257-6.513 4.727-1.395.359-2.673.166-3.807-.58.262.747.639 1.436 1.105 2.073 2.179.416 4.243-.278 6.132-2.101l4.01-4.04c1.628-5.778 3.953-11.638 6.975-17.582l3.373-4.534c1.134-1.826 2.499-3.595 4.07-5.336-1.365.802-2.734 1.963-4.04 3.483-3.631 4.258-7.092 11.308-10.348 21.15-.29.829-.58 1.659-.842 2.516" fill="#444041" stroke="#444041"/><path d="m369.13 340.23c.058-.056.088-.139.116-.222.262-.858.552-1.687.842-2.516 3.256-9.841 6.717-16.891 10.348-21.15 1.308-1.52 2.677-2.681 4.04-3.483-1.571 1.741-2.936 3.51-4.07 5.336l-3.373 4.534c-3.02 5.944-5.347 11.804-6.975 17.582l-4.01 4.04c-1.889 1.823-3.953 2.516-6.132 2.101-.466-.637-.843-1.327-1.105-2.073 1.134.747 2.412.94 3.807.58 1.919-.47 4.1-2.045 6.513-4.727" fill="#7b7979" stroke="#7b7979"/><g fill="#444041" stroke="#444041"><path d="m371.31 348.94c-2.325.582-4.884.692-7.646.389 8.05-3.235 13.983-11.916 17.79-25.989 1.92-4.781 4.624-7.962 8.08-9.538-1.105 1.576-1.975 3.154-2.586 4.757-.059.137-.115.275-.146.386l-2.528 5.557c-2.586 10.312-6.89 18.467-12.965 24.438"/><path d="m378.23 345.32c-.059.054-.115.111-.145.138l-.029.029c-1.744 1.466-3.692 2.515-5.813 3.208 7.82-7.079 12.295-15.1 13.487-24.05-.029 1.381.058 2.792.32 4.203-2.501 7.491-5.116 12.964-7.849 16.476h.029"/></g><g fill="#231f20" stroke="#231f20"><path d="m378.23 345.32h-.029c2.733-3.511 5.348-8.984 7.849-16.476.087.413.175.856.261 1.299-1.714 6.939-4.389 11.997-8.08 15.177"/><path d="m376.51 328.67l.261-.443c1.367-6.05 4.679-11.666 9.912-16.835 1.484-.36 3.02-.305 4.563.165-.637.748-1.218 1.492-1.715 2.238-3.457 1.576-6.161 4.757-8.08 9.538-3.807 14.07-9.738 22.753-17.79 25.989 5.727-4.092 10-10.976 12.85-20.652"/></g><path d="m357.7 335.78c3.052.966 6.193.47 9.419-1.438 1.686-7.603 4.68-13.603 8.953-18.05-.697-6.05-4.185-11.278-10.435-15.673-2.878.303-5.96 1.491-9.216 3.566-.552.359-1.104.746-1.656 1.131.639-.8 1.338-1.519 2.093-2.183 2.267-1.99 5.086-3.455 8.429-4.367 3.141 1.134 5.785 2.653 7.936 4.507 3.721 3.205 5.96 7.463 6.746 12.744-3.693 4.284-7.152 11.39-10.438 21.315-5.03 2.736-9.36 3.096-12.994 1.134-1.911-5.345-3.652-10.634-6.678-14.506l-.027-1.99c3.838 3.582 6.566 9.374 7.869 13.816" fill="#ae6854" stroke="#ae6854"/><path d="m367.12 334.34c-3.226 1.908-6.367 2.404-9.419 1.438-1.707-5.222-4.235-10.219-7.869-13.816l.108-3.381 1.308-1.687c.581-3.842 2.296-8.07 5.174-12.715 3.256-2.075 6.338-3.263 9.216-3.566 6.25 4.395 9.738 9.62 10.435 15.673-4.273 4.452-7.267 10.451-8.953 18.05" fill="#cf876d" stroke="#cf876d"/><path d="m365.29 297.21c1.076.386 2.122.829 3.082 1.298 1.831.912 3.43 1.991 4.854 3.208v1.549c-2.151-1.854-4.795-3.373-7.936-4.507-3.343.912-6.162 2.378-8.429 4.367-.755.664-1.454 1.383-2.093 2.183-.612.776-1.163 1.604-1.657 2.462l.173-1.853c.379-.662.816-1.298 1.28-1.907 2.53-3.291 6.104-5.557 10.726-6.801" fill="#986154" stroke="#986154"/><path d="m368.37 298.51c-.96-.469-2.01-.912-3.082-1.298-4.622 1.244-8.196 3.51-10.726 6.801l1.048-12.828-.99-.525-.756-1.602-1.832-7.549 9.216-7.464c.96 5.169 3.314 10.365 7.122 15.536v8.929" fill="#cf876d" stroke="#cf876d"/><path d="m373.23 301.72v-4.229l5.32-2.516.35-.997 18.806-8.652c-11.278 7.272-14.941 15.98-11.02 26.07-2.324.553-4.565 2.101-6.713 4.616-.786-5.281-3.02-9.539-6.746-12.744v-1.549" fill="#231f20" stroke="#231f20"/><path d="m373.23 297.49v4.229c-1.424-1.217-3.02-2.296-4.854-3.208v-8.929c-3.808-5.171-6.163-10.367-7.122-15.536l-9.216 7.464 1.832 7.549-3.751-7.798 14.419-11.915c0 1.686.117 3.262.321 4.754.203 1.77.581 3.401 1.104 4.921 1.395 4.12 3.809 7.328 7.267 9.622v8.847" fill="#ae6854" stroke="#ae6854"/><g fill="#f065a3" stroke="#f065a3"><path d="m378.55 294.97l-5.32 2.516v-8.847c-3.458-2.294-5.872-5.502-7.267-9.622 3.954 5.667 8.08 7.187 12.411 4.562l5.669-4.865-5.143 15.259-.35.997"/><path d="m364.85 274.1c-.204-1.492-.321-3.069-.321-4.754 7.18-19.408 8.49-39.921 3.925-61.57-.495-2.241-1.017-4.506-1.629-6.801 7.821-1.244 15.321-1.272 22.473-.138l8.225 2.985-1.657 5.613c-.551-1.632-1.338-3.317-2.354-5.03l1.396 10.698-2.152 1.715-1.628 8.929c-4.681-9.952-10-16.03-15.988-18.273 6.482 5.889 10.697 12.275 12.703 19.1l1.482 6.497c-4.184-4.563-9.1-8.433-14.767-11.556 7.298 5.612 12.647 11.39 16.05 17.388l.667 7.908c4.216 7.187 4.738 15.178 1.512 23.996 6.337-5 7.906-11.638 4.738-19.932l11.861 3.372 1.075 2.046c-1.859 2.184-4.767 2.876-8.75 2.02 2.586 2.02 4.972 2.321 7.15.967v2.435c-3.43 1.794-7.15 4.395-11.133 7.796l9.537-4.424c-.03 6.801-1.134 10.975-3.316 12.522l-20.9 10.01 2.442-11.28c-8.808 7.327-15.698 6.58-20.639-2.24"/></g><path d="m365.96 279.02c-.523-1.52-.901-3.151-1.104-4.921 4.941 8.82 11.831 9.566 20.639 2.24l-2.442 11.28 20.9-10.01c2.182-1.547 3.286-5.721 3.316-12.522l-9.537 4.424c3.983-3.401 7.703-6 11.133-7.796v-2.435c-2.178 1.354-4.564 1.05-7.15-.967 3.983.858 6.891.165 8.75-2.02l-1.075-2.046-11.861-3.372c3.168 8.293 1.599 14.928-4.738 19.932 3.226-8.818 2.704-16.809-1.512-23.996l-.667-7.908c-3.401-5.998-8.75-11.776-16.05-17.388 5.668 3.123 10.583 6.993 14.767 11.556l-1.482-6.497c-2.01-6.827-6.221-13.214-12.703-19.1 5.988 2.239 11.307 8.322 15.988 18.273l1.628-8.929 2.152-1.715-1.396-10.698c1.016 1.715 1.803 3.4 2.354 5.03l1.657-5.613-8.225-2.985c-7.152-1.134-14.652-1.106-22.473.138 1.745-.691 3.576-1.216 5.465-1.631 5.525-1.244 11.715-1.409 18.607-.497l.928.691c3.634.359 6.453 1.906 8.49 4.643l-3.518 9.704c.058.941.058 1.88-.029 2.794l-1.716 1.713c-1.918 6.579-2.383 13.269-1.424 20.07.318 2.515.872 5.059 1.599 7.631.465.802.872 1.602 1.25 2.377.291.635.552 1.244.813 1.825 4.304.415 8.488 1.244 12.528 2.432l1.048-6.607c-2.5-2.736-6.774-3.565-12.85-2.543l.64-2.02c1.077-.248 2.094-.441 3.113-.552 4.01-.472 7.353.083 9.999 1.658.899.554 1.715 1.216 2.442 1.963l-1.512 9.04c-.234-.083-.466-.165-.67-.248-.231.689-.523 1.297-.841 1.85l.725 5.03c-.494.193-1.018.443-1.569.69l-1.628 13.02c.494 3.152-.9 5.861-4.186 8.127l-6.832 3.179-18.806 8.652 5.143-15.259-5.669 4.865c-4.33 2.625-8.457 1.105-12.411-4.562" fill="#e62d78" stroke="#e62d78"/><path d="m350.55 314.55c.552-2.543 1.425-4.81 2.559-6.773.494-.858 1.045-1.686 1.657-2.462.552-.385 1.104-.771 1.656-1.131-2.878 4.644-4.593 8.873-5.174 12.715l-1.308 1.687c.146-1.409.349-2.765.61-4.04" fill="#f3c3aa" stroke="#f3c3aa"/><path d="m353.11 307.77c-1.134 1.963-2.01 4.23-2.559 6.773-.604 2.72-.748 6.395-.69 9.408-.08-.14-2.521-2.745-3.524-3.629-1.106-.912-2.267-1.686-3.518-2.322 3.401-6.829 6.832-10.229 10.291-10.229" fill="#444041" stroke="#444041"/><path d="m354.04 297.49l-6.977-3.429c-1.657-3.704-2.559-5.833-2.704-6.358-1.714-6.553-2.703-11.529-2.964-14.929 2.964 5.503 5.872 8.322 8.719 8.487l3.751 7.798.756 1.602-.581 6.829zm-8.839-9.98c.147.497.991 2.487 2.559 5.943l5.523 2.709.234-2.709c-4.04.028-6.745-4.507-8.08-13.628-.902-.804-1.773-1.855-2.645-3.097.495 2.902 1.308 6.496 2.411 10.782" fill="#f065a3" stroke="#f065a3"/><path d="m347.76 293.45c-1.568-3.456-2.412-5.446-2.559-5.943-1.103-4.286-1.916-7.88-2.411-10.782.872 1.242 1.743 2.293 2.645 3.097 1.337 9.121 4.04 13.656 8.08 13.628l-.234 2.709-5.523-2.709" fill="#f4a9ce" stroke="#f4a9ce"/><path d="m353.28 305.92l.757-8.431.581-6.829.99.525-1.048 12.828c-.464.609-.901 1.245-1.28 1.907" fill="#f3c3aa" stroke="#f3c3aa"/><path d="m344.36 287.7l-2.207-1.66c-2.414-5.556-3.344-11.361-2.763-17.361 3.75 3.677 7.471 6.386 11.221 8.128l11.685-9.537c3.924-18.524 5.086-37.626 3.459-57.34l-7.499-13.13 6.278 6.744-3.052-11-9.883 1.104.785 2.793c-.901-.553-1.803-.885-2.732-1.022-2.01-.249-4.099.44-6.309 2.072l-1.018-3.566c6.715-4.59 13.635-6.581 20.698-5.945.436.03.843.083 1.28.14l2.324 12.11c.059.248.117.496.203.746.612 2.295 1.134 4.56 1.629 6.801 4.565 21.646 3.255 42.16-3.925 61.57l-14.419 11.915c-2.847-.165-5.755-2.984-8.719-8.487.261 3.4 1.25 8.377 2.964 14.929" fill="#e62d78" stroke="#e62d78"/><path d="m350.61 276.81c-3.75-1.741-7.471-4.451-11.221-8.128-.581 6 .349 11.805 2.763 17.361l-15.205-11.39c-2.586-1.19-2.645-4.119-.174-8.765l1.337-26.319-1.017-4.782 10.987-.719v4.701l-4.883 2.764c1.686.553 3.634.194 5.872-1.051l-1.657 4.978c-2.674-2.407-5.348-3.873-7.994-4.425 4.099 2.599 6.656 6.497 7.703 11.722-2.297 4.367-2.965 8.736-2.01 13.1l2.85 5.642c-1.658-8.24-.582-17.196 3.227-26.902-.059-1.74-.174-3.482-.379-5.223-.29-2.627-.726-5.225-1.28-7.798-.783-3.565-1.831-7.08-3.169-10.56-1.336-3.51-2.963-7.02-4.853-10.477.029-1.577 1.947-2.986 5.697-4.175l15.175-9.925-.785-2.793 9.883-1.104 3.052 11-6.278-6.744 7.499 13.13c1.627 19.713.465 38.814-3.459 57.34l-11.685 9.537zm-24.768-5.28c0 1.134.495 1.908 1.483 2.378.058.028.117.055.174.083l12.79 9.593c-.405-1.162-.756-2.322-1.016-3.511l-10.902-8.266 1.309-5.804.843-23.14c-.494-.414-1.018-.774-1.571-1.133h-.057l-1.25 24.19c0 .136-.03.247-.087.33-1.163 2.185-1.745 3.927-1.716 5.281zm12.994-3.484c.175-.138.378-.194.611-.194.204 0 .408.084.582.249-.756-7.326.523-15.178 3.808-23.552.203-10.423-3.285-22.258-10.466-35.471-.551.413-.872.856-.959 1.299 1.861 3.429 3.459 6.883 4.768 10.367v-.029c1.366 3.54 2.441 7.106 3.225 10.699.553 2.598.99 5.225 1.28 7.879.204 1.741.32 3.511.379 5.281 0 .109-.031.22-.059.303-3.343 8.487-4.535 16.395-3.634 23.721h.146c.029-.223.116-.415.319-.553zm-9.884-27.702c.03-.027.059-.027.088-.055.174-.083.378-.111.581-.083.204.055.436.111.64.166l-.232-4.949-1.862.111.815 3.871c0 .083 0 .137 0 .193l-.03.746" fill="#f065a3" stroke="#f065a3"/><g fill="#f4a9ce" stroke="#f4a9ce"><path d="m327.32 273.91c-.988-.47-1.483-1.244-1.483-2.378-.029-1.354.553-3.096 1.716-5.281.057-.083.087-.194.087-.33l1.25-24.19h.057c.553.359 1.077.719 1.571 1.133l-.843 23.14-1.309 5.804 10.902 8.266c.261 1.189.611 2.349 1.016 3.511l-12.79-9.593c-.057-.028-.116-.055-.174-.083"/><path d="m339.45 267.85c-.233 0-.436.056-.611.194-.203.139-.29.331-.319.553h-.146c-.901-7.326.291-15.234 3.634-23.721.028-.084.059-.194.059-.303-.059-1.77-.175-3.54-.379-5.281-.29-2.654-.727-5.281-1.28-7.879-.784-3.593-1.859-7.159-3.225-10.699v.029c-1.309-3.485-2.907-6.938-4.768-10.367.087-.443.408-.886.959-1.299 7.181 13.213 10.669 25.05 10.466 35.469-3.285 8.376-4.564 16.228-3.808 23.554-.174-.165-.378-.249-.582-.249"/><path d="m329.04 240.29c-.029.029-.058.029-.088.055l.03-.746c0-.056 0-.11 0-.193l-.815-3.871 1.862-.111.232 4.949c-.204-.055-.436-.111-.64-.166-.203-.029-.407 0-.581.083"/></g><path d="m340.81 239.38c.205 1.741.32 3.483.379 5.223-3.809 9.706-4.885 18.662-3.227 26.902l-2.85-5.642c-.959-4.367-.291-8.736 2.01-13.1-1.047-5.225-3.604-9.123-7.703-11.722 2.646.553 5.32 2.02 7.994 4.425l1.657-4.978c-2.238 1.245-4.186 1.603-5.872 1.051l4.883-2.764v-4.701l-10.987.719-.35-1.66c3.402.581 6.89.305 10.495-.773l-3.256-6.745c-3.953 1.934-7.558 2.431-10.785 1.492l-.814-2.682c1.192.691 2.471 1.051 3.779 1.133 3.111.166 6.512-1.354 10.202-4.534 1.338 3.484 2.386 6.995 3.169 10.56.554 2.573.99 5.171 1.28 7.798" fill="#e62d78" stroke="#e62d78"/><path d="m324.88 232.74l-1.686-5.639c3.227.939 6.832.442 10.785-1.492l3.256 6.745c-3.605 1.078-7.093 1.354-10.495.773-.61-.11-1.249-.247-1.86-.387zm1.715-4.34c-.727 0-1.453-.055-2.151-.166l1.133 3.816c.437.084.902.165 1.338.248 2.936.498 5.987.333 9.1-.47l-.698-1.464h-8.255l-.466-1.964" fill="#f065a3" stroke="#f065a3"/><path d="m324.45 228.24c.698.111 1.424.166 2.151.166l.466 1.964h8.256l.697 1.464c-3.112.803-6.163.968-9.1.47-.436-.084-.901-.165-1.338-.248l-1.133-3.816" fill="#f4a9ce" stroke="#f4a9ce"/><path d="m325.46 223.42c.204.691.437 1.41.698 2.128-1.308-.082-2.587-.441-3.779-1.133l2.849-1.771c.087.249.145.527.232.775" fill="#881e49" stroke="#881e49"/><path d="m326.16 225.55c-.261-.718-.494-1.437-.698-2.128l1.367-.526 5.523-2.02-2.936-9.76c-.582-2.625 1.017-4.615 4.825-5.97 7.18-3.04 12.326-6.277 15.408-9.73.929.136 1.831.469 2.732 1.021l-15.175 9.925c-3.75 1.189-5.668 2.597-5.697 4.175 1.89 3.456 3.517 6.966 4.853 10.477-3.69 3.179-7.091 4.7-10.202 4.534" fill="#ae6854" stroke="#ae6854"/><path d="m326.83 222.9l-1.367.526c-.087-.248-.145-.526-.232-.775-2.094-7.05-2.384-13.904-.901-20.622 3.168-2.627 5.494-5.116 6.977-7.519.697-.03 1.366 0 2.034.028l-8.02 7.851c-.93 8.099-.436 14.929 1.512 20.512" fill="#f3c3aa" stroke="#f3c3aa"/><path d="m332.35 220.88l-5.523 2.02c-1.948-5.583-2.442-12.413-1.512-20.512l8.02-7.851c2.878.192 5.232.995 7.06 2.459l-1.306 4.672c1.453-1.741 2.878-3.153 4.243-4.175 2.21-1.632 4.303-2.321 6.309-2.071-3.082 3.453-8.228 6.69-15.408 9.73-3.808 1.354-5.407 3.345-4.825 5.97l2.936 9.76" fill="#cf876d" stroke="#cf876d"/><path d="m397.29 250.3c-.261-.581-.522-1.19-.813-1.825l1.539-4.893c6.076-1.022 10.35-.193 12.85 2.543l-1.046 6.607c-4.04-1.188-8.226-2.02-12.53-2.432zm.117-1.909c.175.388.35.775.493 1.135 3.839.415 7.588 1.105 11.222 2.128l.262-1.659-10.378-2.156.727-3.678c-.349.056-.699.11-1.046.165l-1.28 4.064" fill="#f065a3" stroke="#f065a3"/><path d="m397.9 249.52c-.143-.359-.318-.747-.493-1.135l1.28-4.064c.347-.055.697-.109 1.046-.165l-.727 3.678 10.378 2.156-.262 1.659c-3.634-1.023-7.383-1.714-11.222-2.128" fill="#f4a9ce" stroke="#f4a9ce"/><path d="m402.24 238.66l1.394.082 6.512.472c3.429-9.982 2.384-19.326-3.14-28.09l-6.191-16.726c-3.983-2.928-6.891-5.943-8.779-9.07l-6.05 2.266-.611-.719c1.977-2.184 5.058-3.593 9.273-4.202.116.884.319 1.715.64 2.488 1.278 3.538 4.186 6.221 8.691 8.04.727 4.81 2.442 9.981 5.116 15.538 4.912 8.21 6.686 15.841 5.32 22.891l-2.645 11.03c-2.646-1.575-5.99-2.127-9.999-1.658l.465-2.35" fill="#ae6854" stroke="#ae6854"/><path d="m403.63 238.74l-1.394-.082 2.295-11.556c-2.354-5.778-3.285-12.634-2.82-20.569-.406-.856-.871-1.631-1.394-2.351-2.037-2.737-4.856-4.283-8.49-4.643l-.928-.691-11.775-8.542c.029-.194.089-.36.174-.526l12.443 8.597c5.93 1.742 9.592 4.313 10.989 7.686-.322 8.93.93 15.758 3.719 20.513l-2.819 12.164" fill="#f3c3aa" stroke="#f3c3aa"/><path d="m385.99 187.6l6.05-2.266c1.888 3.123 4.796 6.138 8.779 9.07l6.191 16.726c5.524 8.765 6.569 18.11 3.14 28.09l-6.512-.472 2.819-12.164c-2.789-4.755-4.04-11.583-3.719-20.513-1.397-3.373-5.059-5.944-10.989-7.686l-12.443-8.597c.088-.249.233-.443.408-.609l11.484 6.415-.497-2.185-4.707-5.806" fill="#cf876d" stroke="#cf876d"/><path d="m385.38 186.88l.611.719 4.707 5.806c-5.9-4.284-9.563-5.697-10.987-4.23-.175.165-.32.359-.408.609-.085.165-.145.332-.174.526l11.775 8.542c-6.892-.912-13.08-.747-18.607.497-1.889.415-3.72.94-5.465 1.631-.086-.249-.144-.497-.203-.746l-2.324-12.11c-.437-.057-.844-.11-1.28-.14-7.06-.636-13.983 1.355-20.698 5.945-3.197-1.355-6.541-1.74-10.06-1.216-.494.085-.988.166-1.512.304.029-.609.058-1.216.087-1.853.32-.083.669-.193.988-.276.612-.166 1.222-.303 1.831-.416 2.995-.607 5.815-.718 8.431-.331l18.05-4.894.291-9.371-9.13 4.258 10.873-7.522-.9-5.306c-10.321-1.742-20.611-1.355-30.931 1.106-.814.193-1.627.414-2.442.608-.319.084-.668.194-.988.278-.203-.526-.436-1.079-.639-1.605 3.372-1.298 6.773-2.322 10.204-3.01 8.778-1.797 17.703-1.632 26.8.553.349.084.698.166 1.076.249.436-.111.9-.222 1.367-.359 10.06-2.738 20.231-4.729 30.495-6 .87-.11 1.743-.221 2.614-.303l-1.134 6.525 1.628 3.732-3.108 4.341.899 8.983c-.842.056-1.685.139-2.47.277-4.215.609-7.296 2.02-9.273 4.202zm-1.483.636l-1.019-2.487c2.938-2.848 6.279-4.701 10.09-5.502l-1.017-5.945 2.732-3.345-1.918-3.677 1.019-3.788c-8.984-.138-18.751 1.05-29.3 3.538l.638 5.281 14.419 4.783-11.744-2.321 4.215 23.692 10.756-1.686-5.581-5.613c-.668-2.432 1.569-3.4 6.715-2.93zm-20.929-.47h2.064l3.167 11.39 2.617-.554-5.466-24.301-3.08 1.437.698 12.03" fill="#373532" stroke="#373532"/><g fill="#595651" stroke="#595651"><path d="m382.87 185.03l1.019 2.487c-5.146-.47-7.383.498-6.715 2.93l5.581 5.613-10.756 1.686-4.215-23.692 11.744 2.321-14.419-4.783-.638-5.28c10.552-2.489 20.319-3.677 29.3-3.538l-1.019 3.787 1.918 3.677-2.732 3.345 1.017 5.945c-3.809.802-7.15 2.653-10.09 5.502"/><path d="m365.03 187.04h-2.064l-.698-12.03 3.08-1.437 5.466 24.301-2.617.554-3.167-11.39"/></g><g fill="#ae6854" stroke="#ae6854"><path d="m390.69 193.4l.495 2.185-11.482-6.415c1.424-1.466 5.087-.054 10.987 4.23"/><path d="m366.89 160.45l1.802-.58 22.85-7.215c.726-15.897-.175-32.04-2.704-48.38-20.959-21.07-39.652-41.774-56.13-62.15l-11.1-13.354-3.983 3.18.873 12.717c-1.657-4.368-2.326-8.983-2.01-13.878l8.169-6.248c5.406 4.92 9.535 10.06 12.411 15.426 5.349 7.298 10.931 14.376 16.745 21.259.436.497.844.995 1.279 1.494 2.791 3.235 5.639 6.441 8.518 9.592l3.662-36.962 2.094-13.353c-3.519.664-6.628.304-9.303-1.078l.379-3.814c2.499 2.045 5.26 2.819 8.312 2.322 1.512-.25 3.112-.829 4.768-1.716l-.261 5.724-3.343 13.739-3.257 38.428c8.983 9.593 18.459 18.717 28.432 27.398 2.324 17.693 2.702 36.409 1.134 56.12-10.264 1.272-20.437 3.263-30.495 6 .406-1.577.785-3.125 1.162-4.673"/></g><path d="m368.69 159.87l-1.802.58c4.099-17.445 6.162-34.667 6.135-51.669-3.926-2.267-7.676-5.171-11.25-8.681-5.378-5.308-10.408-12.05-15.03-20.21-2.994-5.279-5.843-11.195-8.547-17.72-1.104-3.512-3.982-6.248-8.632-8.21-.262-.692-.553-1.328-.902-1.937 6.192 2.49 9.855 5.421 10.959 8.821 7.06 20.984 18.866 36.465 35.38 46.39.495 17.556-1.627 35.08-6.308 52.638" fill="#f3c3aa" stroke="#f3c3aa"/><path d="m361.28 167.3l.9 5.306-10.873 7.522 9.13-4.258-.291 9.371-18.05 4.894c-2.616-.387-5.436-.276-8.431.331.378-7.796-.725-15.15-3.313-22.06 10.319-2.461 20.61-2.848 30.931-1.106" fill="#595651" stroke="#595651"/><path d="m394.65 182.68c.785-.138 1.628-.221 2.47-.277l-1.83 2.765c-.321-.773-.524-1.602-.64-2.488" fill="#231f20" stroke="#231f20"/><path d="m342.32 193.93l1.018 3.566c-1.365 1.022-2.79 2.434-4.243 4.175l1.306-4.672c-1.831-1.465-4.185-2.267-7.06-2.459-.668-.028-1.337-.057-2.034-.028.144-.249.29-.499.436-.748.202-.359.378-.69.523-1.05 3.516-.524 6.86-.139 10.06 1.216" fill="#ae6854" stroke="#ae6854"/><path d="m331.83 190.89c-.319.083-.668.193-.988.276.175-7.05-1.134-14.347-3.924-21.866.32-.084.669-.194.988-.278 2.849 7.713 4.158 15.01 3.924 21.868" fill="#595651" stroke="#595651"/><path d="m330.75 193.01c.524-.138 1.018-.222 1.512-.304-.145.359-.321.691-.523 1.05l-.989-.746" fill="#231f20" stroke="#231f20"/><path d="m327.91 169.02c.815-.194 1.628-.415 2.442-.608 2.588 6.911 3.691 14.265 3.313 22.06-.609.112-1.219.249-1.831.416.234-6.856-1.075-14.155-3.924-21.868" fill="#968c86" stroke="#968c86"/><path d="m336.48 164.68l.434-3.262c.495-.083.96-.139 1.454-.222 6.803-.912 13.43-.884 19.912.03l.814-50.18c-.349-4.949-2.034-9.151-5.03-12.552l2.791 1.742c.669.441 1.308.995 1.86 1.686v-2.241c-4.274-3.345-8.05-7.464-11.309-12.357-.609-.913-1.219-1.88-1.773-2.848.32-1.521.67-3.068 1.105-4.59 4.622 8.156 9.652 14.902 15.03 20.21l-.727 6.414c.26.857.493 1.771.697 2.737l1.54 55.982c-9.1-2.185-18.02-2.349-26.8-.553" fill="#ae6854" stroke="#ae6854"/><path d="m338.37 161.19c-.494.083-.959.139-1.454.222l7.85-59.16c-.64-5.917-.349-11.833.871-17.777.554.968 1.164 1.935 1.773 2.848-1.394 5.307-1.628 10.146-.668 14.541l-8.372 59.33" fill="#f3c3aa" stroke="#f3c3aa"/><g fill="#cf876d" stroke="#cf876d"><path d="m388.84 104.27c2.529 16.339 3.43 32.482 2.704 48.38l-22.85 7.215c4.681-17.554 6.803-35.08 6.308-52.638-16.511-9.924-28.312-25.406-35.38-46.39-1.104-3.4-4.767-6.331-10.959-8.821-1.86-3.177-5.174-5.417-9.913-6.661-.087-.223-.174-.443-.261-.692l-.873-12.717 3.983-3.18 11.1 13.354c16.482 20.374 35.18 41.08 56.13 62.15"/><path d="m359.1 111.05l-.814 50.18c-6.482-.912-13.11-.941-19.912-.029l8.372-59.33c-.96-4.395-.726-9.234.668-14.541 3.257 4.893 7.04 9.01 11.309 12.357v2.241c-.552-.691-1.191-1.245-1.86-1.687l-2.791-1.741c2.994 3.401 4.679 7.603 5.03 12.552"/></g><path d="m328.66 52.02c.349.61.64 1.245.902 1.937-1.25.358-2.617.524-4.07.495-.495-2.707-3.169-5.196-8.02-7.49-2.5-6.194-3.43-12.385-2.791-18.578l4.536-4.312c1.715-7.658.116-12.137-4.855-13.436.378-1.135.785-2.24 1.279-3.346 7.413.912 10.435 6.662 9.01 17.252l-8.169 6.248c-.32 4.895.349 9.51 2.01 13.878.087.249.174.469.261.692 4.739 1.244 8.05 3.484 9.913 6.661" fill="#373532" stroke="#373532"/><path d="m325.49 54.45c-2.414-.026-5.088-.552-8.02-1.602-6.25-15.978-7.267-30.05-3.11-42.21 4.97 1.299 6.57 5.779 4.855 13.436l-4.536 4.312c-.639 6.193.291 12.385 2.791 18.577 4.854 2.295 7.529 4.784 8.02 7.491" fill="#595651" stroke="#595651"/><path d="m355.09 62.721c-.435-.499-.843-.997-1.279-1.494l7.122-24.382-1.278-12.136.406-3.789 2.79 15.426-7.761 26.375" fill="#f3c3aa" stroke="#f3c3aa"/><path d="m360.06 20.92l-.406 3.788-.669-6.525c-1.192-4.451-1.163-7.964.087-10.478 10.377-1.797 13.604 2.128 9.679 11.722-3.052.496-5.813-.277-8.312-2.322l-.379 3.815" fill="#595651" stroke="#595651"/><path d="m369.36 21.998l-2.094 13.353-3.662 36.962c-2.879-3.151-5.727-6.357-8.518-9.592l7.761-26.375-2.79-15.426c2.675 1.382 5.784 1.742 9.303 1.078" fill="#cf876d" stroke="#cf876d"/><path d="m373.52 17.711c-1.656.886-3.256 1.466-4.768 1.716 3.925-9.594.698-13.519-9.679-11.722 1.454-2.958 4.592-4.617 9.389-4.922 7.704.36 9.855 4.922 6.511 13.687l-1.714 6.966.261-5.724" fill="#373532" stroke="#373532"/><path d="m359.85 308.44v.028c-.059.028-.146.055-.263.082.088-.027.176-.082.263-.109" fill="#7c4542" stroke="#7c4542"/><g fill="#641b33" stroke="#641b33"><path d="m367.94 267.99c-.379 0-.727-.112-.988-.359-.233-.249-.348-.553-.348-.914 0-.358.115-.636.348-.883.261-.25.609-.389.988-.389.377 0 .669.139.929.389.263.246.379.525.379.883 0 .361-.116.665-.379.914-.26.247-.552.359-.929.359"/><path d="m366.95 276.01c.261-.249.609-.387.988-.387.377 0 .669.138.929.387.263.249.379.525.379.884 0 .359-.116.665-.379.914-.26.247-.552.357-.929.357-.379 0-.727-.109-.988-.357-.233-.249-.348-.555-.348-.914 0-.359.115-.635.348-.884"/><path d="m365.73 253.92c-.262-.247-.379-.553-.379-.912 0-.359.117-.636.379-.883.262-.25.582-.388.959-.388.378 0 .668.138.93.388.261.247.407.524.407.883 0 .359-.146.665-.407.912-.262.249-.552.359-.93.359-.377 0-.697-.11-.959-.359"/><path d="m368.52 241.64c-.378 0-.697-.11-.96-.332-.26-.249-.378-.553-.378-.912 0-.359.118-.663.378-.912.263-.249.582-.359.96-.359.378 0 .669.109.93.359.262.249.408.554.408.912 0 .359-.146.663-.408.912-.261.222-.552.332-.93.332"/><path d="m369.85 227.35c-.263.249-.554.359-.931.359-.378 0-.697-.11-.96-.359-.261-.248-.377-.554-.377-.912 0-.359.116-.635.377-.885.263-.248.582-.386.96-.386.377 0 .668.138.931.386.261.25.406.526.406.885 0 .359-.145.664-.406.912"/><path d="m366.16 213.36c-.262-.25-.378-.554-.378-.913 0-.359.116-.635.378-.885.261-.25.581-.386.959-.386.378 0 .668.136.93.386.261.25.407.526.407.885 0 .359-.146.663-.407.913-.262.248-.552.359-.93.359-.378 0-.698-.111-.959-.359"/></g></g></svg>