<svg xmlns="http://www.w3.org/2000/svg" viewBox="0 0 242 440"><defs><clipPath><path d="m0 0h6120v4567h-6120v-4567"/></clipPath></defs><g transform="matrix(1.25,0,0,-1.25,-652.03881,494.95862)"><g fill="#f4ab89"><path d="m603.8 348.64c1.901-4.305 4.064-6.646 8.19-9.72 2.728-1.991 2.993-2.572 6.687-4.056l2.695 1.074z"/><path d="m603.8 368.7l-.933-8.299.062-7.371c.394-1.557.224-2.976.869-4.388 5.848-6.476 11.04-10.206 17.571-12.702 8.551 3.59 12.198 9.235 14.605 16.985l.037 10.492-2.224 4.631c-3.192 7.599-7.246 10.131-12.12 7.561l-10.69 1.737-7.175-8.648"/></g><path d="m626.36 342.03l2.511 1.59-1.613-.506-1.614-.543c-3.265-3-6.672-2.931-10.224.29-.179.108-.287.217-.396.327l-.358.107-1.793.362 1.256-.688c1.757-2.496 3.586-4.051 5.488-4.595 1.542-.361 3.301.145 5.273 1.52.824.723 1.29 1.446 1.469 2.135" fill="#c95c5d"/><path d="m614.67 343.3l.358-.107c.108-.109.217-.218.396-.327 4.125.615 7.533.507 10.224-.29l1.614.543c-4.414 1.412-8.61 1.483-12.591.181" fill="#dc8675"/><path d="m625.65 342.57c-2.691.797-6.099.905-10.224.29 3.552-3.221 6.959-3.292 10.224-.29" fill="#fff"/><g fill="#231f20"><path d="m614.31 366.27c1.111-.47 2.117-.435 3.083.036-.967-.109-1.936.108-2.905.578-4.555 2.75-8.501 2.931-11.909.579l-.683-1.664c3.266 2.641 7.391 2.822 12.413.47"/><path d="m625.36 366.31c-1.111-.433-2.117-.399-3.086.146.969-.146 1.938 0 2.907.469 4.555 2.569 8.501 2.569 11.909.037l.682-1.665c-3.265 2.786-7.39 3.148-12.411 1.013"/></g></g></svg>