<svg xmlns="http://www.w3.org/2000/svg" viewBox="0 0 242 440"><defs><clipPath><path d="m0 0h5798.92v7736.5h-5798.92v-7736.5"/></clipPath></defs><g transform="matrix(1.25,0,0,-1.25,-333.82361,442.9785)"><path d="m349.86 323.95c-.949.76-2.171 2.464-2.571 2.269-.4-.195-1.493-3.433-.955-5.898.088-.304.204-.581.292-.858 1.286.809 2.102 1.412 3.206 2.497z" fill="#ae6854"/><path d="m349.83 321.96c-1.105-1.085-1.92-1.688-3.206-2.497.727-1.99 1.512-3.373 2.412-4.174l.902 3.29z" fill="#cf876d"/><path d="m349.94 318.58l-.902-3.29c.495-.416.989-.663 1.512-.747-.261 1.272-.464 2.627-.61 4.04" fill="#ae6854"/></g></svg>