<svg xmlns="http://www.w3.org/2000/svg" viewBox="0 0 242 440"><defs><clipPath><path d="m0 0h6120v4567h-6120v-4567"/></clipPath></defs><g transform="matrix(1.25,0,0,-1.25,-652.03881,494.95862)" stroke-width=".08"><path d="m611.49 337.22l-.023-1.202c2.286-2.153 5.923-3.575 8.757-4.808 1.215.502 3.437 1.158 3.948 1.552 1.725.628 4.424 2.6 4.281 2.707l-.041 1.5c-2.58-1.865-5.218-3.208-7.855-4.559-3.215 1.36-5.688 2.219-9.07 4.81z" fill="#b96351" stroke="#b96351"/><path d="m630.6 394.6c-.969.181-1.901.324-2.833.433 4.913-5.681 8.07-11.759 9.505-18.16-6.206 6.04-11.372 7.961-15.497 5.752l-10.58 7.599c-4.987-2.063-9.542-4.957-13.597-8.611-.932-1.918-1.757-3.981-2.509-6.188 4.555 5.175 9.613 9.335 15.244 12.411 5.057-2.206 8.679-5.137 10.867-8.756 3.91 3.364 7.355 3.04 10.405-.977l6.02-10.276 2.583-4.449-2.01-4.596 2.726 4.306c2.869 7.416 3.338 13.387 1.435 17.837-4.09 6.549-8 11.11-11.765 13.677" fill="#231f20" stroke="#231f20"/><path d="m613.06 384.04l8.141-4.957c-2.188 3.618-5.81 6.549-10.867 8.756-5.631-3.076-10.689-7.236-15.244-12.411-2.8-3.147-5.38-6.693-7.783-10.637-1.795-2.93-3.481-6.079-5.02-9.443-1.543-3.546-3.302-6.584-5.311-9.08 6.635 4.957 12.878 11.795 18.723 20.478l15.353 18.13 2.01-.832" fill="#4f4c4c" stroke="#4f4c4c"/><path d="m621.2 379.08l-8.141 4.957c-.824-.905-1.651-1.773-2.438-2.641l10.58-2.316" fill="#231f20" stroke="#231f20"/><path d="m597.6 381.61c4.055 3.654 8.61 6.548 13.597 8.611l10.58-7.599c4.125 2.209 9.291.29 15.497-5.752-1.435 6.405-4.592 12.482-9.505 18.16-6.135.831-12.234.688-18.331-.433-4.913-2.57-8.861-6.876-11.838-12.989" fill="#4f4c4c" stroke="#4f4c4c"/><path d="m600.22 368.77l-.215-6.549.969-1.774.897 10.456c-.539-.686-1.076-1.375-1.651-2.133" fill="#231f20" stroke="#231f20"/><path d="m600 362.22l.215 6.549c-.753-.977-1.472-1.991-2.188-2.968l1.972-3.582" fill="#4f4c4c" stroke="#4f4c4c"/><path d="m601.9 348.69c1.901-4.305 4.914-7.996 9.04-11.07 2.728-1.991 3.431-2.684 7.124-4.169l3.033 1.509" fill="#f4ab89" stroke="#f4ab89"/><path d="m600.97 360.45l2.833 8.249 7.175 8.648 10.688-1.737c4.879 2.57 8.933.038 12.13-7.561l2.224-4.631-.037-10.492c-1.757-7.815-6.306-13.985-14.88-17.963l-3.033-1.509 2.489-1.042c1.364.615 2.655 1.267 3.876 1.955 1.433.831 2.762 1.699 3.98 2.604 5.633 4.161 8.968 9.118 10.01 14.943.072.361.143.723.179 1.049l-.107 1.557-.287 4.269-.574 9.04-6.03 10.276c-3.048 4.02-6.493 4.342-10.403.977l-10.58 2.316c-3.01-3.365-5.921-6.839-8.752-10.493l-.897-10.456" fill="#cb7054" stroke="#cb7054"/><path d="m603.8 368.7l-2.833-8.249-.188-7.271c.394-1.557.474-3.076 1.119-4.488 5.848-6.476 12.67-11.234 19.2-13.73 8.573 3.978 13.12 10.148 14.88 17.963l.037 10.492-2.224 4.631c-3.192 7.599-7.246 10.131-12.12 7.561l-10.69 1.737-7.175-8.648" fill="#f4ab89" stroke="#f4ab89"/><path d="m598.03 365.8c.716.976 1.434 1.99 2.188 2.968.574.758 1.111 1.446 1.651 2.133 2.834 3.654 5.738 7.128 8.752 10.493.788.868 1.614 1.736 2.438 2.641l-2.01.832-15.353-18.13c-5.846-8.683-12.09-15.521-18.723-20.478-2.907-3.582-6.35-6.115-10.258-7.526 3.765.544 7.425 1.955 10.974 4.197 3.266 2.064 6.493 4.887 9.616 8.395 2.188 2.461 4.374 5.283 6.491 8.467l.503.615c.179.253.322.47.503.723 1.04 1.592 2.115 3.147 3.228 4.668" fill="#231f20" stroke="#231f20"/><g fill="#4f4c4c" stroke="#4f4c4c"><path d="m638.2 358.78l2.01 4.596-2.583 4.449.574-9.04"/><path d="m594.8 361.13c-.181-.253-.324-.47-.503-.723l-.503-.615c-2.117-3.184-4.305-6.01-6.493-8.467-3.121-3.508-6.348-6.331-9.614-8.395-8.715-11.287-8.572-21.563.504-30.825 2.01 8.574 8.896 13.749 20.697 15.484l1.399 5.211 6.292 3.05c-6.422 5.281-11.03 13.738-11.78 25.279"/></g><path d="m586.1 318.39c.79.469 2.01.892 2.908 1.073l11.1 3.718 1.269 4.793 10.07 4.76.045 4.483c-4.125 3.075-7.685 7.166-9.586 11.471-.645 1.412-.725 2.931-1.119 4.488.083 3.752.188 7.271.188 7.271-.653 1.196-2.206 4.137-2.941 5.356-1.114-1.521-2.189-3.076-3.228-4.668.752-11.542 5.358-19.998 11.78-25.279l-6.292-3.05-1.399-5.211c-11.802-1.735-18.689-6.91-20.697-15.484.768-.687 1.419-1.278 2.162-1.777 2.384 5.408 2.582 4.733 3.781 6.488.54.542 1.356 1.208 1.967 1.57" fill="#231f20" stroke="#231f20"/><path d="m589.01 319.46c-1.023-.206-2.01-.537-2.908-1.073-.698-.414-1.35-.952-1.967-1.57-2.456-2.479-4.26-6.651-5.364-12.477-.739-4.01-1.19-8.757-1.311-14.335-.122-5.494.039-11.692.53-18.632.042-.454.042-.866.085-1.322l7.04-3.097 5.489 14.789c-4.01 6.362-4.302 13.881-.86 22.514.491-10.245 3.236-16.813 8.193-19.706l2.332-12.228c-1.596-1.28-2.01-3.304-1.229-6.073-5.366-9.05-8.56-20.614-9.501-34.66 6.635-1.033 12.203-.206 16.668 2.396l-.778 71.59c-3.971.042-7.822-1.074-11.589-3.346-.532 6.321.696 13.01 3.685 20.08l-8.519-2.851" fill="#55a0c9" stroke="#55a0c9"/><path d="m589.75 304.26c-3.441-8.633-3.154-16.15.86-22.514l-5.489-14.789-7.04 3.097c-.37-.412-.78-.866-1.149-1.321 3.154-2.354 6.431-4.091 9.789-5.247.941-.289 1.843-.578 2.787-.785l.656 1.695 7.783 20.16c-4.958 2.892-7.703 9.46-8.193 19.706" fill="#3f7c95" stroke="#3f7c95"/><g fill="#264c58" stroke="#264c58"><path d="m578.07 270.05c-.043.456-.043.868-.085 1.322-2.21.91-4.42 1.653-6.633 2.191 1.843-1.818 3.686-3.429 5.568-4.834.37.454.78.908 1.149 1.321"/><path d="m593.15 262.12c-1.026.785-2.01 1.569-2.991 2.272l-.656-1.695c1.188-.247 2.414-.454 3.647-.578"/></g><path d="m593.15 262.12c-1.232.123-2.459.331-3.647.578-.941.207-1.843.496-2.787.785l-2.01-7.478c-4.792-1.032-9.911.538-15.44 4.629l-.574-3.637c.86-.537 1.761-1.033 2.663-1.487 5.857-3.02 11.999-4.42 18.472-4.172l3.319 10.782" fill="#3f7c95" stroke="#3f7c95"/><path d="m571.36 273.57l-2.089-12.93c5.529-4.091 10.648-5.661 15.44-4.629l2.01 7.478c-3.358 1.157-6.635 2.892-9.789 5.247-1.882 1.405-3.725 3.02-5.568 4.834" fill="#55a0c9" stroke="#55a0c9"/><path d="m571.36 255.51c-.207-1.032-.409-2.148-.532-3.304 4.463-3.181 8.887-5.04 13.31-5.536l-5.282-26.645c3.069-5.825 2.17-10.163-2.621-13.01.204-3.098-.656-6.733-2.541-10.987.328.041.655.122.944.247.204.123.409.247.613.372.247.125.491.331.695.537.165.207.331.414.452.662.122.205.288.454.45.743.042.041.042.083.081.123.043.206.124.373.25.538.571 1.403 1.022 3.303 1.308 5.658l5.08 5.66c.941 1.116.532 4.131-1.311 8.965.204.578.409 1.155.613 1.734 1.843 5.455 3.316 10.453 4.423 14.954 1.434 5.784 2.295 10.823 2.541 15.12-6.473-.248-12.615 1.155-18.472 4.172" fill="#cb7054" stroke="#cb7054"/><path d="m584.13 246.67c-4.423.496-8.847 2.355-13.31 5.536-1.19-8.841-.616-20.08 1.801-33.711l-5.817-9.749v-12.27c.207-.247.37-.495.574-.744 2.171-2.683 4.751-4.875 7.742-6.609.778-.454 1.557-.868 2.374-1.239 1.106-.538 2.295-.991 3.523-1.405.043.083.082.165.124.289l-12.861 10.04 6.142 15.04-4.341-14.83c1.352-.784 2.581-1.115 3.604-.99 1.885 4.254 2.745 7.889 2.541 10.987 4.791 2.851 5.691 7.189 2.621 13.01l5.282 26.645" fill="#f9b291" stroke="#f9b291"/><path d="m589.54 231.59c-.042-.785-.125-1.611-.165-2.437.575-.123 1.149-.206 1.721-.29.042 0 .081 0 .122 0 7.25-1.032 14.835.167 21.426 3.02-.325 3.841.124 7.601-.122 11.814-.204 3.429-.329 6.94-.452 10.617-.039.662-.027 1.322-.069 2.026-.698 16.358-.861 35.11-.696 56.27-4.588 1.736-10.953-.537-15.95-6.857l4.749 17.432-2.58-.866c-2.988-7.06-4.217-13.757-3.685-20.08 3.767 2.272 7.618 3.388 11.592 3.346l.776-71.59c-4.464-2.602-10.03-3.429-16.668-2.396" fill="#3f7c95" stroke="#3f7c95"/><path d="m591.22 228.87c-.042 0-.081 0-.122 0-.124-1.074-.204-2.147-.286-3.262l24.765 2.644-.062 8.221 7.089.062-1.32-8.448 18.676-3.553c2.662-11.403 2.947-23.01.819-34.825-14.662-3.02-30.758-4.131-48.29-3.387.124-.702.247-1.406.37-2.11 1.801-.288 3.605-.578 5.405-.825 6.922-.868 13.886-1.241 20.808-1.075 8.03.207 16.05 1.075 24.12 2.644 1.187.249 2.417.496 3.646.786 2.292 13.177 2.619 26.976.981 41.35-.04 1.073-.04 2.147-.082 3.181-.124-.043-.204-.043-.328-.084-6.84-1.116-14.665-.493-22.16 1.821.124.784.203 1.484.326 2.269.449 3.1.466 6.196.835 9.295-.695-.123-1.042-.248-1.74-.372-3.851-.579-5.823-.621-9.224-.165-1.187.165-1.818.372-2.925.66.246-4.213-.203-7.973.122-11.814-6.594-2.85-14.177-4.049-21.426-3.02" fill="#6a8257" stroke="#6a8257"/><path d="m577.17 199.25c-.126-.165-.207-.332-.25-.538 1.928-.867 3.647-1.734 5.162-2.643 1.719-1.034 3.112-2.15 4.218-3.265l1.187-.083c0 .042 0 .126 0 .167-.122.578-.409 1.115-.859 1.569-.695.784-1.801 1.405-3.316 1.942l-6.142 2.851" fill="#cb7054" stroke="#cb7054"/><path d="m576.92 198.71c-.039-.041-.039-.083-.081-.123-.163-.289-.328-.538-.45-.743l6.06-3.182c.245-.123.491-.288.737-.412.698-.454 1.311-.91 1.801-1.363l1.311-.084c-1.106 1.116-2.499 2.231-4.218 3.265-1.515.909-3.234 1.776-5.162 2.643" fill="#f9b291" stroke="#f9b291"/><g fill="#cb7054" stroke="#cb7054"><path d="m585.73 189l.776-.206c.289 1.487-.246 2.85-1.515 4.091-.491.453-1.104.908-1.801 1.363-.246.125-.492.289-.737.412l-6.06 3.182c-.121-.248-.286-.454-.452-.662l5.327-2.686c2.456-1.363 3.929-3.181 4.464-5.494"/><path d="m580.12 194.12c-.78.454-1.678.952-2.623 1.447-.696.372-1.472.702-2.252 1.074-.204-.125-.409-.248-.613-.372l5.445-3.346c1.928-1.694 2.869-3.181 2.829-4.422l1.596-.66.039.042c.124.454.165.95.082 1.447-.121.784-.613 1.568-1.432 2.437-.737.785-1.761 1.569-3.072 2.354"/></g><path d="m577.5 195.57c.945-.495 1.843-.992 2.623-1.447 1.311-.785 2.335-1.569 3.072-2.354.819-.869 1.311-1.653 1.432-2.437l1.109-.332c-.535 2.313-2.01 4.131-4.464 5.494l-5.327 2.686c-.204-.206-.448-.412-.695-.537.78-.372 1.555-.702 2.252-1.074" fill="#f9b291" stroke="#f9b291"/><path d="m578.28 192.18l-.043.041-4.545 3.803c-1.023-.125-2.252.206-3.604.99l4.341 14.83-6.142-15.04 12.861-10.04c.204.868.082 1.776-.411 2.644-.491.908-1.308 1.818-2.456 2.767" fill="#cb7054" stroke="#cb7054"/><path d="m578.24 192.22l.043-.041c1.148-.949 1.965-1.859 2.456-2.767l2.174-.91c.039 1.241-.902 2.728-2.829 4.422l-5.445 3.346c-.289-.125-.616-.206-.944-.247l4.545-3.803" fill="#f9b291" stroke="#f9b291"/><path d="m590.81 225.61c-1.148-13.345-.574-26.44 1.678-39.29 17.531-.744 33.627.37 48.29 3.387 2.128 11.814 1.843 23.422-.819 34.824l-18.676 3.554 1.32 8.448-7.089-.062.062-8.221-24.765-2.644" fill="#8faf74" stroke="#8faf74"/><path d="m637.71 323.39l-1.313 3.966-7.998 4.712v-6.03c.125-2.232.193-4.462.316-6.692.039-1.033.063-2.024.102-3.059.042-1.321.099-2.643.14-3.966 3.972.663 9.49-.495 13.461-3.511l-4.708 14.582" fill="#55a0c9" stroke="#55a0c9"/><path d="m628.4 332.06l.053 3.401c-1.181-1.033-2.472-1.803-3.939-2.554l.017-9.406c-3.03-8.386-7.07-8.592-12.184-.579-.312.498-.614.991-.928 1.528 5.117-15.409 10.74-15.574 17.11-1.074-.034.761-.064 1.073-.129 2.651v6.03" fill="#cb7054" stroke="#cb7054"/><path d="m611.43 325.5c-.033-.331-.011-.71-.011-1.041.314-.537.616-1.031.928-1.528 5.117-8.01 9.154-7.807 12.184.579l-.017 9.406c-1.665-.753-2.44-1-4.29-1.705-3.584 1.695-6.11 2.534-8.757 4.808 0 0-.037-8.826-.037-10.519z" fill="#f9b291" stroke="#f9b291"/><path d="m611.41 321.41c0 1.694-.006 3.387.035 5.081l-.004 6.247-10.07-4.76-1.269-4.793-4.749-17.432c4.997 6.32 11.361 8.592 15.949 6.857 0 1.57-.006 3.139.033 4.751.045 1.416.015 2.752.07 4.049" fill="#55a0c9" stroke="#55a0c9"/><g fill="#f8f8f6" stroke="#f8f8f6"><path d="m611.41 321.41c-.033-1.612-.103-7.23-.103-8.8-.14-21.15.103-39.907.696-56.27 4-.91 7.902-.579 11.73.99 1.461 16.567 1.816 38.444 1.642 57.12-4.941-7.756-9.538-5.813-13.964 6.959"/><path d="m611.41 324.45c0-.701 0-1.363 0-2.066 4.317-12.414 9.143-14.653 14.11-6.568 1.01 1.612 1.797 3.344 2.874 5.781-.033.412-.063.993-.063 1.364-6.39-14.222-11.835-13.717-16.926 1.489"/></g><path d="m611.41 322.39c-.035-.32-.005-.662-.005-.983 4.237-12.551 8.915-14.885 13.964-6.959.983 1.569 2.235 3.547 3.285 5.92-.032 1.01-.102 2.01-.134 3.01-.035-.082-.151-.293-.184-.415 0-.362.03-.963.063-1.364-1.05-2.374-1.891-4.212-2.874-5.781-4.948-8.01-9.937-5.565-14.11 6.568" fill="#d3d2d2" stroke="#d3d2d2"/><path d="m642.42 308.81c-3.971 3.02-9.489 4.173-13.461 3.511.039-1.031.027-2.024.07-3.055 4.178.37 10.647-.91 16.341-3.885l-3.276 12.971c7.906-2.023 12.41-8.302 13.558-18.754l1.678-31.356-8.559-4.834.655-1.817c4.381 1.115 8.683 3.262 12.819 6.443-.616.704-1.229 1.406-1.843 2.024v.042c.532 7.477.737 14.09.614 19.912-.41 18.343-4.26 28.17-11.551 29.455l-11.752 3.924 4.708-14.582" fill="#3f7c95" stroke="#3f7c95"/><path d="m628.95 312.32c-.035 1.323-.26 6.728-.296 8.05-1.078-2.437-2.275-4.309-3.285-5.92.175-18.672-.18-40.549-1.642-57.12-3.827-1.569-7.726-1.9-11.73-.99.035-.704.035-1.364.069-2.026 1.219-.288 2.473-.537 3.69-.702 2.925-.372 5.848-.289 8.773.206.973.167 1.948.373 2.924.621 1.882 17.748 2.173 35.991 1.566 54.821-.036 1.031-.036 2.024-.07 3.055" fill="#d3d2d2" stroke="#d3d2d2"/><path d="m640.57 284.6c5.614 6.321 8.193 12.06 7.742 17.308-2.456-6.155-6.06-10.822-10.852-14l-4.26-19.209c7.209-11.94 10.483-23.384 9.87-34.413-4.751-1.075-11.07-1.075-17.494 0-.122-.785-.202-1.486-.326-2.269 7.496-2.314 15.321-2.937 22.16-1.822.124.041.204.041.328.083.493.083.983.165 1.476.289-.411 14.13-4.753 27.1-12.984 38.875l4.341 15.16" fill="#3f7c95" stroke="#3f7c95"/><path d="m648.31 301.91c.452-5.246-2.128-10.987-7.742-17.308l8.15-21.11.043-.083 8.559 4.834-1.678 31.356c-1.148 10.451-5.653 16.731-13.558 18.754l3.276-12.971c-5.693 2.975-12.163 4.255-16.341 3.885.492-18.798.153-37.06-1.566-54.821-.37-3.635-.595-7.27-1.045-10.865-.37-3.098-.386-6.196-.835-9.295 6.428-1.075 12.743-1.075 17.494 0 .613 11.03-2.66 22.473-9.87 34.413l4.26 19.209c4.792 3.181 8.396 7.848 10.852 14" fill="#55a0c9" stroke="#55a0c9"/><path d="m645.2 260.84c1.432.125 2.827.373 4.218.744l-.655 1.817-.289-.123c-1.104-.785-2.171-1.57-3.275-2.438" fill="#264c58" stroke="#264c58"/><path d="m649.42 261.59c-1.391-.372-2.787-.62-4.218-.744l2.457-7.973c5.856.414 11.878 1.859 18.1 4.296l-3.523 10.865c-4.136-3.181-8.438-5.329-12.819-6.443" fill="#55a0c9" stroke="#55a0c9"/><path d="m648.77 263.4l-.043.083c-.081-.041-.161-.125-.246-.206l.289.123" fill="#386e82" stroke="#386e82"/><path d="m626.41 243.57c.383 3.595.731 7.23 1.045 10.865-.976-.248-1.95-.454-2.924-.621l.138-10.616c.593.123 1.149.248 1.74.372" fill="#856457" stroke="#856457"/><path d="m647.66 252.87l.859-2.809c.41-.041.819-.041 1.188-.041 6.512-.042 12.737 1.611 18.594 4.915.45.249.902.496 1.352.786l-2.663 16.565c-1.597-1.57-3.154-2.975-4.751-4.256l3.523-10.865c-6.225-2.437-12.248-3.882-18.1-4.296" fill="#3f7c95" stroke="#3f7c95"/><path d="m649.71 250.02c.083-.866.165-1.695.285-2.563 5.201-.701 9.993-.247 14.338 1.447 2.167-9.253 2.167-19.665 0-31.27l6.225-10.659v-10.782l-11.715-9.378c.042-.164.081-.33.124-.494 1.226.412 2.417.865 3.523 1.403.859.412 1.719.868 2.578 1.321 3.154 1.901 5.857 4.338 8.109 7.272v12.27l-5.814 9.75c.246 1.28.45 2.519.655 3.759 2.171 13.342 2.295 24.291.286 32.842-5.857-3.304-12.08-4.957-18.594-4.915" fill="#cb7054" stroke="#cb7054"/><path d="m615.76 253.61c-1.217.165-2.471.415-3.69.702.105-3.677.279-7.188.452-10.617.94-.289 1.916-.495 2.925-.66l.313 10.575" fill="#856457" stroke="#856457"/><path d="m615.76 253.61l-.313-10.575c2.89-.456 5.951-.414 9.224.165l-.138 10.616c-2.925-.495-5.848-.578-8.773-.206zm1.532-8.922v6.734h6.196v-6.734h-6.196" fill="#b4b4b4" stroke="#b4b4b4"/><path d="m617.29 244.69h6.195v6.733h-6.195v-6.733z" fill="#856457" stroke="#856457"/><path d="m657.73 219.37c-1.843-4.833-2.252-7.848-1.308-8.964l5.077-5.658c.286-2.355.737-4.256 1.311-5.66.247-.537.491-1.034.777-1.406.329-.536.696-.907 1.148-1.197.204-.125.409-.247.613-.372.941 3.677.983 8.881.204 15.574l4.302-14.831c-1.352-.784-2.539-1.116-3.565-.991l-4.585-3.843c-1.148-.949-1.965-1.859-2.459-2.767-.45-.826-.574-1.652-.409-2.438l11.713 9.378v10.782l-6.223 10.659c2.167 11.608 2.167 22.02 0 31.27-4.345-1.694-9.137-2.148-14.338-1.447 1.148-8.674 3.728-18.05 7.742-28.09" fill="#f9b291" stroke="#f9b291"/><path d="m662.24 268.03c1.597 1.281 3.154 2.686 4.751 4.256-2.171-.537-4.384-1.281-6.594-2.19v-.042c.614-.618 1.227-1.321 1.843-2.024" fill="#264c58" stroke="#264c58"/><g fill="#cb7054" stroke="#cb7054"><path d="m662.81 199.08l-1.066-.496.492-.91-9.665-4.75c-.042-.041-.042-.125-.083-.207-.04-.041-.04-.123-.04-.164l2.538.164c.493.454 1.106.91 1.804 1.364.246.125.493.29.737.412l5.04 2.645 1.023.536c-.286.372-.53.869-.777 1.406"/><path d="m666.29 195.86c-.328.042-.655.125-.941.248-.204.125-.409.247-.613.372-.409-.165-.778-.331-1.148-.537l1.063-.537-6.06-5.288-3.236-1.9c0-.165.042-.331.085-.496l.039-.042 3.769 1.57c.491.908 1.308 1.818 2.456 2.767l4.585 3.843"/><path d="m665.35 196.11c.286-.123.613-.206.941-.248 1.026-.125 2.213.207 3.565.991l-4.302 14.831c.778-6.693.737-11.897-.204-15.574"/><path d="m663.59 197.68l-1.023-.536.328-.744-5.694-3.02c-1.885-1.527-2.865-3.02-2.947-4.542l1.104.33c.124.785.614 1.57 1.434 2.438.817.868 2.01 1.734 3.562 2.644.656.372 1.352.784 2.132 1.157.367.206.737.372 1.104.537.37.206.739.372 1.148.537-.452.29-.819.662-1.148 1.197"/></g><g fill="#f9b291" stroke="#f9b291"><path d="m662.49 195.41c-.78-.373-1.476-.785-2.132-1.157-1.557-.91-2.745-1.776-3.562-2.644-.82-.868-1.311-1.653-1.434-2.438-.042-.33-.042-.662 0-.949l3.236 1.9 6.06 5.288-1.063.537c-.367-.165-.737-.331-1.104-.537"/><path d="m662.9 196.4l-.328.743-5.04-2.644c-.246-.122-.491-.288-.737-.412-.698-.454-1.311-.91-1.804-1.364-1.269-1.239-1.801-2.602-1.513-4.089l.776.207c.085 1.527 1.065 3.02 2.949 4.542l5.694 3.02"/><path d="m653.35 194.29c-.37-.414-.657-.866-.778-1.363l9.665 4.75-.492.91-5.079-2.354c-1.515-.538-2.621-1.157-3.316-1.943"/><path d="m594.32 70.58c-2.702-1.175-3.559-2.19-5.814-3.405 4.958-1.384 8.104-3.168 12.812-6.649l6.03 5.212c.289 4.07 1.196 6.751 5 12.244l5.981 45.08c-2.253 11.03-2.62 22.308-1.104 33.838l-1.6 21.972-16.505 1.468c2.01-6.92 4.384-14.215 7.168-21.805-5.364-12.915-6.06-28.22-2.047-45.913 2.826-21.637 2.442-34.447-9.927-42.04"/></g><path d="m575.29 52.22c-.103-.525-.138-1.013-.17-1.539 15.536-6.328 30.05-1.013 43.5 16.01-.375 3.46-.702 6.955-.737 10.417-3.86-3.216-5.852-7.446-6.231-12.725l-7.853-5.873c-1.058.944-2.151 1.783-3.243 2.587-3.925 2.902-7.92 4.929-12.05 6.083-2.356-1.295-4.369-2.657-6.078-4.056 6.454 2.552 13.08.14 19.873-7.236-7.547-5.698-16.527-6.921-27.01-3.67" fill="#6a8257" stroke="#6a8257"/><path d="m582.57 63.34c-4.214-3.387-6.653-7.097-7.279-11.126 10.693-3.316 19.855-2.069 27.554 3.744-6.932 7.525-13.69 9.986-20.274 7.382" fill="#8faf74" stroke="#8faf74"/><path d="m635.78 176.9l-5.201-14.675c9.379-13.04 11.959-30.443 7.822-52.29-1.413-19.71.127-32.814 6.293-43.17l-10.763-6.907 1.192-3.558c4.627 3.495 7.197 4.648 11.05 5.353 3.76.233 6.252-.353 10.208-3.01-1.841 2.557-1.739 2.889-4.648 5.865-9.432 12.2-12.267 27.03-8.501 46.637 5.405 21.13 3.728 38.618-4.999 52.5 1.926 7.462 3.604 14.591 4.958 21.342-8.07-1.592-16.1-2.473-24.12-2.684l.574-5.409h16.14" fill="#cb7054" stroke="#cb7054"/><path d="m630.58 162.23l5.201 14.675h-16.14l1.882-18.07v-10.776c-1.065-7.59-.165-16.395 2.745-26.375 1.024-3.479 2.252-7.086 3.725-10.819 1.436-12.788 2.131-24.24 2.01-34.26 1.713-3.713 2.171-6.099 1.958-11.03l1.968-5.711 10.763 6.907c-5.89 10.358-7.693 23.448-6.293 43.17 4.136 21.847 1.557 39.25-7.822 52.29" fill="#f9b291" stroke="#f9b291"/><path d="m598.26 183.4c.286-1.01.574-2.01.86-3.061l16.505-1.468 1.6-21.972c-1.516-11.53-1.149-22.81 1.104-33.838l-5.978-45.08c-3.808-5.493-4.718-8.174-5-12.244l-6.03-5.212c1.311-.964 1.215-.889 2.484-2.02l7.853 5.873c.926 6.194 2.28 8.668 6.231 12.725-.204 14.718 1.925 29.561 6.389 44.573-2.91 9.979-3.81 18.785-2.745 26.375v10.776l-1.882 18.07-.574 5.409c-6.922-.168-13.886.21-20.808 1.091" fill="#cb7054" stroke="#cb7054"/><path d="m633.93 59.862l-1.968 5.711c.281 4.274-.31 7.94-1.958 11.03-.035-3.63-.252-7.078-.532-10.275l4-14.12c.175-.683.386-1.365.703-1.975 6.352-2.911 12.982-3.45 19.932-1.581.981 6.645-1.651 10.992-7.931 13-3.475-.467-7.158-2.227-11.05-5.353l-1.192 3.558" fill="#8faf74" stroke="#8faf74"/><path d="m654.11 48.654c-6.944-1.851-13.57-1.317-19.917 1.566 2.7-5.445 10.906-7.082 24.65-4.947 2.489 3.168 1.684 7.65-2.455 13.38-3.191 2.384-6.598 3.468-10.208 3.01 6.275-1.993 8.911-6.422 7.931-13" fill="#6a8257" stroke="#6a8257"/></g></svg>