<svg xmlns="http://www.w3.org/2000/svg" viewBox="0 0 242 440"><defs><clipPath><path d="m0 0h6120v4567h-6120v-4567"/></clipPath></defs><g transform="matrix(1.25,0,0,-1.25,-652.03881,494.95862)"><path d="m630.6 394.6c-.969.181-1.901.324-2.833.433 4.913-5.681 8.07-11.759 9.505-18.16-6.206 6.04-11.372 7.961-15.497 5.752l-10.58 7.599c-4.987-2.063-9.542-4.957-13.597-8.611-.932-1.918-1.757-3.981-2.509-6.188 4.555 5.175 9.613 9.335 15.244 12.411 5.057-2.206 8.679-5.137 10.867-8.756 3.91 3.364 7.355 3.04 10.405-.977l6.02-10.276 2.583-4.449c.251-.037.5-.109.717-.29 2.869 7.416 3.338 13.387 1.435 17.837-4.09 6.549-8 11.11-11.765 13.677" fill="#231f20"/><path d="m613.06 384.04l8.141-4.957c-2.188 3.618-5.81 6.549-10.867 8.756-5.631-3.076-10.689-7.236-15.244-12.411-2.8-3.147-5.38-6.693-7.783-10.637-1.795-2.93-3.481-6.079-5.02-9.443-1.543-3.546-3.302-6.584-5.311-9.08 6.635 4.957 12.878 11.795 18.723 20.478l15.353 18.13 2.01-.832" fill="#4f4c4c"/><path d="m621.2 379.08l-8.141 4.957c-.824-.905-1.651-1.773-2.438-2.641l10.58-2.316" fill="#231f20"/><path d="m597.6 381.61c4.055 3.654 8.61 6.548 13.597 8.611l10.58-7.599c4.125 2.209 9.291.29 15.497-5.752-1.435 6.405-4.592 12.482-9.505 18.16-6.135.831-12.234.688-18.331-.433-4.913-2.57-8.861-6.876-11.838-12.989" fill="#4f4c4c"/><path d="m600.22 368.77l-.215-6.549.969-1.774.897 10.456c-.539-.686-1.076-1.375-1.651-2.133" fill="#231f20"/><path d="m600 362.22l.215 6.549c-.753-.977-1.472-1.991-2.188-2.968l1.972-3.582" fill="#4f4c4c"/><path d="m601.9 348.69c1.901-4.305 4.914-7.996 9.04-11.07 2.728-1.991 3.431-2.684 7.124-4.169l3.033 1.509" fill="#f4ab89"/><path d="m600.97 360.45l2.833 8.249 7.175 8.648 10.688-1.737c4.879 2.57 8.933.038 12.13-7.561l2.224-4.631-.037-10.492c-1.757-7.815-6.306-13.985-14.88-17.963l-3.033-1.509 2.489-1.042c1.364.615 2.655 1.267 3.876 1.955 1.433.831 2.762 1.699 3.98 2.604 5.633 4.161 8.968 9.118 10.01 14.943.072.361.143.723.179 1.049l-.107 1.557-.287 4.269-.574 9.04-6.03 10.276c-3.048 4.02-6.493 4.342-10.403.977l-10.58 2.316c-3.01-3.365-5.921-6.839-8.752-10.493l-.897-10.456" fill="#cb7054"/><path d="m603.8 368.7l-2.833-8.249-.188-7.271c.002-1.574.474-3.076 1.119-4.488 5.848-6.476 12.67-11.234 19.2-13.73 8.573 3.978 13.12 10.148 14.88 17.963l.037 10.492-2.224 4.631c-3.192 7.599-7.246 10.131-12.12 7.561l-10.69 1.737-7.175-8.648" fill="#f4ab89"/><path d="m598.03 365.8c.716.976 1.434 1.99 2.188 2.968.574.758 1.111 1.446 1.651 2.133 2.834 3.654 5.738 7.128 8.752 10.493.788.868 1.614 1.736 2.438 2.641l-2.01.832-15.353-18.13c-5.846-8.683-12.09-15.521-18.723-20.478-2.907-3.582-6.35-6.115-10.258-7.526 3.765.544 7.425 1.955 10.974 4.197 3.266 2.064 6.493 4.887 9.616 8.395 2.188 2.461 4.374 5.283 6.491 8.467l.503.615c.179.253.322.47.503.723 1.04 1.592 2.115 3.147 3.228 4.668" fill="#231f20"/><path d="m638.2 358.78l2.01 4.596-2.583 4.449.574-9.04" fill="#4f4c4c"/></g></svg>