<svg xmlns="http://www.w3.org/2000/svg" viewBox="0 0 242 440"><defs><clipPath><path d="m0 0h5798.92v7736.5h-5798.92v-7736.5"/></clipPath></defs><g transform="matrix(1.25,0,0,-1.25,-333.82361,442.9785)"><path d="m367.12 334.34c-3.226 1.908-6.367 2.404-9.419 1.438-1.559-4.675-3.534-9.891-6.429-13.428-.264-2.275-.326-3.307-.024-5.456.581-3.842 2.501-7.354 5.584-11.845 2.872-2.382 5.928-4.134 8.806-4.437 6.25 4.395 9.738 9.62 10.435 15.673-4.273 4.452-7.267 10.451-8.953 18.05" fill="#cf876d"/><g fill="#231f20"><path d="m354.07 329.06l-3.169-1.354 2.035.166c3.17-1.796 5.93-2.212 8.256-1.299-2.471 1.493-4.827 2.321-7.122 2.487"/><path d="m377.44 328.18l-3.14 1.465c-1.119-.041-2.274-.255-3.47-.635-1.195-.38-2.431-.926-3.71-1.631 1.149-.484 2.413-.643 3.797-.47 1.384.173 2.889.677 4.517 1.52l2.01-.248"/></g><path d="m369.27 308.52c-.087-.028-.175-.028-.262-.055-.146.055-.32.082-.465.109-.145.029-.582.111-1.279.305-.727.193-1.656.276-2.79.248-1.135.028-2.036-.083-2.733-.276-.727-.193-1.192-.278-1.394-.278-.176-.054-.35-.082-.495-.109v-.028c.087-.029.174-.056.261-.083.146-.028.261-.028.349-.056.582-.165 1.221-.221 1.889-.138l4.216-.028c.609-.055 1.25 0 1.889.165.087-.028.203 0 .32.056.145.054.319.11.494.165" fill="#ca5c4c"/><path d="m369.13 307.94c.436.139.872.442 1.337.941-.379-.139-.785-.277-1.192-.359-.175-.055-.349-.111-.494-.165-.117-.055-.233-.084-.32-.055-.639-.166-1.28-.222-1.889-.166l-4.216.028c-.668-.083-1.307-.028-1.889.139-.088.028-.203.028-.349.055-.087.027-.174.054-.261.083-.087.028-.175.083-.263.109-.261.028-.697.112-1.249.223l1.366-.913.087-.029c1.106-1.574 2.703-2.376 4.797-2.376 2.122-.111 3.634.719 4.535 2.487m-8.344-.194c.378-.027.756-.027 1.105 0h5.087c.378-.027.727 0 1.106.057-1.338-.912-2.501-1.329-3.518-1.246-2.472.305-3.75.719-3.78 1.189" fill="#8e403a"/><path d="m361.89 307.74c-.349-.027-.727-.027-1.105 0 .03-.47 1.308-.884 3.78-1.189 1.017-.083 2.179.334 3.518 1.246-.379-.057-.728-.084-1.106-.057h-5.087" fill="#ca5c4c"/><path d="m359.85 308.44v.028c-.059.028-.146.055-.263.082.088-.027.176-.082.263-.109" fill="#7c4542"/></g></svg>