<svg xmlns="http://www.w3.org/2000/svg" viewBox="0 0 242 440"><defs><clipPath><path d="m0 0h6120v4567h-6120v-4567"/></clipPath></defs><g transform="matrix(1.25,0,0,-1.25,-652.03881,494.95862)"><path d="m600 362.22l-1.972 3.582c-.179-5.572.25-9.335 1.219-11.289l.753 7.707" fill="#f9b291"/><path d="m600.97 360.45l-.969 1.774-.753-7.707c.324-.616 1.105-1.087 1.534-1.338l.188 7.271" fill="#cb7054"/><path d="m640.21 363.38l-2.01-4.596.287-4.269c1.327.868 1.9 3.835 1.721 8.865" fill="#f9b291"/><path d="m641.86 359.18c.072 2.135-.252 3.438-.934 3.909-.217.181-.466.253-.717.29.179-5.03-.394-7.997-1.721-8.865l.107-1.557c-.037-.325-.107-.688-.179-1.049 1.612.651 2.762 3.076 3.444 7.271" fill="#cb7054"/><g fill="#b96351"><path d="m598.31 360.37c.862 1.557 1.472.905 1.828-2.026-.609.399-.932-.578-1-2.966.251 1.918.611 2.749 1.111 2.496l.253-1.773c.071.688.071 1.303 0 1.882-.466 4.811-1.22 5.606-2.189 2.387"/><path d="m641.68 358.57c-.61 3.582-1.687 3.293-3.193-.868l.071-1.158c.719-.036 1.041-1.087.969-3.147.43 2.64.179 3.87-.79 3.617 1.111 3.039 2.117 3.546 2.943 1.556"/></g></g></svg>