<svg xmlns="http://www.w3.org/2000/svg" viewBox="0 0 242 440"><defs><clipPath><path d="m0 0h5798.92v7736.5h-5798.92v-7736.5"/></clipPath></defs><g transform="matrix(1.25,0,0,-1.25,-333.82361,442.9785)"><path d="m364.42 353.86c-2.179-.277-4.563-1.021-7.094-2.267-8.691-2.183-13.69-10.173-14.999-23.995.031-2.958-.523-5.778-1.714-8.459 8.343 7.463 13.72 17.554 16.1 30.24 3.228 1.521 7.732 1.964 13.459 1.328l-5.756 3.151m-7.965-3.98c-.088-.029-.144-.084-.203-.166l-6.02-4.7c-3.113-4.424-5.495-11.971-7.094-22.641-.378-.387-.757-.774-1.134-1.162.61 2.048.931 4.147.901 6.331 1.28 13.519 6.133 21.343 14.564 23.498.029.029.087.029.116.056 2.413 1.162 4.652 1.881 6.716 2.185l.755-.442-6.948-2.296c-.58-.193-1.134-.415-1.657-.663" fill="#444041"/><path d="m356.25 349.71c.059.083.115.138.203.166.523.248 1.077.47 1.657.663l6.948 2.296-.755.442c-2.064-.304-4.303-1.023-6.716-2.185-.029-.028-.087-.028-.116-.056-8.431-2.155-13.284-9.979-14.564-23.498.028-2.184-.291-4.283-.901-6.331.377.388.756.775 1.134 1.162 1.599 10.671 3.981 18.217 7.094 22.641l6.02 4.7" fill="#7b7979"/><path d="m361.51 349.02c.728.139 1.455.249 2.151.305 2.762.303 5.321.193 7.646-.389 6.075-5.971 10.379-14.13 12.965-24.438l2.528-5.557c-.668 1.853-1.017 3.76-1.075 5.696-1.192 8.957-5.667 16.974-13.487 24.05 2.121-.693 4.069-1.742 5.813-3.208l.028-.029c-.086.193-.203.387-.29.581-3.139 5.972-7.587 8.57-13.372 7.823l5.756-3.151c-5.727.636-10.232.193-13.459-1.328-2.384-12.69-7.761-22.781-16.1-30.24-.087-.194-.205-.416-.292-.636-.319-.635-.639-1.244-1.016-1.879 1.221.359 2.383.828 3.517 1.382 1.249.636 2.412 1.41 3.516 2.322 4.623 3.787 8.02 9.815 10.204 18.14 3.634 1.962 7.966 1.602 12.994-1.134-.29.829-.581 1.686-.843 2.543-4.621 5.171-8.314 6.083-11.02 2.737.495 2.571 1.773 4.7 3.837 6.414" fill="#231f20"/><path d="m363.66 349.33c-.696-.056-1.423-.166-2.151-.305-2.064-1.714-3.342-3.843-3.836-6.414 2.702 3.346 6.395 2.434 11.02-2.737.262-.857.553-1.714.843-2.543 3.286-9.925 6.745-17.03 10.438-21.315 2.148-2.515 4.389-4.063 6.713-4.616-5.233 5.169-8.545 10.782-9.912 16.835l-.261.443c-2.85 9.676-7.123 16.559-12.85 20.652m5.582-9.317c-.028.083-.058.165-.116.222-2.413 2.682-4.594 4.257-6.513 4.727-1.395.359-2.673.166-3.807-.58.262.747.639 1.436 1.105 2.073 2.179.416 4.243-.278 6.132-2.101l4.01-4.04c1.628-5.778 3.953-11.638 6.975-17.582l3.373-4.534c1.134-1.826 2.499-3.595 4.07-5.336-1.365.802-2.734 1.963-4.04 3.483-3.631 4.258-7.092 11.308-10.348 21.15-.29.829-.58 1.659-.842 2.516" fill="#444041"/><path d="m369.13 340.23c.058-.056.088-.139.116-.222.262-.858.552-1.687.842-2.516 3.256-9.841 6.717-16.891 10.348-21.15 1.308-1.52 2.677-2.681 4.04-3.483-1.571 1.741-2.936 3.51-4.07 5.336l-3.373 4.534c-3.02 5.944-5.347 11.804-6.975 17.582l-4.01 4.04c-1.889 1.823-3.953 2.516-6.132 2.101-.466-.637-.843-1.327-1.105-2.073 1.134.747 2.412.94 3.807.58 1.919-.47 4.1-2.045 6.513-4.727" fill="#7b7979"/><g fill="#444041"><path d="m371.31 348.94c-2.325.582-4.884.692-7.646.389 8.05-3.235 13.983-11.916 17.79-25.989 1.92-4.781 4.624-7.962 8.08-9.538-1.105 1.576-1.975 3.154-2.586 4.757-.059.137-.115.275-.146.386l-2.528 5.557c-2.586 10.312-6.89 18.467-12.965 24.438"/><path d="m378.23 345.32c-.059.054-.115.111-.145.138l-.029.029c-1.744 1.466-3.692 2.515-5.813 3.208 7.82-7.079 12.295-15.1 13.487-24.05-.029 1.381.058 2.792.32 4.203-2.501 7.491-5.116 12.964-7.849 16.476h.029"/></g><g fill="#231f20"><path d="m378.23 345.32h-.029c2.733-3.511 5.348-8.984 7.849-16.476.087.413.175.856.261 1.299-1.714 6.939-4.389 11.997-8.08 15.177"/><path d="m376.51 328.67l.261-.443c1.367-6.05 4.679-11.666 9.912-16.835 1.484-.36 3.02-.305 4.563.165-.637.748-1.218 1.492-1.715 2.238-3.457 1.576-6.161 4.757-8.08 9.538-3.807 14.07-9.738 22.753-17.79 25.989 5.727-4.092 10-10.976 12.85-20.652"/></g><path d="m357.7 335.78c3.052.966 6.193.47 9.419-1.438 1.686-7.603 4.68-13.603 8.953-18.05-.697-6.05-4.185-11.278-10.435-15.673-2.878.303-5.96 1.491-9.216 3.566-.552.359-1.104.746-1.656 1.131.639-.8 1.338-1.519 2.093-2.183 2.267-1.99 5.086-3.455 8.429-4.367 3.141 1.134 5.785 2.653 7.936 4.507 3.721 3.205 5.96 7.463 6.746 12.744-3.693 4.284-7.152 11.39-10.438 21.315-5.03 2.736-9.36 3.096-12.994 1.134-1.911-5.345-3.652-10.634-6.678-14.506l-.027-1.99c3.838 3.582 6.566 9.374 7.869 13.816" fill="#ae6854"/><path d="m367.12 334.34c-3.226 1.908-6.367 2.404-9.419 1.438-1.707-5.222-4.235-10.219-7.869-13.816l.108-3.381 1.308-1.687c.581-3.842 2.296-8.07 5.174-12.715 3.256-2.075 6.338-3.263 9.216-3.566 6.25 4.395 9.738 9.62 10.435 15.673-4.273 4.452-7.267 10.451-8.953 18.05" fill="#cf876d"/><path d="m350.55 314.55c.552-2.543 1.425-4.81 2.559-6.773.494-.858 1.045-1.686 1.657-2.462.552-.385 1.104-.771 1.656-1.131-2.878 4.644-4.593 8.873-5.174 12.715l-1.308 1.687c.146-1.409.349-2.765.61-4.04" fill="#f3c3aa"/><path d="m359.85 308.44v.028c-.059.028-.146.055-.263.082.088-.027.176-.082.263-.109" fill="#7c4542"/></g></svg>