<svg xmlns="http://www.w3.org/2000/svg" viewBox="0 0 241.99999 440"><g transform="matrix(1.25,0,0,-1.25,-249.2075,444.01375)"><g fill="#5a322f"><path d="m305.92 353.35l-.093-.094c2.789-4.214 4.309-8.427 4.557-12.644.093-2.324.805-4.557 2.076-6.694-.248-2.45-1.116-4.34-2.573-5.704 0-.683-.031-1.394-.062-2.139l1.767 2.512.744 1.055-.527-2.171c.094-.621.124-1.209.155-1.737.032-.773-.031-1.425-.185-1.982l2.758 2.511c-1.147 2.666-1.208 5.579-.185 8.71-1.922 2.136-2.759 4.555-2.542 7.313-.837 5.3-2.789 8.989-5.889 11.06"/><path d="m298.17 352.33c-.526.898-1.115 1.797-1.705 2.635l-.372-3.78c-3.01-1.056-5.238-2.513-6.694-4.404-.094-.125-.186-.246-.28-.371-.279-3.688-1.177-6.569-2.757-8.616.743 2.821.773 5.827.061 9.02 1.518 2.694 3.223 4.711 5.177 6.103-.962-.309-1.892-.709-2.791-1.207l-3.658-4.835c1.085-3.316 1.426-6.54 1.023-9.672-.372-1.207-.9-2.385-1.549-3.533.649.653 1.24 1.458 1.828 2.357.993 1.58 1.891 3.564 2.665 5.92.28.867.558 1.796.806 2.789 1.705 2.821 3.875 4.431 6.541 4.835 1.767-1.332 3.471-3.224 5.114-5.704.217-.341.435-.682.651-1.023.464 1.087 1.24 1.83 2.324 2.296.403.154.868.277 1.363.37l-1.115.713c-1.456-.65-2.447-1.365-2.944-2.171-.186.621-.403 1.24-.62 1.83.899 1.921 2.17 3.378 3.874 4.337l1.952-5.143c.094-3.01-.434-5.454-1.579-7.408-.094-.712-.186-1.425-.31-2.199.62.713 1.147 1.55 1.58 2.447.962 2.168 1.364 4.896 1.177 8.149l-1.921 4.371-.774.775c-1.736-.711-3.223-2.139-4.432-4.217-.745 1.862-1.612 3.628-2.635 5.334"/></g><path d="m295.78 354.19l-.125-1.303c-2.478-.899-4.586-2.325-6.322-4.308l-1.333-1.458.094-3.656c-.156-.712-.341-1.394-.559-2.045.093 1.706-.062 3.439-.465 5.267 1.426 2.512 3.069 4.402 4.897 5.703 1.178.837 2.45 1.457 3.813 1.799m.31-3.01l.372 3.78c-1.767-.309-3.379-.991-4.865-2.048-1.954-1.392-3.659-3.409-5.177-6.103.712-3.193.682-6.2-.061-9.02 1.579 2.047 2.478 4.928 2.757 8.616.094.125.186.246.28.371 1.456 1.892 3.688 3.348 6.694 4.404" fill="#8e5348"/><path d="m295.66 352.89l.125 1.303c-1.364-.342-2.635-.963-3.813-1.799-1.828-1.301-3.471-3.191-4.897-5.703.403-1.829.558-3.562.465-5.267.218.65.403 1.332.559 2.045l-.094 3.656 1.333 1.458c1.736 1.982 3.844 3.409 6.322 4.308" fill="#b47c77"/><g fill="#8e5348"><path d="m303.07 351.46l-4.897.869c1.023-1.706 1.89-3.471 2.635-5.334 1.209 2.078 2.696 3.506 4.432 4.217l.774-.775 1.921-4.371c.186-3.253-.216-5.982-1.177-8.149 2.045-1.394 3.1-4.618 3.13-9.702 1.456 1.364 2.324 3.255 2.573 5.704-1.271 2.137-1.983 4.37-2.076 6.694-.248 4.216-1.768 8.429-4.557 12.644l-2.758-1.797"/><path d="m284.28 347.06c.031-.064.062-.122.123-.217.186-.34.309-.651.403-.93-1.859-2.263-3.347-4.834-4.464-7.685l2.01-.248c-.898-2.479-1.424-4.895-1.611-7.253l-.185-.278c-.186-.31-.342-.714-.434-1.24-.403 2.449-.124 4.959.836 7.47.062.154.062.309 0 .462-.092.158-.185.25-.34.313-.155.091-.31.091-.465 0l-.9-.372c1.303 4.123 2.977 7.469 5.02 9.979m2.2-12.243c0 .403 0 .807-.032 1.209-.588-.899-1.178-1.704-1.828-2.357.649 1.148 1.176 2.326 1.549 3.533.403 3.132.062 6.356-1.023 9.672l3.658 4.835c-4.741-2.603-8.244-7.843-10.506-15.683l2.076.868c-1.488-3.81-1.426-7.594.217-11.313-.217 4.743.838 6.354 3.162 4.868l2.727 4.369"/></g><path d="m284.41 346.84c-.061.095-.093.153-.123.217-2.046-2.511-3.72-5.857-5.02-9.979l.9.372c.155.091.31.091.465 0 .155-.063.248-.156.34-.313.062-.153.062-.308 0-.462-.96-2.511-1.238-5.02-.836-7.47.092.526.247.93.434 1.24.031.093.093.154.123.217.032.031.032.061.062.061.187 2.358.713 4.774 1.611 7.253l-2.01.248c1.116 2.851 2.604 5.422 4.464 7.685-.094.279-.217.59-.403.93" fill="#b47c77"/><path d="m291.57 340.24l-2.791-5.114c.032-3.781-1.488-5.951-4.525-6.509-.124-.156-.247-.279-.371-.433l1.023-4.092c.093-.804.186-1.579.341-2.356.247-1.366.589-2.636 1.053-3.842.124-.343.248-.684.403-1.024 1.642-3.752 4.339-6.635 8.089-8.647 6.541 1.58 11.246 6.396 13.04 14.423.294.83.411 1.248.656 2.406.308 3.596-.372 6.913-2.077 9.98l-1.953-4.03-1.642 7.963c-3.659 1.427-7.409 1.86-11.251 1.271" fill="#f9b291"/><g fill="#2c1918"><path d="m289.92 344.73c-.248-.993-.526-1.922-.806-2.789 3.192 2.82 7.563 3.1 13.11.898-.217.341-.435.682-.651 1.023-1.642 2.48-3.347 4.372-5.114 5.704-2.665-.404-4.836-2.01-6.541-4.835"/><path d="m304.55 345.14c-1.085-.466-1.86-1.209-2.324-2.296.837.59 1.921.375 3.223-.589-.155 1.147-.466 2.11-.899 2.885"/></g><path d="m301.86 344.05c.497.806 1.488 1.52 2.944 2.171l1.115-.713c-.495-.094-.96-.217-1.363-.37.433-.775.744-1.738.899-2.885.186-1.3.186-2.819.032-4.586 1.146 1.954 1.673 4.401 1.579 7.408l-1.952 5.143c-1.705-.96-2.976-2.416-3.874-4.337.217-.589.434-1.209.62-1.83" fill="#8e5348"/><path d="m283.26 329.11c.185-.246.402-.557.62-.927.124.154.247.277.371.433 1.394 1.83 2.138 3.873 2.232 6.199l-2.727-4.369c-2.324 1.487-3.379-.124-3.162-4.868.28-.65.621-1.302.991-1.952.962-1.829 1.24-3.44.774-4.835 1.209-1.114 2.512-1.425 3.937-.898-.464 1.206-.806 2.476-1.053 3.842-.403-.031-.744.029-1.055.124-1.455.464-2.261 2.077-2.385 4.898-.218 3.223.279 3.996 1.457 2.353" fill="#5a322f"/><path d="m286.7 315.45l.062.032c-.032.061-.062.124-.062.157v-.188" fill="#f9b291"/><path fill="#cb7054" d="m294.79 308.22c.156-.063.279-.123.435-.217 4.246.277 7.562 1.859 9.949 4.68.31.403.62.803.899 1.24 1.364 2.074 2.324 4.648 2.882 7.716l.297 1.193c.159.903.571 3.239.571 3.239.032.745.062 1.456.062 2.139-.031 5.083-1.086 8.307-3.13 9.702-.434-.898-.961-1.734-1.58-2.447.124.774.217 1.487.31 2.199.155 1.767.155 3.286-.032 4.586-1.303.964-2.386 1.18-3.223.589-5.548 2.202-9.919 1.922-13.11-.898-.774-2.356-1.672-4.339-2.665-5.92m0 0c.032-.402.032-.806.032-1.209-.094-2.325-.838-4.369-2.232-6.199 3.037.558 4.556 2.728 4.525 6.509l2.791 5.114c3.843.589 7.593.156 11.251-1.271l1.642-7.963 1.953 4.03c1.705-3.067 2.385-6.384 2.078-9.973-1.798-8.02-7.16-15.255-13.701-16.836"/></g></svg>