<svg xmlns="http://www.w3.org/2000/svg" viewBox="0 0 241.99999 440"><g stroke-width=".08"><g fill="#5a322f" stroke="#5a322f"><path d="m133.19 2.326l-.116.117c3.487 5.268 5.386 10.534 5.697 15.805.116 2.905 1.01 5.697 2.595 8.368-.31 3.062-1.395 5.425-3.216 7.13 0 .854-.038 1.743-.078 2.674l2.208-3.139.93-1.319-.659 2.713c-.867 2.088-3.564 7.285-3.564 7.285l3.526-2.636 3.447-3.138c-1.434-3.333-1.51-6.974-.232-10.888-2.403-2.67-3.449-5.694-3.178-9.141-1.046-6.625-3.487-11.236-7.362-13.83"/><path d="m123.5 3.601c-.658-1.122-1.394-2.247-2.131-3.293l-.466 4.724c-3.758 1.321-6.547 3.141-8.368 5.506-.117.156-.233.308-.35.464-.349 4.61-1.472 8.211-3.446 10.77.929-3.526.967-7.284.076-11.276 1.898-3.367 4.03-5.889 6.471-7.629-1.202.387-2.365.887-3.488 1.509l-4.572 6.04c1.356 4.144 1.782 8.175 1.278 12.09-.466 1.509-1.125 2.982-1.936 4.417.812-.817 1.549-1.823 2.285-2.946 1.242-1.976 2.364-4.455 3.332-7.4.35-1.084.697-2.245 1.01-3.487 2.131-3.526 4.844-5.539 8.176-6.04 2.208 1.665 4.339 4.03 6.392 7.13.271.426.543.852.814 1.278.58-1.359 1.549-2.287 2.905-2.87.504-.192 1.085-.346 1.703-.463l-1.394-.892c-1.82.813-3.059 1.706-3.68 2.713-.233-.776-.504-1.551-.775-2.287 1.123-2.402 2.712-4.222 4.843-5.422l2.44 6.429c.117 3.758-.542 6.817-1.974 9.259-.117.89-.233 1.781-.388 2.749.775-.892 1.434-1.937 1.976-3.059 1.202-2.709 1.705-6.12 1.472-10.187l-2.402-5.464-.968-.969c-2.17.889-4.03 2.674-5.54 5.272-.931-2.328-2.02-4.535-3.293-6.667"/></g><path d="m120.52 1.276l-.156 1.628c-3.097 1.123-5.732 2.907-7.902 5.385l-1.666 1.823.117 4.571c-.195.89-.426 1.743-.698 2.556.116-2.132-.078-4.298-.581-6.584 1.782-3.139 3.837-5.503 6.121-7.129 1.473-1.046 3.062-1.822 4.766-2.249zm.387 3.756l.466-4.724c-2.208.387-4.223 1.239-6.082 2.559-2.442 1.74-4.573 4.261-6.471 7.629.89 3.992.852 7.75-.076 11.276 1.974-2.558 3.097-6.16 3.446-10.77.117-.156.233-.308.35-.464 1.82-2.365 4.61-4.185 8.368-5.506" fill="#8e5348" stroke="#8e5348"/><path d="m120.37 2.901l.156-1.628c-1.705.427-3.293 1.203-4.766 2.249-2.285 1.626-4.339 3.989-6.121 7.129.504 2.286.697 4.452.581 6.584.272-.813.504-1.665.698-2.556l-.117-4.571 1.666-1.823c2.17-2.478 4.805-4.261 7.902-5.385" fill="#b47c77" stroke="#b47c77"/><g fill="#8e5348" stroke="#8e5348"><path d="m129.63 4.689l-6.121-1.086c1.278 2.132 2.362 4.339 3.293 6.667 1.511-2.598 3.37-4.382 5.54-5.271l.968.969 2.402 5.464c.233 4.067-.27 7.477-1.472 10.187 2.556 1.743 3.875 5.773 3.913 12.13 1.82-1.705 2.905-4.068 3.216-7.13-1.589-2.671-2.479-5.462-2.595-8.368-.31-5.27-2.21-10.537-5.696-15.805l-3.447 2.247"/><path d="m106.14 10.189c.038.08.078.153.154.271.233.425.387.814.504 1.163-2.324 2.829-4.184 6.04-5.579 9.607l2.517.31c-1.122 3.099-1.78 6.119-2.01 9.07l-.232.347c-.233.388-.427.893-.542 1.551-.504-3.061-.155-6.199 1.044-9.337.078-.192.078-.387 0-.578-.115-.197-.232-.313-.425-.392-.193-.113-.388-.113-.581 0l-1.125.466c1.628-5.153 3.721-9.336 6.278-12.474zm2.75 15.304c0-.504 0-1.01-.04-1.511-.735 1.123-1.473 2.13-2.285 2.946.812-1.435 1.471-2.908 1.936-4.417.504-3.916.078-7.945-1.278-12.09l4.572-6.04c-5.927 3.254-10.305 9.804-13.13 19.604l2.595-1.085c-1.86 4.763-1.782 9.492.271 14.14-.271-5.929 1.047-7.943 3.952-6.084l3.409-5.461"/></g><path d="m106.31 10.464c-.076-.118-.116-.191-.154-.271-2.557 3.138-4.65 7.321-6.278 12.474l1.125-.466c.193-.113.388-.113.581 0 .193.079.31.195.425.392.078.191.078.385 0 .578-1.2 3.138-1.548 6.277-1.044 9.337.115-.658.309-1.163.542-1.551.038-.116.116-.192.154-.271.04-.038.04-.076.078-.076.234-2.948.892-5.967 2.01-9.07l-2.517-.31c1.395-3.564 3.255-6.778 5.579-9.607-.117-.349-.271-.738-.504-1.163" fill="#b47c77" stroke="#b47c77"/><path d="m115.25 18.714l-3.488 6.392c.04 4.726-1.86 7.439-5.656 8.136-.155.195-.309.349-.464.541l1.278 5.115c.116 1 .233 1.974.426 2.945.309 1.707.737 3.295 1.317 4.802.155.429.31.855.504 1.28 2.053 4.69 5.424 8.294 10.112 10.809 8.176-1.975 14.06-7.995 16.305-18.03.368-1.037.514-1.56.82-3.01.385-4.495-.466-8.641-2.596-12.475l-2.441 5.03-2.052-9.954c-4.573-1.784-9.261-2.325-14.06-1.589" fill="#f9b291" stroke="#f9b291"/><g fill="#2c1918" stroke="#2c1918"><path d="m113.19 13.1c-.31 1.242-.658 2.403-1.01 3.487 3.99-3.525 9.454-3.875 16.39-1.122-.271-.426-.543-.852-.814-1.279-2.053-3.1-4.184-5.465-6.392-7.13-3.332.505-6.05 2.517-8.176 6.04"/><path d="m131.48 12.589c-1.356.583-2.325 1.511-2.905 2.87 1.046-.738 2.402-.468 4.03.737-.193-1.434-.583-2.637-1.123-3.606"/></g><path d="m128.12 13.951c.621-1.01 1.86-1.9 3.68-2.713l1.394.892c-.618.117-1.2.271-1.703.463.541.969.93 2.173 1.123 3.606.233 1.625.233 3.524.04 5.732 1.432-2.442 2.091-5.502 1.974-9.259l-2.44-6.429c-2.131 1.2-3.72 3.02-4.843 5.422.271.737.542 1.511.775 2.287" fill="#8e5348" stroke="#8e5348"/><path d="m98.74 59.48c-.968.735-1.974 1.431-2.945 2.17l-1.51 16.194 11.623-5.969c2.519 8.796 7.206 16.972 14.06 24.604.892 9.957.426 19.1-1.394 27.391l-7.788-1.586c2.131.889 4.146 2.169 6.083 3.832l4.493.391c2.21-10.81 2.751-21.15 1.551-31.03-7.01-8.639-11.661-17.974-13.948-28.01-.117-.505-.232-1.01-.35-1.509-3.758 3.446-7.864 6.237-12.241 8.445l2.362-14.916" fill="#6b487f" stroke="#6b487f"/><path d="m108.12 51.41l.193.855-6.471 4.686-4.533 15.807 2.79-16.16 8.02-5.191zm-8.873 4.882l-.504 3.178-2.362 14.916c4.377-2.208 8.485-4.999 12.241-8.445 1.047-.971 2.054-1.939 3.062-2.984-.349-.35-.698-.697-1.01-1.01-.58-.659-1.125-1.28-1.627-1.937-1.395-1.823-2.403-3.642-3.061-5.501l3.138-1.59.038-3.215-9.918 6.586" fill="#8d54a0" stroke="#8d54a0"/><path d="m108.32 52.26l-.193-.855-8.02 5.191-2.79 16.16 4.533-15.807 6.471-4.686" fill="#a57bb7" stroke="#a57bb7"/><path d="m105.64 33.776c0 0 .309-.346.464-.541 1.743-2.287 2.673-4.842 2.79-7.748l-3.409 5.461c-2.906-1.858-4.223.155-3.952 6.084.35.813.776 1.627 1.239 2.44 1.202 2.286 1.551 4.3.968 6.04 1.511 1.393 3.139 1.781 4.922 1.122-.58-1.507-1.01-3.095-1.317-4.802-.264-1.622-.426-2.945-.426-2.945z" fill="#5a322f" stroke="#5a322f"/><path d="m109.17 49.701l.078-.039c-.04-.076-.078-.155-.078-.196v.235" fill="#f9b291" stroke="#f9b291"/><path d="m109.24 49.664l-.078.039-.038 3.215-.078 7.091c.502.658 1.047 1.279 1.627 1.937v-9.571c-.543-.852-1.01-1.742-1.434-2.711" fill="#fbc8b8" stroke="#fbc8b8"/><path d="m109.17 47.926v1.548c0 .041.038.12.078.196.426.969.89 1.858 1.434 2.711 2.169 3.449 5.231 6.2 9.144 8.176 2.207-.155 4.222-.581 6.04-1.28 2.519-.967 4.689-2.517 6.432-4.571 0-.504 0-1.046-.038-1.551-2.983 3.526-7.129 5.504-12.436 5.85-.195-.117-.349-.192-.543-.271-4.688-2.515-8.06-6.119-10.112-10.809" fill="#b96351" stroke="#b96351"/><path d="m109.13 52.926l-3.138 1.59c.658 1.858 1.665 3.678 3.061 5.501l.078-7.091" fill="#3d2b49" stroke="#3d2b49"/><path d="m110.68 61.951c.309.31.659.658 1.01 1.01.387.389.813.775 1.239 1.161.388.351.814.696 1.24 1.048.502 4.03 1.317 8.097 2.402 12.243 1.859 4.956 3.72 8.445 5.619 10.42 4.03-7.672 5.269-17.201 3.679-28.555-1.82.698-3.835 1.125-6.04 1.28-3.913-1.975-6.975-4.727-9.144-8.176v9.571" fill="#f9b291" stroke="#f9b291"/><path d="m119.28 58.739c.195.079.349.154.543.271 5.307-.346 9.453-2.324 12.436-5.85.388-.504.775-1 1.123-1.549 1.705-2.593 2.905-5.81 3.602-9.645l.371-1.492c.199-1.128.714-4.049.714-4.049.04-.931.078-1.82.078-2.674-.038-6.354-1.357-10.384-3.913-12.13-.542 1.122-1.201 2.168-1.976 3.059.155-.968.271-1.858.388-2.749.193-2.208.193-4.108-.04-5.732-1.628-1.205-2.983-1.474-4.03-.737-6.936-2.753-12.399-2.403-16.39 1.122-.968 2.945-2.09 5.424-3.332 7.4m0 0c.04.502.04 1.01.04 1.511-.117 2.907-1.047 5.461-2.79 7.748 3.796-.697 5.695-3.41 5.656-8.136l3.488-6.392c4.803-.737 9.491-.195 14.06 1.589l2.052 9.954 2.441-5.03c2.131 3.834 2.982 7.98 2.597 12.466-2.247 10.02-8.95 19.07-17.13 21.05" fill="#cb7054" stroke="#cb7054"/><path d="m133.38 51.601c-.349.546-.735 1.046-1.123 1.549.038.505.038 1.047.038 1.551.272 9.338-1.279 19.02-4.65 29.06-.309.929-.658 1.86-1.01 2.827l9.996-15.611 6.276 13.906.737-10.38 21.424 16.194-1.703 2.75 9.336 37.62c-2.13 9.26-6.237 16.232-12.32 20.843.544-6.7-.154-13.403-2.091-20.18-.271-.968-.581-1.937-.892-2.905 2.208-1.975 6.354-2.788 12.475-2.362-2.595-1.472-5.074-2.01-7.4-1.589l6.121-6.354-5.462 3.137c-.426 1.359-1.782 2.868-3.99 4.497-.426.193-.813.464-1.161.775-.349.229-.659.504-.969.813-.116-.234-.193-.466-.271-.697l-.852.155-.62 25.412-6.858-2.321-8.407 2.827c-.271.893-.581 1.745-.93 2.635l.077-8.29c-6.315 1.935-12.474 3.332-18.48 4.183-8.951 1.239-17.59 1.279-25.919.116 7.206-4.61 12.591-10.653 16.194-18.05l-11.235-8.872 6.354 9.569c-4.184 8.06-10.15 15.03-17.937 20.958l-5.579-8.405-2.867-1.201c.427 2.206.776 4.417 1.01 6.584l5.04 6.822 7.477-4.109 22.16.89c-.814 14.219-.04 27.933 2.324 41.15-11.43 3.251-23.4.347-35.914-8.718.737.658 1.51 1.28 2.325 1.9 11.776 9.257 24.02 13.09 36.689 11.504.89-.114 1.82-.271 2.712-.425l-1.511-12.903-1.937-16.425.581-18.483 15.846-2.168 1.665 8.252h4.301l-2.751 8.715 4.262 6.434-3.37 5.808 3.99 10.85c-4.494 4.649-11 7.786-19.526 9.454.775.038 1.549.078 2.286.114 7.05.117 13.172-1.702 18.326-5.502 1.085-.854 2.131-1.781 3.177-2.787l-2.481-13.485 1.977-3.562-3.061-8.873 2.983-11.352 2.481-.116 8.367 4.61c.233-.967.426-1.935.621-2.905 8.949-3.992 14.334-12.398 16.08-25.14-3.449-11.39-5.619-24.371-6.508-38.895l.812-3.334c-10.963-7.593-20.726-15.809-29.25-24.679l.737 13.909c-2.365-5.194-3.411-10.772-3.176-16.775l-9.88 19.835 2.518-7.281c3.372-8.293 4.457-15.188 3.295-20.729-.117-.114-.195-.271-.233-.426-.31-.62-.542-1.238-.737-1.899" fill="#6b487f" stroke="#6b487f"/><path d="m132.29 54.701c-1.743 2.053-3.913 3.604-6.432 4.571 1.59 11.354.35 20.883-3.679 28.555-1.899-1.974-3.76-5.464-5.619-10.42 1.511 5.887 3.642 11.892 6.354 18.05 1.394-2.982 2.634-5.965 3.718-8.873.35-.967.698-1.898 1.01-2.827 3.371-10.03 4.922-19.719 4.649-29.06" fill="#cb7054" stroke="#cb7054"/><path d="m82 80.78l4.803 1.936 9.298 27.2 2.907 1.551 1.743 9.531-2.596 1.083-1.355-7.126c-.038-.117-.078-.233-.195-.35l-3.137-3.564c-2.674-11.97-6.47-22.05-11.468-30.26zm-16.931 24.37c.659-.076 1.356-.116 2.093-.116 1.278 8.561 4.146 16.969 8.601 25.22l-1.665 3.834 2.324 3.608-1.782 1.198-3.02-3.837 1.356-4.222c.078-.195.078-.388-.038-.581-4.379-8.252-6.974-16.619-7.865-25.11zm.775-6.972l-1.743 2.944c-.581.115-1.161.27-1.743.466v-3.02l1.588-1.163c.116-.076.193-.153.233-.268.04-.118.076-.275.076-.389l-.773-15.458c11.197-5.272 21.657-11.275 31.381-18.06l-.233 2.366-28.786 17.433v15.15zm-2.362-1.395l-1.898 1.395v4.492c5.694-2.285 12.551-.929 20.495 4.146-6.858-2.208-12.786-3.02-17.86-2.362.813 8.833 3.487 17.55 8.02 26.15l-1.511 4.611 3.72 4.728 19.06-12.864-1.975-9.765-3.332-4.842c-.814-9.298-3.295-20.03-7.439-32.2 5.269 8.368 9.26 18.754 11.972 31.15l3.293 3.683 1.548 8.06 6.05-2.52c2.519.118 4.881.662 7.167 1.631l7.788 1.586c1.82-8.289 2.286-17.434 1.394-27.391-6.857-7.631-11.544-15.808-14.06-24.604l-11.623 5.969 1.511-16.194c-10.229 7.246-21.27 13.599-33.12 19.14l.813 16" fill="#8d54a0" stroke="#8d54a0"/><g fill="#a57bb7" stroke="#a57bb7"><path d="m64.12 101.11l1.743-2.944v-15.15l28.786-17.433.233-2.366c-9.724 6.781-20.18 12.785-31.381 18.06l.773 15.457c0 .115-.037.271-.076.389-.04.116-.117.192-.233.268l-1.588 1.163v3.02c.581-.196 1.161-.351 1.743-.466"/><path d="m67.17 105.03c-.737 0-1.434.04-2.093.116.892 8.486 3.487 16.853 7.865 25.11.116.193.116.387.038.581l-1.355 4.222 3.02 3.837 1.782-1.198-2.324-3.608 1.665-3.834c-4.455-8.252-7.322-16.659-8.601-25.22"/><path d="m86.82 82.71l-4.803-1.936c4.998 8.213 8.794 18.287 11.468 30.26l3.137 3.564c.117.117.156.233.195.35l1.355 7.126 2.596-1.083-1.743-9.531-2.907-1.551-9.298-27.2"/></g><path d="m61.59 102.66l2.635 1.784c5.074-.659 11 .154 17.86 2.362-7.943-5.074-14.801-6.43-20.495-4.146" fill="#6b487f" stroke="#6b487f"/><g fill="#8d54a0" stroke="#8d54a0"><path d="m131.06 74.66l-2.518 7.281 9.88-19.835c-.234 6 .812 11.586 3.176 16.775l-.737-13.909-.31-5.23c-2.907-1.705-4.997-3.642-6.198-5.812 1.163 5.541.078 12.436-3.295 20.729"/><path d="m116.57 77.41c-1.085-4.146-1.899-8.214-2.402-12.243-.426-.352-.852-.697-1.24-1.048l-3.951 3.332c2.286 10.04 6.936 19.371 13.948 28.01-2.712-6.159-4.843-12.164-6.354-18.05"/></g><path d="m108.98 67.45l3.951-3.332c-.426-.387-.852-.772-1.239-1.161-1.01 1.046-2.02 2.01-3.062 2.984.118.502.233 1 .35 1.509" fill="#3d2b49" stroke="#3d2b49"/><path d="m159.03 131.45c-.233-.814-.464-1.588-.735-2.365 2.169-1.624 6-2.245 11.506-1.858-4.727.892-8.328 2.325-10.771 4.223zm-5.114-40.949l2.132 2.595c.735 9.03.038 17.78-2.132 26.23l-2.478.389c2.905-9.57 3.756-19.294 2.478-29.21zm-27.28-3.917c-1.084 2.908-2.324 5.891-3.718 8.873 1.201 9.882.659 20.225-1.549 31.03l1.434.116 19.488-2.444.62-6.429 4.108-.621c3.796-7.01 5.811-15.921 6.082-26.73 1.356 10.305.426 20.377-2.79 30.25l1.744-.229 3.604-.542c1.549-.934 2.944-1.862 4.222-2.754.272.427.466.814.542 1.203.117.658-.076 1.353-.504 2.01l2.635-1.589c.233.272.426.58.543.892.232.62.232 1.277.038 2.01l5.462-3.137-6.121 6.354c2.325-.425 4.805.117 7.4 1.589-6.121-.426-10.267.387-12.474 2.362.309.968.62 1.937.89 2.905 1.937 6.781 2.636 13.484 2.091 20.18 6.084-4.61 10.191-11.582 12.32-20.843l-9.336-37.62 1.705-2.75-21.425-16.194-.737 10.38-6.276-13.906-9.996 15.611" fill="#8d54a0" stroke="#8d54a0"/><g fill="#a57bb7" stroke="#a57bb7"><path d="m156.04 93.1l-2.132-2.595c1.279 9.917.427 19.641-2.478 29.21l2.478-.389c2.17-8.447 2.867-17.199 2.132-26.23"/><path d="m158.29 129.09c.271.777.502 1.551.735 2.365 2.442-1.898 6.04-3.332 10.771-4.223-5.502-.387-9.337.234-11.506 1.859"/></g><path d="m88.2 112.48l3.332 4.842 1.975 9.765-19.06 12.864 1.239 1.549c8.951-4.921 16.852-10.347 23.634-16.273l-.659-.775-1.086-1.28-1.548-8.06-3.293-3.683c-2.712-12.394-6.703-22.779-11.972-31.15 4.144 12.165 6.625 22.899 7.439 32.2" fill="#6b487f" stroke="#6b487f"/><path d="m99.56 125.99l1.201 1.818-21.308 14.841 7.206 1.703 3.603 8.29c-.659.542-1.28 1.084-1.937 1.588l-5.115-7.706c-.115-.121-.232-.234-.349-.271l-8.06-3.412c.427-.232.815-.463 1.24-.658 8.951-4.881 16.776-10.27 23.517-16.194zm.155-1.163c-.116.117-.272.271-.387.388-6.781 5.925-14.684 11.352-23.634 16.272-.892.501-1.82.967-2.712 1.432l6.703 2.828 2.867 1.201 5.579 8.405c7.788-5.924 13.754-12.899 17.938-20.958l-6.354-9.569" fill="#8d54a0" stroke="#8d54a0"/><path d="m100.77 127.81l-1.201-1.818c-6.741 5.924-14.566 11.313-23.517 16.194-.426.195-.813.426-1.24.658l8.06 3.412c.117.037.234.15.349.271l5.115 7.706c.658-.504 1.278-1.046 1.937-1.588l-3.603-8.29-7.206-1.703 21.308-14.841" fill="#a57bb7" stroke="#a57bb7"/><path d="m99.33 125.21c.115-.117.271-.271.387-.388l11.777 6 26.928 7.555c1.743-1.359 2.671-3.913 2.788-7.593l-25.22-2.711c-3.641-2.791-7.864-4.613-12.63-5.503l-4.686 1.861.659.775" fill="#f9b291" stroke="#f9b291"/><path d="m97.58 123.16l1.086 1.28 4.686-1.861c4.766.89 8.99 2.712 12.63 5.503l25.22 2.711c.038-.814 0-1.707-.04-2.595l-18.362-1.589-1.434-.116-4.494-.391c-1.937-1.663-3.952-2.942-6.083-3.832-2.286-.969-4.648-1.513-7.167-1.631l-6.05 2.52" fill="#fbc8b8" stroke="#fbc8b8"/><path d="m111.49 130.84l-11.777-6 11.235 8.872c8.794 3.213 17.938 7.67 27.43 13.289-10.81 2.442-21.386 3.062-31.692 1.82 2.674-4.688 4.07-9.724 4.263-15.11-3.603 7.4-8.987 13.442-16.194 18.05 8.328 1.163 16.969 1.123 25.919-.116 6.01-.851 12.165-2.248 18.48-4.183.697.387 1.394.813 2.091 1.239 1.627-6.781 1.977-13.597 1.01-20.419l-1.085-.075c.04.888.077 1.781.04 2.595-.117 3.68-1.046 6.234-2.788 7.593l-26.927-7.555" fill="#cb7054" stroke="#cb7054"/><path d="m140.56 34.676l.659-2.713-.93 1.319c-.471.669-2.208 3.139-2.208 3.139l-1.085 5.54c0 0 3.12-5.936 3.564-7.285" fill="#2c1918" stroke="#2c1918"/><g fill="#f9b291" stroke="#f9b291"><path d="m163.1 119.64c-.117-.312-.31-.62-.543-.892l-2.635 1.589-6.47 3.875-2.286 3.834 2.093-.388 9.841-8.02"/><path d="m160.43 118.33c-.076-.389-.27-.776-.542-1.203-1.279.892-2.673 1.82-4.222 2.754-1.861 1.083-3.952 2.168-6.238 3.253l-1.279 4.88 1.743.233 1.86-4.069 8.678-5.847"/><path d="m152.06 120.41l-1.744.229-3.952.583-1.239 6.394 1.511.191 1.201-5.654 4.223-1.742"/></g><g fill="#cb7054" stroke="#cb7054"><path d="m155.67 119.88l-3.604.542-4.223 1.742-1.201 5.654 1.511.195 1.279-4.88c2.286-1.085 4.377-2.17 6.238-3.253"/><path d="m159.92 120.34c.427-.66.621-1.356.504-2.01l-8.678 5.847-1.86 4.069 1.279-.193 2.286-3.834 6.47-3.875"/></g><path d="m147.02 117.11l-4.108.621-.62 6.429-19.487 2.444 18.362 1.589 1.085.075c-.038-.349-.116-.733-.155-1.083l3.02.426 1.239-6.394 3.952-.583c3.216-9.878 4.146-19.95 2.79-30.26-.271 10.809-2.286 19.718-6.082 26.73" fill="#6b487f" stroke="#6b487f"/><path d="m143.03 128.2l.04-.079 6.741.892h.233l5.076-.892-.077 3.061-5.114 1.084-4.727-.773c.814 6.39.193 12.941-1.782 19.644l-2.208.735c.271-1.01.542-2.01.814-2.982 1.627-6.899 1.976-13.794 1.01-20.689zm5.115-.196l-1.511-.195-1.511-.191-3.02-.426c.04.35.117.734.155 1.083.969 6.821.62 13.636-1.01 20.419-.349 1.473-.775 2.944-1.239 4.417l8.407-2.827 6.858 2.321.62-25.412-2.635.463-2.093.388-1.279.193-1.743-.233" fill="#8d54a0" stroke="#8d54a0"/><path d="m143.07 128.13l-.04.079c.969 6.896.621 13.791-1.01 20.689-.272.968-.543 1.974-.814 2.982l2.208-.735c1.976-6.703 2.596-13.254 1.782-19.644l4.727.773 5.114-1.084.077-3.061-5.076.892h-.233l-6.741-.892" fill="#a57bb7" stroke="#a57bb7"/><path d="m157.98 126.93c.349-.31.735-.581 1.161-.775 2.208-1.628 3.564-3.138 3.99-4.497.193-.735.193-1.393-.038-2.01l-9.841 8.02 2.635-.463.852-.155c.077.232.155.463.271.697.31-.309.621-.584.969-.813" fill="#cb7054" stroke="#cb7054"/><path d="m141.24 148.69c-.697-.426-1.394-.852-2.091-1.239l-.077 8.29c.349-.889.659-1.742.93-2.635.464-1.473.89-2.944 1.239-4.417" fill="#3d2b49" stroke="#3d2b49"/><g fill="#8d54a0" stroke="#8d54a0"><path d="m138.14 159.63l-1.665-8.252-15.846 2.168-.581 18.482 1.937 16.425 3.061 12.439c8.524-1.668 15.03-4.805 19.526-9.454l-3.99-10.85 3.37-5.808-4.262-6.434 2.751-8.715h-4.301"/><path d="m81.74 155.09l2.364 3.178c.968 9.726-.467 18.831-4.263 27.351-.659-.579-1.277-1.198-1.936-1.857 3.368-8.716 4.648-18.287 3.835-28.671zm3.989 4.072l-5.04-6.822c1.318 11.546.078 22.09-3.72 31.614.892.893 1.822 1.745 2.712 2.558.697.656 1.395 1.279 2.093 1.86 12.514 9.06 24.484 11.969 35.914 8.718-2.364-13.214-3.138-26.928-2.324-41.15l-22.16-.89-7.477 4.109"/></g><path d="m84.11 158.26l-2.364-3.178c.813 10.384-.467 19.955-3.835 28.671.659.659 1.277 1.279 1.936 1.857 3.796-8.52 5.231-17.625 4.263-27.351" fill="#a57bb7" stroke="#a57bb7"/><path d="m106.69 148.81c10.306 1.242 20.882.622 31.692-1.82-9.492-5.619-18.636-10.07-27.43-13.289-.193 5.385-1.589 10.421-4.263 15.11" fill="#f9b291" stroke="#f9b291"/><path d="m120.95 204.6h5.424c0 4.649-1.822 9.299-5.424 13.947-.659.193-1.356.387-2.02.619.076 1.394.155 2.792.233 4.184 5.152-2.983 11.428-5.074 18.906-6.238-5.308-.655-10.614-.271-15.923 1.125 3.758-4.571 5.54-9.607 5.345-15.07l15.536-1.819c2.441 31.19-1.355 62.49-11.428 93.99l-1.859 17.318 2.361-6.508c.544-1.513 1.085-2.984 1.59-4.497.813 14.957-.737 30.412-4.688 46.34-1.395-3.485-2.558-7.167-3.449-11.04-2.093-18.632-5.695-31.38-10.81-38.2-.89-1.201-1.86-2.247-2.866-3.1v-8.872l-2.053-2.324c-2.053-20.998.349-42.541 7.167-64.59-.155-.192-.309-.347-.464-.542 2.904-4.532 4.377-9.412 4.417-14.721zm25.918 172.17c.117-1.394.195-2.825.234-4.338-7.168-5.734-12.746-12.783-16.699-21.19 6.817-23.751 8.64-42.537 5.502-56.45 9.955-32.27 13.211-65.4 9.763-99.3-5.153 3.8-11.276 5.619-18.326 5.502-.737-.037-1.511-.076-2.286-.114l-3.061-12.439 1.511 12.903c-.892.154-1.822.31-2.712.425-12.669 1.591-24.913-2.247-36.688-11.504-.156 1.046-.312 2.09-.426 3.136 11.427 7.439 22.702 11.702 33.861 12.825.659 4.648.078 8.793-1.666 12.398-3.293-3.372-8.214-6.392-14.838-9.07l10.537 9.687c-6.392 22.857-8.328 45.02-5.812 66.48l1.513 5.54-10.112-7.01c3.33 4.497 6.547 7.672 9.646 9.533 8.486 17.664 14.02 34.75 16.544 51.29 3.526 11.892 9.57 23.17 18.17 33.9-1.82 10.229-6.275 18.675-13.366 25.337l-1.355-6.314c-7.129-12.516-13.328-25.14-18.636-37.928l-1.084 6.12 17.472 39.4-7.322-5.501c-6.665 1.393-12.398 5.152-17.241 11.273l1.239 4.38c6.159-9.22 12.903-12.01 20.263-8.369l1.511 3.02.775 1.51.775 1.548 3.797-3.292v-4.843c1.047-.426 2.091-.891 3.059-1.396 2.557-1.353 4.805-3.02 6.742-5.03 3.37-3.526 5.773-8.06 7.245-13.636.697-2.601 1.201-5.427 1.472-8.489" fill="#4a4c50" stroke="#4a4c50"/><g fill="#62606b" stroke="#62606b"><path d="m126.37 204.6h-5.424c-.04 5.308-1.513 10.188-4.417 14.721.155.195.309.35.464.542.659-.271 1.278-.501 1.937-.696.659-.233 1.356-.426 2.02-.619 3.603-4.648 5.424-9.298 5.424-13.947"/><path d="m119.98 223.78c.543-.313 1.125-.622 1.744-.931 1.511 23.05 1.125 46.18-1.085 69.46l-3.797 8.098c-.426-.656-.813-1.239-1.2-1.82l2.517-6.511c.04-.038.04-.116.04-.195 2.362-22.703 2.982-45.4 1.781-68.11zm-.813-.429c1.2 22.819.62 45.638-1.744 68.46l-2.674 6.935c5.115 6.818 8.718 19.566 10.81 38.2.89 3.875 2.053 7.557 3.449 11.04 3.951-15.925 5.501-31.38 4.688-46.34-.505 1.513-1.046 2.984-1.59 4.497l-2.361 6.508 1.859-17.318c10.07-31.496 13.87-62.802 11.428-93.99l-15.536 1.819c.195 5.465-1.588 10.501-5.345 15.07 5.308-1.395 10.614-1.78 15.923-1.125-7.477 1.164-13.754 3.255-18.906 6.238"/></g><path d="m121.72 222.85c-.62.309-1.201.618-1.744.931 1.201 22.701.581 45.4-1.781 68.11 0 .079 0 .156-.04.195l-2.517 6.511c.387.581.773 1.164 1.2 1.82l3.797-8.098c2.21-23.282 2.596-46.41 1.085-69.46" fill="#98999b" stroke="#98999b"/><path d="m146.86 376.77c-.271 3.062-.775 5.887-1.472 8.489v27.93c.078.775.078 1.549.038 2.286-.349 4.299-2.828 8.137-7.438 11.428.388 1.436.659 3.061.814 4.806l.193 2.984c9.724-6.319 13.754-14.568 12.09-24.76-.038-.116-.038-.192-.038-.307l-.04-.235c-.04-.192-.078-.349-.078-.503-1.898-11.275-1.82-21.386.155-30.413l-4.223-1.706" fill="#d3d2d2" stroke="#d3d2d2"/><path d="m142.52 398.78l-4.377.115c-1.937 2.02-4.185 3.681-6.742 5.03l10.656-.62.463-4.529" fill="#f0f0f0" stroke="#f0f0f0"/><path d="m138.15 398.89l4.377-.115-.463 4.529-10.656.62c-.038.894-.076 1.704-.116 2.522l10.384.773-.427 3.952h-10.616c-.232 1.125-.542 2.169-.889 3.137 3.795-1.278 8.06-1.24 12.745.157.968.268 1.936.617 2.944 1.01.04-.737.04-1.512-.038-2.286v-27.93c-1.472 5.574-3.875 10.11-7.245 13.636" fill="#444041" stroke="#444041"/><path d="m145.43 415.47c-1.01-.388-1.976-.737-2.944-1.01.233 3.524-1.318 7.435-4.689 11.777l.195.656c4.61-3.291 7.089-7.129 7.438-11.428" fill="#e2e1e1" stroke="#e2e1e1"/><path d="m137.8 426.25c-.038-.041-.038-.117-.038-.156-1.588-5.153-4.726-8.098-9.413-8.873-.155-.038-.31-.077-.426-.077-.504-.077-1.046-.117-1.588-.154-.272 0-.581 0-.854 0 4.03.386 7.283 2.322 9.724 5.848 1.551 2.753 2.403 5.811 2.595 9.103.35-.073.66-.152 1.01-.229-.155-1.745-.426-3.37-.814-4.806l-.195-.656" fill="#bdbcbd" stroke="#bdbcbd"/><path d="m137.76 426.09c0 .038 0 .115.038.156 3.371-4.342 4.922-8.254 4.689-11.777-4.689-1.397-8.95-1.435-12.745-.157-.737.425-1.357 1.356-1.822 2.828.116 0 .271.04.426.077 4.688.775 7.826 3.72 9.413 8.873" fill="#f0f0f0" stroke="#f0f0f0"/><path d="m138.07 437.75c.31-.076.621-.155.892-.233.038-.969.038-1.898.038-2.79v-.036l-.193-2.984c-.349.077-.659.157-1.01.229l.272 5.813" fill="#a7a5a6" stroke="#a7a5a6"/><path d="m138.07 437.75l-.272-5.813c-8.639 1.669-17.04 2.02-25.18 1.049l-5.579-4.071-5.812-6.082v4.302l11.895 11.66c8.33 1.472 16.621 1.125 24.95-1.046" fill="#d3d2d2" stroke="#d3d2d2"/><path d="m137.8 431.94c-.192-3.292-1.044-6.35-2.595-9.103-2.441-3.527-5.695-5.463-9.724-5.848-.233 0-.464 0-.697 0-.543.037-1.085.115-1.589.194 7.091 2.749 9.648 6.471 7.71 11.12-7.788 3.178-15.731 3.37-23.866.622l5.579 4.068c8.136.968 16.542.62 25.18-1.049" fill="#e2e1e1" stroke="#e2e1e1"/><path d="m141.25 411.17l.427-3.952-10.384-.773c-.116 1.699-.349 3.291-.659 4.726h10.616" fill="#f0f0f0" stroke="#f0f0f0"/><path d="m92.62 295.45c2.791 13.95 6.509 27.894 11.197 41.882 6.625 20.11 15.226 39.786 25.803 59.04l.89 4.377c-.62.697-1.239 1.397-1.897 2.052l-1.048-4.959c-.037-.076-.037-.155-.078-.233-7.129-12.472-13.326-25.1-18.595-37.851-8.949-21.576-15.305-43.584-19.06-66.02l2.79 1.703zm-8.33-100.69c.93.58 1.86 1.125 2.79 1.702l-1.936 17.864c-1.394 23.01-.621 45.557 2.362 67.68l9.996 14.606-11.506-12.241c-4.882-28.478-5.464-58.35-1.706-89.61zm33.24 11.469c-11.159-1.123-22.433-5.386-33.861-12.825-3.952 31.884-3.41 62.33 1.588 91.32l2.867 3.02 8.794 9.378-8.135-4.885c3.718 23.05 10.189 45.64 19.37 67.841 5.308 12.785 11.507 25.413 18.636 37.928l1.355 6.314c7.091-6.662 11.546-15.11 13.366-25.337-8.599-10.731-14.643-22.01-18.17-33.9-2.519-16.544-8.06-33.629-16.542-51.29-3.1-1.861-6.317-5.04-9.648-9.533l10.112 7.01-1.513-5.54c-2.516-21.463-.58-43.626 5.812-66.48l-10.537-9.687c6.624 2.673 11.544 5.696 14.838 9.07 1.744-3.605 2.325-7.75 1.666-12.398" fill="#62606b" stroke="#62606b"/><g fill="#98999b" stroke="#98999b"><path d="m87.08 196.46c-.93-.578-1.86-1.122-2.79-1.702-3.758 31.27-3.176 61.13 1.706 89.61l11.506 12.241-9.996-14.606c-2.983-22.12-3.756-44.67-2.362-67.68l1.936-17.864"/><path d="m103.82 337.33c-4.689-13.988-8.406-27.933-11.197-41.882l-2.79-1.703c3.758 22.431 10.113 44.44 19.06 66.02 5.269 12.749 11.467 25.379 18.595 37.851.041.077.041.157.078.233l1.048 4.959c.658-.655 1.277-1.355 1.897-2.052l-.89-4.377c-10.577-19.257-19.18-38.935-25.803-59.04"/></g><path d="m88.13 287.74c.193 1.511.426 2.984.659 4.493l8.135 4.885-8.794-9.378" fill="#4a4c50" stroke="#4a4c50"/><path d="m109.05 372.59l-3.835 24.56-4.765 4.381 1.936 5.965c-.737.697-1.432 1.434-2.091 2.247l-2.519-8.718 4.805-5.268c.116-.117.154-.271.192-.388l4.61-26.54 1.668 3.76zm8.174 27.507l7.322 5.501-17.472-39.4-5.077 29.02-5.074 5.579 3.061 10.576c4.843-6.121 10.576-9.881 17.241-11.273" fill="#62606b" stroke="#62606b"/><path d="m105.22 397.15l3.835-24.56-1.668-3.76-4.61 26.54c-.038.117-.076.271-.192.388l-4.805 5.268 2.519 8.718c.659-.813 1.355-1.549 2.091-2.247l-1.936-5.965 4.765-4.381" fill="#98999b" stroke="#98999b"/><path d="m101.22 415.75v7.087l5.812 6.084c2.79-6.78 8.174-10.695 16.16-11.739.504-.079 1.046-.156 1.589-.194.233 0 .464 0 .697 0 .272 0 .581 0 .854 0l-.892-1.783c-6.703.696-11.39 2.131-14.06 4.341l-1.705-3.682c3.02-1.586 7.71-2.906 14.1-3.951l-.775-1.51c-6.315.657-10.963 1.937-14.02 3.875l-1.434-3.1c2.44-2.519 7.091-3.759 13.947-3.797-7.36-3.642-14.1-.851-20.263 8.369" fill="#444041" stroke="#444041"/><g fill="#f0f0f0" stroke="#f0f0f0"><path d="m124.55 413.46l-.775-1.548c-6.392 1.044-11.08 2.365-14.1 3.951l1.705 3.682c2.674-2.21 7.362-3.644 14.06-4.341l-.892-1.744"/><path d="m130.9 428.3c1.937-4.646-.619-8.367-7.71-11.12-7.981 1.044-13.366 4.958-16.16 11.736 8.135 2.75 16.08 2.558 23.866-.62"/><path d="m107.54 411.17l1.434 3.1c3.062-1.938 7.71-3.218 14.02-3.875l-1.511-3.02c-6.857.038-11.507 1.278-13.947 3.797"/></g></g></svg>