<svg xmlns="http://www.w3.org/2000/svg" viewBox="0 0 241.99999 440"><g transform="matrix(1.25,0,0,-1.25,-249.2075,444.01375)"><path d="m302.01 328.93l.092.183c.032.342.157.653.31.93.124.063.247.095.372.125l.496.123c.094-.402.279-.648.62-.743.279-.122.558-.156.805-.063.404.248.621.558.652.963h.279c.527-.063.991-.219 1.456-.465.094-.034.185-.094.279-.124-.992 1.207-2.788 1.456-5.361.743v-1.672" fill="#231f20"/><path d="m302.1 329.11l-.092-.183c2.01-.714 3.781-.405 5.361.929-.094.031-.185.091-.279.124-1.394-1.304-3.037-1.58-4.991-.87" fill="#b96351"/><path d="m302.42 330.04c-.154-.277-.279-.588-.31-.93 1.954-.71 3.596-.434 4.991.87-.465.246-.929.402-1.456.465-.341-1.055-.838-1.582-1.457-1.552-.62.034-1.085.467-1.394 1.272-.125-.031-.248-.062-.372-.125" fill="#fff"/><path d="m303.28 330.29l-.496-.123c.309-.805.774-1.238 1.394-1.272.62-.029 1.116.497 1.457 1.552h-.279c-.032-.405-.248-.714-.652-.963-.247-.093-.526-.059-.805.063-.341.095-.526.341-.62.743" fill="#562a12"/><path d="m288.03 329.98c.464.246.93.402 1.426.465h.279c.032-.405.279-.714.681-.963.249-.093.528-.059.806.063.31.095.527.341.621.743l.464-.123c.125-.031.248-.062.404-.125.155-.277.279-.588.309-.93l.031-.183.032-.034v1.706c-2.572.713-4.37.464-5.331-.743.093.031.185.091.279.124" fill="#231f20"/><path d="m289.46 330.45c-.496-.063-.962-.219-1.426-.465 1.364-1.304 3.038-1.58 4.99-.87-.031.342-.155.653-.309.93-.156.064-.279.095-.404.125-.279-.805-.743-1.238-1.363-1.272-.651-.029-1.147.497-1.488 1.552" fill="#fff"/><path d="m290.42 329.48c-.402.248-.649.558-.681.963h-.279c.341-1.055.837-1.582 1.488-1.552.62.034 1.084.467 1.363 1.272l-.464.123c-.094-.402-.31-.648-.621-.743-.278-.122-.557-.156-.806-.063" fill="#562a12"/><path d="m288.03 329.98c-.094-.034-.186-.094-.279-.124 1.549-1.334 3.317-1.644 5.299-.929l-.031.183c-1.952-.71-3.626-.434-4.99.87" fill="#b96351"/><g fill="#fff"><path d="m304.9 330.42v-.031c.031-.031.031-.094.031-.156 0-.155-.031-.246-.124-.34-.094-.123-.216-.187-.371-.187-.155 0-.279.064-.371.187-.094.094-.124.185-.124.34v.186h.185c.248.033.497.033.775 0"/><path d="m291.26 330.23v.186h-.185c-.249.033-.497.033-.775 0v-.031c-.031-.031-.031-.094-.031-.156 0-.155.031-.246.124-.34.092-.123.217-.187.371-.187.155 0 .279.064.372.187.092.094.123.185.123.34"/></g></g></svg>