<svg xmlns="http://www.w3.org/2000/svg" viewBox="0 0 241.99999 440"><g transform="matrix(1.25,0,0,-1.25,-249.2075,444.01375)"><g fill="#f9b291"><path d="m283.88 328.19c-.218.37-.435.681-.62.927-1.148-2.045-.744-4.244 1.146-6.57l.497 1.551z"/><path d="m309.25 322.84c1.231.573 2.099 1.86 2.709 2.898-.031.528-.061 1.116-.155 1.737-.062.341-.123.713-.217 1.115l-1.767-2.512z"/></g><path d="m284.41 322.54l-.218-.681c.311-.095.652-.155 1.055-.124-.155.776-.248 1.552-.341 2.356l-.497-1.551" fill="#cb7054"/><path d="m284.19 321.86l.218.681c-1.89 2.326-2.294 4.526-1.146 6.57-1.178 1.644-1.675.87-1.457-2.353.124-2.821.93-4.434 2.385-4.898" fill="#fbc8b8"/><path d="m308.95 321.64c1.488.032 2.418.712 2.821 2.109.155.558.217 1.209.185 1.982-.732-1.273-1.538-2.27-2.709-2.898z" fill="#cb7054"/><path d="m289.46 330.45c-.496-.063-.962-.219-1.426-.465 1.364-1.304 3.038-1.58 4.99-.87-.031.342-.155.653-.309.93-.156.064-.279.095-.404.125-.279-.805-.743-1.238-1.363-1.272-.651-.029-1.147.497-1.488 1.552" fill="#fff"/><g fill="#b96351"><path d="m283.94 324.78l.434.65c-.495 1.488-1.177 2.418-2.076 2.789.868-.837 1.426-1.983 1.642-3.44"/><path d="m311.71 327.29c-.899-.372-1.58-1.301-2.077-2.759l.435-.682c.217 1.427.744 2.572 1.642 3.441"/></g></g></svg>