<svg xmlns="http://www.w3.org/2000/svg" viewBox="0 0 241.99999 440"><g transform="matrix(1.25,0,0,-1.25,-249.2075,444.01375)"><g fill="#f9b291"><path d="m291.57 340.24l-2.79-5.114c.454-2.569-.487-5.087-2.196-6.655-.961-1.555-1.182-1.848-1.359-4.379.093-.804.133-1.562.288-2.338.247-1.366.324-2.653.788-3.859.124-.343.248-.684.403-1.024 1.643-3.752 4.589-6.335 8.339-8.347 6.541 1.58 10.996 6.096 12.794 14.12.294.83.411 1.248.656 2.406.308 3.596-.372 6.913-2.077 9.98l-1.953-4.03-1.642 7.963c-3.659 1.427-7.409 1.86-11.251 1.271"/><path d="m286.7 315.45l.062.032c-.032.061-.062.124-.062.157v-.188"/></g><g fill="#231f20"><path d="m302.29 332.9c-1.675-.62-2.108-1.053-1.303-1.333 2.262.929 4.587 1.209 6.974.838.558.371.558.684 0 .899-.559.217-1.209.37-1.983.433-.775.064-2.01-.216-3.688-.836"/><path d="m292.81 332.9c-1.672.62-2.882.9-3.657.836-.774-.062-1.456-.216-2.01-.433-.527-.215-.527-.527 0-.899 2.386.371 4.742.092 7-.838.773.28.341.713-1.334 1.333"/></g><path d="m303.31 317.77l-2.759-2.849c-2.139-.559-4.339-.559-6.54 0l-2.759 2.849 3.224-.68c1.89-.312 3.75-.312 5.578 0l3.256.68m-9.701-.061l-3.937.96 3.937-4.4c2.386-.619 4.835-.619 7.315 0l3.967 4.4-3.967-.96c-2.512-.402-4.929-.402-7.315 0" fill="#b96351"/><path d="m300.56 314.92l2.759 2.849-3.256-.68c-1.828-.312-3.688-.312-5.578 0l-3.224.68 2.759-2.849c2.2-.559 4.4-.559 6.54 0" fill="#fff"/><path d="m297.46 312.75l-.527-.497c-.278-.558-.123-1.518.404-2.88l.123 3.377" fill="#b96351"/></g></svg>