<svg xmlns="http://www.w3.org/2000/svg" viewBox="0 0 241.99999 440"><g stroke-width=".08"><path d="m182.39 76.65l1.094-2.891c-13.559-6.486-26.45-10.509-38.6-12.11l7.149 17.737-8.908-8.947-2.462-13.324-.077-.546-1.094-.625 2.462 18.05-1.173 3.593c-6.135 1.484-10.785 6.06-14.03 13.754-6.525-5.9-12.386-8.4-17.581-7.579-2.383-7.269-2.773-14.73-1.211-22.386l-2.383 4.648c0 6.448.861 12.815 2.577 19.03l-3.515 4.492c-1.368-6.06-1.523-12.464-.43-19.261-.626.313-1.249.625-1.876.978-1.68 7.619-1.133 14.885 1.564 21.8l6.095-6.641 13.595 5.547c-.508 19.77.508 39.03 3.125 57.822l-1.368 28.951-1.639 1.757c-4.493.118-8.948-1.523-13.441-4.961 4.299 4.727 9.104 7.345 14.457 7.892l-2.775 17.815-3.869-4.961c-.585.352-1.249.586-1.991.625-1.056.038-2.305-.273-3.75-.938-3.323-3.634-6.409-5-9.34-4.102-.037.548-.037 1.094.08 1.602 4.727 5.977 11.252 9.807 19.535 11.526.546.115 1.094.195 1.679.312l2.462-9.884-.546-13.988c.468-.155.938-.312 1.406-.507 10.628-4.299 19.14-13.558 25.512-27.779-8.478 13.166-16.917 21.21-25.395 24.07l.39-14.886 1.407-12.346c-1.915-20.745-2.853-39.929-2.775-57.628 3.947-6.875 9.182-10.939 15.706-12.189l1.759-5.04 10.197 8.282-3.281-16.954c8.71.43 17.854 3.593 27.426 9.493l-1.211 2.305 2.97.938-.781 2.499 17.346 48.17-1.094 8.948-9.103-3.399c-5.391.195-9.533 1.211-12.424 3.01v2.032c8.83-5.04 16.84-3.986 24.03 3.126.43.428.898.858 1.328 1.368l1.328-16.1c-.897-2.072-1.796-4.104-2.655-6.174-5.665-13.558-10.237-27.23-13.714-40.945l1.679-2.773-3.868-2.304" fill="#231f20" stroke="#231f20"/><path d="m173.02 91.61l.078-.078 2.695 3.165v19.885l-1.093 2.072 3.01 6.563-.625 4.103c-.586.195-1.211.313-1.836.431l-.353-1.016.938-1.954c.04-.118.078-.235.078-.353 0-.117-.038-.232-.078-.351l-3.515-6.406 1.406-3.439c.04-.038.04-.117.04-.194.82-7.15.586-14.612-.743-22.426zm6.524-9.925l.781-2.499-2.97-.938 1.211-2.305c-9.572-5.9-18.715-9.06-27.426-9.493l3.281 16.954-10.197-8.282-1.759 5.04c-6.523 1.251-11.758 5.315-15.706 12.189-.078 17.699.859 36.882 2.775 57.627l-1.407 12.346-.39 14.886c8.477-2.852 16.916-10.9 25.395-24.07-6.369 14.221-14.885 23.48-25.513 27.779-.468.195-.938.352-1.406.507l.546 13.988.313 8.672c4.337.118 8.125-1.834 11.292-5.82.428-2.54 1.836-4.805 4.219-6.797l11.408-8.674c6.681-3.869 10.509-9.651 11.487-17.386 0-.078 0-.157.038-.195l-5.08-40.632c7.775-7.932 11.683-18.871 11.801-32.858 1.328 7.736 1.563 15.16.741 22.23l-1.523 3.75 3.673 6.719-1.094 2.227.703 1.954c4.219-.468 8.05-2.813 11.525-7.03-2.382 4.845-5.938 8.01-10.666 9.531 4.882-.741 9.338-.117 13.284 1.877l1.641 2.031c-5.392-2.89-10.509-3.243-15.393-1.094l-.822 1.642-.038 2.852c2.892-1.797 7.03-2.813 12.424-3.01l9.103 3.399 1.094-8.948-17.346-48.17" fill="#444041" stroke="#444041"/><path d="m173.09 91.54l-.078.078c1.329 7.814 1.563 15.276.743 22.426 0 .077 0 .155-.04.194l-1.406 3.439 3.515 6.406c.04.119.078.235.078.352 0 .118-.038.235-.078.353l-.938 1.954.353 1.016c.625-.118 1.249-.236 1.836-.431l.625-4.103-3.01-6.563 1.093-2.07v-19.886l-2.695-3.165" fill="#696667" stroke="#696667"/><g fill="#231f20" stroke="#231f20"><path d="m174.31 131.46l.822 2.46c4.884-2.149 10-1.796 15.393 1.094l-1.641-2.031c-3.946-1.994-8.401-2.618-13.284-1.877-.43.118-.859.235-1.291.353"/><path d="m174.73 128.61l.859 2.499c4.727-1.523 8.283-4.686 10.666-9.531-3.478 4.219-7.306 6.563-11.525 7.03"/><path d="m167.82 126.61l3.634-8.908 1.523-3.75c.821-7.07.586-14.495-.742-22.23-.118 13.985-4.03 24.925-11.801 32.858l5.08 40.633c-.038.038-.038.117-.038.195-.978 7.736-4.805 13.518-11.487 17.386l-11.408 8.674c-2.383 1.991-3.791 4.256-4.219 6.797-3.166 3.986-6.954 5.938-11.291 5.82l.115 3.283c.939.078 1.838.078 2.736.04 5.197-.273 9.299-2.657 12.346-7.111-.783-.195-1.173-.665-1.133-1.407.038-.625.35-1.446 1.016-2.5l13.596-10.705 7.266-.936c5.079-4.142 8.283-9.261 9.651-15.316-2.852-7.853-4.493-15.59-4.845-23.13v-19.691"/></g><path d="m173.37 144.24l1.249 3.438c-.82.35-1.561.781-2.304 1.288l-1.642-5.234c1.329-1.016 2.657-1.875 3.986-2.618 5.508-3.125 10.744-3.788 15.627-1.992-8.595.744-14.22 2.422-16.916 5.119zm26.25.704c-.43-.509-.898-.939-1.328-1.368-7.189-7.112-15.199-8.166-24.03-3.126-1.484.82-2.969 1.797-4.493 2.969l2.11 6.799c.898-.703 1.914-1.291 3.01-1.797 3.01-1.369 6.603-1.914 10.744-1.642 5.275 1.564 8.635 3.555 10.04 5.978l.665-4.884 4.063-2.031c-.273-.313-.508-.626-.781-.898" fill="#444041" stroke="#444041"/><path d="m174.62 147.67l-1.249-3.438c2.696-2.696 8.322-4.375 16.916-5.119-4.884-1.796-10.119-1.133-15.627 1.992-1.329.743-2.657 1.602-3.986 2.618l1.642 5.234c.743-.507 1.484-.938 2.304-1.288" fill="#696667" stroke="#696667"/><path d="m200.41 145.84l-4.063 2.031-.665 4.884c-1.407-2.423-4.767-4.414-10.04-5.978-4.141-.272-7.736.273-10.744 1.642-1.093.507-2.109 1.094-3.01 1.797l.898 2.93 1.875.43c.195-.821.43-1.564.703-2.228 7.774-2.851 13.986-.663 18.636 6.526-.195 1.524-.468 3.01-.859 4.453l5.314-2.734v-5.353l3.438-6.563c-.508-.665-.976-1.249-1.484-1.836" fill="#231f20" stroke="#231f20"/><path d="m193.13 162.32c.391-1.446.665-2.929.859-4.453-4.649-7.189-10.862-9.376-18.636-6.526-.273.665-.508 1.407-.703 2.228.821.272 1.601.547 2.422.82 3.79 1.407 7.345 3.321 10.667 5.743-1.251 8.166-5.901 15.59-13.986 22.23-5.666 5.703-8.753 12.11-9.34 19.261l-13.05-2.345c4.571 3.165 9.924 4.767 16.06 4.804.194-2.577.585-4.921 1.173-7.03 1.211-4.337 3.242-7.736 6.095-10.119 9.884-7.424 16.06-15.627 18.44-24.615" fill="#cb7054" stroke="#cb7054"/><path d="m177.08 154.4c-.821-.273-1.601-.548-2.422-.82-.743 2.852-1.211 6.563-1.329 11.134-.118 1.602-.312 3.203-.663 4.728-1.368 6.06-4.572 11.173-9.651 15.315l-7.266.938-13.596 10.705c-.666 1.054-.978 1.875-1.016 2.5.468-.078.936-.155 1.406-.272l13.324-11.1 8.282-.938c5.782-5.274 9.26-11.02 10.432-17.231.312-6.68 1.133-11.642 2.5-14.963" fill="#fbc8b8" stroke="#fbc8b8"/><path d="m177.08 154.4c-1.368 3.321-2.189 8.283-2.5 14.963-1.173 6.213-4.65 11.957-10.432 17.231l-8.282.938-13.324 11.1c3.243-.861 6.641-2.696 10.197-5.51l3.165.821c-.938 1.796-2.462 3.593-4.532 5.352l13.05 2.345c.588-7.15 3.674-13.559 9.34-19.261 8.09-6.641 12.736-14.06 13.986-22.23-3.321-2.422-6.877-4.336-10.667-5.743" fill="#f9b291" stroke="#f9b291"/><path d="m167.34 208.15l-4.376 7.893 3.751 4.219-2.031 3.321c7.07 24.26 9.142 49.03 6.25 74.39v18.17l2.462-6.563c4.02 17.23 5 35.12 2.892 53.681-.04.235-.04.468-.078.663-1.756 15.824 1.914 28.326 10.939 37.548-8.204-2.305-14.22-1.328-18.01 2.89 6.096-3.01 11.566-3.01 16.449 0-7.736 1.641-13.83 4.923-18.322 9.807l1.641 1.875.585-.509c.235-.273.47-.546.743-.781l.39-.39c6.956-6.877 13.91-8.283 20.864-4.259l5.079-8.712-9.143-7.03 1.094-3.397c-4.414-11.136-6.367-22.897-5.78-35.28 2.46-22.855.233-42.12-6.681-57.706 3.281-20.2 1.563-45.24-5.197-75.17l1.757-1.641-3.281-4.532 3.438-3.165v-6.485l-4.179-9.924c-.588 2.11-.979 4.453-1.173 7.03-6.135-.037-11.488-1.639-16.06-4.804 2.071-1.759 3.595-3.556 4.532-5.352-1.368.195-2.774.936-4.141 2.189-1.054 1.523-2.501 2.772-4.376 3.71-2.383.586-4.102.744-5.119.47-3.047 4.454-7.149 6.838-12.346 7.111-.898.038-1.797.038-2.736-.04l-.115-3.283-.313-8.672-2.462 9.884c-.585-.117-1.133-.196-1.679-.312-8.283-1.719-14.808-5.549-19.535-11.526.273 1.524 1.133 2.93 2.657 4.298-4.103 4.22-9.02 6.328-14.807 6.328-.43-.547-.781-1.093-1.134-1.639-.35-.508-.702-1.054-.975-1.602-1.174 1.954-.978 4.219.625 6.799 7.54 1.054 13.44-.391 17.776-4.299l13.558 3.439 4.415 22.23-14.221-8.831 11.643 12.659c-3.751 20.512-4.922 40.554-3.556 60.21l.39 9.258c-2.969 4.651-6.641 7.775-11.02 9.379-.939.312-1.915.585-2.893.78.353.08.743.156 1.094.195 4.337.431 8.636-2.187 12.933-7.852l1.915 1.524-1.602 2.5c5.665 17.855 7.305 36.22 4.924 55.09-.978 10.745 1.093 22.31 6.172 34.734-6.172-4.02-11.565-5.197-16.214-3.438-1.133.43-2.227 1.016-3.243 1.757-1.289.899-2.5 2.109-3.633 3.556 7.502-3.752 15.276-3.752 23.361 0l-1.483 5.157-5.977-2.462c-4.963-.625-10.159.507-15.589 3.439l.117 2.813c2.11-1.641 4.258-2.813 6.408-3.479 6.288-1.992 12.776.118 19.534 6.252l4.455-12.777c-5.626-9.571-7.737-22.504-6.369-38.718 2.696-22.544.43-39.89-6.798-52.12l1.679-2.735-3.165-1.952c-1.68-23.402.04-47.55 5.118-72.44l-2.187-1.368-3.984-22.972h2.577v2.695h2.97l2.774 21.724c-.39.155-.781.351-1.133.548.976 0 1.992.037 3.01.078.546 1.015 1.094 2.031 1.602 3.047 6.68-.195 14.22.625 22.581 2.5-7.813-3.087-15.197-4.923-22.15-5.43 4.65-3.165 11.605-5.275 20.787-6.369-7.932-.313-15.784 1.369-23.482 5l-2.305-20.981c5.431-.351 9.924-2.344 13.48-5.978 7.852 3.243 15.745 4.611 23.636 4.141" fill="#1f272f" stroke="#1f272f"/><path d="m136.06 236.05c.858-.038 1.718-.038 2.618 0 9.961 20.395 17.502 41.33 22.581 62.863l-1.76 1.757 2.619 3.947c-4.493 15.276-3.596 33.483 2.617 54.619 2.657 11.721 4.02 22.973 4.141 33.796l-4.805 16.407-1.289-1.446 4.377-16.604v-.156c.273-7.618-1.291-18.479-4.69-32.545-.038-.038-.038-.038-.038-.078-6.213-19.846-7.266-37.975-3.125-54.42.038-.196 0-.391-.078-.546l-1.72-3.048 1.016-1.524c.04-.078.08-.156.118-.273v-.313c-5.157-21.995-12.697-42.781-22.581-62.43zm26.917-20l4.376-7.893c-7.891.47-15.784-.898-23.636-4.141-3.556 3.634-8.05 5.626-13.48 5.978l2.305 20.981c7.698-3.633 15.55-5.315 23.483-5-9.183 1.094-16.14 3.204-20.787 6.369 6.956.507 14.341 2.344 22.15 5.43-8.362-1.877-15.903-2.695-22.581-2.5 10.12 19.925 17.816 41.06 23.05 63.37l-1.248 1.915 1.913 3.437c-4.179 16.566-3.125 34.851 3.166 54.855 3.398 13.985 4.961 24.77 4.688 32.35l-4.454 16.996 5.353 5.978c4.493-4.884 10.587-8.166 18.322-9.807-4.882-3.01-10.352-3.01-16.449 0 3.791-4.218 9.807-5.195 18.01-2.89-9.02-9.221-12.695-21.724-10.939-37.548.038-.195.038-.428.078-.663 2.11-18.558 1.133-36.451-2.892-53.681l-2.462 6.563v-18.17c2.892-25.356.821-50.13-6.25-74.39l2.031-3.321-3.751-4.219" fill="#364452" stroke="#364452"/><path d="m138.67 236.05c-.901-.038-1.76-.038-2.618 0 9.884 19.651 17.425 40.44 22.581 62.43v.313c-.038.117-.078.195-.118.273l-1.016 1.524 1.72 3.048c.078.155.117.35.078.546-4.141 16.449-3.088 34.576 3.125 54.42 0 .04 0 .04.038.078 3.399 14.07 4.963 24.928 4.69 32.545v.156l-4.377 16.604 1.289 1.446 4.805-16.409c-.117-10.822-1.484-22.07-4.141-33.795-6.213-21.14-7.109-39.34-2.617-54.619l-2.619-3.947 1.76-1.757c-5.079-21.527-12.62-42.469-22.581-62.863" fill="#596f85" stroke="#596f85"/><path d="m113.19 3.587c-.118.118-.155.273-.118.468.041.158.118.313.235.431.118.115.235.195.391.235l2.891.546-5.04.741c-2.97 2.462-5 5-6.06 7.619l-1.876 1.173c-.508 3.984-.743 7.891-.704 11.682l-.273.781c-.078.117-.078.273-.04.43v.04l-1.016 2.187 2.15 3.986-.391 2.032c-.117-.235-.273-.471-.43-.703-.156-.275-.313-.548-.508-.822-1.368-2.148-2.266-4.375-2.657-6.68l.743.898c.117.118.233.235.43.273.155.04.312 0 .468-.078.156-.077.273-.195.391-.313.078-.194.117-.35.078-.507-.899-5.197-.626-10.158.781-14.925.077.078.195.118.313.157.157.04.312 0 .508-.078.156-.078.273-.196.352-.351 2.266-4.414 5.429-7.58 9.533-9.494l-.156.273zm23.636 3.789c-.858-.898-1.874-1.563-3.087-1.914v3.282c-2.46-3.398-5.352-6.095-8.633-8.09l-.821 3.556c-1.366-2.15-3.633-3.478-6.72-3.986 1.563 1.681 2.032 3.242 1.368 4.688l-5.079-.975 1.211-2.188c-5.235 1.797-9.22 5.352-11.955 10.704v-3.01c-2.463 5.939-3.126 12.151-2.033 18.675l-2.344-2.89c.039 3.32 1.054 6.524 3.01 9.611.195.273.352.508.508.781.588.899 1.056 1.836 1.446 2.735l1.564-8.752-1.915-2.072 4.219-10.822 2.891 2.969-.861-4.258 8.205 3.673-1.523-3.516c5.235 1.994 10.08 2.305 14.495.936l5.977 3.868c2.071-3.202 2.071-7.539.078-13.01" fill="#5b3831" stroke="#5b3831"/><path d="m113.08 4.05c-.037-.195 0-.35.118-.468l.156-.273c-4.104 1.914-7.267 5.08-9.533 9.494-.078.155-.195.273-.352.351-.196.078-.352.118-.508.078-.118-.039-.236-.078-.313-.157-1.407 4.767-1.68 9.728-.781 14.925.038.157 0 .313-.078.507-.118.118-.235.236-.391.313-.157.078-.313.118-.468.078-.196-.038-.313-.155-.43-.273l-.743-.898c.391 2.305 1.289 4.532 2.657 6.68.195.275.352.548.508.822.157.232.313.468.43.703l.391-2.032-2.15-3.986 1.016-2.187v-.04c-.039-.157-.039-.313.04-.43l.273-.781c-.038-3.791.196-7.697.704-11.681l1.876-1.173c1.054-2.618 3.085-5.157 6.05-7.619l5.04-.741-2.891-.546c-.156-.04-.273-.119-.391-.235-.117-.118-.194-.273-.235-.431" fill="#8b514c" stroke="#8b514c"/><path d="m136.75 20.387l-5.977-3.868c-4.415 1.369-9.26 1.057-14.495-.936l1.523 3.516-8.205-3.673.861 4.258-2.891-2.968-4.219 10.822 1.915 2.072-1.564 8.752c.626 1.446 1.016 2.93 1.212 4.376h1.131c0-.118 0-.196.04-.273v-.588c.195-4.336.898-8.712 2.147-13.05l-2.226-1.954 2.344-6.29c2.228 1.799 4.494 2.775 6.721 2.893l-2.734-4.532c3.788 2.655 7.93 3.748 12.501 3.282l-3.984-2.735c3.553.897 6.835.897 9.766 0l5.08 2.46-1.525 5.51c1.368 3.906 2.306 7.697 2.893 11.33h1.249c.313-2.15.743-4.297 1.329-6.446.859-3.244 2.031-6.526 3.476-9.846l-2.227.273c1.523-3.907 1.875-7.462.978-10.705l-2.072 2.305c-.508-3.087-1.523-5.43-2.97-6.994 1.992 5.47 1.992 9.807-.078 13.01" fill="#351f1e" stroke="#351f1e"/><path d="m135.71 21.95l-5.08-2.46c-2.931.897-6.213.897-9.766 0l3.984 2.735c-4.571.467-8.713-.626-12.501-3.282l2.734 4.532c-2.227-.118-4.493-1.094-6.721-2.893l-2.344 6.29 2.226 1.954c-1.249 4.337-1.953 8.713-2.147 13.05.353-4.374 2.306-8.322 5.939-11.798l-1.329-2.305.663-2.305 7.892 2.422-1.366-3.515 8.829 3.125-.546-1.759 5.823.665-1.212 1.915 6.291 10.471c-.586-3.633-1.525-7.424-2.893-11.33l1.525-5.51" fill="#cb7054" stroke="#cb7054"/><path d="m110.69 27.775l1.329 2.305c-3.633 3.477-5.587 7.424-5.939 11.798v.588l1.133 2.226.586 5.9c3.36 4.885 8.245 8.713 14.65 11.486 5.431-3.01 9.535-7.149 12.386-12.346l2.228-10.939-6.291-10.471 1.212-1.915-5.823-.665.546 1.759-8.829-3.125 1.366 3.515-7.892-2.422-.663 2.305" fill="#f9b291" stroke="#f9b291"/><path d="m106.09 42.462c-.04.077-.04.155-.04.273-.038.976-.038 1.914 0 2.89.04 1.759.196 3.556.393 5.315 1.366 2.539 3.01 4.688 4.921 6.446.548.508 1.096.938 1.682 1.367 2.46 1.836 5.312 3.087 8.555 3.789.273-.157.586-.313.858-.47-6.405-2.773-11.29-6.603-14.65-11.486l-.586-5.9-1.133-2.226" fill="#fbc8b8" stroke="#fbc8b8"/><path d="m121.59 62.54c-3.243-.703-6.095-1.954-8.555-3.789l.155 1.211c2.462 1.796 5.274 3.047 8.517 3.75.663.118 1.328.235 1.993.353 2.07-.899 3.945-1.954 5.665-3.244 1.992-1.523 3.711-3.282 5.235-5.273l-.118-1.212c-2.813 3.789-6.446 6.642-10.9 8.556-.663-.118-1.328-.233-1.992-.351" fill="#b96351" stroke="#b96351"/><path d="m113.04 58.75c-.586-.43-1.134-.86-1.682-1.367l-1.366 1.601 3.281 19.692 2.499.428-2.577-19.14-.155-1.211" fill="#231f20" stroke="#231f20"/><path d="m121.59 62.54c.665.118 1.329.233 1.992.351 4.454-1.914 8.09-4.767 10.9-8.556.235-.312.47-.625.703-.938.939-1.407 1.797-2.93 2.54-4.532.038-1.602.038-3.282-.077-4.962-.119-1.679-.314-3.36-.586-5.117l-2.228 10.939c-2.851 5.197-6.954 9.338-12.386 12.346-.272.157-.585.313-.858.47" fill="#cb7054" stroke="#cb7054"/><path d="m109.99 58.987l-2.032 2.385c-1.563 7.657-1.173 15.12 1.211 22.386 5.195-.821 11.06 1.679 17.581 7.579 3.242-7.697 7.897-12.266 14.03-13.751l1.173-3.593-2.462-18.05-4.304-2.543 3.791 19.261c-.978.43-1.914.938-2.775 1.446-6.133 3.555-9.26 8.518-9.454 14.885l-2.189-1.953-8.791-7.932-2.499-.428-3.281-19.692" fill="#444041" stroke="#444041"/><path d="m134.6 55.55c-1.524 1.991-3.243 3.75-5.235 5.273l1.523 11.448c-3.477 4.297-5.587 9.221-6.329 14.769l2.189 1.953c.195-6.367 3.321-11.33 9.454-14.885l-1.601-18.558" fill="#cb7054" stroke="#cb7054"/><path d="m135.19 53.4c-.233.313-.468.626-.703.938l.118 1.212 1.601 18.558c.861-.508 1.797-1.016 2.775-1.446l-3.791-19.261" fill="#231f20" stroke="#231f20"/><g fill="#444041" stroke="#444041"><path d="m141.33 57l-.741-.433.076.55 2.462 13.324 8.908 8.947-7.149-17.737-.548-1.366-3.01-3.283"/><path d="m98.04 134.59c.703.783 1.446 1.523 2.187 2.189l4.649 8.79h-2.421l-1.524 10.862 5.51 14.377c-3.401-5.12-5.706-10.237-6.995-15.355.625-3.125 1.134-6.876 1.524-11.29l.273.078c.118.04.275.078.47.04.118-.04.233-.158.35-.275.119-.117.159-.273.196-.391.04-.195 0-.35-.077-.468l-4.26-8.09.118-.47zm-10.314-33.795l3.087 2.345 3.398 16.487 13.948 20.706c-3.515-3.36-6.64-6.759-9.376-10.159-.86-1.131-1.679-2.226-2.46-3.32-1.68-2.344-3.204-4.728-4.532-7.111l-4.063-18.949zm-11.37-6.095l-2.618 3.556 3.01 3.946-3.204 10.314 2.07 3.555c-3.085 8.165-4.571 16.371-4.376 24.536-.625.077-1.248.195-1.874.351-.04-7.97 1.328-16.17 4.141-24.614.038-.118.078-.275.038-.391-.038-.118-.077-.233-.118-.313l-2.382-3.4 3.048-9.415c.038-.118.038-.235.038-.352-.038-.117-.077-.235-.157-.353l-2.577-3.4 2.187-3.71c.078-.118.118-.275.118-.43-.04-.196-.078-.352-.196-.47l-1.799-2.109c8.401-6.759 18.246-13.168 29.537-19.261-.195 1.016-.312 2.031-.43 3.047-9.962 4.259-18.597 9.806-25.941 16.645l1.484 2.266zm-5.783-2.813l2.345 2.736-2.462 4.14 2.891 3.829-3.165 9.767 2.579 3.711c-2.97 8.87-4.337 17.503-4.141 25.865 5.822-1.484 11.798-.976 17.892 1.484v-1.641l3.283-1.211.82-12.502-2.852-4.884-.82-22.23 4.102 19.07c1.366 2.46 2.89 4.882 4.609 7.306.82 1.094 1.642 2.188 2.54 3.321 2.89 3.634 6.251 7.267 10.04 10.822-3.868-1.952-7.422-4.804-10.586-8.517l-.548 2.189 3.282 6.288 1.094 2.072-1.21-.391c-.393 4.884-.939 9.03-1.604 12.386 1.446 5.899 4.259 11.799 8.44 17.699-5.118-4.26-8.165-9.183-9.183-14.691l-2.343 2.189.507 4.02 1.016 8.596-2.617-6.06-3.4 5.392c-.038.47-.117.978-.156 1.486-.508 5.821 1.484 8.83 5.898 8.946h6.447c2.15 3.478 7.111 6.251 14.964 8.36 1.093.47 1.641 1.211 1.641 2.227-.431 1.211-1.056 2.071-1.799 2.618l3.869 4.961 2.775-17.815c-5.353-.546-10.159-3.165-14.457-7.892 4.494 3.438 8.949 5.079 13.441 4.961l1.639-1.757 1.368-28.951c-2.617-18.792-3.633-38.05-3.125-57.822l-13.595-5.547-6.095 6.641c-2.697-6.916-3.244-14.181-1.564-21.8-12.228 6.525-22.815 13.399-31.764 20.627"/></g><g fill="#696667" stroke="#696667"><path d="m73.74 98.25l2.618-3.556-1.484-2.266c7.344-6.839 15.979-12.386 25.941-16.645.118-1.016.235-2.031.43-3.047-11.291 6.095-21.14 12.503-29.538 19.261l1.799 2.109c.118.118.157.273.196.47 0 .155-.04.312-.118.43l-2.189 3.71 2.579 3.399c.08.118.118.236.157.353 0 .117 0 .233-.039.352l-3.048 9.415 2.382 3.4c.04.08.079.195.118.313.04.117 0 .273-.038.391-2.813 8.439-4.181 16.644-4.141 24.614.626-.157 1.249-.275 1.874-.351-.195-8.165 1.29-16.371 4.376-24.536l-2.07-3.555 3.205-10.314-3.01-3.946"/><path d="m90.82 103.14l-3.087-2.345 4.063 18.949c1.328 2.382 2.852 4.767 4.532 7.111.781 1.094 1.601 2.189 2.46 3.32 2.736 3.399 5.861 6.799 9.376 10.159l-13.947-20.706-3.398-16.488"/><path d="m100.23 136.77c-.741-.666-1.484-1.406-2.187-2.189l-.118.47 4.26 8.09c.077.118.117.273.077.468-.037.118-.077.275-.196.391-.117.117-.232.235-.35.275-.195.038-.352 0-.47-.04l-.273-.078c-.39 4.414-.899 8.165-1.524 11.29 1.289 5.119 3.594 10.236 6.995 15.355l-5.51-14.377 1.524-10.862h2.421l-4.649-8.79"/></g><path d="m87.77 123.18l2.852 4.884-.82 12.502-3.283 1.211v1.641c-6.095-2.46-12.07-2.969-17.892-1.484v.663c6.681-.272 14.299 1.72 22.816 6.06l-1.093-3.634 3.593-1.093c-.508-5.392.078-10.94 1.719-16.606-1.719-2.421-3.243-4.845-4.609-7.306l-4.103-19.07.82 22.23" fill="#231f20" stroke="#231f20"/><path d="m124.57 87.04c.743-5.548 2.853-10.472 6.329-14.769l-1.523-11.448c-1.72 1.291-3.594 2.345-5.665 3.244-.666-.118-1.33-.235-1.993-.353-3.243-.703-6.06-1.954-8.517-3.75l2.577 19.14 8.791 7.932" fill="#f9b291" stroke="#f9b291"/><path d="m104.64 67.812c-.155.82-.312 1.641-.43 2.46-1.093 6.798-.938 13.205.43 19.261l3.515-4.492c-1.716-6.213-2.577-12.581-2.577-19.03l-.938 1.799" fill="#444041" stroke="#444041"/><g fill="#231f20" stroke="#231f20"><path d="m98.19 130.64l-.546 2.305c3.163 3.713 6.718 6.564 10.586 8.517-3.788-3.555-7.149-7.188-10.04-10.822"/><path d="m100.38 141.42c-.037.548-.078 1.096-.115 1.68l1.21.391-1.094-2.072"/><path d="m98.67 155.49c-.235 1.054-.468 2.071-.743 3.01 1.017 5.508 4.064 10.431 9.183 14.691-4.181-5.9-6.994-11.799-8.44-17.699"/><path d="m96.09 164.71l-1.601 2.54 2.617 6.06-1.016-8.596"/></g><path d="m116.09 196.9c.741-.038 1.406-.273 1.991-.625.743-.548 1.368-1.407 1.799-2.618 0-1.016-.548-1.757-1.641-2.226-7.853-2.11-12.814-4.884-14.964-8.362h-6.448c-4.414-.117-6.406-3.125-5.898-8.947.04-.508.118-1.016.156-1.486.586-7.502.077-12.736-1.486-15.667-.194-.39-.391-.743-.625-1.015-6.916-1.486-13.13-.704-18.596 2.305.117.428.273.82.39 1.248.743-.115 1.444-.233 2.149-.35 4.689-.743 8.79-.821 12.268-.235 1.992 4.299 2.969 9.415 3.01 15.354-.352 4.805 1.251 8.127 4.807 9.964 2.695.663 5.352.938 8.05.741 3.906 3.243 8.752 5.626 14.574 7.112 2.266.897 2.422 2.5.468 4.804" fill="#cb7054" stroke="#cb7054"/><path d="m112.34 195.96c1.445.665 2.694.976 3.75.938 1.954-2.304 1.797-3.907-.468-4.804-5.823-1.486-10.668-3.869-14.574-7.112-2.695.196-5.352-.078-8.05-.741-3.556-1.837-5.158-5.158-4.807-9.964-.038-5.94-1.015-11.06-3.01-15.354-3.478-.586-7.579-.508-12.268.235 2.735 9.299 7.852 18.206 15.354 26.725-.938 5.702.156 11.09 3.283 16.17 3.79-.898 7.109-2.382 9.963-4.453l.741-5.157.741-.588c2.931-.898 6.02.468 9.34 4.102" fill="#f9b291" stroke="#f9b291"/><path d="m105.73 197.76c-1.524-1.368-2.383-2.774-2.657-4.298-.117-.508-.117-1.054-.08-1.602l-.741.588-.741 5.157c-2.853 2.071-6.173 3.555-9.963 4.453-.586.158-1.172.275-1.759.391.352.546.703 1.093 1.133 1.639 5.783 0 10.705-2.108 14.808-6.328" fill="#cb7054" stroke="#cb7054"/><path d="m90.31 208.55c.703.078 1.406.157 2.07.195 2.227 34.421 7.501 68.49 15.901 102.17-.703.272-1.405.467-2.147.665-7.932-33.17-13.206-67.51-15.824-103.03zm30.474-1.757l-13.558-3.439c-4.336 3.907-10.236 5.353-17.776 4.299.039.195.039.39.039.585 2.657 35.984 8.01 70.72 16.06 104.24.978-.195 1.954-.468 2.893-.78 4.374-1.603 8.05-4.727 11.02-9.379l-.39-9.258c-1.366-19.652-.195-39.695 3.556-60.21l-11.643-12.659 14.221 8.831-4.415-22.23" fill="#364452" stroke="#364452"/><path d="m92.37 208.74c-.665-.038-1.368-.117-2.07-.195 2.617 35.515 7.892 69.856 15.824 103.03.743-.198 1.445-.393 2.147-.665-8.4-33.679-13.674-67.748-15.901-102.17" fill="#596f85" stroke="#596f85"/><path d="m155.91 193.94l-3.165-.821c-3.556 2.813-6.954 4.649-10.197 5.51-.47.117-.938.194-1.406.272-.04.743.35 1.212 1.133 1.407 1.016.275 2.735.117 5.119-.47 1.874-.938 3.321-2.187 4.376-3.71 1.368-1.252 2.774-1.994 4.141-2.189" fill="#cb7054" stroke="#cb7054"/><path d="m128.56 209.87h-2.97v-2.695h-2.577l3.984 22.972 2.187 1.368 1.016.626c.351-.196.743-.393 1.133-.548l-2.774-21.724" fill="#364452" stroke="#364452"/><path d="m92.69 149.27c-.158-.078-.313-.155-.47-.233l-.82 1.407-6.213-1.642 3.79 4.22c-8.01-1.837-15.198-.744-21.604 3.202l-.079.353 1.096 2.89 2.382.038c-.117-.428-.273-.82-.39-1.248 5.468-3.01 11.68-3.791 18.596-2.305.233.272.431.625.625 1.015l1.877-.39 1.366-2.071-1.133-1.173.978-4.064" fill="#231f20" stroke="#231f20"/><path d="m69.83 143.37l2.422 5.548-1.328 2.072 1.484 1.952c-1.328.47-2.618 1.056-3.828 1.72l.312-1.329c.038-.195 0-.391-.078-.586l-.743-1.288 1.524-2.58c.078-.117.118-.275.118-.39 0-.118-.04-.273-.078-.391l-2.385-4.611c.47-.038.939-.078 1.407-.118.391-.038.781-.038 1.173 0zm22.386 5.666c-.273-.118-.508-.273-.781-.39-8.518-4.337-16.14-6.329-22.816-6.06-.899.04-1.759.118-2.579.235l2.89 5.626-1.797 3.01.978 1.679-.742 3.085c6.406-3.946 13.595-5.04 21.604-3.202l-3.79-4.22 6.213 1.642.82-1.407" fill="#444041" stroke="#444041"/><path d="m72.25 148.92l-2.422-5.548c-.391-.038-.781-.038-1.173 0-.468.04-.938.08-1.407.118l2.385 4.611c.039.118.078.273.078.391 0 .115-.04.273-.118.39l-1.524 2.58.743 1.288c.078.195.117.391.078.586l-.312 1.329c1.21-.665 2.5-1.251 3.828-1.72l-1.484-1.952 1.328-2.072" fill="#696667" stroke="#696667"/><path d="m72.918 159.16c-.704.117-1.406.235-2.149.35 2.931 9.183 7.892 18.09 14.925 26.725-.625 5.04.431 9.923 3.126 14.611.273.548.625 1.094.976 1.602.586-.117 1.173-.233 1.759-.391-3.126-5.079-4.221-10.47-3.283-16.17-7.502-8.519-12.619-17.426-15.354-26.725" fill="#fbc8b8" stroke="#fbc8b8"/><path d="m107.25 313.49c.86.038 1.719-.04 2.579-.236-4.02 15.04-3.01 33.601 3.126 55.754 2.147 8.752 2.734 17.23 1.718 25.395-.665.195-1.289.508-1.913.86 1.093-5.509.585-13.479-1.564-23.989v-.038c-6.135-23.637-7.462-42.897-3.946-57.744zm12.619-4.65l1.602-2.5-1.915-1.524c-4.296 5.665-8.595 8.283-12.933 7.852-3.711 15-2.462 34.577 3.791 58.761 2.382 11.604 2.773 20.12 1.093 25.551 1.016-.741 2.112-1.328 3.243-1.757 4.649-1.759 10.04-.586 16.214 3.438-5.079-12.424-7.149-23.989-6.172-34.734 2.381-18.87.741-37.23-4.924-55.09" fill="#364452" stroke="#364452"/><path d="m109.84 313.25c-.859.196-1.719.275-2.579.236-3.516 14.846-2.189 34.11 3.946 57.744v.038c2.149 10.51 2.657 18.48 1.564 23.989.623-.351 1.248-.665 1.913-.86 1.016-8.165.43-16.644-1.718-25.395-6.135-22.15-7.15-40.711-3.126-55.754" fill="#596f85" stroke="#596f85"/><path d="m89.33 431.16c-.353 1.641-.273 3.361.232 5.157 9.807 3.868 18.597 4.259 26.414 1.249l.312-.312c2.812-.976 5.392-3.479 7.774-7.541l9.965-13.205.115-2.149-13.519 15.55c-6.68 5.976-17.11 6.368-31.29 1.249" fill="#927b71" stroke="#927b71"/><path d="m90.23 428.62c-.43.821-.704 1.68-.898 2.54 14.181 5.118 24.614 4.726 31.29-1.249l13.519-15.55.117-2.109c-6.758-6.135-13.244-8.245-19.534-6.252 5.548.743 10.665 2.58 15.316 5.587l-14.222 17.04c-6.954 3.242-15.47 3.242-25.59 0" fill="#322926" stroke="#322926"/><path d="m129.77 405.69l1.484-5.157c-8.09-3.752-15.861-3.752-23.362 0l.313 6.135c5.431-2.933 10.626-4.064 15.589-3.439l5.977 2.462" fill="#364452" stroke="#364452"/><path d="m114.72 406c-2.15.666-4.297 1.838-6.408 3.478 6.915-1.368 12.814-.468 17.736 2.618l-2.734 3.437c-5.353-2.147-10.977-3.047-16.916-2.735l-.04.08-.821 1.445c5.666.39 10.94 1.602 15.862 3.633l-2.227 2.775c-4.57-1.876-9.573-3.162-15.08-3.908l-1.328 2.267c4.727.273 9.574 1.602 14.535 3.985l-2.344 2.892c-5.158-3.01-10.394-4.727-15.745-5.195-4.494 2.304-7.502 4.922-8.986 7.852 10.12 3.242 18.636 3.242 25.59 0l14.222-17.03c-4.65-3.01-9.767-4.844-15.316-5.587" fill="#564940" stroke="#564940"/><g fill="#927b71" stroke="#927b71"><path d="m114.95 425.97l2.344-2.892c-4.961-2.382-9.807-3.711-14.535-3.985-1.289.546-2.462 1.096-3.555 1.68 5.352.468 10.587 2.187 15.745 5.195"/><path d="m119.18 420.74l2.227-2.775c-4.922-2.031-10.196-3.243-15.862-3.633l-1.446 2.5c5.508.745 10.511 2.032 15.08 3.908"/><path d="m106.41 412.8c5.939-.312 11.564.588 16.916 2.735l2.734-3.437c-4.922-3.087-10.822-3.986-17.736-2.617l-1.914 3.319"/></g><path d="m191.81 410.54l-.313-.431c-6.954-4.02-13.909-2.618-20.864 4.259-.154.117-.273.273-.39.39l10.159-3.673.899.861c2.969-1.72 6.485-2.187 10.509-1.406" fill="#322926" stroke="#322926"/><path d="m181.29 411.94c-.119.04-.273.117-.391.195-1.446.898-2.735 2.07-3.946 3.556l2.383 2.774.077-.117c1.446-1.525 3.087-2.697 4.885-3.596l-3.01-2.812" fill="#927b71" stroke="#927b71"/><path d="m180.91 412.14c.118-.078.272-.155.391-.195l-.899-.861-10.159 3.673 11.878 14.691c.195.196.351.35.548.47.115.078.194.156.273.235 5.86 2.616 10.978 3.437 15.354 2.54 1.68-.353 3.281-.978 4.766-1.878l-5.43-3.397-1.875-1.759-7.58 3.321-2.617-3.089c1.994-1.522 4.181-2.732 6.564-3.67l-2.267-2.15c-2.149.938-4.179 2.15-6.095 3.674l-2.227-2.659c.976-1.052 2.072-1.991 3.243-2.733.665-.428 1.329-.821 2.071-1.174l-2.539-2.422c-1.798.899-3.439 2.07-4.885 3.596-.038.037-.038.077-.077.117l-2.383-2.774c1.211-1.486 2.5-2.658 3.946-3.556" fill="#564940" stroke="#564940"/><path d="m181.29 411.94l3.01 2.812c2.695-1.366 5.742-1.991 9.181-1.954l-1.68-2.264c-4.02-.781-7.541-.314-10.509 1.406" fill="#795f58" stroke="#795f58"/><path d="m186.84 417.17c-.741.353-1.406.745-2.071 1.174-1.171.741-2.267 1.68-3.243 2.733l2.227 2.659c1.915-1.524 3.946-2.736 6.095-3.674l-3.01-2.892" fill="#927b71" stroke="#927b71"/><path d="m184.31 414.75l2.539 2.422c2.46-1.211 5.275-1.874 8.36-1.954l-1.718-2.422c-3.439-.037-6.486.588-9.181 1.954" fill="#322926" stroke="#322926"/><path d="m179.42 418.35l-.077.117c.039-.04.039-.08.077-.117" fill="#f9b291" stroke="#f9b291"/><path d="m175.79 428.51c.313.507.665.976 1.016 1.406 5.431 7.421 12.58 10.666 21.489 9.688 3.673-.43 7.619-1.524 11.876-3.36.431-1.564.625-3.048.586-4.413-4.337 2.421-8.517 3.71-12.463 3.906-5.508.273-10.628-1.564-15.354-5.587-.08-.078-.158-.156-.273-.235-.196-.119-.353-.273-.548-.47l-11.878-14.691c-.273.235-.508.508-.743.781l-.508.548 6.799 12.425" fill="#927b71" stroke="#927b71"/><path d="m168.92 416.05l.039.038.038-.038c.157-.196.314-.352.508-.509l-.585.509" fill="#f9b291" stroke="#f9b291"/><path d="m168.99 416.05v.038l.508-.548c-.194.158-.351.313-.508.509" fill="#c6beb1" stroke="#c6beb1"/><path d="m198.96 420.34c-.235.04-.47.08-.665.119-2.187.39-4.259.975-6.173 1.757l3.633 3.438 7.697-3.401c-1.329-.741-2.813-1.365-4.493-1.914" fill="#795f58" stroke="#795f58"/><path d="m198.29 420.46c.195-.04.43-.08.665-.119l-1.759-2.419c-.743.115-1.524.231-2.266.428-1.759.39-3.439.976-5.08 1.718l2.267 2.15c1.914-.783 3.986-1.368 6.173-1.757" fill="#322926" stroke="#322926"/><path d="m189.85 420.07c1.641-.741 3.321-1.328 5.08-1.718.741-.198 1.523-.313 2.266-.428l-1.994-2.699c-3.085.08-5.9.743-8.36 1.954l3.01 2.892" fill="#795f58" stroke="#795f58"/><path d="m203.46 422.26l-7.697 3.401 1.875 1.759 5.43 3.397c-1.484.901-3.085 1.525-4.766 1.878-4.376.897-9.494.076-15.354-2.54 4.726 4.02 9.846 5.86 15.354 5.587 3.946-.196 8.125-1.486 12.463-3.906-.155-3.244-1.797-5.942-4.922-8.166-.744-.508-1.524-.978-2.383-1.409" fill="#322926" stroke="#322926"/><path d="m188.17 428.97l7.58-3.321-3.633-3.438c-2.383.938-4.571 2.149-6.564 3.67l2.617 3.089" fill="#927b71" stroke="#927b71"/><path d="m137.54 41.675l.041.078v-.233c-.041.038-.041.117-.041.155" fill="#b96351" stroke="#b96351"/><g fill="#7b7979" stroke="#7b7979"><path d="m132.03 100.4c0-.509-.158-.901-.509-1.251-.351-.353-.741-.508-1.249-.508-.508 0-.898.155-1.249.508-.353.35-.508.741-.508 1.251 0 .508.155.898.508 1.249.351.352.741.508 1.249.508.508 0 .898-.156 1.249-.508.351-.352.509-.741.509-1.249"/><path d="m130.93 121.5c-.353.35-.508.741-.508 1.249 0 .509.155.899.508 1.251.351.35.741.508 1.249.508.508 0 .899-.158 1.252-.508.35-.352.507-.741.507-1.251 0-.508-.156-.899-.507-1.249-.353-.351-.744-.508-1.252-.508-.508 0-.898.157-1.249.508"/><path d="m134.53 145.6c.35-.353.508-.742.508-1.25 0-.508-.158-.899-.508-1.252-.353-.35-.743-.508-1.251-.508-.508 0-.898.158-1.249.508-.351.353-.509.744-.509 1.252 0 .508.158.897.509 1.25.351.351.741.508 1.249.508.508 0 .898-.156 1.251-.508"/><path d="m130.93 168.39c.351.35.741.508 1.249.508.508 0 .899-.158 1.252-.508.35-.351.507-.744.507-1.251 0-.508-.156-.898-.507-1.249-.353-.353-.744-.509-1.252-.509-.508 0-.898.156-1.249.509-.353.351-.508.741-.508 1.249 0 .507.155.899.508 1.251"/><path d="m130.71 182.87c-.353-.351-.743-.508-1.251-.508-.508 0-.899.156-1.252.508-.35.351-.508.741-.508 1.249 0 .508.158.899.508 1.251.353.351.744.509 1.252.509.508 0 .898-.158 1.251-.509.35-.351.507-.743.507-1.251 0-.508-.157-.898-.507-1.249"/></g></g></svg>