<svg xmlns="http://www.w3.org/2000/svg" viewBox="0 0 241.99999 440"><g transform="matrix(1.25,0,0,-1.25,-232.5325,894.49953)"><path d="m274.58 693.38l1.063-1.844c-2.906-2.781-3.822-5.389-4.104-8.888.087-1.53.149-1.988.259-2.801l.469-4.72c2.688-3.908 6.05-6.679 11.17-8.898 4.345 2.407 8.179 5.428 10.459 9.585l.682 8.589-3.932 8.538.97 1.532-4.658.532.437-1.407-7.06 2.5 1.093-2.812-6.314 1.938-.531-1.844" fill="#f9b291"/><path d="m277.71 689.41c-1.97.719-3.282.969-4 .781-.655-.219-1.218-.5-1.687-.874-.468-.345-.375-.719.22-1.063 2.437.531 4.813.375 7.157-.5.845.405.281.969-1.687 1.656" fill="#444041"/><path d="m278.12 673.79c.469-.845 1.063-1.344 1.783-1.499 2.813-.533 5.593-.376 8.376.499l1.719 1.657-1.657-.751c-2.594-1.031-5.47-1.281-8.626-.75l-1.595.845" fill="#b96351"/><path d="m280.93 671.16l-1.251.626 1.187-.938c2.657-.469 4.813-.25 6.471.625l.562.281c-2.594-.906-4.907-1.126-6.969-.594" fill="#cb7054"/><path d="m292.99 689.48c.469.407.469.689-.063.845-.593.219-1.187.469-1.75.718-.626.25-1.875-.093-3.719-1.031-1.844-.937-2.407-1.563-1.626-1.874 2.219 1.094 4.625 1.562 7.157 1.342" fill="#444041"/></g></svg>