<svg xmlns="http://www.w3.org/2000/svg" viewBox="0 0 241.99999 440"><path d="m115.58 37.925l.04.273h.038l-.156-2.15c-3.361-.741-5.627-.312-6.838 1.368.118-.115.272-.194.43-.233.586-.351 1.171-.586 1.757-.703h.391c.078.508.39.936.938 1.211.312.038.665 0 1.016-.157.39-.195.625-.508.703-1.015l.625.038c.196.077.352.117.508.155.275.43.43.821.548 1.212" fill="#231f20"/><path d="m115.62 38.2l-.04-.273c-2.502 1.054-4.649.821-6.486-.743-.158.04-.312.118-.43.233 2.149 1.603 4.455 1.837 6.956.783" fill="#b96351"/><path d="m114.53 36.562l-.625-.038c-.078.507-.313.82-.703 1.015-.351.157-.704.195-1.016.157-.548-.275-.859-.703-.938-1.211h-.391c.548 1.367 1.212 1.992 2.032 1.914.781-.117 1.329-.703 1.641-1.836" fill="#562a12"/><g fill="#fff"><path d="m115.03 36.712c-.157-.038-.312-.078-.508-.155-.312 1.133-.859 1.719-1.641 1.836-.82.078-1.484-.546-2.032-1.914-.586.117-1.171.352-1.757.703 1.837 1.564 3.986 1.797 6.486.743-.118-.391-.273-.783-.548-1.212"/><path d="m130.85 35.27c-.351 1.486-.976 2.228-1.875 2.228-.743.038-1.329-.47-1.759-1.524-.195.038-.39.077-.546.157-.195.43-.313.859-.313 1.328 2.54.704 4.65.156 6.329-1.601-.623-.275-1.249-.47-1.836-.588"/></g><path d="m128.98 37.5c.899 0 1.524-.743 1.875-2.228l-.351.08c-.078.586-.353 1.015-.821 1.328-.312.157-.663.157-1.056-.04-.39-.077-.665-.39-.858-.898l-.548.235c.43 1.054 1.016 1.563 1.759 1.524" fill="#562a12"/><path d="m128.63 36.637c.393.196.744.196 1.056.04.47-.313.743-.741.821-1.328l.351-.08c.586.118 1.212.313 1.836.588.118.038.273.117.391.194-1.329-1.523-3.633-1.719-6.916-.586l.118 2.267.038-.039.039-.235c0-.468.118-.898.313-1.328.157-.08.352-.118.548-.157l.546-.235c.194.508.468.821.858.898" fill="#231f20"/><path d="m126.37 37.462l-.038.235c2.618.741 4.844.195 6.759-1.642-.118-.077-.273-.155-.391-.194-1.679 1.758-3.79 2.305-6.329 1.601" fill="#b96351"/><g fill="#fff"><path d="m128.79 36.05c-.118-.115-.158-.273-.196-.468v-.233h.235c.351-.04.665-.08 1.016-.08v.04c.04.04.04.118.04.195.038.196-.04.353-.156.469-.118.157-.273.235-.47.235-.155.038-.312-.04-.468-.158"/><path d="m112.14 37.07c.118.117.275.157.47.157.158-.04.312-.119.47-.235.117-.117.195-.275.155-.468 0-.08 0-.158-.038-.196-.077-.038-.155-.038-.233-.038-.353 0-.666.038-1.017.117-.039.038-.039.118-.039.195.039.196.118.351.233.469"/></g></svg>