<svg xmlns="http://www.w3.org/2000/svg" viewBox="0 0 241.99999 440"><g transform="matrix(1.25,0,0,-1.25,-232.5325,894.49953)"><path d="m276.58 712.73c-.094-.094-.124-.219-.094-.375.033-.126.094-.25.188-.345.094-.092.188-.156.313-.188l2.313-.437-4.03-.593c-2.376-1.969-4-4-4.844-6.095l-1.5-.938c-.406-3.188-.594-6.313-.563-9.345l-.219-.625c-.063-.093-.063-.219-.032-.344v-.032l-.813-1.75 1.72-3.189-.313-1.626c-.093.188-.219.377-.344.562-.125.22-.25.438-.406.658-1.094 1.718-1.812 3.5-2.125 5.344l.594-.718c.093-.094.187-.188.344-.219.124-.032.249 0 .375.063.125.062.219.156.313.25.063.155.093.28.063.405-.719 4.157-.501 8.126.625 11.94.062-.063.156-.094.25-.125.125-.032.249 0 .406.063.125.063.219.157.281.281 1.812 3.531 4.343 6.06 7.626 7.595l-.125-.219m18.909-3.03c-.687.718-1.499 1.25-2.469 1.531v-2.625c-1.968 2.719-4.282 4.876-6.907 6.47l-.657-2.845c-1.093 1.72-2.906 2.782-5.376 3.189 1.25-1.344 1.626-2.593 1.094-3.75l-4.063.78.969 1.751c-4.188-1.438-7.376-4.282-9.564-8.563v2.407c-1.97-4.752-2.501-9.721-1.627-14.94l-1.875 2.312c.031-2.656.844-5.22 2.407-7.689.156-.219.281-.406.406-.625.47-.719.845-1.469 1.157-2.188l1.251 7-1.532 1.657 3.375 8.658 2.313-2.375-.689 3.406 6.564-2.938-1.218 2.813c4.188-1.595 8.06-1.844 11.596-.749l4.781-3.094c1.656 2.562 1.656 6.03.063 10.407" fill="#5b3831"/><path d="m276.49 712.36c-.03.156 0 .28.094.375l.125.219c-3.283-1.531-5.814-4.064-7.626-7.595-.063-.124-.156-.219-.281-.281-.157-.063-.281-.094-.406-.063-.094.031-.189.063-.25.125-1.126-3.814-1.344-7.782-.625-11.94.031-.125 0-.25-.063-.405-.094-.094-.188-.189-.313-.25-.125-.063-.25-.094-.375-.063-.157.031-.25.124-.344.219l-.594.718c.313-1.844 1.031-3.626 2.125-5.344.156-.22.281-.438.406-.658.125-.186.25-.375.344-.562l.313 1.626-1.72 3.189.813 1.75v.032c-.031.125-.031.25.032.344l.219.625c-.031 3.03.157 6.158.563 9.345l1.5.938c.844 2.095 2.468 4.126 4.843 6.095l4.03.593-2.313.437c-.125.032-.219.095-.313.188-.093.094-.155.219-.188.345" fill="#8b514c"/><path d="m295.43 699.29l-4.781 3.094c-3.532-1.095-7.408-.846-11.596.749l1.218-2.813-6.564 2.938.689-3.406-2.313 2.375-3.375-8.658 1.532-1.657-1.251-7c.501-1.157.813-2.344.97-3.501h.905c0 .094 0 .157.032.219v.47c.156 3.469.718 6.969 1.718 10.439l-1.781 1.563 1.875 5.03c1.783-1.439 3.595-2.22 5.377-2.314l-2.187 3.626c3.03-2.124 6.344-2.999 10-2.625l-3.188 2.188c2.843-.717 5.468-.717 7.813 0l4.064-1.968-1.22-4.408c1.094-3.125 1.845-6.158 2.314-9.06h1c.25 1.72.594 3.438 1.063 5.157.688 2.595 1.625 5.221 2.781 7.877l-1.782-.219c1.218 3.126 1.5 5.97.782 8.564l-1.657-1.844c-.406 2.469-1.218 4.344-2.376 5.595 1.594-4.376 1.594-7.846-.063-10.407" fill="#351f1e"/><path d="m294.59 698.04l-4.064 1.968c-2.345-.717-4.97-.717-7.813 0l3.188-2.188c-3.657-.374-6.97.501-10 2.625l2.187-3.626c-1.782.094-3.594.875-5.377 2.314l-1.875-5.03 1.781-1.563c-1-3.47-1.562-6.97-1.718-10.439.282 3.5 1.845 6.657 4.752 9.439l-.542 1.874.009 1.814 6.314-1.938.087 2.02 5.882-1.706.117 1.14 3.241-.532-.107-1.266 5.03-8.376c-.469 2.906-1.22 5.939-2.314 9.06l1.22 4.408" fill="#cb7054"/><path d="m275.11 693.41l.536-1.877c-2.906-2.781-4.469-5.939-4.752-9.439v-.47l.906-1.781.469-4.72c2.688-3.908 6.596-6.97 11.72-9.189 4.345 2.407 7.628 5.719 9.909 9.877l1.783 8.751-5.03 8.376.113 1.269-3.241.532-.123-1.143-5.876 1.709-.094-2.02-6.314 1.938-.003-1.811" fill="#f9b291"/><path d="m270.9 681.63c-.032-.062-.032-.124-.032-.219-.031-.781-.031-1.531 0-2.312.032-1.407.157-2.845.314-4.252 1.093-2.031 2.406-3.75 3.937-5.157.438-.406.876-.75 1.345-1.094 1.968-1.469 4.25-2.469 6.844-3.03.219.125.469.25.687.376-5.124 2.219-9.03 5.282-11.72 9.189l-.469 4.72-.906 1.781" fill="#fbc8b8"/><path d="m283.3 665.57c.532-.094 1.063-.187 1.594-.281 3.563 1.531 6.47 3.814 8.72 6.845.188.249.376.5.562.75.751 1.126 1.438 2.344 2.032 3.626.031 1.282.031 2.625-.062 3.97-.095 1.343-.251 2.688-.469 4.094l-1.783-8.751c-2.28-4.157-5.563-7.47-9.909-9.877-.218-.125-.468-.25-.687-.376" fill="#cb7054"/><path d="m296.06 682.26l.033-.063v.187c-.033-.031-.033-.093-.033-.124" fill="#b96351"/></g></svg>