<svg xmlns="http://www.w3.org/2000/svg" viewBox="0 0 241.99999 440"><g transform="matrix(1.25,0,0,-1.25,-232.5325,894.49953)"><path d="m268.99 684.91c-.312.719-.688 1.469-1.157 2.188-1.031-.812-1.187-2.344-.5-4.563.438-1.782 1.063-2.877 1.876-3.345l.75 2.219c-.157 1.157-.469 2.344-.97 3.501" fill="#f9b291"/><g fill="#cb7054"><path d="m270.86 681.41h-.905l-.75-2.219c.468-.281 1.031-.313 1.655-.093-.031.781-.031 1.531 0 2.312"/><path d="m298.53 684.1c.406 2.469.406 4.095.063 4.938-.156-3.594-.969-6.47-2.437-8.563 1.218.25 2.031 1.469 2.375 3.625"/></g><path d="m296.68 684.57h-1c.218-1.406.374-2.75.469-4.094 1.469 2.094 2.281 4.969 2.437 8.563-.189.469-.469.688-.844.688-.469-1.719-.813-3.437-1.063-5.157" fill="#f9b291"/><g fill="#b96351"><path d="m270.33 680.85c-.937 1.22-1.907 1.907-2.906 2 1.125-.562 2.032-1.499 2.75-2.813l.156.812"/><path d="m296.84 684.51c.249.72.594 1.313 1.063 1.844-.657-.344-1.187-.968-1.563-1.938-.094-.219-.157-.5-.249-.781v-.189l.436-.562c.032.594.157 1.126.313 1.626"/><path d="m296.06 682.26l.033-.063v.187c-.033-.031-.033-.093-.033-.124"/></g></g></svg>