<svg xmlns="http://www.w3.org/2000/svg" viewBox="0 0 241.99999 440"><g stroke-width=".08"><path d="m101.85 45.28l4.404 3.758 3.858 12.249-10.298 6.202-1.154 3.301-10.457 4.413c-.438.914-.915 1.787-1.432 2.703l9.146-2.384 4.175-1.075c.635-1.311 1.313-2.584 2.028-3.897l10.18-5.207v-8.274c-2.465-2.901-4.095-6.439-4.891-10.536-.347-1.848-.517-3.897-.517-3.897-.891-1.41-1.323-2.091-1.323-2.091l-2.366 2.268z" fill="#d6a767" stroke="#d6a767"/><path d="m111.19 8.516c-2.545 1.513-4.453 4.02-5.767 7.516l-2.902 12.365c-.835 2.387-1.392 4.731-1.75 7.079v.039c-.041.436-.12.836-.16 1.272-.993 4.572-3.02 9.266-6.123 14.08-.954.994-2.028 1.907-3.181 2.665 5.606-8.471 9.583-20.04 11.849-34.636v.042c1.393-7.994 4.573-12.166 9.584-12.604-.597.715-1.113 1.431-1.55 2.186zm-1.631 7.834c.118-3.777 1.749-7.395 4.89-10.817-6.402-.554-10.458 3.861-12.09 13.242-2.545 16.262-7.157 28.71-13.877 37.26l2.187-1.192c6.282-3.538 9.9-9.979 10.895-19.246.914-6.243 3.578-12.646 7.992-19.245" fill="#ebd195" stroke="#ebd195"/><path d="m115.88 5.741c-.518-.084-.994-.159-1.433-.202-3.141 3.422-4.772 7.04-4.89 10.817-4.414 6.599-7.078 13-7.992 19.245-.995 9.267-4.613 15.707-10.895 19.246l3.737-1.99c3.301-2.343 5.846-4.81 7.556-7.472l1.352-2.467c0 0 .632-.605 2.346-2.227-.676-11.491 1.432-19.402 6.362-23.739.517-4.73 1.83-8.468 3.858-11.21" fill="#d6a767" stroke="#d6a767"/><path d="m105.42 16.04c1.313-3.5 3.222-6 5.767-7.516.438-.755.953-1.47 1.55-2.186-5.01.439-8.19 4.61-9.584 12.604v-.042c-2.266 14.595-6.243 26.16-11.849 34.636 1.153-.757 2.227-1.671 3.181-2.665 3.102-4.811 5.13-9.505 6.123-14.08.04-.436.119-.836.16-1.272v-.039c.357-2.347.915-4.692 1.75-7.079l2.902-12.365" fill="#f8ead7" stroke="#f8ead7"/><g fill="#d6a767" stroke="#d6a767"><path d="m144.39 35.916c-2.307-5.45-3.58-12.05-3.778-19.844-.916-8.391-4.02-12.884-9.345-13.44 3.698 4.294 6.243 10.497 7.555 18.649.835 4.771 2.306 9.224 4.413 13.36z"/><path d="m126.54.291c-.835.039-1.67.159-2.465.319l9.344 23.22c2.505 4.613 6 9.227 10.577 13.797 2.823 3.539 7.435 6.76 13.799 9.702 1.63.319 3.34.52 5.089.637-7.118-2.584-13.28-6.602-18.49-12.05l-1.154-1.274c-3.141-3.542-5.924-7.634-8.31-12.328-2.026-7.593-4.373-14.11-7.077-19.564-.438-.836-.875-1.669-1.312-2.465"/></g><path d="m131.28 2.641c-1.074-.12-2.187-.078-3.42.119 2.704 5.448 5.05 11.97 7.077 19.564 2.387 4.694 5.169 8.785 8.31 12.328-2.107-4.136-3.578-8.59-4.413-13.36-1.312-8.152-3.856-14.355-7.555-18.649" fill="#ebd195" stroke="#ebd195"/><path d="m115.28 11.504c.079-.119.158-.2.278-.239 1.47-4.177 4.335-6.999 8.548-8.471l-.517-1.27c-2.982.756-5.328 2.306-7.077 4.691-1.392 1.87-2.425 4.255-3.063 7.159.556-.678 1.155-1.312 1.831-1.87" fill="#f8ead7" stroke="#f8ead7"/><path d="m129.72 20.854c-.12-.279-.199-.598-.278-.877-5.527-4.096-11.333-5.13-17.416-3.02-4.93 4.336-7.04 12.248-6.362 23.739.715-7.155 3.42-13.759 8.112-19.761 4.294-.278 8.47.757 12.565 3.103l6.838 7.87 3.818 7.997-.994-7.757c-2.307-3.261-4.414-7.04-6.283-11.291" fill="#cb7054" stroke="#cb7054"/><path d="m105.66 40.691c.715-7.155 3.42-13.759 8.112-19.761 4.294-.278 8.47.757 12.565 3.103l6.838 7.873 3.818 7.994-.14 1.98c-.576.358-1.232.651-1.967.88-1.949 10.141-6.561 17.06-13.879 20.679-3.579-1.631-6.481-3.776-8.708-6.364-2.465-2.901-4.095-6.439-4.891-10.536-.279-1.233-.437-2.545-.517-3.897l-1.232-1.949" fill="#f9b291" stroke="#f9b291"/><path d="m95.2 53.29c.596-.439 1.192-.915 1.788-1.392 0 6.88-1.552 13.758-4.651 20.718l-2.506 1.033c3.181-6.877 4.971-13.639 5.369-20.359zm11.05-4.254l-4.293-3.657c-1.71 2.662-4.255 5.128-7.556 7.472-.359 7.358-2.425 14.795-6.202 22.349l10.457-4.413 1.154-3.301 10.298-6.202-3.858-12.249" fill="#ebd195" stroke="#ebd195"/><path d="m96.99 51.904c-.596.477-1.192.953-1.788 1.392-.398 6.72-2.188 13.481-5.369 20.359l2.506-1.033c3.1-6.96 4.651-13.836 4.651-20.718" fill="#f8ead7" stroke="#f8ead7"/><path d="m136.85 41.879c-.576.358-1.232.651-1.967.88-1.949 10.141-6.561 17.06-13.879 20.679.518.236 1.034.475 1.552.676 3.46-1.71 6.282-3.818 8.43-6.281 3.3-3.778 5.05-8.432 5.327-13.957" fill="#cb7054" stroke="#cb7054"/><path d="m139.86 36.916c-1.91-2.12-3.857-4.772-3.857-4.772l.994 7.757-.14 1.98c0 0-.227.905-.537 1.996-.278 5.525-2.027 10.178-5.327 13.958l.119 1.35.039.556 9.941 2.784c.994.676 1.988 1.39 2.903 2.227l6.242-.837 7.476-1.033c2.028-6.243-.08-12.09-6.243-17.538-4.255-1.868-8.151-4.691-11.611-8.428" fill="#d6a767" stroke="#d6a767"/><path d="m123.12 9.04c-4.852.475-8.549 3.099-11.09 7.911 6.083-2.107 11.89-1.073 17.416 3.02-1.711-4.81-3.818-8.468-6.322-10.933" fill="#c38d56" stroke="#c38d56"/><path d="m100.09 74.45l-4.175 1.073c-6.203 12.04-8.748 26-7.675 41.788l2.784 28.713c-2.028 2.823-4.533 3.816-7.516 2.902-.039.278-.119.598-.159.876-3.658-2.188-7.04-4.495-10.179-6.998-6.01-4.814-10.974-10.261-14.911-16.344l-8.03 1.868 6.243 1.153c3.858 7.434 9.423 14.553 16.701 21.311.397.359.794.717 1.192 1.075l-3.578 14.714c.676.437 1.392.876 2.146 1.315.08-.202.159-.401.239-.599.994-2.507 2.147-4.813 3.459-6.999 1.79-2.941 3.936-5.605 6.441-8.03h.041c.556-.56 1.153-1.116 1.749-1.633l-.04 1.948c2.108.039 4.055-1.234 5.845-3.778l3.897-3.619c-1.791-7.195-2.744-14.43-2.943-21.709-1.63-10.536-1.472-19.603.517-27.12 1.629-7.198 4.294-14.515 7.952-21.911" fill="#4a80aa" stroke="#4a80aa"/><path d="m87.21 82.991l.954 4.335-4.852 17.299c-.357 5.209.756 11.133 3.301 17.853l.079 25.847c-.716.159-1.47.159-2.266 0 1.312-8.07 1.63-16.581.875-25.529 0-.119-.039-.198-.078-.319-2.785-5.527-4.137-10.775-4.057-15.748.04-2.068.319-4.096.874-6.05h-.039l.039-.038h-.039l5.21-17.657zm-3.38-2.304v-1.193l10.616-2.746c-.357.678-.676 1.393-.993 2.069l-8.191 1.87-2.346 3.699c-8.351 6.639-16.03 13.359-23.02 20.24-2.744 2.743-5.409 5.487-7.993 8.229-2.386 2.584-4.653 5.169-6.839 7.754-1.352 1.589-2.664 3.179-3.937 4.811 1.392 3.54 3.102 6.999 5.09 10.377 1.709 2.824 3.579 5.647 5.686 8.391 5.089 6.6 11.412 12.885 18.926 18.809l-.556 2.307c-7.078-4.611-13.201-10.1-18.37-16.425-2.029-2.504-3.937-5.128-5.686-7.911-2.585-4.097-4.812-8.47-6.76-13.12-.358-.838-.715-1.712-1.033-2.588.278-.359.597-.714.913-1.073.995-1.192 1.989-2.387 3.063-3.579 3.02-3.5 6.203-6.958 9.503-10.378 1.788-1.87 3.657-3.738 5.528-5.605 7.992-7.915 16.7-15.669 26.12-23.301.08-.082.159-.159.199-.281.04-.117.08-.238.08-.356zm-.796-1.826v1.826c-9.663 7.832-18.607 15.826-26.76 23.939-1.471 1.471-2.943 2.983-4.374 4.453-3.699 3.816-7.196 7.672-10.577 11.53-.914.996-1.789 2.026-2.623 3.062-.161.2-.319.398-.478.598-.239.278-.477.556-.716.834.238.595.477 1.231.716 1.87.159.355.317.755.478 1.154 2.106 5.127 4.611 9.902 7.515 14.313 1.749 2.704 3.657 5.288 5.686 7.716 5.328 6.361 11.611 11.848 18.887 16.423l3.578-14.714c-.398-.358-.795-.715-1.192-1.075-7.277-6.759-12.843-13.877-16.701-21.311l-6.242-1.153 8.03-1.868 2.069-.48-11.453-3.417 9.782 1.47-2.385-6.4 1.114-2.785c.04 2.028.437 3.977 1.192 5.925l18.13-20.24 9.742-17.772-5.209 17.692c-.556 2.026-.835 4.138-.875 6.243-.08 5.089 1.312 10.459 4.135 16.14.756 9.145.438 17.854-.994 26.08 2.983.914 5.487-.08 7.516-2.902l-2.784-28.711c-1.073-15.784 1.471-29.74 7.675-41.79l-9.146 2.385-3.738.958" fill="#74a5d5" stroke="#74a5d5"/><g fill="#add4e4" stroke="#add4e4"><path d="m83.83 79.5v1.193c0 .119-.039.239-.08.356-.04.121-.12.198-.199.281-9.422 7.633-18.13 15.386-26.12 23.301-1.871 1.867-3.739 3.735-5.528 5.605-3.3 3.421-6.481 6.878-9.503 10.378-1.074 1.192-2.068 2.387-3.063 3.579-.317.359-.635.714-.913 1.073.319.876.676 1.749 1.033 2.588 1.948 4.65 4.175 9.02 6.76 13.12 1.749 2.782 3.657 5.406 5.686 7.911 5.169 6.323 11.292 11.813 18.37 16.425l.556-2.307c-7.514-5.923-13.837-12.209-18.926-18.809-2.107-2.744-3.977-5.567-5.686-8.391-1.989-3.378-3.698-6.838-5.09-10.377 1.273-1.632 2.585-3.222 3.937-4.811 2.187-2.585 4.453-5.17 6.839-7.754 2.584-2.742 5.248-5.486 7.993-8.229 6.997-6.88 14.671-13.6 23.02-20.24l2.346-3.699 8.191-1.87c.317-.676.636-1.392.993-2.069l-10.616 2.746"/><path d="m88.17 87.33l-.954-4.335-5.21 17.657h.039v.038c-.555 1.949-.834 3.977-.874 6.05-.08 4.972 1.272 10.22 4.056 15.748.04.12.079.2.079.319.756 8.947.438 17.457-.875 25.529.796.159 1.55.159 2.266 0l-.079-25.847c-2.545-6.72-3.658-12.644-3.301-17.852l4.852-17.299"/></g><path d="m56.28 117.63l2.385 6.4-9.782-1.47 11.453 3.417v-1.706l-.518-.081.08-.636 20.477-16.859c.04-2.106.318-4.217.875-6.243l5.209-17.692-9.742 17.772-18.13 20.24c-.755-1.948-1.152-3.897-1.192-5.925l-1.114 2.785" fill="#4a80aa" stroke="#4a80aa"/><path d="m60.33 124.27c-.16-.24-.319-.48-.438-.717l-.08.636.518.081" fill="#f9b291" stroke="#f9b291"/><path d="m92.26 109.2c.238-1.552.516-3.101.795-4.611 2.744-13.561 8.51-24.936 17.376-34.2.596-.637 1.232-1.273 1.869-1.867v-3.182l-10.18 5.207c-.715 1.314-1.392 2.586-2.028 3.897-3.658 7.396-6.323 14.713-7.952 21.911-1.989 7.515-2.147 16.581-.517 27.12-.12-4.731.078-9.505.636-14.274" fill="#74a5d5" stroke="#74a5d5"/><path d="m93.06 104.59c-.279 1.511-.557 3.059-.795 4.611-.558 4.769-.756 9.543-.636 14.274.198 7.279 1.152 14.512 2.943 21.709l.754-.714 1.312-.316c7.396-7.398 10.06-15.23 7.953-23.504-.279-.911-.557-1.866-.914-2.78l-10.617-13.28" fill="#1e394f" stroke="#1e394f"/><path d="m157.71 62.879l-7.476 1.033 6.919 1.632v3.699l46.48 40.44c-.873 11.611-4.772 23.778-11.69 36.541-5.369 1.632-11.01 1.632-16.859 0l-.398.918c.755.475 1.512.914 2.267 1.308 1.988 1.035 4.056 1.871 6.164 2.466 1.272.359 2.585.597 3.897.795 1.789.279 3.618.358 5.486.321 9.146-17.619 14.394-32.369 15.787-44.3-17.934-13.521-33.919-27.396-47.915-41.594v-3.618l-2.665.358" fill="#4a80aa" stroke="#4a80aa"/><path d="m185.79 123c2.982-2.704 6.8-4.772 11.373-6.164l-9.861 7.197-8.629 22.19c-.834-.159-1.67-.319-2.506-.513l9.622-22.707zm-22.745-28.353c-.199-.952-.436-1.867-.637-2.784l24.376 16.582-.517 2.865-23.22-16.664zm-5.885-29.11l-6.919-1.632-6.242.837c10.298 9.188 15.07 28.868 14.355 59.01-.04 3.619-.279 7.12-.797 10.497l-1.192 20.319 10.339 1.353c-3.3-13.919-5.01-28.03-5.05-42.35-.477-14.594-3.459-28.989-8.946-43.22 4.492 7.237 7.674 15.509 9.623 24.774l24.454 17.534.954-4.971.358 3.738 5.208-4.852-6.998 8.63-1.392 1.71 1.59 2.264c4.494-2.82 8.63-4.094 12.487-3.738-5.726 1.474-10.339 3.858-13.879 7.078l-10.02 23.699c5.845 1.632 11.491 1.632 16.859 0 6.918-12.764 10.817-24.93 11.69-36.541l-46.48-40.44v-3.699" fill="#74a5d5" stroke="#74a5d5"/><g fill="#add4e4" stroke="#add4e4"><path d="m162.4 91.87c.2.917.438 1.832.637 2.784l23.22 16.664.517-2.865-24.376-16.582"/><path d="m197.16 116.84c-4.573 1.392-8.391 3.46-11.373 6.164l-9.622 22.708c.836.195 1.671.354 2.506.513l8.629-22.19 9.861-7.197"/></g><path d="m143.99 64.741c-.915-.837-1.909-1.551-2.903-2.227 4.414 4.813 8.35 12.01 11.81 21.514 1.948 7.553 2.982 13.677 3.102 18.37.158.834.318 1.629.476 2.423 1.233 6.642 1.87 12.966 1.87 18.929.715-30.14-4.057-49.82-14.355-59.01" fill="#4a80aa" stroke="#4a80aa"/><path d="m132.9 64.3c.755.24 1.47.556 2.186.914 7.635 3.699 13.877 13.162 18.766 28.314v.2c.837 2.942 1.553 5.847 2.149 8.668-.12-4.692-1.154-10.817-3.102-18.37-3.46-9.505-7.397-16.701-11.81-21.514l-9.941-2.784.319 4.174c.477.12.954.24 1.433.398" fill="#74a5d5" stroke="#74a5d5"/><path d="m135.09 65.22c-.716-.358-1.431-.674-2.186-.914l-1.234 2.507-.199-2.905-.319-4.174-.039-.556c-1.631 1.789-3.539 3.38-5.766 4.773l2.585 7.674h2.386c1.431 10.377-.438 18.766-5.568 25.17-7.475-5.05-12.13-12.963-13.916-23.659-.159-.914-.278-1.831-.397-2.744-.04.994 0 1.988.08 2.981.635 10.776 5.845 19.288 15.666 25.608 5.885-6.403 8.867-16.422 8.948-30.1 0-1.191 0-2.423-.04-3.658" fill="#cb7054" stroke="#cb7054"/><path d="m135.09 65.22c.04 1.235.04 2.468.04 3.662 14.91 20.358 16.7 35.11 5.327 44.25l5.21 2.387c-2.346 14.04-1.034 27.716 3.857 40.996l2.665-.676 1.986.477-1.63-4.374c-2.265-12.725-2.107-25.968.557-39.683 1.87-1.71 3.02-4.216 3.38-7.438-.158-.794-.318-1.589-.476-2.423-.597-2.821-1.312-5.726-2.149-8.668v-.2c-4.889-15.15-11.132-24.615-18.766-28.314" fill="#d6d6d6" stroke="#d6d6d6"/><path d="m162.32 95.13c-1.949-9.264-5.131-17.538-9.623-24.774 5.487 14.235 8.469 28.629 8.946 43.22.04 14.315 1.751 28.429 5.05 42.35l-10.339-1.353-.159 2.227 11.09 2.584 3.618-4.094c-3.776-10.54-5.884-22.19-6.322-34.953l-.119-.557c.119-8.866-.596-17.1-2.146-24.651" fill="#4a80aa" stroke="#4a80aa"/><path d="m131.11 59.18l-.119-1.35c-2.148 2.464-4.97 4.571-8.43 6.281-.517-.201-1.034-.44-1.552-.676-3.579-1.631-6.481-3.776-8.708-6.364v1.353c.438.517.875.996 1.352 1.471 2.346 2.267 5.329 4.135 8.908 5.568.995-.478 1.907-.995 2.783-1.511 2.227-1.393 4.135-2.985 5.766-4.773" fill="#b96351" stroke="#b96351"/><path d="m130.31 71.63h-2.386l-2.585-7.674c-.876.516-1.788 1.033-2.783 1.511-3.579-1.433-6.562-3.302-8.908-5.568l1.035 10.579-3.858 2.663c1.79 10.697 6.442 18.608 13.916 23.659 5.13-6.403 6.999-14.793 5.568-25.17" fill="#f9b291" stroke="#f9b291"/><path d="m131.46 63.904l.199 2.905 1.234-2.507c-.478-.158-.956-.278-1.433-.398" fill="#b96351" stroke="#b96351"/><path d="m113.65 59.891c-.476-.475-.914-.954-1.352-1.471v10.1c-.636.594-1.272 1.23-1.869 1.867.119.914.238 1.831.397 2.744l3.858-2.663-1.035-10.579" fill="#fbc8b8" stroke="#fbc8b8"/><path d="m110.51 73.38c-.08-.992-.12-1.987-.08-2.981-7.714 11.01-12.764 22.345-15.15 34.04 1.948 6.48 7.992 11.214 18.09 14.15-4.255-.12-7.197.555-8.788 2.066 2.107 8.274-.557 16.11-7.953 23.504l1.91-.517 3.219-.834 10.141 1.47c.716 1.947.357 3.537-1.033 4.813l2.663 2.82.954.437c-.357.52-.715.917-1.113 1.274l-2.504 2.264 2.624 2.071c2.226 2.823.198 4.216-6.084 4.216.517 2.542-.596 3.977-3.38 4.331l-11.769-2.584-7.954 6.482-1.391 2.665c21.03 8.15 40.517 10.18 58.37 6-3.937-3.098-5.25-6.199-3.937-9.3l4.134-4.575c-2.624-1.354-2.901-2.946-.834-4.814l.795-.157c-.199-.121-.359-.281-.477-.479-.278-.278-.478-.635-.597-1.031l9.145-2.188c-4.891-13.279-6.203-26.96-3.857-40.996l-5.21-2.387c11.373-9.142 9.583-23.896-5.327-44.25-.08 13.676-3.063 23.696-8.948 30.1-9.821-6.32-15.03-14.831-15.666-25.608" fill="#f8f8f8" stroke="#f8f8f8"/><path d="m103.67 117.87c.357.914.635 1.868.914 2.78 1.591-1.511 4.532-2.186 8.788-2.066-10.1-2.94-16.14-7.674-18.09-14.15 2.386-11.693 7.436-23.03 15.15-34.04-8.866 9.263-14.632 20.638-17.375 34.2l10.617 13.28" fill="#d6d6d6" stroke="#d6d6d6"/><path d="m156.47 104.83c-.356 3.222-1.51 5.728-3.38 7.438-2.664 13.715-2.822 26.957-.557 39.682l1.63 4.374 2.029.478.159-2.227 1.192-20.319c.518-3.378.756-6.878.797-10.497 0-5.963-.636-12.287-1.87-18.929" fill="#1e394f" stroke="#1e394f"/><g fill="#4a80aa" stroke="#4a80aa"><path d="m187.74 107.69l-.954 4.971-.478 2.546 6.998-8.63-5.208 4.852-.358-3.738"/><path d="m186.5 119.18l-1.392 3.34c3.54-3.22 8.152-5.604 13.879-7.078-3.857-.356-7.993.918-12.487 3.738"/></g><path d="m187.01 151.7c-1.312-.198-2.625-.436-3.897-.795-2.107-.595-4.175-1.431-6.164-2.466l-1.311 1.473 1.112.834 4.533 1.91-8.748 8.272c.039 5.563-3.977 8.748-12.05 9.541l-9.184 9.583c1.948-.121 4.413-1.789 7.435-4.93.318-.319.635-.676.994-1.037.357-.433.715-.871 1.112-1.31l6.8-.676c4.02-.518 6.442-3.261 7.275-8.311l.757-.717 11.333-11.372" fill="#cb7054" stroke="#cb7054"/><path d="m176.76 150.75l-1.112-.834-4.734 5.369-3.618 4.094-11.09-2.584-2.029-.478-1.986-.477-2.665.676-9.145 2.188c.119.397.318.753.597 1.031l11.809-2.425 15.15 3.857 8.828-10.419" fill="#fbc8b8" stroke="#fbc8b8"/><path d="m178.99 168.33l-3.301-5.252-.757.717c-.833 5.05-3.259 7.793-7.275 8.311l-6.8.676c-.398.439-.755.876-1.112 1.31l2.106 4.494c6.641-1.79 12.327-5.208 17.14-10.256" fill="#4a80aa" stroke="#4a80aa"/><path d="m176.76 150.75l-8.828 10.419-15.15-3.857-11.809 2.424c.118.198.278.358.477.479l9.98-1.67 3.858 2.426-15.23 8.746c.357.594.754 1.075 1.193 1.432l12.367-6.642 3.14.556-7.156 5.329c-.041.041-.041.041-.081.041-.12.039-.198.12-.318.159-.557.278-1.074.517-1.511.795-3.062 1.629-4.294 2.982-3.737 4.055l11.968-6.245 3.101.636-6.6 6.562c-1.709 1.354-2.147 2.586-1.352 3.66h.24l9.184-9.583c8.07-.794 12.09-3.978 12.05-9.541l8.748-8.272-4.533-1.91" fill="#f9b291" stroke="#f9b291"/><path d="m147.3 170.68c.477-.278.994-.633 1.511-.992.04-.042.12-.08.159-.123.04-.036.04-.036.079-.036l7.714-4.456-3.14-.556-12.367 6.642c1.471 1.153 3.46.997 6.04-.478" fill="#cb7054" stroke="#cb7054"/><path d="m148.8 169.68c-.517.359-1.034.714-1.511.992-2.584 1.475-4.573 1.631-6.04.478-.439-.358-.835-.838-1.193-1.432l15.23-8.746-3.101-1.037c-5.369 1.713-8.948 1.791-10.737.281l-.795.157c-2.067 1.868-1.79 3.46.834 4.814l-4.134 4.575c-1.313 3.101 0 6.202 3.937 9.3-17.855 4.178-37.34 2.148-58.37-6l-.438.833c1.591.994 3.221 1.911 4.891 2.784 9.662 5.089 20.28 8.432 31.811 10.02 1.828.24 3.698.439 5.566.598 9.982.834 20.599.437 31.851-1.195 1.311-.198 2.664-.396 4.02-.636l-1.869-10.337c-3.02 3.141-5.487 4.809-7.435 4.93l-.12.119-.119-.119c-.795-1.073-.357-2.306 1.352-3.66l6.6-6.562-6.243 3.74c-3.618 2.107-6.52 2.821-8.629 2.146-.079-.12-.158-.197-.197-.278-.557-1.073.676-2.426 3.737-4.055.438-.278.955-.517 1.512-.795.119-.039.198-.12.318-.159.04 0 .04 0 .081-.041l7.156-5.329-7.714 4.456c-.039 0-.039 0-.079.036-.039.043-.118.081-.16.123h.0001" fill="#d6d6d6" stroke="#d6d6d6"/><g fill="#cb7054" stroke="#cb7054"><path d="m155.29 160.98l-3.858-2.426-9.98 1.67c1.789 1.511 5.368 1.432 10.737-.281l3.101 1.037"/><path d="m159.03 169.84l-3.101-.636-11.968 6.245c.039.081.118.158.198.278 2.108.675 5.01-.039 8.628-2.146l6.243-3.74"/></g><path d="m106.46 147.29c-1.353-.081-2.942-.398-4.771-.994l-4.335 2.387h8.986l7.198 3.218-2.663-2.82c1.391-1.275 1.749-2.866 1.033-4.813-.199.558-.478 1.033-.796 1.434-.994 1.153-2.544 1.708-4.652 1.588" fill="#d6d6d6" stroke="#d6d6d6"/><path d="m101.69 146.3c1.829.595 3.418.913 4.771.994 2.107.12 3.658-.435 4.652-1.588l-10.06-1.314-3.698 4.294 4.335-2.387" fill="#cb7054" stroke="#cb7054"/><path d="m100.65 150.95l4.295-.2 8.429 2.864c.398-.358.755-.755 1.113-1.274l-.954-.437-7.198-3.218h-8.986l3.698-4.294 10.06 1.314c.318-.401.597-.876.796-1.434l-10.141-1.47-3.219.834-5.408 5.448c-3.02 3.496-5.925 4.927-8.709 4.255l-3.379 6.281c3.141 2.981 6.64 2.902 10.576-.197l12.167 5.168c1.154-.32 1.989-.995 2.545-2.028l-11.372-4.891 3.5-1.751 13.161 4.01c1.152-1.906-.319-3.18-4.374-3.854l-9.345-3.102-.556.039 3.3-2.068" fill="#f9b291" stroke="#f9b291"/><path d="m104.95 150.75l-4.295.2-3.3 2.068.556-.039 7.04-.638c3.618 2.466 6.441 2.904 8.429 1.274l-8.429-2.864" fill="#cb7054" stroke="#cb7054"/><path d="m113.5 157.95l-2.624-2.071 2.504-2.264c-1.989 1.629-4.811 1.192-8.429-1.274l-7.04.638 9.345 3.102c4.056.674 5.526 1.948 4.374 3.854-.04.041-.04.08-.079.123-2.108.833-5.13.436-8.987-1.276l-7.596-1.111 11.372 4.891c-.556 1.033-1.391 1.708-2.545 2.028-2.544.676-6.52-.359-11.888-3.064-1.472 1.593-2.981 2.584-4.574 2.983l-2.425 4.691-.597 1.195 7.954-6.482 11.769 2.584c2.784-.354 3.897-1.789 3.38-4.331 6.283 0 8.311-1.393 6.084-4.216" fill="#d6d6d6" stroke="#d6d6d6"/><path d="m102.56 158.78c3.857 1.712 6.878 2.108 8.987 1.276.04-.043.04-.082.079-.123l-13.161-4.01-3.5 1.751 7.595 1.111" fill="#cb7054" stroke="#cb7054"/><path d="m142.75 330.23l-1.87 4.413c-6.68 2.744-13.559 3.02-20.676.917l.715-5.091-3.101-7.435c1.033.081 1.749.159 2.107.278 8.39 1.788 16.541.953 24.534-2.425l-4.056 7.117 2.347 2.226zm-18.16-129.5c1.074-3.977 1.272-7.715.675-11.254 8.391 1.632 17.378 1.829 26.881.638-3.898 29.661-9.623 59.17-17.14 88.55l-2.067 9.979 4.652-7.635c1.392 3.777 1.034 7.317-1.153 10.659l8.192 21.947c-6.88 3.659-14.594 5.17-23.06 4.494-2.586-8.311-3.143-15.906-1.632-22.705.199-1.073.477-2.106.835-3.101-1.63-2.227-2.783-4.533-3.499-6.956-1.391-26.21.198-52.808 4.772-79.85 4.732-3.06 11.532-5.606 20.399-7.554-5.05.437-9.384 1.153-13 2.069 3.46-2.584 8.588-4.655 15.386-6.126-8.229.32-14.95 2.586-20.239 6.841zm-5.17-11.889l4.533.834-1.391 12.803-1.868-1.072-1.274-12.565zm5.328-1.551c-1.868-.159-3.737-.358-5.566-.598-11.531-1.589-22.15-4.931-31.811-10.02-.04.875-.12 1.748-.159 2.666 9.344 5.766 19.404 9.385 30.1 10.814l1.272 10.02-12.328-7.234 10.976 10.694c-4.971 25.488-6.443 50.38-4.335 74.68.039.752.119 1.471.198 2.226l-.239 4.02 4.89 8.826c-2.027 8.868-2.027 17.42 0 25.608-5.565 2.344-10.735 2.226-15.506-.398.04.596.119 1.153.198 1.749.715.438 1.472.837 2.306 1.194 3.817 1.59 8.55 1.709 14.236.319l1.471 5.406-2.226 3.936-14.275 2.427-.558 2.981 3.222-.439c5.168.357 10.855-.477 17.02-2.542-.119-.521-.199-1.077-.319-1.591 6.959 4.731 14.752 4.852 23.381.356.875-.438 1.75-.953 2.665-1.512l.954-6.241-2.624-1.432 2.147-8.39c-.795.437-1.59.836-2.385 1.191.835-13.396-1.631-22.584-7.436-27.514 2.108-7.634 1.75-11.449-1.073-11.492 16.382-49.11 22.267-79.41 17.655-90.9-11.253 1.632-21.87 2.029-31.851 1.195" fill="#252e39" stroke="#252e39"/><g fill="#364452" stroke="#364452"><path d="m123.95 189.68l-4.533-.834 1.274 12.565 1.868 1.072 1.391-12.803"/><path d="m120.45 296.88c.596.479 1.153.917 1.75 1.312-.198 6.401.716 12.844 2.704 19.284-.915-.041-1.831-.077-2.744-.121-2.265-7.432-2.823-14.272-1.709-20.475zm2.306-90.9c.797-.518 1.631-.994 2.545-1.473-4.453 26.09-6.243 52.606-5.329 79.57.04.121.08.278.16.437 1.709 4.891 4.731 9.784 9.145 14.673-3.3-2.265-5.924-4.729-7.873-7.354-1.55-2.11-2.664-4.294-3.34-6.562-1.392-26.04.199-52.45 4.692-79.29zm2.504-16.502c.597 3.54.398 7.278-.675 11.254 5.288-4.255 12.01-6.522 20.239-6.841-6.799 1.471-11.927 3.542-15.386 6.126 3.618-.917 7.952-1.632 13-2.069-8.867 1.948-15.668 4.494-20.399 7.554-4.573 27.04-6.162 53.643-4.772 79.85.716 2.423 1.869 4.729 3.499 6.956 2.108 2.823 4.931 5.448 8.509 7.872-3.141-.437-6.242-2.024-9.344-4.771-1.511 6.8-.954 14.394 1.632 22.705 8.468.676 16.181-.834 23.06-4.494l-8.192-21.947c2.187-3.342 2.545-6.882 1.153-10.659l-4.652 7.635 2.067-9.979c7.516-29.386 13.241-58.892 17.14-88.55-9.504 1.191-18.49.994-26.881-.638"/></g><g fill="#60788f" stroke="#60788f"><path d="m125.3 204.52c-.914.479-1.748.954-2.545 1.473-4.493 26.839-6.084 53.24-4.692 79.29.676 2.268 1.79 4.452 3.34 6.562 1.949 2.626 4.573 5.089 7.873 7.354-4.414-4.888-7.436-9.782-9.145-14.673-.079-.159-.12-.316-.16-.437-.914-26.96.876-53.48 5.329-79.57"/><path d="m122.2 298.19c-.597-.396-1.154-.833-1.75-1.312-1.114 6.202-.555 13.04 1.709 20.475.914.044 1.829.081 2.744.121-1.988-6.44-2.902-12.882-2.704-19.284"/></g><path d="m120.77 292.32c-.358.995-.635 2.028-.835 3.101 3.102 2.747 6.203 4.333 9.344 4.771-3.578-2.423-6.401-5.05-8.509-7.872" fill="#14191e" stroke="#14191e"/><path d="m119.09 323.99c.278.04.516.04.675.081.676.158 1.392.278 2.067.397l1.948 5.289-.835 5.726c-.595-.159-1.232-.318-1.829-.479l.597-4.416c.04-.116 0-.278-.038-.394l-2.585-6.204zm21.789 10.656l1.87-4.413-2.347-2.226 4.056-7.117c-7.993 3.378-16.14 4.212-24.534 2.425-.359-.119-1.074-.197-2.107-.278l3.101 7.435-.715 5.091c7.118 2.106 13.996 1.827 20.676-.917" fill="#364452" stroke="#364452"/><path d="m119.77 324.07c-.16-.04-.397-.04-.675-.081l2.585 6.204c.038.116.079.278.038.394l-.597 4.416c.597.161 1.234.32 1.829.479l.835-5.726-1.948-5.289c-.676-.119-1.392-.239-2.067-.397" fill="#60788f" stroke="#60788f"/><path d="m87.968 180.74c.755.436 1.512.834 2.267 1.272.079 29.03 5.05 57.896 14.87 86.6l2.188 11.612-2.424-4.055c-.04-.043-.04-.043-.04-.081v-.078c-12.208-35.95-17.814-67.72-16.861-95.27zm18.29 12.207l12.328 7.234-1.272-10.02c-10.697-1.43-20.756-5.05-30.1-10.814-1.193 27.995 4.414 60.32 16.859 96.94 0 .043 0 .119.04.198.04.202.12.399.198.598l.12-.081 3.858 6.442 4.612-5.128c-2.108-24.296-.636-49.19 4.335-74.68l-10.976-10.694" fill="#364452" stroke="#364452"/><path d="m90.23 182c-.755-.437-1.512-.836-2.267-1.272-.954 27.554 4.653 59.32 16.861 95.27v.078c0 .038 0 .038.04.081l2.424 4.055-2.188-11.612c-9.82-28.708-14.791-57.58-14.87-86.6" fill="#60788f" stroke="#60788f"/><path d="m151.07 180.05l.119.119.12-.119h-.24" fill="#f8f8f8" stroke="#f8f8f8"/><path d="m96.64 144.15l-1.312.316-.754.714-3.897 3.619c-1.79 2.545-3.737 3.818-5.845 3.778l-.398.759c2.784.672 5.686-.759 8.709-4.255l5.408-5.448-1.91.517" fill="#fbc8b8" stroke="#fbc8b8"/><path d="m84.43 153.34l.398-.759c-.557-.038-1.114-.116-1.71-.315h-.041c-2.506 2.424-4.652 5.088-6.441 8.03l2.585 1.551.557.396.556.4c2.425 1.79 4.771 2.424 6.998 1.868 1.592-.4 3.101-1.391 4.574-2.983 5.368 2.705 9.344 3.74 11.888 3.064l-12.167-5.168c-3.937 3.1-7.435 3.178-10.576.197l3.379-6.281" fill="#cb7054" stroke="#cb7054"/><g fill="#203e56" stroke="#203e56"><path d="m84.83 152.58l.04-1.948c-.597.517-1.193 1.073-1.749 1.633.595.198 1.153.277 1.71.315"/><path d="m79.22 161.85l-2.585-1.551c-1.312 2.187-2.465 4.493-3.459 6.999-.08.198-.159.397-.239.594l6.283-6.04"/></g><path d="m80.33 162.64l-.556-.4-.041.201.597.198" fill="#f9b291" stroke="#f9b291"/><path d="m80.33 162.64l-.597-.198-1.074 3.461c1.55 1.35 3.659 2.465 6.243 3.297l2.425-4.691c-2.227.556-4.573-.078-6.998-1.868" fill="#4a80aa" stroke="#4a80aa"/><path d="m113.1 280.54c-.079-.755-.159-1.474-.198-2.226l-4.612 5.128-3.858-6.442-.12.081c1.075 3.22 2.227 6.44 3.42 9.702l5.368-6.243" fill="#14191e" stroke="#14191e"/><path d="m105.58 292.03l-2.067-5.29 1.073-6.44c.597 1.712 1.193 3.382 1.789 5.091l-.635 1.99 2.545 5.525c-2.386 8.748-3.301 17.495-2.744 26.25-.836-.282-1.71-.598-2.545-1.035-.755-8.07.12-16.62 2.626-25.566.039-.2 0-.359-.04-.518zm7.515-11.492l-5.368 6.243c-1.193-3.261-2.346-6.482-3.42-9.702l-1.629 9.741 2.148 5.487c-2.545 9.264-3.42 18.01-2.585 26.28 4.772 2.624 9.942 2.741 15.506.398-2.027-8.188-2.027-16.74 0-25.608l-4.89-8.826.239-4.02" fill="#364452" stroke="#364452"/><path d="m103.52 286.74l2.067 5.29c.04.159.08.319.04.518-2.506 8.946-3.38 17.495-2.626 25.566.836.438 1.709.753 2.545 1.035-.557-8.75.358-17.498 2.744-26.25l-2.545-5.525.635-1.99c-.596-1.709-1.192-3.379-1.789-5.091l-1.073 6.44" fill="#60788f" stroke="#60788f"/><path d="m104.71 322.41v2.145l2.944 4.576-.717 3.181-2.027.355.477-2.623c.039-.198 0-.399-.119-.557l-4.055-6.8.796-1.668c.834.555 1.749 1.034 2.702 1.392zm-2.266-2.07c-.079-.597-.158-1.153-.198-1.749l-1.948 4.137 4.294 7.153-.635 3.742 14.275-2.427 2.226-3.936-1.471-5.406c-5.686 1.39-10.418 1.271-14.236-.319-.834-.357-1.591-.757-2.306-1.194" fill="#364452" stroke="#364452"/><path d="m104.71 324.56v-2.145c-.953-.362-1.868-.837-2.702-1.392l-.796 1.668 4.055 6.8c.119.158.159.359.119.557l-.477 2.623 2.027-.355.717-3.181-2.944-4.576" fill="#60788f" stroke="#60788f"/><path d="m124.23 336.33c.595.278 1.233.516 1.828.715 4.812 1.712 9.901 2.07 15.27 1.072l-2.545 38.22c.199 12.681 3.419 25.962 9.663 39.839-2.824 2.068-6.482 3.02-10.976 2.905-.715-.043-1.47-.081-2.225-.161 4.85 2.665 9.07 3.38 12.644 2.108 2.068-.756 3.937-2.188 5.567-4.217-6.481-13-9.981-24.1-10.537-33.28-1.352-16.46-.079-33.52 3.777-51.13-8.628 4.494-16.422 4.375-23.381-.356.119.514.2 1.07.319 1.591-6.164 2.066-11.851 2.9-17.02 2.542l.597 2.945c.874.277 1.709.476 2.544.675 4.812 1.072 8.907.356 12.247-2.109 3.897 21.594 6 43.978 6.363 67.2-3.738 4.255-7.476 5.488-11.254 3.66-.555-.278-1.113-.598-1.67-1.035 3.3 4.495 7.118 5.687 11.492 3.619 1.631-.756 3.301-1.989 5.089-3.659v-3.854l-.834-5.727c-.318-20.12-2.624-40.641-6.959-61.55" fill="#cb7054" stroke="#cb7054"/><g fill="#fbc8b8" stroke="#fbc8b8"><path d="m126.06 337.04c-.596-.199-1.233-.437-1.828-.715 4.335 20.911 6.64 41.43 6.959 61.55l.834 5.727.358 2.662 2.864 12.645c.755.079 1.51.117 2.225.161l-4.055-16.07c.357-21.351-2.067-43.34-7.356-65.966"/><path d="m109.76 339.79c-.835-.199-1.67-.398-2.544-.675l9.105 42.504c2.147 9.03 1.829 17.656-.915 25.886h.04c.556.437 1.114.757 1.67 1.035 3.341-8.389 3.976-16.661 1.909-24.814l-9.265-43.938"/></g><g fill="#f9b291" stroke="#f9b291"><path d="m122 337.68c-3.341 2.465-7.436 3.18-12.248 2.109l9.266 43.938c2.066 8.152 1.43 16.424-1.91 24.814 3.778 1.828 7.516.595 11.254-3.66-.358-23.22-2.466-45.606-6.362-67.2"/><path d="m141.32 338.12c-5.368.998-10.458.64-15.27-1.072 5.289 22.624 7.714 44.614 7.356 65.966l4.055 16.07c4.495.117 8.153-.837 10.976-2.905-6.244-13.877-9.464-27.16-9.663-39.839l2.545-38.22"/></g><path d="m115.44 407.5h-.04c-.437 1.27-.915 2.546-1.471 3.816-.914 3.738-1.153 6.762-.796 9.107 6 1.87 10.18.834 12.526-3.18l1.272-6.123c-4.374 2.068-8.192.876-11.492-3.619" fill="#376790" stroke="#376790"/><path d="m126.94 411.12l-1.272 6.123c-2.347 4.01-6.521 5.05-12.526 3.18.597 4.255 3.261 6.245 7.993 5.967 7.953.278 11.571-3.539 10.856-11.491l.039-7.439c-1.788 1.671-3.458 2.904-5.089 3.659" fill="#203e56" stroke="#203e56"/><path d="m147.89 421.02c-3.578 1.272-7.794.556-12.644-2.108l.954 4.334c.636 5.683 1.869 9.901 3.697 12.645 6.283.676 9.503-1.234 9.663-5.726l-1.67-9.145" fill="#376790" stroke="#376790"/><path d="m149.56 430.17c-.16 4.492-3.379 6.403-9.662 5.726 2.505 3.778 6.163 4.733 10.895 2.94 6.04-3.059 6.919-10.377 2.665-22.03-1.631 2.029-3.499 3.461-5.567 4.217l1.67 9.145" fill="#203e56" stroke="#203e56"/><path d="m115.56 11.266c-.12.039-.199.12-.278.239-.676.557-1.274 1.192-1.831 1.87.637-2.904 1.67-5.289 3.063-7.159 1.749-2.385 4.095-3.935 7.077-4.691l.517 1.27c-4.213 1.471-7.078 4.294-8.548 8.471zm8.509-10.656c-3.46.714-6.203 2.425-8.19 5.131-2.028 2.742-3.341 6.48-3.858 11.21 2.545-4.811 6.242-7.435 11.09-7.911 2.504 2.465 4.612 6.123 6.323 10.933.078.279.158.598.278.877 1.869 4.255 3.976 8.03 6.283 11.291.795 1.115 1.631 2.187 2.465 3.181.438.557.915 1.075 1.392 1.592 3.46 3.737 7.356 6.559 11.611 8.428 2.028.836 4.137 1.514 6.323 1.99-6.363-2.941-10.976-6.163-13.799-9.702-4.574-4.571-8.07-9.185-10.577-13.797l-9.344-23.22" fill="#ebd195" stroke="#ebd195"/></g></svg>