<svg xmlns="http://www.w3.org/2000/svg" viewBox="0 0 241.99999 440"><g transform="matrix(1.25,0,0,-1.25,0,445.6538)"><path d="m85.1 319.39c.255-.064.541-.095.827-.095.195.033.627.087.627.087l-.64 3.76-.401-.73-.795-1.527.381-1.496" fill="#cb7054"/><g fill="#f9b291"><path d="m109.6 324.61l1.177 3.661c.192.361.374.967.511.897.11-.056.59-1.809.603-2.17-.072-.597-.209-1.142-.411-1.635-.202-.493-.47-.934-.802-1.324-.332-.389-.729-.727-1.189-1.013l-.644-.235c.009.132.152 3 .152 3l.435.131z"/><path d="m82.65 322.19c.414-1.591 1.242-2.514 2.449-2.8l-.381 1.496.795 1.527.401.73c-.164.26-1.278 1.683-1.442 1.943l.055-1.113-2.195 2.448c-.095-1.716.033-3.118.319-4.23"/></g><path d="m111.89 326.99c-.072-.597-.209-1.142-.411-1.635-.202-.493-.47-.934-.802-1.324-.332-.389-.729-.727-1.189-1.013l-.644-.235-.14-1.229.354-.132c2.609-1.303 3.564.573 2.832 5.568" fill="#cb7054"/><g fill="#b96351"><path d="m82.49 324.03c1.081-.509 1.909-1.431 2.512-2.767l.223.828c-.859 1.272-1.782 1.908-2.735 1.939"/><path d="m109.63 322.44c.509 1.338 1.241 2.26 2.195 2.768-.827-.032-1.623-.667-2.386-1.94l.191-.828"/></g></g></svg>