<svg xmlns="http://www.w3.org/2000/svg" viewBox="0 0 242.00001 440"><g fill="#f9b291"><path d="m105.58 33.07c-.159.281-.32.52-.48.8"/><path d="m135.53 37.845c-.601-6.963-1.336-12.579-4.737-16.703-5.802-3.081-11.727-4.441-17.689-4-3.521 5.081-6.396 9.06-6.773 15.95-.014 2.729.154 3.876.73 6.422 2.841 10.04 7.444 15.967 13.846 17.809l.8-.401c6.604-3.643 11.579-8.898 13.301-15.901.478-.936.521-3.175.521-3.175"/></g><path d="m109.9 26.15l-3.362 1.599 2.161-.239c3.402 1.882 6.363 2.321 8.805 1.281-2.641-1.643-5.164-2.522-7.604-2.641" fill="#3a211f"/><path d="m118.22 48.36c-.801.201-1.321.321-1.52.321-.161.039-.32.08-.48.121-.08-.041-.16-.041-.28-.081.201.081.361.16.56.201.161.039.28.08.361.08.68.159 1.36.201 2.08.159h4.602c.72.042 1.401 0 2.081-.159.081 0 .2-.041.361-.08.2-.041.36-.12.519-.201-.079.041-.159.041-.239.081-.2-.041-.36-.081-.52-.121-.2 0-.681-.12-1.481-.321-.8-.239-1.802-.36-3.041-.321-1.241 0-2.242.121-3 .321" fill="#dc8675"/><path d="m117.26 49.558c.4.041.8.041 1.201.041h5.563c.399 0 .799 0 1.201-.041l-1.282 1.841c-.919 1-1.802 1.52-2.72 1.601-.881-.08-1.762-.601-2.681-1.601l-1.282-1.841m-.761-.64c-.199-.041-.359-.12-.56-.201-1.08-.2-2.12-.72-3.041-1.481.76 1.041 1.841 1.762 3.16 2.122l1.962 2.882c1.079 1.159 2.16 1.72 3.202 1.641 1.08.079 2.16-.482 3.241-1.641l1.961-2.882c1.321-.36 2.4-1.081 3.162-2.122-.96.761-2 1.281-3.083 1.481-.159.081-.319.16-.519.201-.161.039-.28.08-.361.08-.68.159-1.361.201-2.081.159h-4.602c-.721.042-1.401 0-2.08-.159-.081 0-.201-.041-.361-.08" fill="#c95c5d"/><path d="m118.46 49.598c-.401 0-.801 0-1.201-.041l1.282 1.841c.919 1 1.8 1.52 2.681 1.601.919-.08 1.801-.601 2.72-1.601l1.282-1.841c-.401.041-.801.041-1.201.041l-.921 1.239c-.52.721-1.08 1.16-1.681 1.322-.601.12-1.241-.28-1.962-1.24l-.999-1.321" fill="#dc8675"/><path d="m119.46 50.919c.721.961 1.361 1.36 1.962 1.24.601-.162 1.161-.601 1.681-1.322l.921-1.239h-5.563l.999 1.321" fill="#fff"/><path d="m132.59 26.345l2.161.24-3.362-1.599c-2.36.198-4.922 1.12-7.604 2.759 2.481 1 5.402.561 8.804-1.401" fill="#3a211f"/></svg>