<svg xmlns="http://www.w3.org/2000/svg" viewBox="0 0 242.00001 440"><g stroke-width=".08"><path d="m160.92 51.32c.119-.761.159-1.481.159-2.201-1.08-4.762-3.282-8.444-6.523-11.04-.2-.201-.439-.36-.681-.522-8.524-5.803-15.688-12.766-21.49-20.809-.241-.361-.481-.681-.721-1.042.2.321.361.641.561 1 0 .041 0 .08.04.121 1.481 2.681 2.681 5.322 3.601 7.924l16.969 15.847c3.763 2.803 5.163 8.364 4.163 16.688-1.121 7.804-.282 13.407 2.521 16.887l3.881 4.804c.44 0 .921 0 1.401-.039 1.72-.121 3.282-.52 4.682-1.201-5-.841-8.204-3.681-9.524-8.524-1.201-4.363-.881-10.324.961-17.889" fill="#942b2c" stroke="#942b2c"/><path d="m164.81 78.933c-.48.039-.961.039-1.401.039-.44-.039-.84-.039-1.241-.08-.279-.041-.519-.041-.8-.08-.76-.321-1.481-.679-2.161-1.08.52 1.561 2.642 2.762 6.442 3.682l-.84-2.481" fill="#cb7054" stroke="#cb7054"/><path d="m161.57 77.973l-.041.039c-.681-.28-1.321-.599-1.922-.961-2.882-1.721-5.363-4.482-7.404-8.204-3.082-5.562-5.322-13.286-6.723-23.13-.441-3.481-2.241-6.602-5.403-9.364h.041c-.121-.12-.241-.2-.36-.281v-.039c-.36-.28-.681-.519-1.04-.8-.04-.601-.04-1.162-.081-1.721l5.963 5.564c2.282 3.561 3.362 7 3.163 10.246.999 7.524 3.8 15.206 8.403 23.09l2.322 1.72c.12.2.28.36.44.561zm-.202.84c.281.039.521.039.8.08.401.041.801.041 1.241.08l-3.881-4.804c-2.803-3.48-3.642-9.08-2.521-16.887.999-8.324-.4-13.885-4.162-16.688l-16.97-15.847c1.281 3.721 1.031 7.364 1.11 10.884.878.472 1.86.742 2.573 1.321 3 2.602 4.722 5.564 5.122 8.845 1.401 9.966 3.681 17.77 6.804 23.412 2.161 3.882 4.722 6.723 7.724 8.524.68.401 1.4.76 2.161 1.08" fill="#cd4339" stroke="#cd4339"/><path d="m161.52 78.01l.041-.039-2.642-3.281c-.16-.201-.32-.361-.44-.561l-2.322-1.72c-4.603-7.886-7.404-15.567-8.403-23.09.199-3.243-.881-6.685-3.163-10.246l-5.963-5.564c.041.56.041 1.121.081 1.721.36.281.68.52 1.04.8v.039c.119.081.239.162.36.281h-.041c3.163 2.762 4.962 5.883 5.403 9.364 1.401 9.846 3.641 17.57 6.723 23.13 2.04 3.721 4.522 6.482 7.404 8.204.601.361 1.241.681 1.922.961" fill="#da6d6e" stroke="#da6d6e"/><path d="m167.65 89.3l-1.039-5c-2.402.36-4.883.399-7.444.079 3.762 1.162 6.603 2.803 8.483 4.922" fill="#cb7054" stroke="#cb7054"/><path d="m166.61 84.3c2.041-.361 4.04-.961 5.962-1.841-2.72-.281-5.04-.601-6.924-1.041-3.8-.92-5.922-2.121-6.442-3.682-3-1.802-5.563-4.643-7.724-8.524-3.122-5.642-5.402-13.447-6.804-23.412-.4-3.281-2.122-6.243-5.122-8.845-.535-.518-1.573-.878-2.573-1.321-.104 2.52-.461 4.726-1.15 7.04-1.08 4.202-2.921 7.604-5.563 10.286-.08.36-.159.76-.239 1.16 0 .12 0 .2-.041.321-.601 3.802-.48 7.644.28 11.445.441.121.841.24 1.241.361 1.161-8.486 3.803-14.648 7.965-18.49 2.44 11.485 7.804 22.651 16.05 33.575l-3.682-1.319c7.203 7.204 10.525 15.327 9.924 24.332-.08.24-.16.48-.199.681-2.362 9.01-1.042 14.928 3.96 17.768.882-.08 1.802-.24 2.721-.48.802-.24 1.64-.561 2.52-.921-.999-.319-1.84-.72-2.52-1.24-2.92-2.121-3.361-5.883-1.36-11.206.48-.879.92-1.761 1.28-2.602 3.242-7.363 3.083-13.05-.52-17.05-1.88-2.121-4.721-3.761-8.483-4.922 2.561.321 5.04.281 7.444-.079" fill="#942b2c" stroke="#942b2c"/><path d="m160.8 118.91c.52 1.08 1.201 2.041 2.04 2.882-3.721-.761-6.763-3.762-9.164-9.01 0-.039 0-.039-.04-.082-3-6.682-5-16.846-5.963-30.414 0-.041 0-.08 0-.121-.84-3.882-2.401-7.123-4.683-9.804-.76-.841-1.56-1.641-2.44-2.361-.641-.52-1.321-1.039-2.042-1.481h.04c-1.801-1.162-3.841-2.08-6.122-2.842 0-.118 0-.2.038-.319l4.924 1c4.122 1.802 6.963 4.603 8.604 8.444 2.442 4.123 3.602 8 3.523 11.727.679 8.685 2.601 17.489 5.763 26.495 1.16 1.958 3 3.92 5.522 5.882zm.762-13.887c.039-.201.119-.44.198-.679.601-9.01-2.72-17.13-9.924-24.333l3.682 1.319c-8.245-10.924-13.609-22.09-16.05-33.575-4.162 3.842-6.804 10-7.965 18.49 2.481.76 4.682 1.72 6.603 2.961.68.44 1.321.88 1.921 1.401.84.681 1.64 1.44 2.362 2.28 2.2 2.562 3.722 5.724 4.482 9.445.96 13.807 3 24.05 6.083 30.776 3.121 6.803 7.323 10.04 12.565 9.684-5-2.841-6.323-8.763-3.96-17.768" fill="#cd4339" stroke="#cd4339"/><path d="m162.84 121.79c-.839-.841-1.52-1.802-2.04-2.882-2.52-1.962-4.363-3.924-5.522-5.882-3.162-9.01-5.084-17.811-5.763-26.495.079-3.723-1.08-7.603-3.523-11.727-1.641-3.841-4.482-6.642-8.604-8.444l-4.924-1c-.038.12-.038.201-.038.319 2.281.762 4.321 1.681 6.122 2.842h-.04c.721.442 1.401.961 2.042 1.481.88.72 1.681 1.52 2.44 2.361 2.282 2.681 3.843 5.922 4.683 9.804 0 .041 0 .08 0 .121.96 13.567 2.962 23.732 5.963 30.414.04.042.04.042.04.082 2.401 5.243 5.442 8.244 9.164 9.01" fill="#da6d6e" stroke="#da6d6e"/><g fill="#cb7054" stroke="#cb7054"><path d="m168.17 106.35c-.36.84-.8 1.721-1.28 2.6-2 5.323-1.56 9.09 1.36 11.206l-.08-13.807"/><path d="m168.25 122.31c-.92.239-1.84.399-2.721.48-5.243.36-9.444-2.882-12.565-9.684-.361.76-.761 1.48-1.242 2.162-.041.72-.079 1.442-.16 2.162l.84 3.081c.922 1.239 1.922 2.28 3.042 3.2 2.722 2.201 6 3.403 9.885 3.523l.92 6.683c-1.561 1.88-3.681 2-6.403.28 1.361 1.802 2.881 2.561 4.522 2.321 4.081 7.886 5.282 19.811 3.643 35.818l-1.802 18.33 4.04 12.726.88 4.883c.72-1.522 1.039-3.162.961-4.963l-3.121-14.01 2.88-27.494c1.162-8.966 0-17.65-3.561-26.05l-.041-13.447"/></g><path d="m166.25 133.92l-.92-6.683c-3.881-.12-7.163-1.322-9.885-3.523l3.841 14.328c-3.121 7.883-2.441 16.688 2.081 26.492 2.681 8.524 3.563 16.889 2.642 25.17l-4.723 4.201-3.641 18.729c1.161-.039 1.801-1.481 1.96-4.322.642-4.922 1.643-7.844 2.963-8.765l1.281 1.561-.6 9.284-1.082 6.644c-1.401 3.562-1.6 5.403-.56 5.524 2.922-4.123 4.602-9.126 5.04-15.05l1.84-3.762c-.16 6.083-1.08 10.926-2.721 14.567.321-.08.64-.162.92-.28 1.962-2.361 3-5.603 3.122-9.686l2-2.52c-.118 1.961-.319 3.723-.639 5.202.84-.841 1.481-1.761 1.961-2.761l-.88-4.883-4.04-12.726 1.802-18.33c1.64-16.01.439-27.933-3.643-35.818-1.641.24-3.161-.52-4.522-2.321 2.722 1.721 4.842 1.601 6.403-.28" fill="#f9b291" stroke="#f9b291"/><path d="m131.95 4.056c2.041 2.84 3.6 5.842 4.682 8.963 2.441 4.603 5.322 8.364 8.644 11.286-.88-8.04-4.923-15.408-12.166-22.09-5.323-2.841-9.566-2.481-12.727 1.08-.84.92-1.642 2.081-2.322 3.482l4.682-4.281c2.882-2.282 5.964-1.762 9.206 1.561" fill="#cd4339" stroke="#cd4339"/><g fill="#942b2c" stroke="#942b2c"><path d="m93.05 48.52c-.44 13.09-6.124 27.01-17.09 41.821l-7.523 11.846c-.041.08-.041.16-.081.201-1.2 2.361-2.921 4.322-5.162 5.882 3.962.281 7.604-1.761 10.845-6.123.92-3.72 2.761-7.642 5.483-11.765.08-.12.159-.239.239-.361 5.244-6.922 9.165-13.845 11.686-20.809 2.682-7.444 3.843-14.928 3.402-22.452z"/><path d="m101.37 43.555c1.24 5.402 3.522 9.04 6.802 10.926v8.483c-10.324 11.09-16.246 23.291-17.768 36.578l-2.602 23.893c-.8 6.683-5.281 9.483-13.406 8.443 2.361 1.721 5.603 2.441 9.765 2.24 3.081-1.079 5.362-2.959 6.882-5.641 2-3.561 2.642-8.485 1.963-14.808.119-1.8.28-3.602.48-5.363 1-8.765 3.161-16.847 6.442-24.332 1.441-3.802 3.282-7.284 5.564-10.365.76-1.081 1.561-2.081 2.4-3.042.4-.44.801-.92 1.242-1.36 1.321-1.401 2.762-2.682 4.281-3.882v-11.01c-3.321-2.602-5.603-6.323-6.883-11.125-.198-.742-.405-1.469-.508-2.095-1.695.816-2.604 1.349-4.655 2.455z"/><path d="m136.63 13.02c-1.082-3.121-2.641-6.123-4.682-8.963-3.242-3.323-6.324-3.844-9.206-1.561l-4.682 4.281c.68-1.401 1.481-2.562 2.322-3.482-.761-.12-1.52-.159-2.241-.12-2.042 2.441-3.362 4.841-3.923 7.284-7.644 4.402-13.566 9.205-17.768 14.448-.521 1.28-1.041 2.6-1.561 4 3.562-4 7.443-7.602 11.606-10.804l-3.642 16.248c-7.364 8.964-14.728 15.528-22.05 19.729-1 .922-2 1.842-3.081 2.681l.28.321c3.442-.879 6.803-2.44 10.125-4.682 1.64-1.12 3.282-2.401 4.924-3.882l1.8-1.761 6.524-3.201 4.655-2.455c-.504-3.335-.67-4.844-.933-7.231-.2-6.363 1.12-12.246 3.921-17.608 2.322-1.641 4.122-2.841 5.363-3.522 1.24-.721 1.881-1.08 1.961-1.121.039-.039.119 0 .24.079h.04v-.359c7.563-10.886 12.967-11.447 16.17-1.681 2.922 7.924 8 14.967 15.167 21.09-.041-1.561-.12-3.042-.24-4.482-.8-7.163-3.482-13.607-8-19.37-2.361-2.039-4.563-3.602-6.604-4.682 7.244 6.683 11.287 14.05 12.165 22.09-3.321-2.922-6.202-6.683-8.643-11.286"/></g><path d="m116.62 11.339v.359c5.402 0 10.605 1.682 15.607 5-.2-.36-.361-.681-.561-1-1-1.401-1.961-2.88-2.882-4.361-2.962-4.963-7-4.963-12.165 0" fill="#71322f" stroke="#71322f"/><path d="m116.34 4.135c-.281.401-.561.8-.8 1.24l-5.963 3.162c-2.442 1.962-4.924 5.083-7.365 9.365-1.04.879-2.04 1.8-2.961 2.721 4.882-9.966 10.566-15.487 17.09-16.489zm-2.122 6.323c.561-2.443 1.88-4.842 3.923-7.284-8.564.2-15.809 7.443-21.691 21.732 4.202-5.243 10.125-10.05 17.768-14.448" fill="#cd4339" stroke="#cd4339"/><path d="m115.54 5.376c.239-.44.52-.84.8-1.24-6.523 1-12.206 6.523-17.09 16.489.921-.921 1.921-1.842 2.961-2.721 2.441-4.282 4.923-7.403 7.365-9.365l5.963-3.162" fill="#da6d6e" stroke="#da6d6e"/><g fill="#f9b291" stroke="#f9b291"><path d="m105.58 33.07c-.159.281-.32.52-.48.8"/><path d="m135.53 37.845c-.601-6.963-1.336-12.579-4.737-16.703-5.802-3.081-11.727-4.441-17.689-4-3.521 5.081-6.04 10.405-7.524 15.928l-.48.8.48 4.361 1.481 1.283c2.841 10.04 7.444 15.967 13.846 17.809l.8-.401c6.604-3.643 11.579-8.898 13.301-15.901.478-.936.521-3.175.521-3.175z"/></g><path d="m104.5 23.385l-7.803 6.844c-1.321 5.963-3.803 11.606-7.404 16.929-.201.12-.36.28-.522.44-1.081.88-2.2 1.721-3.281 2.481 4.523-5.683 7.884-12.607 10.165-20.77 2.962-3.361 6.163-6.405 9.565-9.165l-.72 3.242zm-1.64 10.966l3.642-16.248c-4.163 3.202-8.04 6.804-11.606 10.804-2.842 10.445-7.565 18.811-14.09 25.17 7.324-4.201 14.688-10.765 22.05-19.729" fill="#cd4339" stroke="#cd4339"/><path d="m96.69 30.23l7.803-6.844.72-3.242c-3.402 2.761-6.603 5.804-9.565 9.165-2.281 8.163-5.643 15.09-10.165 20.77 1.081-.76 2.2-1.601 3.281-2.481.161-.16.32-.321.522-.44 3.601-5.323 6.083-10.966 7.404-16.929" fill="#da6d6e" stroke="#da6d6e"/><path d="m95.93 47.16l1.041 5.443c-.52 9.324-3.121 18.289-7.804 26.972l-6.603 10.928c-7.524 9.324-8.764 18.209-3.762 26.653l3.321 6.562c.36 1.882-.4 3.602-2.279 5.122l-5.803 1.723c-.801-.761-1.481-1.641-2-2.682 1.602 1.24 3.363 1.52 5.243.761.039-.041.08-.041.119-.041 1.96-1.12 2.922-2.561 2.882-4.322.04-1.64-.841-3.52-2.641-5.723v.039c-1.961-2.721-3.121-5.642-3.442-8.804-.28-2.36-.079-4.842.601-7.444.919-3.641 2.681-7.483 5.361-11.525.081-.121.161-.24.241-.36v.041c5.322-6.964 9.245-13.968 11.806-21.01 2.682-7.364 3.842-14.767 3.482-22.21l.239-.12zm12.246 7.324c-3.281-1.882-5.562-5.524-6.802-10.926l-6.524 3.201c.441 7.524-.72 15.01-3.402 22.452-2.521 6.963-6.442 13.887-11.686 20.809-.08.122-.159.242-.239.361-2.722 4.122-4.563 8.04-5.483 11.765-.682 2.682-.92 5.285-.641 7.725.36 3.281 1.561 6.323 3.603 9.165 3.281 4.04 3.281 6.962 0 8.842-2.601.961-4.882-.239-6.924-3.561.6 3.402 2.041 5.924 4.323 7.564 8.125 1.041 12.606-1.76 13.406-8.443l2.602-23.893c1.521-13.286 7.444-25.491 17.768-36.578v-8.483" fill="#cd4339" stroke="#cd4339"/><path d="m96.97 52.6l-1.041-5.443-.239.12c.36 7.444-.801 14.847-3.484 22.21-2.559 7.04-6.482 14.05-11.804 21.01v-.041c-.08.12-.16.239-.241.36-2.68 4.04-4.443 7.884-5.361 11.525-.681 2.602-.881 5.084-.601 7.444.32 3.162 1.48 6.083 3.442 8.804v-.039c1.8 2.201 2.681 4.083 2.641 5.723.04 1.761-.921 3.202-2.882 4.322-.039 0-.08 0-.119.041-1.881.76-3.642.48-5.243-.762.52 1.042 1.2 1.922 2 2.682l5.804-1.721c1.88-1.52 2.639-3.24 2.279-5.122l-3.321-6.562c-5-8.444-3.762-17.328 3.762-26.653l6.603-10.928c4.683-8.683 7.284-17.648 7.804-26.972" fill="#da6d6e" stroke="#da6d6e"/><path d="m107.06 39.513l-1.481-1.283c.201 1.762.521 3.403.96 4.964 1.281 4.802 3.562 8.523 6.883 11.125 1.882 1.481 4.122 2.641 6.684 3.441l.8-.439c-6.402-1.842-11.01-7.765-13.846-17.809" fill="#fbc8b8" stroke="#fbc8b8"/><path d="m131.67 15.7c.24.361.48.681.721 1.042 5.801 8.04 12.965 15.01 21.49 20.809.241.162.48.321.681.522 3.241 2.6 5.443 6.282 6.523 11.04-.04-5-2.561-9.686-7.483-14.05-2.041-1.402-3.922-2.842-5.643-4.323-7.164-6.123-12.246-13.167-15.167-21.09-3.202-9.766-8.605-9.205-16.17 1.681 5.162-4.963 9.203-4.963 12.165 0 .921 1.481 1.881 2.961 2.882 4.361" fill="#cd4339" stroke="#cd4339"/><path d="m136.37 40.957c-.132.026-.27.046-.414.06-.289.027-.605.028-.95.003-1.722 7-6.697 12.26-13.301 15.901l-.8.401-.8.439c.44.121.88.24 1.36.361 3.523-1.121 6.443-2.841 8.805-5.163 2.641-2.682 4.482-6.084 5.563-10.286z" fill="#cb7054" stroke="#cb7054"/><path d="m129.99 54.44c.041-.121.041-.201.041-.321.08-.401.159-.8.239-1.16-2.361 2.322-5.282 4.04-8.805 5.163-.479-.121-.92-.24-1.36-.361-2.562-.8-4.802-1.961-6.684-3.441v1.201c.441.36.92.681 1.401 1 1.56 1 3.322 1.84 5.283 2.44.44.121.88.24 1.36.361 1.041-.321 2.041-.682 2.962-1.121.04-.041.08-.041.12-.08 2.042-.962 3.883-2.201 5.443-3.682" fill="#b96351" stroke="#b96351"/><path d="m88.968 52.798c1.32 3.202-.161 6.685-4.443 10.407-8.604 5.803-12.806 14.167-12.646 25.09l.76 5.762-1.681 2.721c.28-2 .36-4.162.2-6.482-.04-.48-.079-.961-.12-1.401v-.039c-.52-7.644 1-14.01 4.562-19.17 1.961-2.841 4.562-5.322 7.764-7.403.04-.039.04-.039.08-.039 3.842-3 5.683-6.164 5.524-9.447zm4.082-4.281c-1.642 1.481-3.283 2.762-4.924 3.882.28 3.202-1.44 6.284-5.203 9.205-3.321 2.162-5.962 4.683-7.963 7.604-3.722 5.322-5.283 11.886-4.722 19.729.04.481.08.961.12 1.401.32 4.683-.32 8.606-1.92 11.846l7.523-11.846c10.965-14.807 16.648-28.734 17.09-41.821" fill="#cd4339" stroke="#cd4339"/><path d="m88.968 52.798c.159 3.282-1.682 6.444-5.524 9.447-.04 0-.04 0-.08.039-3.202 2.081-5.802 4.562-7.764 7.403-3.562 5.164-5.082 11.527-4.562 19.17v.041c.04.44.08.921.12 1.401.16 2.321.08 4.482-.2 6.482l1.681-2.721-.76-5.762c-.16-10.925 4.04-19.289 12.646-25.09 4.282-3.723 5.763-7.205 4.443-10.407" fill="#da6d6e" stroke="#da6d6e"/><path d="m70.36 90.34c-.88.962-1.761 1.922-2.682 2.922-.159 1.08-.359 2.201-.639 3.281-1.161 4.562-3.362 8.964-6.524 13.247l6.443.842-12.287 11.364c-2.122-2.36-4.923-3.441-8.324-3.242 6.523 6.084 9.764 12.407 9.725 18.97.8 5.523 3.88 11.04 9.285 16.569l-1.96 3.882c.999-1.641 2.04-2.841 3.121-3.602 1.401-.92 2.921-1.08 4.482-.48.2-.08.44-.121.72-.121.04-.041.04-.041.081 0 .879-.08 2 .08 3.32.481 3.082 2.039 5.483 2.682 7.164 1.84l-7.204-3.041c-2.6-.72-5.084-.72-7.443 0l.359-.44c-4.201-4.322-7-9.725-8.404-16.248-.52-5.483-1.721-9.725-3.521-12.648l17.328-14.05c-.279-2.44-.041-5.04.641-7.725-3.241 4.363-6.883 6.405-10.845 6.123 2.241-1.56 3.962-3.52 5.162-5.882.04-.041.04-.121.081-.201 1.599-3.24 2.24-7.163 1.92-11.846" fill="#cb7054" stroke="#cb7054"/><path d="m46.35 118.75c3.401-.2 6.202.882 8.324 3.242l12.287-11.364-6.443-.842c3.162-4.282 5.363-8.685 6.524-13.247l-25.533 24.893c.479 7.364 4.201 14.247 11.166 20.611 4.281 5.322 7.364 10.405 9.244 15.167l2.081 6.402c1 .442 1.721.442 2.162 0v-3.16l9.564 3.842c.04-.039.08-.039.122-.08.439-.281.84-.681 1.2-1.201l-9.685-4-1.441-.601c1.161-1.24 2.281-1.681 3.442-1.279l10.366 3.201c.2-.281.4-.641.56-1.042l-8.483-4.841c-.281-.16-.522-.281-.801-.36-1.561-.601-3.081-.44-4.482.48-1.081.761-2.122 1.961-3.121 3.602l1.96-3.882c-5.404-5.524-8.484-11.05-9.285-16.569.039-6.562-3.202-12.886-9.725-18.97" fill="#f9b291" stroke="#f9b291"/><path d="m93.49 108.31c-.2 1.761-.361 3.562-.48 5.363 3.282 3.562 6.803 5.04 10.565 4.443-4.201-1.921-7.564-5.204-10.08-9.805" fill="#ad3828" stroke="#ad3828"/><path d="m76.12 164.98l.161-.079c-.04.039-.079.039-.079.079-.041 0-.041 0-.082 0zm-8.764.281l1.04-1.242c.52.281 1 .522 1.481.721l-5.202 6.363 1.52 5.164c-.92-.162-1.801-.321-2.721-.442l-1.361-4.322 5.242-6.243zm24.17-35.538l1.081 2.921c-1.961 4.924-4.803 9.606-8.525 14.05l-1.521-.28c4.04-4.844 7.04-10.405 8.965-16.688zm-.481-1.24c-.038 0-.038 0 0 0-1.999 7.084-5.322 13.206-10 18.45l4.322.799c-.159 2.761-1.76 3.842-4.762 3.162l-4.203-.52c.281.159.602.361.882.601l6.323 4.122c-.321.44-.682.8-1.123 1.08-.079.039-.158.08-.199.12-1.681.842-4.082.2-7.164-1.84-1.32-.401-2.441-.561-3.32-.481v.481l8.483 4.841c-.16.401-.36.761-.561 1.042-1 1.159-2.642 1.121-4.921-.08l-5.203-1.762-2.242.52 9.685 4c-.36.52-.76.92-1.2 1.201l-.042.12-.081-.039-9.563-3.842v3.16c-.441.442-1.161.442-2.162 0-.361-.198-.72-.398-1.121-.64.36.442.76.802 1.281 1.081.68.401 1.56.641 2.561.681h.041-.041l-5.523 6.562 1.64 5.204c26.293 4.322 51.03 5.04 74.12 2.201-9.204-13.728-10.525-27.494-3.962-41.22 5.404-5.04 8.284-10.324 8.604-15.888-.28.039-.6.122-.919.201l-9.806.56c7-1.08 12.247-4.242 15.689-9.405-5-7.324-7.444-17.968-7.324-31.937-3.241 5.363-8.644 10.205-16.207 14.569-7.164-3.322-13.01-10.646-17.529-21.972-2.281 3.081-4.122 6.564-5.564 10.365-3.281 7.485-5.443 15.567-6.442 24.332 2.521 4.602 5.884 7.884 10.08 9.805-3.761.601-7.283-.88-10.565-4.443.68 6.323.04 11.247-1.963 14.808" fill="#da5337" stroke="#da5337"/><g fill="#e9968d" stroke="#e9968d"><path d="m92.61 132.64l-1.081-2.921c-1.921 6.284-4.923 11.845-8.965 16.688l1.521.28c3.721-4.441 6.563-9.123 8.525-14.05"/><path d="m67.36 165.26l-5.242 6.243 1.361 4.322c.92.121 1.801.28 2.721.442l-1.52-5.164 5.202-6.363c-.48-.2-.961-.44-1.481-.721l-1.04 1.242"/></g><path d="m67.04 96.54c.28-1.08.48-2.201.639-3.281-8.564 9.125-18.01 18.249-28.373 27.414.08 8.205 4.242 15.968 12.445 23.331 4.723 4.762 8 9.966 9.886 15.569.16 1.399.56 2.561 1.24 3.401.4.242.76.442 1.121.64l-2.081-6.402c-1.881-4.762-4.963-9.845-9.244-15.167-6.965-6.364-10.686-13.247-11.166-20.611l25.533-24.893" fill="#fbc8b8" stroke="#fbc8b8"/><path d="m131.51 66.25c-.4-.121-.8-.24-1.241-.361-.76-3.802-.88-7.644-.28-11.445-1.561 1.481-3.401 2.72-5.443 3.682-.04.039-.08.039-.12.08l1.08 9.365 7.805 5.402c-1.321 7.084-4.844 13.01-10.645 17.728.158.121.32.201.519.321 7.884-5 13.487-11.805 16.849-20.41-.601-.52-1.241-.961-1.921-1.401-1.921-1.24-4.122-2.201-6.603-2.961" fill="#cb7054" stroke="#cb7054"/><path d="m142.4 72.888c-.722-.84-1.522-1.599-2.362-2.28-3.362 8.604-8.965 15.407-16.849 20.41-.2-.12-.361-.2-.519-.321-5.924-3.481-10.606-9.523-14.05-18.13-.239-.679-.479-1.321-.721-2-.839.961-1.64 1.961-2.4 3.042 4.522 11.326 10.365 18.65 17.529 21.972 7.563-4.364 12.966-9.206 16.207-14.569 1.56-2.6 2.602-5.282 3.162-8.125" fill="#7e1e1a" stroke="#7e1e1a"/><path d="m142.4 72.888c-.56 2.842-1.602 5.524-3.162 8.125-.12 13.968 2.32 24.612 7.324 31.937-3.442 5.163-8.685 8.324-15.689 9.405l9.806-.56c.32-.082.64-.162.92-.201-.321 5.564-3.2 10.846-8.604 15.888-6.563 13.728-5.242 27.494 3.962 41.22-23.09 2.84-47.824 2.121-74.12-2.201 21.851 5.202 45.904 8.644 72.12 10.324 1.522.121 3.041.201 4.603.281l6.203-5.403c-7.885-15.688-9.04-30.17-3.563-43.46 5.443-7.324 8.565-14.248 9.365-20.81.081-.72.12-1.442.16-2.162.481-.682.881-1.402 1.241-2.162-3.081-6.724-5.122-16.97-6.083-30.776-.76-3.721-2.282-6.883-4.482-9.445" fill="#ad3828" stroke="#ad3828"/><path d="m124.43 58.2c-.92.439-1.921.8-2.962 1.121-.479-.121-.92-.24-1.36-.361-1.961-.601-3.723-1.44-5.283-2.44v9.644c-2.762 2.322-4.803 4.443-6.204 6.403 3.442 8.606 8.123 14.648 14.05 18.13 5.802-4.723 9.325-10.644 10.645-17.728l-7.805-5.402-1.08-9.365" fill="#f9b291" stroke="#f9b291"/><g fill="#fbc8b8" stroke="#fbc8b8"><path d="m114.82 56.52c-.481-.321-.96-.641-1.401-1v9.805c-1.52 1.2-2.96 2.481-4.281 3.882-.441.44-.841.92-1.242 1.36.241.681.481 1.322.721 2 1.401-1.961 3.442-4.081 6.204-6.403v-9.644"/><path d="m155.44 123.71c-1.12-.92-2.12-1.961-3.042-3.2l4.683 16.769c-3.161 8.763-2.241 18.248 2.761 28.414 2.521 8.164 3.401 15.928 2.64 23.332l-4.682 4.201-2.722 19.17c.161.082.32.162.441.24 0 0 0 0 .04 0 0 0 .041 0 .08 0l3.641-18.729 4.723-4.201c.921-8.285.039-16.65-2.642-25.17-4.522-9.804-5.202-18.609-2.081-26.492l-3.841-14.328"/></g><path d="m108.34 193.23c-.8-.039-1.6-.12-2.362-.159-1.08 3.321-2.16 6.683-3.24 10l5.602-9.845" fill="#716d69" stroke="#716d69"/><path d="m105.98 193.07c.762.039 1.561.12 2.362.159 9.564.561 19.61.321 30.06-.761.88-.079 1.761-.159 2.64-.28l-1.48-5.081c-1.562-.08-3.081-.16-4.603-.281v3.042c-24.17 1.08-48.624-1.802-73.32-8.724l-.32 1.2c.84.36 1.722.72 2.561 1.08 12.926 5.325 26.974 8.524 42.1 9.646" fill="#391012" stroke="#391012"/><g fill="#b1afac" stroke="#b1afac"><path d="m108.34 193.23l-5.602 9.845h26.533c17.408 29.574 28.894 57.87 34.457 84.963l-1.081 20.732 2.721-7.285 11.807 75.8 1.962 4.322-2.562 3.723 2.36 6.282-15.726.962c.36.2.72.359 1.08.56.962.48 1.921.92 2.882 1.321 5.763 2.321 11.326 2.921 16.688 1.841.44-.08.84-.16 1.28-.28.961-.28 1.921-.56 2.842-.921l-1.882-11.966-1.041-1.481 1.081-3.361-1.522-1.681c-.28-1.162-.519-2.281-.76-3.443-6.363-29.25-11.09-57.989-14.167-86.2l1.079-4.163c-8.123-31.02-18.928-61.15-32.374-90.33-10.446 1.081-20.492 1.322-30.06.761"/><path d="m102.74 203.07c1.08-3.321 2.16-6.683 3.24-10-15.13-1.122-29.17-4.322-42.1-9.646-.241 1.641-.441 3.282-.601 4.963l30.1 9.925-20.49 88.68c-1.721 3.242-3.722 4.363-5.963 3.361 1.441 2.883 3.041 4.363 4.842 4.402 3.882 16.209 5.322 32.22 4.323 47.985-.281 12.447 1.561 24.573 5.523 36.3l-1.401 3.761 3.721 7.444c-3.801 3.561-8.763 4.441-14.927 2.72.841.602 1.681 1.122 2.522 1.602 5.964 3.322 11.125 3.163 15.528-.52 1.08-.92 2.161-2.041 3.161-3.402l-3.802-9.204 1.28-3.803c-3.48-7.642-5.16-20.611-5.04-38.819 1.561-19.891-.119-35.938-5-48.14.68-.88 1.36-1.882 2.04-3.041 6.443-28.575 14.13-56.75 23.05-84.56"/></g><path d="m134.95 189.87v-3.042c-26.21-1.681-50.27-5.122-72.12-10.324l-1.2 4.643c24.693 6.922 49.14 9.804 73.32 8.724" fill="#7e1e1a" stroke="#7e1e1a"/><path d="m157.6 208.32c-.159 2.841-.799 4.282-1.96 4.322-.04 0-.08 0-.08 0 0 0 .041 0 .08.041 2.681 1.321 3.962-.601 3.762-5.762.04-3.083.84-5 2.442-5.804l-1.281-1.561c-1.321.921-2.322 3.842-2.963 8.765" fill="#cb7054" stroke="#cb7054"/><path d="m104.14 203.87h2.641c17.489 28.22 32.777 56.27 45.823 84.2-1.841 1.961-1.64 3.681.641 5.243-3.482 15.687-1.441 30.814 6.202 45.34 6.524 11.645 9.285 25.892 8.325 42.741l1.88 3.361-2.721 6.763-2.6.16 2.16-6.642c.039-.2.039-.36 0-.52l-1.16-2.922c2.602-11.405.519-24.01-6.203-37.858 0-.041 0-.041 0-.082-10.126-17.847-12.606-34.26-7.524-49.26.041-.201.041-.401-.04-.602-.079-.198-.201-.319-.399-.399-1.401-.601-2.241-1.24-2.522-1.961-.16-.679.201-1.481 1.121-2.402.121-.12.159-.28.2-.44.04-.16 0-.319-.08-.439-13.727-28.25-28.976-56.35-45.744-84.28zm25.13-.8h-26.533c17.01 28.3 32.495 56.789 46.42 85.4-2.281 2.36-1.721 4.24 1.681 5.642-5.203 15.248-2.682 31.896 7.562 49.944 6.684 13.766 8.685 26.294 6.084 37.579l1.24 3.162-2.52 7.765 15.728-.962-2.361-6.282 2.562-3.723-1.962-4.322-11.807-75.8-2.721 7.285 1.081-20.732c-5.563-27.09-17.05-55.39-34.457-84.963" fill="#d7d6d2" stroke="#d7d6d2"/><path d="m106.78 203.87h-2.641c16.768 27.935 32.02 56.03 45.744 84.28.08.12.119.279.08.439-.041.16-.08.321-.2.44-.92.921-1.281 1.723-1.121 2.402.281.72 1.121 1.36 2.522 1.961.199.08.32.201.399.399.081.201.081.401.04.602-5.082 15.01-2.602 31.416 7.524 49.26 0 .041 0 .041 0 .082 6.723 13.846 8.805 26.453 6.203 37.858l1.16 2.922c.039.16.039.321 0 .52l-2.16 6.642 2.6-.16 2.721-6.763-1.88-3.361c.961-16.849-1.8-31.1-8.325-42.741-7.643-14.528-9.684-29.655-6.202-45.34-2.281-1.562-2.482-3.282-.641-5.243-13.05-27.935-28.334-55.989-45.823-84.2" fill="#f0edec" stroke="#f0edec"/><path d="m85.37 147.73c-1 .679-2.48 1.08-4.441 1.201-3.282.039-6.364-.08-9.286-.44l-2.16 2.602c1.92-2.202 4.241-2.441 6.922-.721l4.203.52c3 .681 4.603-.401 4.762-3.162" fill="#cb7054" stroke="#cb7054"/><g fill="#f9b291" stroke="#f9b291"><path d="m80.924 148.93c1.961-.121 3.442-.522 4.441-1.201l-4.322-.799-3.602-.723c-2.201-.439-3.762-.08-4.762 1.042l-1.041 1.24c2.922.36 6 .48 9.286.44"/><path d="m67.64 153.25c2.36-.72 4.843-.72 7.443 0l7.204 3.041c.041-.039.12-.08.199-.12.441-.28.801-.64 1.123-1.08l-6.323-4.122c-.28-.239-.601-.442-.882-.601-2.682-1.72-5-1.481-6.922.721l-1.481 1.72-.359.44"/></g><path d="m71.8 153.97c-.042-.041-.042-.041-.081 0l.081.481v-.481" fill="#ef3727" stroke="#ef3727"/><path d="m71.8 154.45l-.081-.481c-.28 0-.52.041-.72.121.28.079.52.2.801.36" fill="#da5337" stroke="#da5337"/><path d="m69.36 157.13c-1.161-.401-2.281.038-3.442 1.279l1.441.601 2.242-.52 5.203 1.762c2.279 1.201 3.921 1.239 4.921.08l-10.367-3.201h.002" fill="#cb7054" stroke="#cb7054"/><path d="m63.955 189.47l2.523.841c-1.802 12.286-1.802 26.574 0 42.861 1.519 15.728 1.519 31.3 0 46.744l-1.522.8 2.72 3.361-2.24 1.121 1.921 2.081-3.522 4.441c-4.923 16.888-3.482 38.54 4.322 64.953l4 12.606-2.241 6.083 2.881 3.842-.599 13.648c-.761-.12-1.561-.28-2.402-.48v-12.849c0-.2-.04-.36-.16-.478l-2.441-3 2.562-6.725c.04-.2.04-.359 0-.519-12.366-37.18-14.13-64.51-5.283-82.08.079-.16.12-.321.079-.52-.04-.2-.16-.319-.28-.442l-1.321-1.039 1.481-1.08c.12-.08.2-.2.28-.321.04-.12.08-.28.04-.399-.04-.16-.081-.281-.16-.401l-1.801-2.242 1.519-1c.121-.08.2-.16.281-.281.04-.118.079-.2.079-.319.88-13.926.88-28.934 0-45.02v-.042c-1.801-16.286-2.041-30.975-.72-44.14zm29.415 8.845l-30.1-9.925c-1.48 13.447-1.281 28.534.601 45.3.881 16.05.881 31.02 0 44.903l-2.241 1.48 2.321 2.921-2.321 1.682 2.121 1.679c-8.964 17.73-7.204 45.26 5.242 82.68l-2.722 7.164 2.722 3.321v13.447c6.164 1.721 11.126.841 14.927-2.72l-3.721-7.444 1.401-3.761c-3.962-11.727-5.804-23.853-5.523-36.3.999-15.767-.44-31.776-4.323-47.985-1.801-.038-3.401-1.519-4.842-4.402 2.241 1 4.242-.12 5.963-3.361l20.49-88.68" fill="#d7d6d2" stroke="#d7d6d2"/><path d="m66.48 190.31l-2.523-.841c-1.321 13.167-1.081 27.855.721 44.14v.042c.879 16.09.879 31.1 0 45.02 0 .118-.04.2-.08.318-.081.121-.161.201-.281.281l-1.519 1 1.801 2.242c.08.12.12.24.16.401.041.12 0 .28-.04.399-.08.121-.16.24-.28.321l-1.481 1.08 1.321 1.039c.12.122.239.242.28.442.041.2 0 .36-.079.52-8.844 17.569-7.084 44.902 5.283 82.08.04.16.04.319 0 .519l-2.562 6.725 2.441 3c.121.118.16.279.16.478v12.849c.841.2 1.641.36 2.402.48l.599-13.648-2.881-3.842 2.241-6.083-4-12.606c-7.804-26.414-9.245-48.07-4.322-64.953l3.522-4.441-1.921-2.081 2.24-1.121-2.72-3.361 1.522-.8c1.519-15.448 1.519-31.02 0-46.744-1.802-16.288-1.802-30.575 0-42.861" fill="#f0edec" stroke="#f0edec"/><g fill="#cb7054" stroke="#cb7054"><path d="m169.17 211.04c.319-1.48.52-3.242.64-5.202l-2 2.52c-.12 4.083-1.16 7.324-3.122 9.686 2.202-.961 3.683-3.281 4.484-7"/><path d="m166.49 203.76l-1.84 3.762c-.442 5.922-2.121 10.925-5.04 15.05.441.039 1.161-.28 2.161-.961.601-.762 1.122-1.602 1.602-2.522.12-.24.279-.481.399-.761 1.641-3.641 2.561-8.485 2.721-14.567"/></g><path d="m169.73 407.02c.8-2.761.36-6.084-1.281-9.925-.359-.84-.8-1.721-1.28-2.641-.961-.401-1.92-.841-2.882-1.321l-2.121 6.763 4.643 31.498h3.322l-1.641-22.452c6.443 5.88 9.845 14.366 10.206 25.37 1.8.283 3.52.442 5.162.561 3.481.201 6.483 0 9.01-.602 2.681-.637 4.842-1.717 6.482-3.2-1.159-4.04-3.321-7.485-6.482-10.326-1.162-1.041-2.482-2-3.924-2.88-1.56-.122-3.281-.16-5.081-.122-1.721.042-3.562.204-5.523.402-.28-.64-.56-1.281-.88-1.882-1.8-3.482-4.402-6.562-7.724-9.244" fill="#7e1e1a" stroke="#7e1e1a"/><path d="m168.45 397.09c1.641 3.841 2.081 7.164 1.281 9.925 3.322 2.682 5.924 5.762 7.724 9.244l11.09-.12c-2.083-2.042-3.643-4.201-4.683-6.524-1.24-2.761-1.681-5.762-1.401-8.964l-14.01-3.561" fill="#f9b291" stroke="#f9b291"/><path d="m167.17 394.45c.48.92.921 1.802 1.28 2.641l14.01 3.561c-.28 3.202.16 6.204 1.401 8.964 1.041 2.323 2.6 4.482 4.683 6.524l-11.09.12c.321.601.601 1.242.88 1.882 1.961-.198 3.802-.36 5.523-.402 1.8-.038 3.522 0 5.081.122 1.402.118 2.682.318 3.924.601.039 0 .08 0 .12.038-.039-.079-.08-.16-.12-.197-4.564-7.206-7.125-14.649-7.725-22.293-.44.12-.84.2-1.28.28-5.363 1.08-10.925.48-16.688-1.841" fill="#cb7054" stroke="#cb7054"/><path d="m183.86 434.87c-1.641-.12-3.361-.279-5.162-.561.039.681.039 1.401.039 2.121 1.72.762 3.441 1.402 5.122 1.922 3.121.919 6.123 1.36 9.01 1.321 4.201-.039 8.204-1.122 11.925-3.243.841-9.924-3.081-15.887-11.805-17.929-.039-.038-.08-.038-.121-.038-1.24-.283-2.52-.482-3.922-.601 1.441.88 2.762 1.84 3.922 2.88 3.163 2.841 5.325 6.284 6.483 10.326-1.64 1.482-3.802 2.562-6.483 3.2-2.52.602-5.523.803-9 .602" fill="#491314" stroke="#491314"/><path d="m71.52 394.57l-.2 4.243 13.01 1.041 1.761 11.766c-6.082-.201-11.245.8-15.527 3l-.08 1.44c4.362-1.52 9.324-1.92 14.808-1.158 1.919.239 3.921.637 5.962 1.158l-4.202-22.01c-4.403 3.683-9.564 3.842-15.528.52" fill="#cb7054" stroke="#cb7054"/><path d="m84.32 399.86l-13.01-1.041-.761 15.807c4.282-2.2 9.445-3.201 15.527-3l-1.761-11.766" fill="#f9b291" stroke="#f9b291"/><path d="m91.25 416.06c-2.041-.52-4.04-.919-5.962-1.158 2.76 6 3.281 11.604 1.559 16.807l-13.686 2.803c.559.879 1.2 1.719 1.921 2.519l15.328-.84c3.962-6.164 4.242-12.886.84-20.13" fill="#491314" stroke="#491314"/><path d="m70.48 416.06c-1.681 7.085-.801 13.247 2.682 18.452l13.686-2.803c1.722-5.202 1.201-10.804-1.559-16.807-5.484-.762-10.447-.363-14.808 1.158" fill="#7e1e1a" stroke="#7e1e1a"/><path d="m116.34 11.619c-.081.041-.721.399-1.961 1.121-1.241.681-3.041 1.88-5.363 3.522-2.802 5.364-4.122 11.246-3.921 17.608.16-.28.321-.519.48-.8 1.481-5.523 4-10.846 7.524-15.928 5.963-.44 11.886.92 17.689 4 3.402 4.123 4.437 13.221 4.737 16.703-.086 2.123-.521 3.175-.521 3.175.653.055.812.042 1.364-.063 0 0 .426-1.37.619-4 .04-.641-.007-1.123-.007-1.324-.079-3.52.171-7.163-1.11-10.884-.92-2.602-2.12-5.243-3.601-7.924-.04-.041-.04-.08-.04-.121-5-3.322-10.205-5-15.607-5h-.041c-.121-.079-.2-.118-.24-.079" fill="#cb7054" stroke="#cb7054"/></g></svg>