<svg xmlns="http://www.w3.org/2000/svg" viewBox="0 0 242.00001 440"><path d="m105.58 33.07c-.159.281-.32.52-.48.8" fill="#f9b291"/><path d="m113.18 34.869c-.161 0-.28-.079-.36-.198-.2-.121-.28-.24-.28-.442 0-.12.08-.28.28-.44 0-.039 0-.039.04-.039.321.039.641.12.921.28.04.039.08.08.08.2 0 .201-.08.321-.239.442-.121.12-.242.198-.441.198m-.681-.959c-.241.159-.36.399-.36.72 0 .28.12.481.36.681.2.201.439.319.681.319.279 0 .519-.118.719-.319.201-.2.321-.401.321-.681 0-.2-.04-.401-.16-.561.321.121.64.24.92.401.601.36 1.202.761 1.801 1.24.041.041.081.041.12.041-.719-.8-1.44-1.441-2.16-1.962-.721-.439-1.481-.8-2.241-1-1.241-.36-2.561-.399-3.962-.08l-1.48-.2 2.28 2.121v-.041l.562.122c.04-.442.241-.802.52-1.081.28-.041.6-.041.88-.041.44 0 .92.041 1.4.121-.08.039-.16.079-.2.2" fill="#231f20"/><path d="m112.82 34.671c.08.12.2.198.36.198.199 0 .32-.079.441-.198.159-.121.239-.24.239-.442 0-.12-.04-.16-.08-.2-.28-.16-.6-.24-.921-.28-.04 0-.04 0-.04.039-.2.16-.28.321-.28.44 0 .201.08.321.28.442" fill="#fff"/><path d="m112.14 34.63c0-.321.12-.561.36-.72.04-.121.12-.16.2-.2-.48-.08-.96-.121-1.4-.121-.28.36-.441.761-.441 1.24 0 .561.202 1.041.601 1.441.4.401.88.599 1.48.599.562 0 1.041-.198 1.482-.599.4-.401.599-.88.599-1.441 0-.118 0-.24-.04-.36-.28-.16-.6-.28-.92-.401.121.16.16.361.16.561 0 .28-.12.481-.321.681-.2.201-.44.319-.719.319-.241 0-.481-.118-.681-.319-.24-.2-.36-.401-.36-.681" fill="#942b2c"/><path d="m114.98 34.47c.04.12.04.242.04.36 0 .561-.199 1.041-.599 1.441-.44.401-.92.599-1.482.599-.601 0-1.08-.198-1.48-.599-.399-.401-.601-.88-.601-1.441 0-.48.161-.88.441-1.24-.28 0-.601 0-.88.041-.28.28-.48.64-.52 1.081-.04.079-.04.158-.04.198-.162 1.921 1.201 3.163 4.04 3.762 1.161-.52 2.121-1.481 2.882-2.962-.598-.48-1.2-.88-1.801-1.24" fill="#fff"/><path d="m109.86 34.91c0-.041 0-.12.04-.198l-.562-.122v.041c-.039 2.723 1.642 4.083 5.084 4.122-.201-.039-.361-.08-.522-.08-2.84-.599-4.202-1.841-4.04-3.762" fill="#b96351"/><path d="m116.9 35.751c-.039 0-.08 0-.12-.041-.76 1.481-1.721 2.441-2.882 2.962.161 0 .321.041.522.08 1.24-.64 2.12-1.602 2.6-2.882v-.039c-.04 0-.04 0-.08-.041-.04 0-.04 0-.04-.039" fill="#d3d2d2"/><path d="m126.79 34.31v.321c0 .52.2 1 .6 1.44.44.401.92.602 1.521.602.559 0 1.041-.201 1.441-.602.4-.44.601-.92.601-1.44 0-.48-.161-.92-.442-1.28-.479 0-.959.039-1.4.12.08.039.121.12.161.2.239.2.359.44.359.721 0 .28-.12.519-.359.681-.201.239-.401.36-.68.36-.281 0-.522-.121-.722-.36-.2-.162-.278-.401-.278-.681 0-.201.039-.361.159-.481-.321.08-.641.2-.96.399" fill="#942b2c"/><path d="m126.79 34.63v-.321c-.601.28-1.2.641-1.801 1.162.8 1.48 1.76 2.441 2.921 2.962 2.842-.601 4.203-1.842 4.04-3.762 0-.041 0-.121-.041-.201-.08-.36-.24-.72-.52-1.08-.28-.039-.6-.039-.881-.039.281.36.442.8.442 1.28 0 .52-.201 1-.601 1.44-.4.401-.881.602-1.441.602-.601 0-1.081-.201-1.521-.602-.4-.44-.6-.92-.6-1.44" fill="#fff"/><path d="m124.79 35.63v.041c.441 1.28 1.32 2.242 2.601 2.842.16-.041.32-.08.52-.08-1.161-.52-2.12-1.482-2.921-2.962-.041.041-.121.079-.201.159" fill="#d3d2d2"/><path d="m128.95 33.509c.04.041.04.041.08.08.159.121.24.28.24.44 0 .2-.082.321-.24.401-.08.12-.241.2-.44.2-.162 0-.281-.08-.402-.2-.16-.08-.239-.201-.239-.401 0-.08.041-.16.079-.24.28-.12.601-.239.921-.28m-4.163 2.121c.08-.08.16-.118.201-.159.601-.52 1.2-.882 1.801-1.162.32-.2.64-.319.96-.399-.12.12-.159.28-.159.481 0 .28.079.519.278.681.201.239.441.36.722.36.279 0 .479-.121.68-.36.239-.162.359-.401.359-.681 0-.281-.12-.522-.359-.721-.041-.08-.082-.16-.161-.2.441-.08.921-.12 1.4-.12.281 0 .601 0 .881.039.281.36.44.72.52 1.08l.56-.079 2.282-2.121-1.521.239c-1.4-.36-2.721-.319-3.96.039-.762.24-1.481.601-2.202 1.041-.8.52-1.561 1.201-2.281 2.041" fill="#231f20"/><path d="m129.03 33.589c-.041-.039-.041-.039-.08-.08-.32.041-.641.16-.921.28-.039.08-.079.16-.079.24 0 .2.079.321.239.401.121.12.24.2.402.2.199 0 .36-.08.44-.2.159-.08.24-.201.24-.401 0-.16-.082-.319-.24-.44" fill="#fff"/><path d="m132.47 34.391l-.56.079c.041.08.041.16.041.201.16 1.92-1.201 3.162-4.04 3.762-.2 0-.36.039-.52.08 3.442-.041 5.122-1.402 5.082-4.122" fill="#b96351"/></svg>