<svg xmlns="http://www.w3.org/2000/svg" viewBox="0 0 242.00001 440"><path d="m160.92 51.32c.119-.761.159-1.481.159-2.201-1.08-4.762-3.282-8.444-6.523-11.04-.2-.201-.439-.36-.681-.522-8.524-5.803-15.688-12.766-21.49-20.809-.241-.361-.481-.681-.721-1.042.2.321.361.641.561 1 0 .041 0 .08.04.121 1.481 2.681 2.681 5.322 3.601 7.924l16.969 15.847c3.763 2.803 5.163 8.364 4.163 16.688-1.121 7.804-.282 13.407 2.521 16.887l3.881 4.804c.44 0 .921 0 1.401-.039 1.72-.121 3.282-.52 4.682-1.201-5-.841-8.204-3.681-9.524-8.524-1.201-4.363-.881-10.324.961-17.889" fill="#942b2c"/><path d="m161.57 77.973l-.041.039c-.681-.28-1.321-.599-1.922-.961-2.882-1.721-5.363-4.482-7.404-8.204-3.082-5.562-5.322-13.286-6.723-23.13-.441-3.481-2.241-6.602-5.403-9.364h.041c-.121-.12-.241-.2-.36-.281v-.039c-.36-.28-.681-.519-1.04-.8-.04-.601-.04-1.162-.081-1.721l5.963 5.564c2.282 3.561 3.362 7 3.163 10.246.999 7.524 3.8 15.206 8.403 23.09l2.322 1.72c.12.2.28.36.44.561zm-.202.84c.281.039.521.039.8.08.401.041.801.041 1.241.08l-3.881-4.804c-2.803-3.48-3.642-9.08-2.521-16.887.999-8.324-.4-13.885-4.162-16.688l-16.97-15.847c1.281 3.721 1.031 7.364 1.11 10.884.442.321 1.812.681 2.252 1.042.121.079.2.159.321.279 3 2.602 4.722 5.564 5.122 8.845 1.401 9.966 3.681 17.77 6.804 23.412 2.161 3.882 4.722 6.723 7.724 8.524.68.401 1.4.76 2.161 1.08" fill="#cd4339"/><path d="m161.52 78.01l.041-.039-2.642-3.281c-.16-.201-.32-.361-.44-.561l-2.322-1.72c-4.603-7.886-7.404-15.567-8.403-23.09.199-3.243-.881-6.685-3.163-10.246l-5.963-5.564c.041.56.041 1.121.081 1.721.36.281.68.52 1.04.8v.039c.119.081.239.162.36.281h-.041c3.163 2.762 4.962 5.883 5.403 9.364 1.401 9.846 3.641 17.57 6.723 23.13 2.04 3.721 4.522 6.482 7.404 8.204.601.361 1.241.681 1.922.961" fill="#da6d6e"/><path d="m131.95 4.056c2.041 2.84 3.6 5.842 4.682 8.963 2.441 4.603 5.322 8.364 8.644 11.286-.88-8.04-4.923-15.408-12.166-22.09-5.323-2.841-9.566-2.481-12.727 1.08-.84.92-1.642 2.081-2.322 3.482l4.682-4.281c2.882-2.282 5.964-1.762 9.206 1.561" fill="#cd4339"/><path d="m136.63 13.02c-1.082-3.121-2.641-6.123-4.682-8.963-3.242-3.323-6.324-3.844-9.206-1.561l-4.682 4.281c.68-1.401 1.481-2.562 2.322-3.482-.761-.12-1.52-.159-2.241-.12-2.042 2.441-3.362 4.841-3.923 7.284-7.644 4.402-13.566 9.205-17.768 14.448-.521 1.28-1.041 2.6-1.561 4 3.562-4 7.443-7.602 11.606-10.804l-3.642 16.248c-7.364 8.964-14.728 15.528-22.05 19.729-1 .922-2 1.842-3.081 2.681l.28.321c3.442-.879 6.803-2.44 10.125-4.682 1.64-1.12 3.282-2.401 4.924-3.882l1.8-1.761 6.524-3.201 2.773-1.494c-.872-1.495-1.185-3.433-1.332-4.829.76-1.08 1.52-2.201 2.281-3.363-.2-6.363 1.12-12.246 3.921-17.608 2.322-1.641 4.122-2.841 5.363-3.522 1.24-.721 1.881-1.08 1.961-1.121.039-.039.119 0 .24.079h.04v-.359c7.563-10.886 12.967-11.447 16.17-1.681 2.922 7.924 8 14.967 15.167 21.09-.041-1.561-.12-3.042-.24-4.482-.8-7.163-3.482-13.607-8-19.37-2.361-2.039-4.563-3.602-6.604-4.682 7.244 6.683 11.287 14.05 12.165 22.09-3.321-2.922-6.202-6.683-8.643-11.286" fill="#942b2c"/><path d="m116.62 11.339v.359c5.402 0 10.605 1.682 15.607 5-.2-.36-.361-.681-.561-1-1-1.401-1.961-2.88-2.882-4.361-2.962-4.963-7-4.963-12.165 0" fill="#71322f"/><path d="m116.34 4.135c-.281.401-.561.8-.8 1.24l-5.963 3.162c-2.442 1.962-4.924 5.083-7.365 9.365-1.04.879-2.04 1.8-2.961 2.721 4.882-9.966 10.566-15.487 17.09-16.489m-2.122 6.323c.561-2.443 1.88-4.842 3.923-7.284-8.564.2-15.809 7.443-21.691 21.732 4.202-5.243 10.125-10.05 17.768-14.448" fill="#cd4339"/><path d="m115.54 5.376c.239-.44.52-.84.8-1.24-6.523 1-12.206 6.523-17.09 16.489.921-.921 1.921-1.842 2.961-2.721 2.441-4.282 4.923-7.403 7.365-9.365l5.963-3.162" fill="#da6d6e"/><g fill="#f9b291"><path d="m105.58 33.07c-.159.281-.32.52-.48.8"/><path d="m135.53 37.845c-.601-6.963-1.336-12.579-4.737-16.703-5.802-3.081-11.727-4.441-17.689-4-3.521 5.081-6.04 10.405-7.524 15.928l-.48.8.48 4.361 1.481 1.283c2.841 10.04 7.444 15.967 13.846 17.809l.8-.401c6.604-3.643 11.579-8.898 13.301-15.901.478-.936.521-3.175.521-3.175"/></g><path d="m104.5 23.385l-7.803 6.844c-1.321 5.963-3.803 11.606-7.404 16.929-.201.12-.36.28-.522.44-1.081.88-2.2 1.721-3.281 2.481 4.523-5.683 7.884-12.607 10.165-20.77 2.962-3.361 6.163-6.405 9.565-9.165l-.72 3.242m-1.64 10.966l3.642-16.248c-4.163 3.202-8.04 6.804-11.606 10.804-2.842 10.445-7.565 18.811-14.09 25.17 7.324-4.201 14.688-10.765 22.05-19.729" fill="#cd4339"/><path d="m96.69 30.23l7.803-6.844.72-3.242c-3.402 2.761-6.603 5.804-9.565 9.165-2.281 8.163-5.643 15.09-10.165 20.77 1.081-.76 2.2-1.601 3.281-2.481.161-.16.32-.321.522-.44 3.601-5.323 6.083-10.966 7.404-16.929" fill="#da6d6e"/><path d="m107.06 39.513l-1.481-1.283c.201 1.762.521 3.403.96 4.964 1.281 4.802 3.562 8.523 6.883 11.125 1.882 1.481 4.122 2.641 6.684 3.441l.8-.439c-6.402-1.842-11.01-7.765-13.846-17.809" fill="#fbc8b8"/><path d="m131.67 15.7c.24.361.48.681.721 1.042 5.801 8.04 12.965 15.01 21.49 20.809.241.162.48.321.681.522 3.241 2.6 5.443 6.282 6.523 11.04-.04-5-2.561-9.686-7.483-14.05-2.041-1.402-3.922-2.842-5.643-4.323-7.164-6.123-12.246-13.167-15.167-21.09-3.202-9.766-8.605-9.205-16.17 1.681 5.162-4.963 9.203-4.963 12.165 0 .921 1.481 1.881 2.961 2.882 4.361" fill="#cd4339"/><g fill="#cb7054"><path d="m136.37 40.957c-.132.026-.27.046-.414.06-.289.027-.605.028-.95.003-1.722 7-6.697 12.26-13.301 15.901l-.8.401-.8.439c.44.121.88.24 1.36.361 3.523-1.121 6.443-2.841 8.805-5.163 2.641-2.682 4.482-6.084 5.563-10.286z"/><path d="m116.34 11.619c-.081.041-.721.399-1.961 1.121-1.241.681-3.041 1.88-5.363 3.522-2.802 5.364-4.122 11.246-3.921 17.608.16-.28.321-.519.48-.8 1.481-5.523 4-10.846 7.524-15.928 5.963-.44 11.886.92 17.689 4 3.402 4.123 4.437 13.221 4.737 16.703-.086 2.123-.521 3.175-.521 3.175.653.055.812.042 1.364-.063 0 0 .426-1.37.619-4 .04-.641-.007-1.123-.007-1.324-.079-3.52.171-7.163-1.11-10.884-.92-2.602-2.12-5.243-3.601-7.924-.04-.041-.04-.08-.04-.121-5-3.322-10.205-5-15.607-5h-.041c-.121-.079-.2-.118-.24-.079"/></g></svg>