<svg xmlns="http://www.w3.org/2000/svg" viewBox="0 0 241.99999 440"><g transform="matrix(1.25,0,0,-1.25,0,445.6538)"><path d="m90.7 326.13c.255-.03.508-.096.763-.222.032-.03.063-.064.063-.16 0-.159-.063-.286-.222-.38-.096-.095-.19-.16-.35-.16-.127 0-.222.065-.287.16-.159.094-.254.221-.254.38 0 .096.095.222.254.352 0 .03 0 .03.032.03m-.159.032c-.064-.032-.127-.063-.159-.16-.191-.125-.286-.319-.286-.605 0-.222.095-.38.286-.54.191-.192.381-.286.572-.286.223 0 .446.094.604.286.16.16.254.318.254.54 0 .191-.031.35-.126.479.254-.096.509-.193.763-.352.508-.286 1.018-.603 1.494-1.017.032-.032.064-.032.096-.032-.605.67-1.209 1.209-1.813 1.624-.605.38-1.209.666-1.845.825-1.018.318-2.1.351-3.277.064l-1.209.159 1.877-1.75v.032l.477-.094c.032.348.191.666.414.889.255.032.509.032.732.032.382 0 .764-.032 1.145-.095" fill="#231f20"/><path d="m91.46 325.91c-.255.126-.509.192-.763.222-.032 0-.032 0-.032-.03-.159-.13-.254-.256-.254-.352 0-.159.095-.286.254-.38.064-.095.16-.16.287-.16.16 0 .254.065.35.16.159.094.222.221.222.38 0 .096-.031.13-.063.16" fill="#fff"/><path d="m90.38 326.01c.032.097.095.127.159.16-.381.063-.764.095-1.145.095-.224-.287-.35-.605-.35-1.018 0-.477.159-.861.477-1.176.35-.349.763-.511 1.24-.511.477 0 .859.162 1.21.511.349.315.509.699.509 1.176 0 .097 0 .191-.032.286-.255.159-.509.256-.763.352.095-.13.126-.288.126-.479 0-.222-.094-.38-.254-.54-.159-.192-.381-.286-.604-.286-.191 0-.381.094-.572.286-.191.16-.286.318-.286.54 0 .286.095.479.286.605" fill="#527688"/><path d="m92.48 325.24c0-.477-.159-.861-.509-1.176-.35-.349-.732-.511-1.21-.511-.477 0-.89.162-1.24.511-.318.315-.477.699-.477 1.176 0 .414.126.731.35 1.018-.224 0-.477 0-.732-.032-.222-.222-.382-.541-.414-.889-.032-.064-.032-.128-.032-.161-.158-1.591.954-2.639 3.34-3.117.954.414 1.75 1.24 2.386 2.449-.476.415-.986.731-1.494 1.017.032-.095.032-.189.032-.286" fill="#fff"/><path d="m88.22 325.18c0 .032 0 .097.032.161l-.477.094v-.032c-.032-2.257 1.368-3.37 4.2-3.404-.16.033-.286.065-.414.065-2.386.477-3.499 1.526-3.34 3.117" fill="#b96351"/><path d="m91.56 322.06c.128 0 .254-.031.414-.065 1.049.542 1.749 1.336 2.162 2.385v.034c-.031 0-.031 0-.063.03-.032 0-.032 0-.032.032-.032 0-.064 0-.096.032-.636-1.209-1.431-2.036-2.386-2.449" fill="#d3d2d2"/><path d="m106 326.42c-.223.033-.477.033-.732.033.255-.287.381-.638.381-1.052 0-.446-.159-.826-.509-1.177-.317-.349-.699-.507-1.176-.507-.477 0-.923.158-1.273.507-.318.351-.477.731-.477 1.177v.286c-.51-.222-1.018-.573-1.495-.984.668-1.209 1.463-2.038 2.418-2.45 2.353.476 3.467 1.528 3.34 3.118 0 .03 0 .094-.032.158-.064.319-.222.605-.445.891" fill="#fff"/><path d="m104 326.33c.032-.033.032-.033.063-.064.128-.095.192-.224.192-.35 0-.16-.063-.255-.192-.349-.063-.097-.191-.161-.381-.161-.126 0-.222.064-.318.161-.127.094-.192.189-.192.349 0 .063.033.126.064.192.223.095.477.188.763.221m1.273.128c.255 0 .509 0 .732-.033.223-.286.381-.572.445-.891l.445.064 1.909 1.782-1.273-.224c-1.145.286-2.227.286-3.276-.032-.604-.19-1.209-.476-1.813-.858-.668-.446-1.273-1.018-1.877-1.686.064.064.127.094.159.128.477.41.986.761 1.495.984.253.16.508.255.795.319-.095-.095-.159-.221-.159-.414 0-.221.094-.414.254-.54.159-.222.35-.32.572-.32.223 0 .414.097.573.32.191.126.286.319.286.54 0 .255-.095.445-.286.606-.032.063-.063.126-.128.158.383.064.764.097 1.146.097" fill="#231f20"/><path d="m104.06 326.26c-.031.03-.031.03-.063.064-.286-.033-.541-.126-.763-.221-.032-.066-.064-.13-.064-.192 0-.16.064-.255.192-.349.096-.097.191-.161.318-.161.191 0 .318.064.381.161.128.094.192.189.192.349 0 .126-.063.255-.192.35" fill="#fff"/><path d="m104.12 326.36c.065-.031.096-.095.128-.158.191-.161.286-.351.286-.606 0-.221-.095-.414-.286-.54-.159-.222-.351-.32-.573-.32-.222 0-.414.097-.572.32-.159.126-.254.319-.254.54 0 .192.063.319.159.414-.287-.064-.542-.159-.795-.319v-.286c0-.446.159-.826.477-1.177.349-.349.795-.507 1.273-.507.477 0 .859.158 1.176.507.35.351.509.731.509 1.177 0 .414-.126.765-.381 1.052-.381 0-.763-.033-1.146-.097" fill="#527688"/><path d="m100.72 324.71c-.032-.034-.096-.065-.159-.128v-.031c.349-1.049 1.081-1.845 2.132-2.354.126.031.286.064.445.064-.955.413-1.75 1.242-2.418 2.45" fill="#d3d2d2"/><path d="m103.14 322.25c-.16 0-.319-.032-.445-.064 2.831.031 4.231 1.144 4.198 3.403l-.445-.064c.032-.064.032-.127.032-.158.127-1.59-.987-2.642-3.34-3.118" fill="#b96351"/></g></svg>