<svg xmlns="http://www.w3.org/2000/svg" viewBox="0 0 241.99999 440"><g transform="matrix(1.25,0,0,-1.25,0,445.6538)"><path d="m85.51 325.37c.014 5.607 1.541 9.649 5.294 14.451 3.435.222 6.776-.606 10.05-2.483l5.471-6.298s1.318-2.741 1.376-4.454c.058-1.713.041-2.119-.148-3.259-1.559-8.113-4.731-13.713-10.585-16.607-2.863 1.305-5.185 3.02-6.966 5.091-1.972 2.321-3.276 5.151-3.913 8.429-.164.761-.28 1.516-.418 2.26-.161 1.051-.166 1.979-.163 2.87" fill="#f9b291"/><g fill="#3a211f"><path d="m106 333.39c-1.941-.16-4.04-.922-6.266-2.292 2.036-.826 4.454-.445 7.251 1.179l1.814-.226-2.799 1.338"/><path d="m85.45 331.1l1.781.193c2.831-1.56 5.28-1.911 7.284-1.051-2.195 1.366-4.262 2.099-6.267 2.194l-2.799-1.337"/></g><path d="m94.33 313.06c.349-.029.668-.029.986-.029h4.613c.318 0 .636 0 .985.029l-1.05-1.525c-.763-.796-1.526-1.242-2.257-1.306-.733.064-1.463.51-2.227 1.306l-1.05 1.525m-1.081.701c-.923.159-1.75.573-2.513 1.242.637-.861 1.495-1.464 2.608-1.782l1.623-2.353c.891-.987 1.781-1.431 2.64-1.369.891-.062 1.781.382 2.672 1.369l1.623 2.353c1.113.318 1.972.921 2.609 1.782-.796-.668-1.623-1.083-2.546-1.242-.127-.064-.255-.127-.413-.157-.127-.034-.223-.066-.318-.066-.541-.127-1.114-.157-1.717-.127h-3.786c-.603-.029-1.177 0-1.717.127-.096 0-.191.031-.319.066-.158.029-.285.093-.444.157" fill="#c95c5d"/><path d="m96.14 311.95l-.827 1.083c-.318 0-.637 0-.986.029l1.05-1.525c.763-.796 1.494-1.242 2.227-1.306.731.064 1.494.51 2.257 1.306l1.05 1.525c-.349-.029-.668-.029-.985-.029l-.764-1.018c-.445-.605-.923-.955-1.399-1.081-.477-.13-1.017.222-1.622 1.016" fill="#dc8675"/><path d="m95.31 313.03l.827-1.083c.605-.794 1.145-1.146 1.622-1.016.477.126.954.476 1.399 1.081l.764 1.018h-4.613" fill="#fff"/><path d="m93.85 313.79c-.128-.031-.255-.062-.382-.095-.063.033-.128.033-.222.064.159-.064.286-.127.444-.157.128-.034.223-.066.319-.066.541-.127 1.114-.157 1.717-.127h3.786c.603-.029 1.176 0 1.717.127.095 0 .191.031.318.066.159.029.286.093.413.157-.063-.03-.127-.03-.19-.064-.16.033-.287.064-.414.095-.159 0-.573.097-1.241.256-.667.222-1.495.318-2.512.286-1.019 0-1.845-.094-2.481-.286-.669-.159-1.082-.256-1.273-.256" fill="#dc8675"/></g></svg>