<svg xmlns="http://www.w3.org/2000/svg" viewBox="0 0 241.99999 440"><g transform="matrix(1.25,0,0,-1.25,0,445.6538)"><path d="m98.5 349.29c-3.881-.38-6.839-2.48-8.875-6.329-.083-1.204-.088-.792-.077-1.824 6.89.526 7.483.947 14.253-1.341-.956 3.223-2.997 7.397-5.3 9.494" fill="#c38d56"/><path d="m101.23 356.29c-.668-.031-1.336-.127-1.972-.255l7.475-18.577c2-3.69 4.803-7.381 8.462-11.04 2.258-2.832 5.948-5.408 11.04-7.762 1.304-.255 2.672-.416 4.072-.51-5.694 2.067-10.624 5.282-14.792 9.637-1.845 4.36-2.864 9.642-3.02 15.875-.733 6.713-3.213 10.307-7.476 10.752 2.958-3.435 4.994-8.398 6.04-14.919.668-3.817 1.845-7.379 3.531-10.688-2.513 2.834-4.739 6.107-6.648 9.862-1.621 6.075-3.498 11.292-5.662 15.651-.35.668-.7 1.335-1.05 1.972" fill="#d6a767"/><path d="m92.45 347.51c-.096-.031-.159-.096-.222-.191-.541-.446-1.019-.954-1.464-1.496.51 2.323 1.336 4.231 2.45 5.727 1.4 1.908 3.276 3.148 5.662 3.753l.413-1.016c-3.37-1.177-5.662-3.435-6.838-6.777m6.807 8.525c-2.768-.571-4.962-1.94-6.552-4.105-1.622-2.193-2.672-5.184-3.086-8.968 2.036 3.849 4.994 5.948 8.875 6.329 2-1.972 3.689-4.899 5.058-8.747.063-.224.126-.478.222-.702l-1.448.439c.792-1.591 4.542-8.708 5.421-10.113l1.054.642c.636-.892 1.304-1.75 1.972-2.544.35-.446.732-.86 1.113-1.273 2.768-2.989 5.885-5.248 9.288-6.742 1.623-.668 3.309-1.212 5.058-1.592-5.09 2.353-8.781 4.93-11.04 7.762-3.659 3.657-6.458 7.348-8.462 11.04l-7.475 18.577" fill="#ebd195"/><path d="m92.23 347.32c.063.095.126.16.222.191 1.176 3.341 3.468 5.599 6.838 6.777l-.413 1.016c-2.386-.605-4.262-1.845-5.662-3.753-1.114-1.496-1.94-3.404-2.45-5.727.445.542.924 1.05 1.464 1.496" fill="#f8ead7"/><path d="m88.95 349.71c-2.036-1.211-3.563-3.213-4.613-6.01l-2.322-9.892c-.668-1.909-1.114-3.785-1.4-5.663v-.031c-.033-.349-.096-.668-.128-1.017-.795-3.658-2.417-7.413-4.898-11.262-.763-.795-1.622-1.526-2.545-2.132 4.485 6.777 7.667 16.03 9.479 27.709v-.033c1.115 6.395 3.658 9.733 7.667 10.08-.478-.572-.89-1.145-1.24-1.748m-1.304-6.266c.095 3.02 1.4 5.916 3.912 8.654-5.122.443-8.366-3.089-9.67-10.594-2.036-13.01-5.725-22.968-11.1-29.805l1.749.954c5.03 2.831 7.92 7.983 8.716 15.397.731 4.995 2.862 10.117 6.394 15.396" fill="#ebd195"/><path d="m92.71 351.93c-.414.067-.796.127-1.146.162-2.513-2.738-3.818-5.632-3.912-8.654-3.531-5.279-5.663-10.401-6.394-15.396-.796-7.414-3.691-12.566-8.716-15.397l2.989 1.592c2.641 1.875 4.677 3.848 6.04 5.978.175 2.416-.94 4.586.11 6.88.664 1.207 1.614 1.198 2.749.189.158 5.473 1.668 12.342 5.188 15.678.414 3.784 1.464 6.774 3.086 8.968" fill="#d6a767"/><path d="m84.34 343.69c1.05 2.8 2.577 4.803 4.613 6.01.35.604.762 1.176 1.24 1.748-4.01-.351-6.552-3.688-7.667-10.08v.033c-1.813-11.676-4.994-20.932-9.479-27.709.923.606 1.782 1.337 2.545 2.132 2.481 3.849 4.104 7.604 4.898 11.262.032.349.095.668.128 1.017v.031c.286 1.878.732 3.754 1.4 5.663l2.322 9.892" fill="#f8ead7"/><path d="m115.51 327.79c-1.845 4.36-2.864 9.642-3.02 15.875-.733 6.713-3.213 10.307-7.476 10.752 2.958-3.435 4.994-8.398 6.04-14.919.668-3.817 1.845-7.379 3.531-10.688z" fill="#d6a767"/><path d="m105.02 354.41c-.859.096-1.75.063-2.736-.095 2.164-4.359 4.04-9.576 5.662-15.651 1.909-3.755 4.136-7.03 6.648-9.862-1.686 3.309-2.863 6.872-3.531 10.688-1.05 6.522-3.085 11.484-6.04 14.919" fill="#ebd195"/><path d="m103.78 339.84c-.096.224-.16.478-.222.702-4.421 3.277-9.07 4.104-13.933 2.418-3.944-3.469-5.631-9.798-5.09-18.991.572 5.724 2.736 11.01 6.489 15.809 3.435.222 6.776-.606 10.05-2.483l5.471-6.296 3.055-6.397-.795 6.205c-1.845 2.609-3.531 5.629-5.03 9.03" fill="#cb7054"/><path d="m84.53 323.97c.572 5.724 2.736 11.01 6.489 15.809 3.435.222 6.776-.606 10.05-2.483l5.471-6.298 3.055-6.395-.112-1.584c-.461-.286-.985-.521-1.574-.704-1.559-8.113-5.249-13.648-11.1-16.543-2.863 1.305-5.185 3.02-6.966 5.091-1.972 2.321-3.276 5.151-3.913 8.429-.224.986-.35 2.036-.414 3.118l-.986 1.559" fill="#f9b291"/><path fill="#cb7054" d="m109.48 323.02c-.461-.286-.985-.521-1.574-.704-1.559-8.113-5.249-13.648-11.1-16.543.414-.189.827-.38 1.241-.541 2.768 1.368 5.03 3.054 6.744 5.02 2.64 3.02 4.04 6.745 4.262 11.166"/></g></svg>