<svg xmlns="http://www.w3.org/2000/svg" viewBox="0 0 242.00001 440"><g fill="#f9b291"><path d="m105.58 33.07c-.159.281-.32.52-.48.8"/><path d="m105.1 33.869c-.422-.655-1.676-2.573-1.676-2.573 0 0-1.01 2.429-.605 5.935.36 3.562 1.281 5.561 2.761 5.922-.36-1.64-.36-3.281 0-4.924z"/><path d="m136.37 40.957c.132-.026.257-.059.377-.099.479-.158.865-.419 1.183-.782.637-.727.933-1.877 1.151-3.404.046-1.641-1.138-4.738-1.138-4.738 0 0-.864 2.25-.962 3.696 0 .201.007 1.124.007 1.324z"/></g><g fill="#cb7054"><path d="m105.58 38.23c-.36 1.643-.36 3.284 0 4.924.28.08.601.08.96.041-.439-1.561-.76-3.202-.96-4.965"/><path d="m139.55 36.951c-.182-1.82-1.079-3.524-1.079-3.524 0 0 .624 2.145.61 3.245-.282 1.53-.519 2.678-1.156 3.405-.318.364-.704.625-1.183.782-.12.039-.245.072-.377.099l-.538 1.716c2.322 1.403 3.563-.478 3.723-5.723"/></g></svg>