<?xml version="1.0" encoding="UTF-8" standalone="no"?>
<!-- Created with Inkscape (http://www.inkscape.org/) -->

<svg
   xmlns:dc="http://purl.org/dc/elements/1.1/"
   xmlns:cc="http://creativecommons.org/ns#"
   xmlns:rdf="http://www.w3.org/1999/02/22-rdf-syntax-ns#"
   xmlns:svg="http://www.w3.org/2000/svg"
   xmlns="http://www.w3.org/2000/svg"
   version="1.1"
   width="3600"
   height="3600"
   viewBox="0 0 3600 3600"
   id="svg2">
  <defs
     id="defs4">
    <filter
       color-interpolation-filters="sRGB"
       id="filter3947">
      <feGaussianBlur
         id="feGaussianBlur3949"
         stdDeviation="3" />
    </filter>
  </defs>
  <g
     transform="translate(1500,1047.6378)"
     id="layer1">
    <path
       d="m 0,0 0,3600 3600,0 L 3600,0 0,0 z m 1800,1550 c 138.0712,0 250,111.9288 250,250 0,138.0712 -111.9288,250 -250,250 -138.0712,0 -250,-111.9288 -250,-250 0,-138.0712 111.9288,-250 250,-250 z"
       transform="translate(-1500,-1047.6378)"
       id="rect3941"
       style="fill:#000000;fill-opacity:1" />
    <path
       d="m 1500.5625,1500.5625 0,598.875 598.875,0 0,-598.875 -598.875,0 z M 1800,1650 c 82.8427,0 150,67.1573 150,150 0,82.8427 -67.1573,150 -150,150 -82.8427,0 -150,-67.1573 -150,-150 0,-82.8427 67.1573,-150 150,-150 z"
       transform="translate(-1500,-1047.6378)"
       id="rect2985"
       style="fill:#000000;fill-opacity:1;fill-rule:evenodd;stroke:#000000;stroke-width:1.12195194px;stroke-linecap:butt;stroke-linejoin:miter;stroke-opacity:1;filter:url(#filter3947)" />
  </g>
</svg>
