<?xml version="1.0" encoding="UTF-8" standalone="no"?>
<svg
   xmlns:dc="http://purl.org/dc/elements/1.1/"
   xmlns:cc="http://creativecommons.org/ns#"
   xmlns:rdf="http://www.w3.org/1999/02/22-rdf-syntax-ns#"
   xmlns:svg="http://www.w3.org/2000/svg"
   xmlns="http://www.w3.org/2000/svg"
   id="svg2"
   viewBox="0 0 3600 3600"
   height="3600"
   width="3600"
   version="1.1">
  <defs>
    <filter id="filter4156">
      <feGaussianBlur
         id="feGaussianBlur4158"
         stdDeviation="12" />
    </filter>
  </defs>
  <g>
    <path
       style="fill:#000000;fill-opacity:1"
       id="rect3941"
       d="m 0,0 0,3600 3600,0 L 3600,0 0,0 Z m 1800,1550 c 138.0712,0 250,111.9288 250,250 0,138.0712 -111.9288,250 -250,250 -138.0712,0 -250,-111.9288 -250,-250 0,-138.0712 111.9288,-250 250,-250 z" />
    <path
       style="fill:#000000;fill-opacity:1;fill-rule:evenodd;filter:url(#filter4156)"
       id="rect2985"
       d="m 1500.5625,1500.5625 0,598.875 598.875,0 0,-598.875 -598.875,0 z M 1800,1650 c 82.8427,0 150,67.1573 150,150 0,82.8427 -67.1573,150 -150,150 -82.8427,0 -150,-67.1573 -150,-150 0,-82.8427 67.1573,-150 150,-150 z"
       transform="matrix(1.04,0,0,1.04,-72,-72)" />
  </g>
</svg>
