<svg xmlns="http://www.w3.org/2000/svg" viewBox="0 0 259.48 1001.3"><g transform="translate(-120.64733,-33.97341)"><path d="m373.77 260.05c-3.897 23.398-5.504 26.482-8.876 51.757-3.278 17.47.254 47.958-3.02 65.43-8.146 18.356-18.725 55.09-25.534 69.21 2.446 7.837-.39 2.093 4.996 15.326 1.865 6.102 1.873 6.688 4.945 13.15 4.894 9.06 7.241 19.424 8.773 28.649 2.332 18.17 3.335 35.17-3.212 52.28-4.652 11.927-16.266 19.582-17.233 33.08 1.531 15.242.826 47.549-1.559 66.38-1.283 15.638-4.352 31.02-7.403 46.4-.805 5.04 2.075 30.03 4.225 34.987 2.579 9.348 3.238 12.597 4.661 17.82 2.027 7.096 6.04 17.83 8.318 25.541.578 3.107 1.165 6.224 1.753 9.322 3.508 14.158 3.073 31.06.957 45.948-1.298 12.761-2.586 25.532-3.884 38.28-4.263 20.02-7.797 42.2-11.586 61.788-3.117 16.17 7.06 28.05 10.222 41.874 2.065 9.05-.597 20.359-2.17 27.313-1.497 6.641.085 13.03-4.727 16.475-8.204 5.864-22.945 5.286-37.3 5.438-11.71 3.273-8.274 2.201-19.03 6.347-8.564 1.331-17.05 1.431-25.604 1.602-13.898.275-27.787.578-41.675.853-6.243-1.449-13.696-2.483-19.09-4.766-3.932-1.648-8.268-3.372-9.989-6.706.035-4.605 6.197-4.095 8.432-6.783-.001-.398-.001-.786-.019-1.165-5.362-2.823-14.722-4.784-18.502-9.36.114-.398.237-.786.36-1.184 1.307-2.577 2.602-2.659 4.876-4.25 12.35-4.489 15.938 1.664 27.742-1.112 5.826-1.412 11.634-2.842 17.451-4.254 21-6.196 31.24-28.336 44.32-42.604 1.01-8.05 3.527-15.781 4.197-23.08 3.107-16.645 3.231-44.2-.578-65.45-.436-8.29-.862-16.598-1.298-24.916-3.913-20.918-3.212-45-7.92-62.18-2.302-12.285-1.921-13.506-6.707-23.618-2.766-6.05-2.056-15.253-5.495-20.53-1.222-1.895-1.949-3.505-2.754-6.537-2.312-8.687-4.04-17.82-5.355-27.588-.123-5.959-.246-11.946-.379-17.924-4.529-17.82-9.05-35.669-13.576-53.49-3.101-13.595-3.344-25.936-2.666-40.794 1.952-89.1-10.888-77.91-7.619-141.01.562-35.05.767-41.977 2.516-61.949 1.137-2.709 4.216-29.03 3.591-33.575-.671-3.431-2.46-4.156-4.554-7.84-6.225-8.461-16.307-32.18-11.807-48.32 3.714-13.32 11.278-18.493 20.551-28.7 14.689-14.325 19.417-21.529 30.27-38.98 1.753-3.543 3.496-7.086 5.239-10.62 3.951-3.799 12.13-5.41 13.794-11.198 2.217-7.693-6.414-30.818-9.332-36.825-5.741-11.842-22.728-4.765-28.31-12.269-.322-.369-1.601-4.282-1.847-9.569-.076-1.81 1.184-2.387.976-6.12-.142-1.516-1.393-3.221-1.857-4.538-.777-2.245 1.535-2.558 1.089-4.424-1.137-.843-1.232-3.316-1.213-3.581.332-2.596 1.023-4.187 1.364-6.802-1.781-4.472-8.318-3.553-8.811-10.724 3.363-6.66 10.847-10.251 15.253-15.897 0-.256-.001-.521-.001-.786 2.075-3.401.426-6.632 1.326-10.933.947-4.491 4.614-7.02 5.201-12.572-1.165-1.961-3.818-5.211-4.434-6.916-3.155-8.801 10.904-25.683 16.589-26.839 7.405-1.395 10.02-2.781 21.72-1.641 18.02-.339 37.33.679 52.801 6.728 14.243 5.627 19.336 12.562 24.17 19.364 4.49 5.77 7.103 13.826 8.327 25.939.606 4.14 1.213 8.29 1.81 12.43.681 7.567 1.809 15.287 2.152 20.471 1.19 11.651-2.149 19.889-.668 40.478 1.58 22.65 7.133 29.12 8.771 49.1 1.251 28.3-3.144 31.398-6.133 51.14z" fill-rule="evenodd" stroke-opacity=".496" stroke="#fff" stroke-width="5"/><path d="m253.57 44.07v988.24" stroke-linecap="square" stroke-width="5.999" stroke="#ff2020" fill="#f00"/></g></svg>